<svg width="146" height="50" viewBox="0 0 146 50" fill="none" xmlns="http://www.w3.org/2000/svg">
<path fill-rule="evenodd" clip-rule="evenodd" d="M21.6091 0.010646C20.7879 0.0988678 19.9644 0.502238 19.3547 1.11479C19.0714 1.3997 18.7349 1.8623 18.7349 1.96727C18.7349 1.99901 18.7186 2.025 18.6985 2.025C18.6784 2.025 18.6513 2.05774 18.6384 2.09798C18.6253 2.13796 18.5583 2.33015 18.489 2.52484C18.3427 2.93671 18.268 3.45104 18.2873 3.91414L18.3007 4.24154L14.3929 6.51131C10.1257 8.99002 10.357 8.85581 9.95379 9.08849C9.79798 9.17821 9.61189 9.28742 9.54018 9.33091C9.46847 9.37415 9.30744 9.46587 9.18239 9.5346C9.05734 9.60307 8.92708 9.68105 8.89309 9.70779C8.85885 9.73453 8.78441 9.77952 8.72759 9.80776C8.67077 9.836 8.58691 9.88198 8.54151 9.90972C8.4961 9.93746 8.31919 10.0407 8.14874 10.1391C7.97803 10.2376 7.77333 10.3573 7.69368 10.4053C7.61404 10.4533 7.44656 10.5488 7.32151 10.6175C7.19646 10.686 7.0662 10.763 7.03221 10.7884C6.99797 10.8139 6.92576 10.8599 6.87142 10.8907C6.59824 11.0456 6.46277 11.1238 6.34988 11.1923C6.0045 11.4017 5.90724 11.4162 5.79162 11.2763C5.7802 11.2625 5.72438 11.2243 5.66756 11.1913C3.54615 9.96121 0.902696 10.9179 0.196304 13.1712C-0.241872 14.5692 0.0605839 15.9508 1.03271 16.991C1.20118 17.1714 1.7066 17.5618 1.7716 17.5618C1.79542 17.5618 1.82098 17.5773 1.82842 17.5963C1.83612 17.6153 1.94926 17.6815 2.08002 17.7432L2.31796 17.8557V25.0171V32.1786L2.05942 32.2995C-0.828423 33.6514 -0.610575 38.0262 2.40058 39.1559C3.33599 39.507 4.94528 39.396 5.46385 38.9449C5.49983 38.9137 5.543 38.8882 5.55987 38.8882C5.57674 38.8882 5.67177 38.832 5.77077 38.7632C5.87002 38.6945 5.9643 38.6383 5.98018 38.6383C6.01194 38.6383 8.90053 40.306 8.93427 40.344C8.94569 40.3567 9.01095 40.3952 9.07918 40.4294C9.14741 40.4637 9.34268 40.5741 9.51339 40.6749C9.93246 40.9223 10.0731 41.003 10.3404 41.1495C10.4654 41.2179 10.5957 41.2949 10.6299 41.3204C10.6639 41.3456 10.7364 41.3916 10.7907 41.4226C10.8448 41.4534 10.9564 41.5173 11.0388 41.5648C11.1209 41.6121 11.2346 41.677 11.2914 41.7088C11.3485 41.7405 11.4693 41.8128 11.5604 41.8692C11.6512 41.9257 11.7628 41.9902 11.8085 42.0122C11.8539 42.0342 11.9655 42.0987 12.0566 42.1551C12.1474 42.2116 12.2685 42.2838 12.3253 42.3156C12.3821 42.3473 12.496 42.4123 12.5781 42.4595C12.6603 42.507 12.7719 42.571 12.8263 42.6018C12.8806 42.6327 12.9528 42.6787 12.987 42.704C13.021 42.7295 13.1513 42.8064 13.2763 42.8749C13.4014 42.9436 13.5689 43.0391 13.6485 43.0871C13.7282 43.1351 13.9329 43.2548 14.1036 43.3528C14.274 43.451 14.4621 43.5597 14.5214 43.5944C15.3697 44.092 15.6719 44.2615 15.7109 44.2615C15.7367 44.2615 15.7575 44.2772 15.7575 44.2965C15.7575 44.3157 15.7995 44.3524 15.8506 44.3782C15.9828 44.4444 16.3088 44.6318 17.3703 45.2514L18.3007 45.7945L18.2878 46.1006C18.2553 46.8606 18.5213 47.8743 18.8709 48.3227C18.8888 48.3457 18.9498 48.4299 19.0064 48.5101C19.1289 48.6833 19.6865 49.2599 19.7316 49.2599C19.7487 49.2599 19.7875 49.2844 19.8175 49.3146C20.5053 50.0021 22.2887 50.2188 23.408 49.7507C24.8667 49.1407 25.8651 47.5282 25.6994 46.0499C25.6716 45.8022 25.6872 45.7792 25.9924 45.6133C26.3063 45.4428 26.6573 45.2414 26.6747 45.2219C26.6983 45.1957 26.8015 45.1354 27.1298 44.9567C27.2548 44.8888 27.3851 44.8105 27.4191 44.7831C27.4533 44.7558 27.5416 44.7093 27.6156 44.6798C27.6895 44.6503 27.7501 44.6119 27.7501 44.5946C27.7501 44.5771 27.7826 44.5519 27.8223 44.5389C27.8622 44.5256 27.9691 44.4676 28.0602 44.4097C28.151 44.3519 28.2954 44.2742 28.3805 44.237C28.4659 44.1995 28.5356 44.156 28.5356 44.1398C28.5356 44.1235 28.6009 44.0848 28.6805 44.0533C28.7599 44.0218 28.8252 43.9853 28.8252 43.9723C28.8252 43.9593 28.8857 43.9218 28.9596 43.8891C29.0336 43.8563 29.1906 43.7674 29.309 43.6914C29.4273 43.6154 29.5437 43.5534 29.5675 43.5534C29.5913 43.5534 29.6109 43.5382 29.6109 43.5195C29.6109 43.501 29.6759 43.46 29.7556 43.4285C29.8352 43.397 29.9002 43.356 29.9002 43.3373C29.9002 43.3188 29.9174 43.3035 29.9382 43.3035C29.959 43.3035 30.1178 43.2191 30.291 43.1161C30.464 43.0129 30.6158 42.9286 30.628 42.9286C30.6404 42.9286 30.7282 42.8754 30.8232 42.8107C30.9183 42.7457 31.1451 42.61 31.3269 42.5088C31.509 42.4076 31.6887 42.3061 31.7266 42.2831C31.7644 42.2601 31.941 42.1569 32.1194 42.0539C32.2976 41.951 32.4757 41.848 32.5152 41.825C34.6574 40.5737 38.0028 38.6383 38.0234 38.6383C38.0388 38.6383 38.1574 38.7107 38.2869 38.7992C39.4183 39.5725 41.3707 39.5535 42.3645 38.7597C43.3326 37.9865 43.6946 37.4399 43.9199 36.4117C44.0509 35.8142 43.9921 34.8387 43.7993 34.4104C43.7787 34.3646 43.7378 34.2614 43.708 34.1814C43.4376 33.4504 42.6905 32.6534 41.9479 32.3038L41.6859 32.1803V25.0156C41.6859 18.2303 41.6898 17.8492 41.7583 17.8229C42.4979 17.5385 43.2879 16.767 43.6353 15.9895C43.7045 15.8348 43.7782 15.6706 43.7991 15.6249C43.8199 15.5789 43.874 15.3647 43.9194 15.1488C44.3385 13.1509 43.082 11.1733 41.107 10.7225C40.6343 10.6145 39.2225 10.6837 39.1397 10.8187C39.1273 10.8389 39.0831 10.8554 39.0417 10.8554C38.9647 10.8554 38.2502 11.2126 38.2122 11.2698C38.1177 11.4135 37.9797 11.4025 37.716 11.2306C37.6214 11.1688 36.7327 10.6537 36.4754 10.5113C36.3503 10.4423 36.2201 10.3648 36.1861 10.3393C36.1518 10.3141 36.0796 10.2681 36.0253 10.2371C35.796 10.1072 35.6154 10.0032 35.4209 9.88923C35.3072 9.8225 35.1817 9.75752 35.1417 9.74453C35.102 9.73178 35.0695 9.70804 35.0695 9.69204C35.0695 9.67605 35.0043 9.63731 34.9246 9.60582C34.845 9.57433 34.78 9.53559 34.78 9.5196C34.78 9.50361 34.7475 9.47986 34.7075 9.46686C34.6678 9.45362 34.5609 9.39589 34.4698 9.33866C34.3788 9.28118 34.2393 9.2017 34.1597 9.16197C34.08 9.12223 34.0056 9.07924 33.9942 9.06649C33.9828 9.05375 33.9178 9.01551 33.8495 8.98102C33.7813 8.94678 33.7163 8.90929 33.7049 8.8978C33.6935 8.8863 33.6282 8.84906 33.56 8.81532C33.4918 8.78133 33.3801 8.71486 33.3119 8.66737C33.2436 8.61989 33.132 8.55416 33.0637 8.52092C32.9955 8.48768 32.9305 8.45119 32.9191 8.4397C32.9077 8.4282 32.8427 8.39071 32.7744 8.35622C32.7062 8.32198 32.641 8.28374 32.6295 8.27125C32.5943 8.23251 31.9177 7.85638 31.8832 7.85638C31.8653 7.85638 31.8445 7.84164 31.8371 7.82364C31.8232 7.79065 31.6284 7.67194 31.2443 7.46226C31.1307 7.40003 29.8372 6.64952 28.3704 5.79429L25.7031 4.23954L25.7125 4.01736C25.7495 3.14389 25.5207 2.31916 25.0386 1.58664C24.9017 1.37846 24.3317 0.7754 24.2722 0.7754C24.2551 0.7754 24.2164 0.751908 24.1863 0.723167C24.0913 0.632696 23.8085 0.461 23.5941 0.363532C23.4802 0.311798 23.3564 0.253068 23.3187 0.232825C23.0507 0.0896207 22.0652 -0.0383383 21.6091 0.010646ZM22.8165 0.864123C24.2769 1.31748 25.1567 2.71478 24.9245 4.2118C24.8925 4.41798 24.8724 4.59768 24.8798 4.61142C24.8977 4.64366 25.4927 4.9978 25.9924 5.27371C26.1289 5.34894 26.2685 5.43141 26.3025 5.4569C26.3368 5.48214 26.409 5.52813 26.4633 5.55912C26.5177 5.58986 26.6293 5.65384 26.7114 5.70132C26.7936 5.74856 26.9074 5.81354 26.9643 5.84528C27.0211 5.87702 27.1422 5.94924 27.233 6.00572C27.324 6.06221 27.4357 6.12669 27.4811 6.14868C27.5267 6.17067 27.6384 6.23515 27.7292 6.29163C27.8203 6.34811 27.9414 6.42034 27.9982 6.45208C28.055 6.48382 28.1686 6.5488 28.2508 6.59604C28.3331 6.64352 28.4448 6.7075 28.4989 6.73824C28.5532 6.76923 28.6257 6.81521 28.6597 6.84046C28.6939 6.86595 28.8242 6.94293 28.9492 7.0114C29.1988 7.14836 29.3139 7.21434 29.7762 7.48725C29.9469 7.58797 30.1422 7.69793 30.2104 7.73192C30.2786 7.76616 30.3439 7.8044 30.3553 7.81739C30.3982 7.86613 31.3356 8.39796 31.3785 8.39796C31.4033 8.39796 31.4296 8.41345 31.4373 8.4322C31.4535 8.47243 38.0693 12.3135 38.1221 12.3135C38.142 12.3135 38.1936 12.2735 38.237 12.2245C39.3161 11.0071 41.5266 11.1573 42.6163 12.5221C43.8688 14.0906 43.1535 16.6098 41.2931 17.1834C41.202 17.2114 41.0857 17.2549 41.0345 17.2801L40.9412 17.3258L40.9519 25.0331L40.9623 32.7404L41.2725 32.8466C43.0639 33.4599 43.8102 35.6037 42.8031 37.243C42.5208 37.7023 41.931 38.2264 41.5516 38.3549C41.4777 38.3799 41.3985 38.4148 41.3757 38.4326C41.2643 38.5191 40.6341 38.6383 40.2889 38.6383C39.5483 38.6383 38.7523 38.3254 38.3209 37.8645C38.1886 37.7236 37.9229 37.6793 37.9229 37.7983C37.9229 37.8138 37.8624 37.853 37.7884 37.8855C37.7145 37.9178 37.6448 37.9567 37.6333 37.9717C37.6219 37.9867 37.5103 38.0537 37.3852 38.1207C37.2602 38.1874 37.1485 38.2514 37.1371 38.2631C37.1257 38.2749 37.0607 38.3124 36.9925 38.3466C36.9242 38.3811 36.859 38.4198 36.8476 38.4328C36.8361 38.4461 36.6781 38.5398 36.4962 38.641C36.3141 38.7425 36.1345 38.8442 36.0967 38.8672C35.8181 39.0376 25.1203 45.2524 24.9657 45.3339C24.8776 45.3804 24.854 45.4176 24.8699 45.4846C25.5959 48.5079 22.0481 50.5597 19.8793 48.3706C19.1878 47.6729 18.8555 46.4785 19.1069 45.5955C19.1557 45.4241 19.1332 45.3759 18.9721 45.3066C18.8987 45.2749 18.8104 45.2262 18.7764 45.1984C18.7421 45.1707 18.6121 45.0922 18.4868 45.024C18.1514 44.8415 18.0618 44.7875 18.0022 44.7328C17.973 44.7056 17.907 44.6706 17.8561 44.6548C17.805 44.6391 17.7375 44.6051 17.7062 44.5791C17.6447 44.5286 17.2504 44.2967 17.081 44.2112C17.0242 44.1825 16.9683 44.148 16.9569 44.1343C16.9455 44.1208 16.7872 44.0268 16.6053 43.9253C16.4235 43.8241 16.2436 43.7224 16.2059 43.6994C16.1679 43.6764 15.9912 43.5732 15.8129 43.4702C15.6347 43.3673 15.4566 43.264 15.4169 43.241C13.0262 41.8515 6.26453 37.9185 6.12806 37.8383C5.91493 37.7128 5.81221 37.6953 5.76258 37.7755C5.49362 38.2117 4.47262 38.6383 3.69799 38.6383C0.67145 38.6383 -0.371638 34.5808 2.26065 33.0466C2.51943 32.8959 2.54226 32.8866 2.84521 32.8076L3.02113 32.7619L3.01071 25.0264L3.00029 17.2911L2.74448 17.2029C1.88996 16.908 1.05926 16.053 0.887313 15.2915C0.87193 15.2228 0.838433 15.1403 0.813125 15.1081C0.714374 14.9828 0.758788 13.786 0.874411 13.4576C1.3173 12.198 2.42366 11.389 3.7032 11.389C4.09126 11.389 4.68997 11.5047 4.81974 11.6049C4.84256 11.6224 4.90409 11.6499 4.95645 11.6662C5.08795 11.7069 5.53307 12.0081 5.70874 12.175C5.78839 12.2507 5.86779 12.3127 5.88516 12.313C5.90252 12.3132 6.69824 11.8588 7.653 11.3033C8.608 10.7477 9.42183 10.2744 9.46152 10.2514C10.0478 9.91272 10.1927 9.8285 10.251 9.79326C10.2888 9.77027 10.4592 9.6708 10.6299 9.57258C10.8004 9.47411 11.0051 9.3544 11.0847 9.30617C11.1644 9.25818 11.3318 9.16271 11.4569 9.09423C11.5819 9.02551 11.7122 8.94753 11.7464 8.92079C11.7804 8.89405 11.8549 8.84981 11.9117 8.82232C11.9688 8.79458 12.071 8.73735 12.1392 8.69511C12.4469 8.50367 12.5623 8.43769 12.696 8.37671C12.7749 8.34072 12.8493 8.29799 12.8615 8.28175C12.8853 8.24976 12.9667 8.20127 13.3178 8.01033C13.4428 7.94211 13.5731 7.86488 13.6073 7.83839C13.6413 7.8119 13.7252 7.76316 13.7934 7.72967C13.8617 7.69643 13.9267 7.65969 13.9381 7.6482C13.9597 7.62646 14.0301 7.58522 14.3485 7.40827C14.4524 7.35054 14.5842 7.27232 14.641 7.23458C14.6981 7.19709 14.8003 7.13886 14.8685 7.10537C14.9367 7.07188 15.0018 7.03489 15.0132 7.0234C15.0246 7.0119 15.0804 6.97591 15.1372 6.94317C15.7856 6.57029 16.0215 6.44034 16.0488 6.44034C16.0669 6.44034 16.0878 6.42559 16.0952 6.40735C16.1091 6.37436 16.3078 6.25339 16.688 6.04621C17.7437 5.4714 19.127 4.61492 19.1173 4.54219C19.0146 3.76694 19.0121 3.71496 19.059 3.35932C19.2984 1.54765 21.1203 0.337541 22.8165 0.864123ZM16.9981 7.41727C15.4856 8.29599 14.2286 9.03101 14.2046 9.05025C14.1805 9.06949 14.0874 9.12423 13.9976 9.17196C13.7046 9.32766 13.4215 9.49311 13.4004 9.52085C13.389 9.53584 13.3193 9.57283 13.2453 9.60282C13.1714 9.63306 13.1111 9.66955 13.1111 9.68404C13.1111 9.69854 13.0506 9.73703 12.9766 9.76927C12.9027 9.80151 12.6766 9.92797 12.4742 10.0502C12.2717 10.1724 12.0918 10.2724 12.0745 10.2724C12.0571 10.2724 12.0365 10.2864 12.0291 10.3036C12.0214 10.3208 11.8941 10.3981 11.7464 10.4755C11.5986 10.5528 11.4497 10.637 11.4155 10.663C11.3815 10.6887 11.309 10.735 11.2547 10.7657C11.2006 10.7964 11.0889 10.8604 11.0066 10.9079C10.9244 10.9554 10.8108 11.0201 10.754 11.0519C10.6972 11.0838 10.5947 11.1438 10.5264 11.1851C10.4136 11.2535 10.2781 11.332 10.0049 11.4867C9.95057 11.5177 9.87812 11.5637 9.84412 11.5889C9.80989 11.6144 9.67962 11.6909 9.55457 11.7591C9.23326 11.9341 9.1293 11.9943 9.05833 12.0473C9.02434 12.0725 8.89408 12.1495 8.76903 12.2182C8.64373 12.2867 8.48295 12.3784 8.41125 12.4219C8.28049 12.5011 7.82271 12.7666 7.59047 12.8978C7.41877 12.9947 6.74191 13.3939 6.631 13.4633C6.54168 13.5196 6.54118 13.5243 6.60618 13.7395C6.696 14.0379 6.69451 14.7642 6.60345 15.0326C6.48609 15.3787 6.41092 15.3132 7.95223 16.209C9.40148 17.0512 10.3014 17.5728 10.6277 17.7597C10.7289 17.8177 10.9056 17.9214 11.0205 17.9899C11.1353 18.0586 11.2852 18.1463 11.3534 18.1851C11.5981 18.3235 12.0464 18.5837 12.1742 18.6612C12.2459 18.7047 12.4069 18.7961 12.532 18.8649C12.657 18.9333 12.7873 19.0103 12.8215 19.0358C12.8555 19.0613 12.928 19.1073 12.9823 19.138C13.0367 19.1688 13.1483 19.2327 13.2304 19.2802C13.3126 19.3277 13.4324 19.3962 13.4969 19.4324C13.5614 19.4689 13.6535 19.5209 13.7014 19.5481C13.7974 19.6026 13.82 19.5939 14.0254 19.4252C14.4378 19.087 15.4633 18.6044 15.7732 18.6027C16.0267 18.6014 16.3366 18.2843 16.3366 18.0259C16.3366 18.0036 16.3505 17.9789 16.3676 17.9714C16.3845 17.9636 16.4433 17.8729 16.4981 17.77C16.716 17.3603 17.1653 16.8183 17.6211 16.4154C17.9181 16.153 18.5317 15.7941 19.0865 15.5587C19.6197 15.3322 20.5435 15.1685 21.0819 15.205L21.4647 15.2308L21.4541 10.9526L21.4436 6.67451L21.2161 6.61803C20.8238 6.52031 20.2145 6.17992 19.9733 5.924C19.8237 5.7653 19.952 5.70107 16.9981 7.41727ZM23.8648 6.04396C23.5586 6.29888 23.1656 6.50881 22.8083 6.60853L22.5602 6.67776L22.5497 11.0993C22.5403 15.0298 22.546 15.5207 22.6019 15.5207C22.6363 15.5207 22.6969 15.5387 22.7366 15.5609C22.776 15.5829 22.9013 15.6416 23.015 15.6911C23.3207 15.8243 23.8658 16.1467 24.0052 16.2764C24.2392 16.4944 24.2821 16.5021 24.6156 16.3849C25.3279 16.1345 25.3736 16.1267 26.1164 16.1267C26.8499 16.1267 26.9226 16.1387 27.564 16.3662C27.8885 16.4811 28.4989 16.8313 28.7041 17.0202C29.3072 17.575 29.57 17.9017 29.8298 18.419C29.9633 18.6852 30.1891 19.343 30.1896 19.4674C30.1898 19.5746 30.2913 19.5931 30.3933 19.5044C30.4292 19.4732 30.7657 19.2707 31.1408 19.054C31.5162 18.8376 33.0938 17.9237 34.6465 17.0227L37.4696 15.385L37.4428 15.234C37.4279 15.1513 37.4011 15.0548 37.3835 15.0201C37.3656 14.9853 37.3391 14.8072 37.3239 14.6245C37.2999 14.3301 37.318 14.1179 37.41 13.622L37.4339 13.4936L35.7935 12.5389C34.8911 12.014 34.0567 11.5305 33.9394 11.4642C33.686 11.3218 32.8166 10.8137 32.5338 10.6427C32.4244 10.5765 32.3174 10.5223 32.2961 10.5223C32.2747 10.5223 32.2574 10.508 32.2574 10.4908C32.2574 10.4735 32.1971 10.4331 32.1231 10.4011C32.0492 10.3688 31.9423 10.3106 31.8852 10.2719C31.8284 10.2329 31.6966 10.1536 31.5927 10.0957C31.2651 9.91372 31.2036 9.87723 31.1823 9.85374C31.1709 9.84099 31.0964 9.79776 31.0168 9.75777C30.9371 9.71753 30.7977 9.63981 30.7066 9.58508C30.6158 9.5301 30.5042 9.46586 30.4585 9.44212C30.4131 9.41838 30.3015 9.35165 30.2104 9.29392C30.1196 9.23619 29.9893 9.16021 29.9211 9.12547C29.804 9.06549 29.7147 9.01301 29.3938 8.81482C29.3199 8.76909 29.213 8.70936 29.1559 8.68187C29.0991 8.65438 29.0246 8.60989 28.9906 8.58315C28.9564 8.55641 28.8261 8.47893 28.7011 8.4107C28.3798 8.23576 28.2758 8.17553 28.2049 8.12255C28.1706 8.0973 28.0406 8.02033 27.9153 7.9516C27.7902 7.88312 27.6228 7.78765 27.5431 7.73967C27.4635 7.69143 27.259 7.57197 27.0883 7.47375C26.9179 7.37579 26.7293 7.26707 26.6698 7.23233C26.6102 7.19759 26.0388 6.8647 25.3999 6.49232C24.0687 5.71657 24.2089 5.7573 23.8648 6.04396ZM19.8929 6.82421C19.9725 6.8747 20.0748 6.93868 20.1204 6.96617C20.2581 7.04939 20.6449 7.23158 20.6837 7.23158C20.7042 7.23158 20.7199 8.79933 20.7199 10.8554V14.4793L20.5236 14.4815C19.6068 14.4923 17.8075 15.1708 17.3291 15.6864C17.3177 15.6986 17.242 15.7583 17.1609 15.8191C16.8674 16.0393 16.483 16.4636 16.0545 17.0409C15.9989 17.1157 15.6476 17.7475 15.6228 17.8172C15.6084 17.8574 15.5092 17.9064 15.3781 17.9379C14.9353 18.0441 14.3256 18.3095 13.8939 18.5839L13.7249 18.6914L10.7257 16.9497C9.0762 15.992 7.64506 15.1625 7.54531 15.1066L7.36419 15.0051L7.39421 14.7734C7.42771 14.5162 7.43019 14.3398 7.40364 14.0679L7.38602 13.8855L10.4657 12.097C12.1593 11.1133 13.7778 10.1749 14.0621 10.0114C14.3465 9.84824 14.5884 9.70404 14.5998 9.69154C14.611 9.6788 14.6948 9.62856 14.7859 9.58008C15.0635 9.43138 15.3635 9.25818 15.3853 9.23344C15.3968 9.2207 15.462 9.18196 15.5302 9.14772C15.5985 9.11348 15.6635 9.07599 15.6749 9.0645C15.6863 9.053 15.7513 9.01551 15.8195 8.98152C15.8878 8.94728 16.0404 8.85831 16.1587 8.78358C16.2771 8.70886 16.3934 8.64788 16.4173 8.64788C16.4411 8.64788 16.4607 8.63263 16.4607 8.61389C16.4607 8.59539 16.5257 8.55441 16.6053 8.52292C16.685 8.49143 16.75 8.45494 16.75 8.44194C16.75 8.42895 16.8105 8.39196 16.8845 8.35972C16.9584 8.32723 17.117 8.23851 17.2368 8.16203C17.3566 8.08556 17.473 8.02308 17.4953 8.02308C17.5174 8.02308 17.5358 8.00883 17.5358 7.99159C17.5358 7.97434 17.5963 7.93386 17.6703 7.90187C17.7442 7.86963 17.8511 7.8114 17.908 7.77266C17.9648 7.73367 18.095 7.65495 18.1975 7.59746C18.2997 7.54023 18.4508 7.45501 18.533 7.40803C18.6151 7.36129 18.7267 7.29756 18.7811 7.26682C18.8354 7.23608 18.9076 7.1901 18.9419 7.1646C18.9955 7.12462 19.2349 6.98841 19.6033 6.78847C19.7346 6.71725 19.7224 6.71575 19.8929 6.82421ZM24.5394 6.8712C24.6791 6.94792 24.8582 7.05014 24.9379 7.09838C25.0175 7.14661 25.2222 7.26657 25.3929 7.36479C25.5634 7.46326 25.7353 7.56247 25.7748 7.58547C25.8142 7.60846 26.205 7.83639 26.6432 8.09206C27.0814 8.34748 27.5 8.59115 27.5734 8.63338C27.6468 8.67587 29.704 9.86999 32.1452 11.2875L36.5836 13.8645L36.5811 14.3281C36.5798 14.5832 36.5932 14.8434 36.6106 14.9064C36.6352 14.9951 36.6282 15.0208 36.5796 15.0208C36.5451 15.0208 36.5168 15.0396 36.5168 15.0626C36.5168 15.0853 36.4979 15.1041 36.4746 15.1041C36.4515 15.1041 36.363 15.1478 36.2781 15.2013C36.1933 15.2548 36.0216 15.3547 35.8965 15.4235C35.5514 15.6131 35.4643 15.6641 35.4417 15.6906C35.4303 15.7039 35.3 15.7808 35.1522 15.8613C35.0043 15.9418 34.8182 16.0478 34.7385 16.0965C34.6589 16.1452 34.4545 16.2652 34.284 16.3632C33.891 16.5891 34.079 16.4799 32.2752 17.5305C30.5287 18.548 30.6726 18.4817 30.6014 18.301C29.7236 16.0712 27.0179 14.8384 24.6282 15.5797L24.4218 15.6436L24.1893 15.4792C24.0613 15.389 23.8055 15.238 23.6204 15.1435L23.2839 14.9724V11.1121V7.25207L23.4182 7.19334C23.4921 7.1611 23.5993 7.11462 23.6561 7.09013C23.7129 7.06563 23.8692 6.97516 24.0037 6.88869C24.2963 6.70075 24.2327 6.70275 24.5394 6.8712ZM5.72189 16.5523C5.60404 16.6608 5.48147 16.7708 5.44971 16.7965C5.31771 16.9042 4.76441 17.1796 4.58204 17.2284L4.38553 17.2809V24.9991V32.7174L4.62322 32.8056C5.11748 32.9888 5.49859 33.2263 5.78938 33.5317C5.97373 33.7256 5.93949 33.7386 7.10738 33.0358C7.14559 33.0128 7.32573 32.9111 7.5076 32.8096C7.68971 32.7082 7.84777 32.6147 7.85918 32.6015C7.87059 32.5882 7.9356 32.5495 8.00383 32.5152C8.07206 32.481 8.13732 32.4433 8.14874 32.4318C8.1599 32.42 8.27155 32.3558 8.39685 32.2891C8.52191 32.2223 8.63356 32.1568 8.64497 32.1436C8.65614 32.1304 8.72139 32.0914 8.78962 32.0571C8.85786 32.0226 8.92286 31.9854 8.93427 31.9739C8.94569 31.9624 9.02955 31.9137 9.12036 31.8654C9.41314 31.711 9.69649 31.5473 9.80914 31.4681C9.86943 31.4253 9.9394 31.3906 9.96421 31.3906C9.98902 31.3906 10.0096 31.3763 10.0096 31.3591C10.0096 31.3419 10.0699 31.3014 10.1438 31.2694C10.2178 31.2371 10.325 31.1789 10.3818 31.1402C10.4386 31.1012 10.5689 31.0225 10.6711 30.965C10.7736 30.9077 10.9244 30.8225 11.0066 30.7755C11.0889 30.7288 11.2006 30.6651 11.2547 30.6343C11.309 30.6036 11.3815 30.5576 11.4155 30.5321C11.4497 30.5066 11.58 30.4296 11.705 30.3607C12.1 30.1432 12.201 30.0793 12.1906 30.0528C12.1851 30.0385 12.034 29.9086 11.8549 29.7639C11.5484 29.5164 11.0594 28.9869 10.9485 28.7824C10.6438 28.2204 10.5307 27.9409 10.3945 27.4141C9.96546 25.7564 10.7262 23.8383 12.1881 22.8933L12.4779 22.7059L12.4997 22.206C12.524 21.652 12.5915 21.4003 12.8677 20.837C13.0873 20.3891 13.1297 20.4666 12.47 20.1107C12.3563 20.0492 12.2538 19.9887 12.2427 19.976C12.2012 19.9298 6.0117 16.3537 5.97448 16.3547C5.95339 16.3549 5.83975 16.4441 5.72189 16.5523ZM34.8681 18.1646C31.2388 20.2712 31.6708 19.9857 31.8919 20.1307C32.174 20.3156 32.173 20.3149 32.5057 20.644C33.4803 21.6082 33.7168 23.3237 33.036 24.4883C32.8935 24.7317 32.8829 24.6562 33.1173 25.0664C33.3072 25.399 33.4483 25.7504 33.6079 26.288C33.7151 26.6491 33.7163 27.9524 33.6101 28.3708C33.4141 29.1416 33.0474 29.8606 32.6023 30.3469C32.4837 30.4766 32.5075 30.5064 32.9136 30.7343C33.0873 30.8315 33.2605 30.93 33.2987 30.953C33.3563 30.9877 34.1153 31.4281 34.3758 31.578C34.4155 31.601 35.2457 32.0836 36.2203 32.6507C38.0363 33.7071 38.0737 33.7263 38.1147 33.6186C38.1824 33.4412 38.9404 32.9586 39.422 32.7866L39.6185 32.7164L39.6081 25.0036L39.5977 17.2909L39.3702 17.2181C38.9628 17.0879 38.4953 16.799 38.2144 16.5036C38.136 16.4211 38.0524 16.3542 38.0283 16.3547C38.0045 16.3549 36.5823 17.1694 34.8681 18.1646ZM6.38611 17.4388C6.54813 17.5315 6.74563 17.6467 6.82527 17.6947C6.90492 17.7427 7.0724 17.8382 7.19745 17.9069C7.3225 17.9754 7.45276 18.0524 7.487 18.0779C7.521 18.1031 7.59345 18.1491 7.64778 18.1801C7.70212 18.2108 7.81377 18.2748 7.8959 18.3223C7.97803 18.3695 8.09192 18.4345 8.14874 18.4662C8.20556 18.4982 8.30778 18.558 8.37601 18.5994C8.51967 18.6864 8.78516 18.8409 8.93427 18.9243C8.99134 18.9561 9.11218 19.0283 9.20324 19.0845C9.29405 19.141 9.43845 19.2195 9.52355 19.259C9.60891 19.2985 9.67863 19.3452 9.67863 19.3627C9.67863 19.3802 9.70047 19.3944 9.72726 19.3944C9.75381 19.3944 9.80492 19.4199 9.8409 19.4512C9.90144 19.5037 10.1702 19.6581 10.5679 19.869C10.6587 19.9173 10.7426 19.9667 10.754 19.9787C10.7907 20.0182 11.2671 20.2931 11.4053 20.3546C11.4792 20.3876 11.5395 20.4239 11.5398 20.4356C11.5398 20.4471 11.6589 20.5213 11.8048 20.6005L12.0697 20.7445L11.9943 20.9544C11.8544 21.3438 11.7799 21.661 11.7571 21.9659L11.7343 22.2688L11.4405 22.5052C11.0745 22.7996 10.8743 23.0003 10.6215 23.3259C10.5126 23.4661 10.4086 23.5993 10.39 23.6223C9.498 24.7272 9.27767 27.1674 9.9528 28.4703C9.98357 28.53 10.0091 28.5945 10.0094 28.6135C10.0101 28.7367 10.6411 29.6741 10.8488 29.8608C10.95 29.9518 11.1854 29.7971 9.18239 30.956C8.23855 31.5023 7.46021 31.9642 7.45251 31.9824C7.44507 32.0004 7.41877 32.0154 7.39421 32.0154C7.33764 32.0154 6.68533 32.3968 6.66673 32.4408C6.65928 32.4587 6.63025 32.4735 6.60246 32.4735C6.57467 32.4735 6.46401 32.5297 6.35658 32.5985C6.10747 32.7577 6.08662 32.7562 5.80129 32.5617C5.67078 32.4727 5.46633 32.3505 5.34699 32.2903L5.12988 32.1806V25.0064V17.8322L5.36758 17.7175C5.49834 17.6542 5.70775 17.5288 5.8328 17.4388C6.1102 17.2394 6.038 17.2394 6.38611 17.4388ZM38.2392 17.4995C38.3789 17.5935 38.5792 17.7062 38.6836 17.7497L38.8739 17.8287V25.0009V32.1733L38.6568 32.2871C38.5375 32.3498 38.3174 32.4802 38.168 32.5772L37.8966 32.7537L37.7338 32.6549C37.6445 32.6007 37.5155 32.5277 37.4473 32.493C37.3289 32.4325 37.1833 32.3468 36.9096 32.1766C36.8414 32.1341 36.7391 32.0769 36.6823 32.0494C36.6255 32.0219 36.5508 31.9774 36.5168 31.9507C36.4826 31.9239 36.3523 31.8464 36.2273 31.7782C35.9059 31.6033 35.802 31.543 35.731 31.4901C35.697 31.4648 35.5668 31.3878 35.4417 31.3191C35.3164 31.2506 35.1489 31.1552 35.0695 31.1072C34.9899 31.0589 34.7852 30.9392 34.6145 30.8408C34.444 30.7425 34.2733 30.6431 34.2351 30.6201C34.1969 30.5971 34.0428 30.5069 33.8925 30.4194L33.6193 30.2602L33.753 30.0235C34.0088 29.5719 34.0773 29.4135 34.2163 28.9539C34.6145 27.6378 34.4976 26.1023 33.9106 24.9389L33.7845 24.689L33.8882 24.4406C34.112 23.9052 34.1718 23.5221 34.1465 22.7891C34.1128 21.8164 33.8647 21.1076 33.3114 20.4029C33.0972 20.1302 33.062 20.0645 33.1186 20.0447C33.1568 20.0315 33.2622 19.9732 33.3533 19.9153C33.4444 19.8575 33.5885 19.7778 33.6739 19.7383C33.759 19.6986 33.8289 19.6521 33.8289 19.6346C33.8289 19.6171 33.8493 19.6026 33.8741 19.6026C33.8992 19.6026 33.9689 19.5679 34.0292 19.5254C34.0897 19.4829 34.2227 19.4012 34.3252 19.3437C34.4274 19.2865 34.5763 19.2015 34.6559 19.155C35.2512 18.8076 35.6191 18.6029 35.6484 18.6029C35.6673 18.6029 35.6891 18.5879 35.6965 18.5694C35.7042 18.5507 35.8221 18.4722 35.9585 18.3948C36.095 18.3175 36.586 18.0334 37.05 17.7632C37.5137 17.4933 37.9137 17.2851 37.939 17.3004C37.9643 17.3159 38.0993 17.4053 38.2392 17.4995ZM13.0697 30.8363C12.6052 31.1117 12.2169 31.3341 12.0876 31.3988C12.0362 31.4246 11.9946 31.4613 11.9946 31.4806C11.9946 31.4998 11.9735 31.5156 11.9477 31.5156C11.9087 31.5156 11.6065 31.685 10.7582 32.1826C10.6989 32.2173 10.5111 32.326 10.3404 32.4243C10.1699 32.5222 9.96496 32.6419 9.88556 32.6899C9.80592 32.7379 9.63844 32.8334 9.51339 32.9021C9.38809 32.9706 9.25782 33.0476 9.22383 33.0731C9.15287 33.1258 9.04891 33.1863 8.72759 33.3612C8.60254 33.4292 8.47228 33.5057 8.43804 33.5312C8.40405 33.5566 8.3316 33.6026 8.27726 33.6334C8.22317 33.6641 8.11152 33.7281 8.02914 33.7756C7.94701 33.8231 7.83338 33.8878 7.77656 33.9195C7.71974 33.9513 7.59866 34.0237 7.5076 34.0802C7.41678 34.1367 7.30513 34.2009 7.25948 34.2229C7.21407 34.2452 7.10242 34.3099 7.01136 34.3671C6.92055 34.4241 6.77615 34.5093 6.69104 34.5561C6.51414 34.653 6.51115 34.6675 6.60395 34.9757C6.69575 35.2808 6.69749 35.9999 6.60718 36.2958C6.54118 36.5115 6.54143 36.5157 6.631 36.5729C6.75059 36.6497 11.4929 39.403 11.7876 39.567C11.9127 39.6367 12.0861 39.7384 12.173 39.7929C12.2598 39.8476 12.3992 39.9309 12.4831 39.9778C12.6297 40.0601 13.3724 40.4894 13.5165 40.5754C13.555 40.5984 13.7262 40.6976 13.8966 40.7961C14.0673 40.8943 14.272 41.0143 14.3517 41.0622C14.4311 41.1102 14.5986 41.2057 14.7239 41.2744C14.8489 41.3429 14.9792 41.4199 15.0132 41.4454C15.0474 41.4706 15.1196 41.5166 15.1739 41.5476C15.4471 41.7023 15.5826 41.7808 15.6955 41.8492C15.7637 41.8905 15.8662 41.9505 15.923 41.9825C15.9798 42.0142 16.1009 42.0839 16.1917 42.1371C16.2828 42.1904 16.4039 42.2601 16.4607 42.2918C16.5175 42.3236 16.6383 42.3958 16.7294 42.452C16.8205 42.5085 16.9646 42.587 17.05 42.6265C17.1351 42.666 17.205 42.7127 17.205 42.7302C17.205 42.7477 17.2254 42.7619 17.2502 42.7619C17.2753 42.7619 17.345 42.7967 17.4053 42.8394C17.5179 42.9186 17.8013 43.0823 18.094 43.2368C18.1851 43.285 18.2687 43.335 18.2801 43.3483C18.3134 43.3872 18.9888 43.7616 19.0255 43.7616C19.0438 43.7616 19.0652 43.7766 19.0726 43.7949C19.0927 43.8431 19.7554 44.22 19.8187 44.219C19.848 44.2187 19.9177 44.17 19.9735 44.1108C20.2566 43.8106 20.8824 43.4732 21.3506 43.3688L21.4642 43.3435V38.6885V34.0335L21.2126 33.8488C20.9323 33.6434 20.579 33.3035 20.3251 32.9956C20.1579 32.7924 20.1579 32.7924 19.9944 32.8369C19.086 33.0845 19.0136 33.0983 18.6208 33.0983C17.7008 33.0983 16.6708 32.7227 16.053 32.1621C15.6295 31.778 15.4201 31.5196 15.1506 31.0487L14.9645 30.7241L14.503 30.7238C14.2492 30.7238 13.9763 30.7068 13.8966 30.6861C13.5088 30.5853 13.4858 30.5896 13.0697 30.8363ZM31.3478 31.3623C30.6863 31.7552 30.001 31.9312 29.1296 31.9317L28.6274 31.9322L28.5353 32.1299C28.1247 33.0116 27.3228 33.8313 26.4566 34.2552C25.8993 34.5278 25.7996 34.5666 25.3515 34.6838C24.9689 34.784 24.1384 34.85 23.805 34.8065C23.2631 34.7363 22.8954 34.6735 22.8289 34.6403C22.7949 34.6233 22.7157 34.5971 22.653 34.5821L22.5391 34.5546L22.5497 38.9569L22.5602 43.3593L22.7877 43.4122C23.1688 43.501 23.7789 43.8441 24.0303 44.1108C24.1511 44.2392 24.2072 44.2447 24.3526 44.1433C24.4131 44.1013 24.4903 44.0548 24.5245 44.04C24.5585 44.0253 24.661 43.9671 24.7518 43.9103C24.8429 43.8538 24.9639 43.7816 25.0208 43.7499C25.1699 43.6662 25.4354 43.5117 25.579 43.4247C25.6473 43.3835 25.7495 43.3235 25.8063 43.2915C25.8634 43.2598 25.9795 43.1933 26.0648 43.1436C26.1502 43.0941 26.2896 43.0141 26.375 42.9659C26.4603 42.9174 26.5487 42.8639 26.5715 42.8464C26.5941 42.8289 26.6965 42.7679 26.7988 42.711C26.9012 42.6537 27.0501 42.569 27.1298 42.5225C27.725 42.1751 28.093 41.9705 28.1222 41.9705C28.1411 41.9705 28.1629 41.9552 28.1704 41.9362C28.1781 41.9175 28.3331 41.8175 28.515 41.714C28.9108 41.4894 37.1986 36.6784 37.3361 36.5937C37.4135 36.5462 37.4272 36.5107 37.4073 36.4097C37.2842 35.7847 37.2837 35.3183 37.4061 34.9142C37.4401 34.8018 37.4678 34.6958 37.4678 34.679C37.4678 34.6623 37.216 34.5011 36.9081 34.3212C36.6002 34.1412 36.3166 33.975 36.2776 33.952C36.2387 33.929 36.0672 33.8298 35.8965 33.7313C35.7261 33.6331 35.5211 33.5132 35.4417 33.4649C35.3621 33.4167 35.176 33.3115 35.0281 33.231C34.8802 33.1508 34.6815 33.0316 34.5865 32.9666C34.4914 32.9016 34.4036 32.8484 34.3912 32.8484C34.379 32.8484 34.2272 32.7641 34.054 32.6609C33.8811 32.558 33.7223 32.4735 33.7014 32.4735C33.6806 32.4735 33.6635 32.4582 33.6635 32.4398C33.6635 32.421 33.5982 32.38 33.5188 32.3485C33.4392 32.317 33.3739 32.2761 33.3739 32.2576C33.3739 32.2388 33.3545 32.2236 33.3307 32.2236C33.3069 32.2236 33.1905 32.1616 33.0722 32.0856C32.9538 32.0096 32.7965 31.9207 32.7226 31.8879C32.6486 31.8552 32.5884 31.8177 32.5884 31.8047C32.5884 31.7917 32.5231 31.7552 32.4435 31.7237C32.3638 31.6922 32.2988 31.6535 32.2988 31.6373C32.2988 31.621 32.2291 31.5778 32.1437 31.5408C31.9901 31.4741 31.9271 31.4383 31.7137 31.2969C31.5798 31.2079 31.6192 31.2009 31.3478 31.3623ZM14.1738 31.4551L14.5127 31.4821L14.7102 31.78C14.8846 32.0429 15.5097 32.7187 15.7369 32.8904C16.0292 33.111 16.7639 33.5149 16.8733 33.5149C16.8971 33.5149 16.949 33.5329 16.9884 33.5551C17.4859 33.8333 18.9979 33.917 19.6922 33.7051L19.8842 33.6464L20.0653 33.8411C20.1648 33.948 20.3529 34.127 20.4832 34.2384L20.7199 34.4414V38.5978V42.7542L20.4202 42.9014C20.2552 42.9826 20.0326 43.1076 19.9252 43.1793L19.7299 43.3098L19.4081 43.1261C19.2312 43.0251 17.1884 41.84 14.8685 40.4922C12.5486 39.1444 10.4783 37.9417 10.2677 37.8198C9.81882 37.5594 9.14046 37.165 8.93427 37.0448C8.85463 36.9983 8.70576 36.9136 8.60353 36.8566C8.50106 36.7994 8.39884 36.7384 8.37601 36.7211C8.35343 36.7036 8.26486 36.6499 8.17975 36.6017C8.0944 36.5534 7.95471 36.4735 7.8696 36.4242C7.78425 36.375 7.64555 36.297 7.56144 36.251L7.40835 36.1673L7.41654 35.7887C7.42125 35.5805 7.41058 35.3258 7.39297 35.2226L7.36096 35.0349L9.4717 33.8063C10.6326 33.1305 11.6147 32.559 11.6541 32.536C11.6933 32.513 11.8653 32.4135 12.0357 32.3153C12.2065 32.2168 12.4112 32.0969 12.4908 32.0486C12.5702 32.0004 12.7563 31.8952 12.9042 31.8145C13.052 31.734 13.1823 31.6568 13.1937 31.643C13.2051 31.6293 13.261 31.5943 13.3178 31.565C13.3746 31.536 13.4676 31.4848 13.5245 31.4516C13.5815 31.4181 13.6746 31.3991 13.7314 31.4093C13.7882 31.4196 13.9872 31.4401 14.1738 31.4551ZM34.1316 33.5769C36.0833 34.7098 36.6359 35.0482 36.6138 35.0972C36.5984 35.1319 36.5823 35.3791 36.5781 35.6462C36.5699 36.1798 36.5687 36.1831 36.2893 36.3305C35.9965 36.4852 35.7134 36.6489 35.6008 36.7281C35.5402 36.7706 35.4705 36.8056 35.4457 36.8056C35.4206 36.8056 35.4003 36.8199 35.4003 36.8373C35.4003 36.8548 35.3306 36.9016 35.2452 36.9411C35.1599 36.9805 35.0157 37.059 34.9246 37.1153C34.8338 37.1717 34.7127 37.2437 34.6559 37.2755C34.5991 37.3074 34.478 37.3769 34.3872 37.4304C34.2962 37.4836 34.1753 37.5534 34.1183 37.5851C34.0614 37.6171 33.9592 37.6768 33.891 37.7183C33.7778 37.7868 33.6424 37.865 33.3694 38.02C33.3151 38.0507 33.2426 38.0967 33.2087 38.1222C33.1744 38.1477 33.0441 38.2247 32.9191 38.2931C32.794 38.3619 32.6266 38.4573 32.5469 38.5053C32.4266 38.5778 32.1638 38.7307 31.7093 38.9922C31.6693 39.0151 29.9804 39.9963 27.9562 41.1725L24.2762 43.3108L24.0179 43.1473C23.8757 43.0576 23.6524 42.9351 23.5216 42.8754L23.2839 42.7664V39.1431V35.5198L23.8732 35.5435C24.6759 35.5763 25.5979 35.4573 26.0338 35.2651C26.0792 35.2449 26.2934 35.1519 26.5095 35.0582C26.9079 34.8852 27.4054 34.5958 27.6942 34.3689C27.8974 34.2092 28.6597 33.4359 28.6597 33.3895C28.6597 33.37 28.6837 33.3295 28.7128 33.2992C28.7698 33.24 28.9936 32.8704 29.0385 32.7612C29.0604 32.7079 29.1599 32.6897 29.5348 32.6699C30.1662 32.6369 30.9359 32.4388 31.3684 32.1983C31.587 32.0769 31.3076 31.9374 34.1316 33.5769Z" fill="#FCFCFC"/>
<path fill-rule="evenodd" clip-rule="evenodd" d="M21.6099 1.88439C21.1375 2.0081 20.7549 2.26302 20.4504 2.65689C20.0507 3.17423 20.0472 4.28162 20.4437 4.8062C21.1278 5.71166 22.3086 5.87911 23.1968 5.19683C24.203 4.42383 24.0204 2.64065 22.878 2.08407C22.7492 2.02134 22.6083 1.95237 22.5651 1.93087C22.4768 1.88664 21.7377 1.85065 21.6099 1.88439ZM3.20772 12.5627C1.13693 13.1728 1.5297 16.2113 3.68336 16.2428C4.96563 16.2615 5.86258 15.0734 5.4981 13.8383C5.45021 13.6754 5.39885 13.5329 5.38446 13.5214C5.36982 13.5099 5.33012 13.4459 5.29588 13.3795C4.96365 12.7292 3.96646 12.339 3.20772 12.5627ZM39.7669 12.5695C38.9754 12.7916 38.4191 13.5399 38.4201 14.3816C38.4221 16.0778 40.4847 16.8943 41.6501 15.6605C42.0263 15.2621 42.1208 14.9994 42.1208 14.3544C42.1208 13.6591 41.9948 13.3882 41.4385 12.8874C41.0549 12.542 40.3455 12.407 39.7669 12.5695ZM20.3485 16.1298C18.9047 16.3995 17.6896 17.2282 17.2108 18.2699C17.1738 18.3501 17.1343 18.4251 17.1229 18.4366C17.0904 18.4693 16.9162 18.8515 16.9162 18.8897C16.9162 18.9089 17.0639 18.9367 17.2443 18.9519C17.7789 18.9969 18.3876 19.1723 18.82 19.4063C19.2165 19.6207 19.2106 19.6167 19.5508 19.8961L19.8076 20.107L19.985 20.0558C20.0827 20.0278 20.181 19.9916 20.2038 19.9753C20.2266 19.9593 20.3522 19.9151 20.4829 19.8774C20.7529 19.7994 20.7489 19.8094 20.639 19.481C20.4197 18.8252 20.4494 18.4366 20.7186 18.4366C20.8906 18.4366 20.9526 18.5213 20.9829 18.7977C21.0087 19.0336 21.1365 19.498 21.2139 19.6375C21.2454 19.6939 21.3322 19.7079 21.6997 19.7149C22.3639 19.7277 22.811 19.8386 23.4293 20.1448C23.9546 20.4047 23.963 20.411 24.4953 20.9478C24.8952 21.3514 25.0215 21.4369 25.0215 21.3047C25.0215 21.2444 25.2835 20.7096 25.3212 20.6926C25.3384 20.6851 25.353 20.6569 25.354 20.6301C25.3629 20.3737 26.0023 19.7814 26.1738 19.8706C26.3656 19.9706 26.3447 20.0966 26.082 20.4277C25.8396 20.7331 25.617 21.1025 25.4996 21.3939C25.3622 21.7353 25.2719 22.0754 25.3066 22.1204C25.3803 22.2154 25.5217 22.7654 25.5661 23.1288L25.6128 23.5112L25.8857 23.6034C27.2236 24.0553 28.2855 25.2889 28.5363 26.6827C28.6152 27.1213 28.581 27.1003 29.2169 27.1003C29.5216 27.1003 29.864 27.0788 29.9779 27.0523C30.2231 26.9953 30.3972 27.0731 30.3972 27.2393C30.3972 27.5004 30.0796 27.5967 29.2085 27.5986L28.6192 27.6001V27.7563C28.619 27.9515 28.5202 28.4461 28.4048 28.8278C28.3277 29.0829 28.323 29.1437 28.3661 29.3276C28.484 29.8297 28.5021 30.0164 28.4788 30.486L28.4542 30.9763L28.5602 31.0171C28.6182 31.0393 28.8785 31.0575 29.138 31.0575C30.9932 31.0575 32.543 29.724 32.7933 27.9123C32.8677 27.372 32.7988 26.3658 32.6759 26.2073C32.6571 26.1831 32.6295 26.1111 32.6144 26.0474C32.4985 25.5598 31.7207 24.5669 31.2436 24.298C31.0121 24.1675 31.1227 23.8159 31.3972 23.8104C31.4125 23.8101 31.4497 23.8331 31.4798 23.8618C32.0492 24.4042 32.0998 24.4157 32.2871 24.0433C32.8342 22.9556 32.5189 21.6903 31.5058 20.9088C31.0833 20.5831 30.1481 20.418 29.6494 20.5811C29.1924 20.7306 28.7996 20.9268 28.6264 21.0917C28.5031 21.2097 28.247 21.0767 28.247 20.8948C28.247 20.7304 29.0316 20.1838 29.2653 20.1855C29.2911 20.1858 29.3316 20.1623 29.3554 20.1333C29.3986 20.0808 29.3924 20.0263 29.2755 19.4363C29.2306 19.2093 28.9621 18.5615 28.913 18.5615C28.8988 18.5615 28.8639 18.5078 28.8351 18.4421C28.7735 18.3024 28.3907 17.8928 28.12 17.6773C26.9849 16.7736 25.2932 16.7561 24.1973 17.6371C23.802 17.9547 23.3646 18.4428 23.2941 18.6448C23.2075 18.8929 22.9314 18.9729 22.8093 18.785C22.7398 18.6783 22.8547 18.2699 22.9542 18.2699C22.9693 18.2699 23.0028 18.2237 23.0284 18.1672C23.0884 18.0345 23.2405 17.8575 23.5723 17.5344L23.839 17.2747L23.7199 17.1632C23.3164 16.7869 22.5783 16.3937 21.92 16.2051C21.6967 16.1408 20.5757 16.0873 20.3485 16.1298ZM16.42 19.3978C16.2267 19.416 15.994 19.4528 15.9032 19.4793C15.5595 19.579 15.0139 19.7879 15.0139 19.8196C15.0139 19.8379 14.9951 19.8526 14.9717 19.8526C14.7526 19.8526 13.7321 20.8418 13.7321 21.054C13.7321 21.0805 13.7148 21.1022 13.6939 21.1022C13.6728 21.1022 13.6334 21.1727 13.6058 21.2584C13.5783 21.3444 13.5421 21.4334 13.5252 21.4564C13.456 21.5508 13.39 21.9715 13.3855 22.3471L13.3806 22.7477L13.5284 22.7347C13.6098 22.7277 13.7952 22.6972 13.9406 22.667C14.3175 22.5888 14.5013 22.7425 14.3358 22.9971C14.2651 23.1058 14.2582 23.1081 13.784 23.1853C13.619 23.2123 13.4751 23.249 13.4639 23.2673C13.4528 23.2855 13.3778 23.3128 13.2977 23.328C13.161 23.354 12.7436 23.5422 12.6982 23.5987C12.6868 23.6127 12.6218 23.6599 12.5536 23.7036C11.2889 24.5126 10.7962 26.418 11.4705 27.8918C12.0397 29.1359 13.4669 29.9726 14.7782 29.8312L15.0387 29.8029L15.0377 29.0869C15.0365 28.2067 15.1983 27.5732 15.558 27.0523C15.6213 26.9606 15.6623 26.8092 15.624 26.8087C15.6183 26.8087 15.4784 26.7529 15.3131 26.6852C14.7626 26.4593 13.8837 26.4298 13.4274 26.6217C13.1247 26.7492 12.9464 26.6859 12.9464 26.4515C12.9464 26.2903 12.9818 26.2601 13.2987 26.1514C14.0356 25.8982 14.9472 25.9649 15.7258 26.3283C15.9669 26.441 16.0736 26.4335 16.1597 26.2981C16.221 26.2016 16.6666 25.8687 16.9105 25.737C17.0634 25.6545 17.2336 25.6715 17.3068 25.7767C17.4269 25.9497 17.3611 26.0499 16.986 26.2641C15.5248 27.0988 15.0467 29.3616 16.0215 30.8284C16.9118 32.1679 18.5856 32.5821 20.0472 31.8245C20.4437 31.6191 20.5105 31.6246 20.6385 31.8733C21.0164 32.6058 21.858 33.3653 22.5763 33.622C22.6815 33.6597 22.8048 33.7064 22.8505 33.7262C23.3115 33.9259 24.6134 33.9866 25.1247 33.8322C26.6276 33.3785 27.4796 32.6148 27.9158 31.3307C28.0803 30.8461 28.1071 29.6505 27.957 29.499C27.9344 29.4765 27.916 29.4276 27.916 29.3903C27.916 29.3161 27.556 28.5508 27.5052 28.5169C27.4878 28.5054 27.4508 28.4521 27.4228 28.3986C27.33 28.2215 27.0409 27.9063 26.6792 27.5882C26.4234 27.3632 26.4576 27.1061 26.7442 27.1018C26.9285 27.0991 27.5637 27.7159 27.8677 28.193C28.0538 28.4854 28.0605 28.4861 28.1265 28.2147C28.4952 26.7012 27.4409 24.5936 26.0857 24.1345C26.0122 24.1098 25.9333 24.0753 25.9105 24.0583C25.7619 23.9463 24.725 23.8653 24.269 23.9298C23.6142 24.0225 22.9631 24.3392 22.4696 24.805C22.1972 25.0625 21.92 25.0505 21.92 24.7811C21.92 24.5751 22.6393 23.9863 23.1872 23.7436C23.3204 23.6847 23.4666 23.6189 23.512 23.5974C23.7105 23.504 24.2116 23.4212 24.6821 23.4045C25.1317 23.3885 25.188 23.3783 25.1709 23.317C25.1602 23.2788 25.1292 23.1073 25.1019 22.9364C24.6575 20.1535 21.0233 19.1911 18.9759 21.3139C18.6389 21.663 18.5464 21.703 18.4049 21.5606C18.2313 21.3854 18.5985 20.8801 19.1989 20.4679C19.4369 20.3045 19.4359 20.3207 19.22 20.162C18.5312 19.6557 17.5033 19.3101 16.8336 19.3595C16.7994 19.362 16.6133 19.3793 16.42 19.3978ZM17.1306 23.1766C17.4996 23.5559 18.3635 23.7589 18.9089 23.5942C19.1287 23.528 19.2552 23.6452 19.2369 23.8988C19.2225 24.1003 18.3742 24.2152 17.8673 24.084C17.3703 23.9556 16.7986 23.6182 16.6711 23.378C16.5307 23.1138 16.9085 22.9481 17.1306 23.1766ZM29.8494 23.2123C30.0459 23.4285 29.8896 23.6252 29.5549 23.5832C29.2269 23.5419 28.7083 23.6864 28.4882 23.8806C28.3902 23.9671 28.2485 23.9328 28.15 23.7994L28.0654 23.6849L28.1493 23.5702C28.449 23.1606 29.5849 22.9214 29.8494 23.2123ZM20.8231 24.4417C20.9938 24.5201 21 24.6603 20.8427 24.881C20.675 25.1164 20.4725 25.5096 20.4725 25.6003C20.4725 25.6373 20.4497 25.6908 20.4214 25.719C20.3068 25.8347 20.3276 26.9146 20.4517 27.285C20.834 28.4256 21.7071 29.0372 22.9537 29.0372C23.8204 29.0372 24.2332 28.857 24.8843 28.1937C25.1188 27.9548 25.3937 27.996 25.3937 28.2699C25.3937 28.4419 24.7327 29.0249 24.2667 29.2639C24.1536 29.3218 24.1203 29.4221 24.1891 29.4975C24.3362 29.6587 24.4752 30.7706 24.365 30.9051C24.1794 31.1315 23.9665 30.9481 23.9293 30.5295C23.9015 30.2166 23.8221 29.8622 23.7301 29.6405L23.6864 29.5358H22.979C21.7741 29.5358 20.9884 29.1257 20.3452 28.1615C20.1137 27.8143 20.1366 27.8268 19.8884 27.9131C19.4483 28.0665 19.0488 28.3349 18.7357 28.6878C18.233 29.2546 18.2697 29.2309 18.1003 29.0967C17.9834 29.004 17.9573 28.8505 18.0432 28.759C18.0715 28.7288 18.1454 28.6358 18.2072 28.5523C18.3886 28.3077 18.6533 28.0625 18.9632 27.8523C19.2319 27.6699 19.3736 27.5949 19.7825 27.4177L19.9398 27.3492L19.9066 27.152C19.8279 26.6882 19.8696 25.8092 19.985 25.4968C20.205 24.9008 20.4884 24.4697 20.7085 24.3957C20.7129 24.3942 20.7645 24.4149 20.8231 24.4417ZM3.35237 33.7914C1.62944 34.1301 1.29001 36.5053 2.8472 37.3255C3.90766 37.8841 5.21847 37.2843 5.51869 36.1032C5.85166 34.7946 4.66913 33.5328 3.35237 33.7914ZM39.9292 33.7937C38.8218 34.0491 38.1723 35.1557 38.5087 36.2136C39.0228 37.8306 41.208 38.0021 41.96 36.4846L42.1208 36.1599V35.6393C42.1208 34.4342 41.0524 33.5345 39.9292 33.7937ZM21.5156 44.472C20.3929 44.7642 19.8051 46.0595 20.3204 47.1069C21.0365 48.5629 23.0326 48.5154 23.7261 47.0254C23.9489 46.5468 23.865 45.6309 23.5613 45.229C23.0445 44.5445 22.2982 44.2683 21.5156 44.472Z" fill="#FC5CAC"/>
<path d="M53.494 31V18.4H59.65C61.234 18.4 62.422 18.7 63.214 19.3C64.018 19.9 64.42 20.692 64.42 21.676C64.42 22.336 64.258 22.912 63.934 23.404C63.61 23.884 63.166 24.256 62.602 24.52C62.038 24.784 61.39 24.916 60.658 24.916L61 24.178C61.792 24.178 62.494 24.31 63.106 24.574C63.718 24.826 64.192 25.204 64.528 25.708C64.876 26.212 65.05 26.83 65.05 27.562C65.05 28.642 64.624 29.488 63.772 30.1C62.92 30.7 61.666 31 60.01 31H53.494ZM56.392 28.804H59.794C60.55 28.804 61.12 28.684 61.504 28.444C61.9 28.192 62.098 27.796 62.098 27.256C62.098 26.728 61.9 26.338 61.504 26.086C61.12 25.822 60.55 25.69 59.794 25.69H56.176V23.566H59.29C59.998 23.566 60.538 23.446 60.91 23.206C61.294 22.954 61.486 22.576 61.486 22.072C61.486 21.58 61.294 21.214 60.91 20.974C60.538 20.722 59.998 20.596 59.29 20.596H56.392V28.804ZM67.0597 31V21.316H69.7417V24.052L69.3637 23.26C69.6517 22.576 70.1137 22.06 70.7497 21.712C71.3857 21.352 72.1597 21.172 73.0717 21.172V23.764C72.9517 23.752 72.8437 23.746 72.7477 23.746C72.6517 23.734 72.5497 23.728 72.4417 23.728C71.6737 23.728 71.0497 23.95 70.5697 24.394C70.1017 24.826 69.8677 25.504 69.8677 26.428V31H67.0597ZM80.0485 31V29.11L79.8685 28.696V25.312C79.8685 24.712 79.6825 24.244 79.3105 23.908C78.9505 23.572 78.3925 23.404 77.6365 23.404C77.1205 23.404 76.6105 23.488 76.1065 23.656C75.6145 23.812 75.1945 24.028 74.8465 24.304L73.8385 22.342C74.3665 21.97 75.0025 21.682 75.7465 21.478C76.4905 21.274 77.2465 21.172 78.0145 21.172C79.4905 21.172 80.6365 21.52 81.4525 22.216C82.2685 22.912 82.6765 23.998 82.6765 25.474V31H80.0485ZM77.0965 31.144C76.3405 31.144 75.6925 31.018 75.1525 30.766C74.6125 30.502 74.1985 30.148 73.9105 29.704C73.6225 29.26 73.4785 28.762 73.4785 28.21C73.4785 27.634 73.6165 27.13 73.8925 26.698C74.1805 26.266 74.6305 25.93 75.2425 25.69C75.8545 25.438 76.6525 25.312 77.6365 25.312H80.2105V26.95H77.9425C77.2825 26.95 76.8265 27.058 76.5745 27.274C76.3345 27.49 76.2145 27.76 76.2145 28.084C76.2145 28.444 76.3525 28.732 76.6285 28.948C76.9165 29.152 77.3065 29.254 77.7985 29.254C78.2665 29.254 78.6865 29.146 79.0585 28.93C79.4305 28.702 79.7005 28.372 79.8685 27.94L80.3005 29.236C80.0965 29.86 79.7245 30.334 79.1845 30.658C78.6445 30.982 77.9485 31.144 77.0965 31.144ZM85.2179 31V21.316H88.0259V31H85.2179ZM86.6219 19.966C86.1059 19.966 85.6859 19.816 85.3619 19.516C85.0379 19.216 84.8759 18.844 84.8759 18.4C84.8759 17.956 85.0379 17.584 85.3619 17.284C85.6859 16.984 86.1059 16.834 86.6219 16.834C87.1379 16.834 87.5579 16.978 87.8819 17.266C88.2059 17.542 88.3679 17.902 88.3679 18.346C88.3679 18.814 88.2059 19.204 87.8819 19.516C87.5699 19.816 87.1499 19.966 86.6219 19.966ZM96.5179 21.172C97.2859 21.172 97.9699 21.328 98.5699 21.64C99.1819 21.94 99.6619 22.408 100.01 23.044C100.358 23.668 100.532 24.472 100.532 25.456V31H97.7239V25.888C97.7239 25.108 97.5499 24.532 97.2019 24.16C96.8659 23.788 96.3859 23.602 95.7619 23.602C95.3179 23.602 94.9159 23.698 94.5559 23.89C94.2079 24.07 93.9319 24.352 93.7279 24.736C93.5359 25.12 93.4399 25.612 93.4399 26.212V31H90.6319V21.316H93.3139V23.998L92.8099 23.188C93.1579 22.54 93.6559 22.042 94.3039 21.694C94.9519 21.346 95.6899 21.172 96.5179 21.172ZM103.275 31V18.4H108.999C110.367 18.4 111.573 18.664 112.617 19.192C113.661 19.708 114.477 20.434 115.065 21.37C115.653 22.306 115.947 23.416 115.947 24.7C115.947 25.972 115.653 27.082 115.065 28.03C114.477 28.966 113.661 29.698 112.617 30.226C111.573 30.742 110.367 31 108.999 31H103.275ZM106.191 28.606H108.855C109.695 28.606 110.421 28.45 111.033 28.138C111.657 27.814 112.137 27.358 112.473 26.77C112.821 26.182 112.995 25.492 112.995 24.7C112.995 23.896 112.821 23.206 112.473 22.63C112.137 22.042 111.657 21.592 111.033 21.28C110.421 20.956 109.695 20.794 108.855 20.794H106.191V28.606ZM116.315 31L121.931 18.4H124.811L130.445 31H127.385L122.777 19.876H123.929L119.303 31H116.315ZM119.123 28.3L119.897 26.086H126.377L127.169 28.3H119.123ZM137.696 31.216C136.7 31.216 135.776 31.054 134.924 30.73C134.084 30.406 133.352 29.95 132.728 29.362C132.116 28.774 131.636 28.084 131.288 27.292C130.952 26.5 130.784 25.636 130.784 24.7C130.784 23.764 130.952 22.9 131.288 22.108C131.636 21.316 132.122 20.626 132.746 20.038C133.37 19.45 134.102 18.994 134.942 18.67C135.782 18.346 136.694 18.184 137.678 18.184C138.674 18.184 139.586 18.346 140.414 18.67C141.254 18.994 141.98 19.45 142.592 20.038C143.216 20.626 143.702 21.316 144.05 22.108C144.398 22.888 144.572 23.752 144.572 24.7C144.572 25.636 144.398 26.506 144.05 27.31C143.702 28.102 143.216 28.792 142.592 29.38C141.98 29.956 141.254 30.406 140.414 30.73C139.586 31.054 138.68 31.216 137.696 31.216ZM137.678 28.732C138.242 28.732 138.758 28.636 139.226 28.444C139.706 28.252 140.126 27.976 140.486 27.616C140.846 27.256 141.122 26.83 141.314 26.338C141.518 25.846 141.62 25.3 141.62 24.7C141.62 24.1 141.518 23.554 141.314 23.062C141.122 22.57 140.846 22.144 140.486 21.784C140.138 21.424 139.724 21.148 139.244 20.956C138.764 20.764 138.242 20.668 137.678 20.668C137.114 20.668 136.592 20.764 136.112 20.956C135.644 21.148 135.23 21.424 134.87 21.784C134.51 22.144 134.228 22.57 134.024 23.062C133.832 23.554 133.736 24.1 133.736 24.7C133.736 25.288 133.832 25.834 134.024 26.338C134.228 26.83 134.504 27.256 134.852 27.616C135.212 27.976 135.632 28.252 136.112 28.444C136.592 28.636 137.114 28.732 137.678 28.732Z" fill="white" fill-opacity="0.92"/>
</svg>
