<svg xmlns="http://www.w3.org/2000/svg" width="506.707" height="426.68">
<style><![CDATA[.B{stroke-linejoin:round}.C{stroke-miterlimit:10}.D{stroke-linecap:round}.E{stroke-width:10.667}.F{stroke-width:9.333}]]></style>
<path d="M475.371 259.614c0 9.827-1.799 19.227-5.092 27.893-11.267 29.6-39.893 50.626-73.44 50.626-34.333 0-63.507-22.026-74.188-52.72-63.425 4.559-99.692-23.787-114.772-77.814-38.093-10.359-66.093-45.185-66.093-86.56 0-26.759 11.719-50.787 30.305-67.212 15.815-14 36.615-22.493 59.401-22.493 26.105 0 49.612 11.145 65.985 28.96 11.013-7.201 24.173-11.375 38.308-11.375 9.865 0 19.267 2.041 27.787 5.721 24.653 10.64 41.987 35.012 42.373 63.48.013.333.013.653.013.987l-.013 1.187v.013c3.585-.787 7.305-1.2 11.133-1.2 17.093 0 32.28 8.187 41.852 20.853h.015c6.639 8.787 10.573 19.733 10.573 31.6a52.07 52.07 0 0 1-12.24 33.639 44.4 44.4 0 0 1-1.855 2.12c12.415 13.88 19.947 32.213 19.947 52.295" fill="#ff5caa"/>
<g fill="none" stroke="#103849" class="B C">
    <path d="M334.918 114.706c-14.208 15.441-22.885 36.052-22.885 58.691 0 47.88 38.816 86.696 86.697 86.696a87.1 87.1 0 0 0 18.377-1.952M227.705 86.721c2.169 31.312 28.257 56.04 60.12 56.04m95.841-11.628a51.89 51.89 0 0 1 22.28-10.825M297.478 60.294c-10.092 6.572-18.387 15.68-23.972 26.427" class="D E"/>
    <path d="M475.371 259.614c0 43.372-35.16 78.52-78.532 78.52-34.333 0-63.507-22.026-74.188-52.72-63.425 4.559-99.692-23.787-114.772-77.814-38.093-10.359-66.093-45.185-66.093-86.56 0-49.545 40.159-89.705 89.706-89.705 26.105 0 49.612 11.145 65.985 28.96 11.013-7.201 24.173-11.375 38.308-11.375 38.759 0 70.173 31.428 70.173 70.188l-.013 1.187v.013c3.585-.787 7.305-1.2 11.133-1.2 28.959 0 52.44 23.479 52.44 52.453 0 13.827-5.347 26.387-14.095 35.759 12.415 13.88 19.947 32.213 19.947 52.295z" class="F"/>
    <path d="M455.424 207.319s-6.088-6.317-14.415-12.892M221.251 349.72a70.67 70.67 0 0 1-6.505-22.802" class="D E"/>
</g>
<path d="M375.239 295.107a70.65 70.65 0 0 1 4.185 24.014c0 42.107-36.959 76.226-82.56 76.226-33.812 0-62.867-18.761-75.613-45.626-10.505 7.133-23.107 11.293-36.64 11.293-30.345 0-55.946-20.88-63.972-49.44a72.28 72.28 0 0 1-17.52 2.147c-39.64 0-71.787-32.135-71.787-71.788 0-30.453 18.973-56.479 45.746-66.893-1.053-4.359-1.613-8.879-1.613-13.519 0-35.96 33.414-65.107 74.64-65.107 23.667 0 44.785 9.625 58.452 24.612 10.961-5.88 23.601-9.252 37.068-9.252 41.773 0 75.638 32.387 75.638 72.333a49.62 49.62 0 0 1-.067 2.825c34.468 6.32 60.667 37.975 60.667 76.081 0 11.453-2.359 22.32-6.625 32.093" fill="#ff5caa"/>
<g fill="none" stroke="#103849" class="B C">
    <path d="M348.452 259.614c12.305 9.092 21.72 21.387 26.787 35.493m-254.6 16.466c-1.707-6.053-2.614-12.44-2.614-19.053 0-26.988 15.187-50.333 37.241-61.493m-59.493-60.494c-6.533.667-12.8 2.201-18.694 4.507m131.494-54.001l-.015-.013m0 0c-9.372 5.067-17.505 11.975-23.865 20.215" class="D E"/>
    <path d="M375.239 295.107a70.65 70.65 0 0 1 4.185 24.014c0 42.107-36.959 76.226-82.56 76.226-33.812 0-62.867-18.761-75.613-45.626-10.505 7.133-23.107 11.293-36.64 11.293-30.345 0-55.946-20.88-63.972-49.44a72.28 72.28 0 0 1-17.52 2.147c-39.64 0-71.787-32.135-71.787-71.788 0-30.453 18.973-56.479 45.746-66.893-1.053-4.359-1.613-8.879-1.613-13.519 0-35.96 33.414-65.107 74.64-65.107 23.667 0 44.785 9.625 58.452 24.612 10.961-5.88 23.601-9.252 37.068-9.252 41.773 0 75.638 32.387 75.638 72.333a49.62 49.62 0 0 1-.067 2.825c34.468 6.32 60.667 37.975 60.667 76.081 0 11.453-2.359 22.32-6.625 32.093z" class="F"/>
    <g class="D E">
        <path d="M256.679 208.414c13.28-13.973 31.613-22.627 51.852-22.627 4.321 0 8.548.387 12.667 1.145m-4.749 90.824c-10.463 13.083-26.56 21.464-44.615 21.464-31.532 0-57.093-25.563-57.093-57.093a56.86 56.86 0 0 1 12.872-36.116"/>
        <path d="M297.079 327.479c0-11.213-2.828-21.758-7.815-30.972m-111.506-5.493c9.413-13.947 24.068-24.041 41.148-27.467M75.973 241.972a61.64 61.64 0 0 1 22.72-4.333 61.32 61.32 0 0 1 34.919 10.855m59.741-59.068c-3.885 1.144-7.997 1.757-12.253 1.757a43.21 43.21 0 0 1-30.233-12.283m229.865 7.742a34.51 34.51 0 0 1 20.692-6.851 34.83 34.83 0 0 1 6.18.549"/>
    </g>
    <path d="M461.575 207.349c8.16-10.125 12.611-22.68 12.611-35.788 0-31.496-25.619-57.121-57.107-57.121-2.201 0-4.397.128-6.575.38-2.228-39.288-34.891-70.566-74.72-70.566-13.28 0-26.18 3.477-37.545 10.089a94.57 94.57 0 0 0-66.748-27.675c-41.961 0-77.597 27.535-89.83 65.479-39.773 3.721-70.862 33.411-70.862 69.374 0 3.579.313 7.164.93 10.7-27.506 12.328-45.062 39.275-45.062 69.713 0 42.156 34.297 76.453 76.453 76.453a77.21 77.21 0 0 0 14.348-1.343c10.006 28.848 37.02 48.636 67.145 48.636a69.54 69.54 0 0 0 34.819-9.317c14.904 26.68 44.717 43.65 77.433 43.65 39.832 0 73.49-24.899 83.889-58.788 5.231 1.031 10.611 1.574 16.084 1.574 45.876 0 83.2-37.319 83.2-83.186 0-19.108-6.528-37.511-18.463-52.265z" stroke-width="18.667"/>
</g>
<path d="M231.491.001c-24.649 0-48.359 7.34-68.566 21.225-17.448 11.989-31.279 28.16-40.415 47.148-44.471 10.777-76.266 46.564-78.276 88.882C16.709 176.367 0 207.922 0 241.934c0 56.263 45.298 102.148 101.337 103.104 17.695 29.074 49.239 47.309 83.276 47.309 8.695 0 17.24-1.152 25.528-3.436 21.451 23.855 52.967 37.769 86.724 37.769 22.867 0 45.017-6.484 64.056-18.747 15.471-9.964 27.936-23.116 36.563-38.469 60.287-.346 109.221-49.492 109.221-109.85 0-18.649-4.665-36.744-13.576-52.923a83.63 83.63 0 0 0 7.724-35.131c0-21.973-8.469-42.751-23.848-58.504-12.128-12.424-27.479-20.631-44.185-23.807-5.647-18.331-16.46-34.847-31.237-47.435a101.58 101.58 0 0 0-65.797-24.229c-11.239 0-22.519 1.907-33.147 5.561C281.993 8.156 257.11.001 231.491.001zm0 17.333c24.992 0 49.501 9.281 68.274 25.667a84.22 84.22 0 0 1 36.019-8.081c41.489 0 76.326 30.172 83.018 70.209 35.839.919 64.716 30.367 64.716 66.432a66.64 66.64 0 0 1-10.395 35.675c10.52 15.329 16.247 33.669 16.247 52.379 0 51.016-41.511 92.52-92.533 92.52-3.3 0-6.612-.18-9.908-.536-14.24 34.372-50.124 57.749-90.065 57.749-32.939 0-63.124-15.449-80.834-40.847a79.2 79.2 0 0 1-31.417 6.514c-31.488 0-59.968-18.88-73.082-47.703-2.794.273-5.605.409-8.411.409-47.302 0-85.786-38.483-85.786-85.787 0-31.405 17.188-60.176 44.331-75.117a71.25 71.25 0 0 1-.198-5.296c0-38.799 31.12-71.396 73.326-77.924 15.419-39.877 53.549-66.263 96.7-66.263" fill="#f0f0f0"/>
</svg>