<svg width="146" height="50" viewBox="0 0 146 50" fill="none" xmlns="http://www.w3.org/2000/svg">
<path fill-rule="evenodd" clip-rule="evenodd" d="M104.441 0.947585C100.484 1.37105 96.5161 3.30723 93.5788 6.24749C92.2136 7.61505 90.5925 9.83553 90.5925 10.3394C90.5925 10.4917 90.5136 10.6165 90.4168 10.6165C90.32 10.6165 90.1897 10.7736 90.1275 10.9668C90.0641 11.1587 89.7414 12.0812 89.4078 13.0157C88.7025 14.9927 88.3427 17.4615 88.4359 19.6844L88.5005 21.2559L69.6717 32.1508C49.1119 44.0486 50.2261 43.4044 48.2834 44.5212C47.5326 44.9519 46.636 45.4761 46.2905 45.6848C45.945 45.8924 45.1692 46.3326 44.5667 46.6625C43.9641 46.9912 43.3365 47.3655 43.1727 47.4939C43.0078 47.6222 42.6491 47.8382 42.3754 47.9737C42.1016 48.1093 41.6975 48.33 41.4787 48.4632C41.26 48.5963 40.4076 49.0918 39.5863 49.5644C38.7638 50.037 37.7775 50.6117 37.3938 50.842C37.01 51.0723 36.2031 51.5306 35.6006 51.8605C34.9981 52.1892 34.3704 52.5586 34.2067 52.681C34.0417 52.8034 33.6938 53.0241 33.432 53.1716C32.1158 53.9154 31.463 54.2909 30.9191 54.6196C29.255 55.6249 28.7864 55.6944 28.2293 55.0227C28.1743 54.9567 27.9053 54.7731 27.6315 54.6148C17.4102 48.7103 4.67357 53.3024 1.27005 64.1181C-0.841167 70.8288 0.616123 77.4603 5.3 82.4531C6.11173 83.3192 8.54692 85.193 8.86013 85.193C8.9749 85.193 9.09804 85.2673 9.1339 85.3585C9.17096 85.4497 9.7161 85.7676 10.3461 86.0639L11.4926 86.6037V120.979V155.354L10.2469 155.934C-3.66727 162.423 -2.61764 183.422 11.8907 188.845C16.3976 190.53 24.1515 189.997 26.65 187.832C26.8234 187.682 27.0314 187.56 27.1127 187.56C27.194 187.56 27.6518 187.29 28.1288 186.96C28.607 186.63 29.0613 186.36 29.1378 186.36C29.2909 186.36 43.2086 194.365 43.3712 194.548C43.4262 194.609 43.7406 194.793 44.0694 194.958C44.3981 195.122 45.339 195.652 46.1614 196.136C48.1806 197.323 48.8584 197.711 50.146 198.414C50.7485 198.743 51.3761 199.112 51.5411 199.234C51.7049 199.356 52.0539 199.576 52.3158 199.725C52.5764 199.873 53.1143 200.18 53.5112 200.408C53.9069 200.634 54.4544 200.946 54.7282 201.099C55.0032 201.251 55.5854 201.598 56.0241 201.869C56.4617 202.14 56.9996 202.449 57.2196 202.555C57.4384 202.661 57.9763 202.97 58.4151 203.241C58.8526 203.512 59.436 203.859 59.7098 204.011C59.9835 204.164 60.5323 204.476 60.928 204.702C61.3237 204.93 61.8616 205.237 62.1234 205.385C62.3853 205.534 62.7332 205.754 62.8981 205.876C63.0619 205.998 63.6895 206.367 64.292 206.696C64.8946 207.026 65.7015 207.484 66.0853 207.715C66.469 207.945 67.4553 208.519 68.2778 208.99C69.0991 209.461 70.0052 209.983 70.2909 210.15C74.3783 212.538 75.8344 213.352 76.0221 213.352C76.1464 213.352 76.2468 213.427 76.2468 213.519C76.2468 213.612 76.4488 213.788 76.6951 213.912C77.3323 214.23 78.9032 215.129 84.0174 218.103L88.5005 220.71L88.4383 222.18C88.2817 225.828 89.5632 230.693 91.2477 232.845C91.3337 232.956 91.6278 233.36 91.9004 233.745C92.491 234.576 95.1772 237.344 95.3948 237.344C95.4773 237.344 95.6638 237.461 95.8084 237.607C99.1223 240.907 107.715 241.947 113.108 239.7C120.136 236.772 124.947 229.032 124.148 221.936C124.015 220.747 124.09 220.637 125.56 219.84C127.073 219.022 128.764 218.055 128.848 217.962C128.961 217.836 129.459 217.547 131.04 216.689C131.643 216.363 132.27 215.987 132.434 215.855C132.599 215.724 133.025 215.501 133.381 215.36C133.737 215.218 134.029 215.033 134.029 214.951C134.029 214.867 134.186 214.745 134.377 214.683C134.569 214.62 135.085 214.341 135.523 214.063C135.961 213.786 136.657 213.413 137.067 213.234C137.478 213.054 137.814 212.845 137.814 212.767C137.814 212.689 138.128 212.503 138.512 212.352C138.895 212.201 139.209 212.026 139.209 211.964C139.209 211.901 139.501 211.721 139.857 211.564C140.213 211.407 140.97 210.98 141.54 210.615C142.11 210.251 142.671 209.953 142.786 209.953C142.901 209.953 142.995 209.88 142.995 209.79C142.995 209.701 143.308 209.504 143.692 209.353C144.076 209.202 144.389 209.005 144.389 208.915C144.389 208.827 144.472 208.753 144.572 208.753C144.672 208.753 145.437 208.348 146.272 207.854C147.105 207.358 147.837 206.954 147.895 206.954C147.955 206.954 148.378 206.698 148.836 206.388C149.294 206.076 150.387 205.424 151.263 204.939C152.141 204.453 153.006 203.966 153.189 203.855C153.371 203.745 154.222 203.25 155.081 202.755C155.94 202.261 156.798 201.767 156.988 201.656C167.31 195.65 183.429 186.36 183.528 186.36C183.602 186.36 184.173 186.708 184.797 187.133C190.249 190.844 199.656 190.753 204.444 186.943C209.109 183.232 210.853 180.608 211.938 175.673C212.57 172.805 212.286 168.122 211.357 166.066C211.258 165.847 211.061 165.351 210.917 164.967C209.614 161.459 206.015 157.633 202.437 155.955L201.174 155.362V120.972C201.174 88.402 201.193 86.5725 201.523 86.4466C205.087 85.0814 208.893 81.3782 210.567 77.6462C210.901 76.9037 211.256 76.1155 211.356 75.896C211.457 75.6752 211.717 74.6472 211.936 73.6107C213.955 64.021 207.901 54.5284 198.385 52.3643C196.108 51.8461 189.306 52.1784 188.906 52.8262C188.846 52.9233 188.634 53.0025 188.434 53.0025C188.063 53.0025 184.62 54.7168 184.438 54.9915C183.982 55.6812 183.317 55.6285 182.047 54.8031C181.591 54.5068 177.309 52.0344 176.069 51.3506C175.467 51.0195 174.839 50.6477 174.675 50.5253C174.51 50.4041 174.162 50.1834 173.901 50.0346C172.796 49.4108 171.926 48.9118 170.988 48.3648C170.441 48.0445 169.836 47.7326 169.643 47.6702C169.452 47.609 169.296 47.4951 169.296 47.4183C169.296 47.3415 168.981 47.1556 168.597 47.0044C168.214 46.8533 167.9 46.6673 167.9 46.5906C167.9 46.5138 167.744 46.3998 167.551 46.3374C167.36 46.2738 166.845 45.9968 166.406 45.722C165.967 45.4461 165.296 45.0647 164.912 44.8739C164.528 44.6832 164.169 44.4768 164.114 44.4157C164.059 44.3545 163.746 44.1709 163.417 44.0054C163.089 43.841 162.775 43.6611 162.721 43.6059C162.666 43.5507 162.351 43.372 162.022 43.21C161.694 43.0469 161.156 42.7278 160.827 42.4999C160.498 42.2719 159.96 41.9564 159.631 41.7969C159.303 41.6374 158.989 41.4622 158.934 41.407C158.879 41.3518 158.566 41.1719 158.237 41.0063C157.909 40.842 157.594 40.6585 157.539 40.5985C157.37 40.4125 154.109 38.6071 153.943 38.6071C153.857 38.6071 153.757 38.5363 153.721 38.45C153.654 38.2916 152.716 37.7218 150.865 36.7153C150.317 36.4166 144.085 32.8142 137.018 28.7091L124.166 21.2463L124.212 20.1798C124.39 15.9872 123.288 12.0284 120.965 8.51236C120.305 7.51308 117.559 4.61841 117.272 4.61841C117.19 4.61841 117.003 4.50564 116.858 4.36769C116.401 3.93343 115.038 3.10929 114.005 2.64144C113.456 2.39312 112.86 2.11121 112.678 2.01404C111.387 1.32666 106.638 0.712461 104.441 0.947585ZM110.258 5.04427C117.295 7.22038 121.534 13.9274 120.415 21.1131C120.261 22.1028 120.164 22.9653 120.2 23.0313C120.286 23.1861 123.153 24.8859 125.56 26.2103C126.218 26.5714 126.891 26.9672 127.055 27.0896C127.22 27.2108 127.567 27.4315 127.829 27.5802C128.091 27.7278 128.629 28.0349 129.025 28.2628C129.42 28.4896 129.969 28.8015 130.243 28.9538C130.517 29.1062 131.1 29.4529 131.538 29.724C131.976 29.9951 132.514 30.3046 132.733 30.4101C132.953 30.5157 133.491 30.8252 133.929 31.0963C134.367 31.3674 134.951 31.7141 135.225 31.8665C135.498 32.0188 136.046 32.3307 136.441 32.5575C136.838 32.7854 137.376 33.0925 137.637 33.24C137.899 33.3888 138.248 33.6095 138.412 33.7307C138.577 33.853 139.204 34.2225 139.807 34.5512C141.009 35.2086 141.564 35.5253 143.791 36.8353C144.614 37.3187 145.555 37.8466 145.883 38.0097C146.212 38.1741 146.527 38.3576 146.582 38.42C146.788 38.6539 151.305 41.2067 151.512 41.2067C151.631 41.2067 151.758 41.2811 151.795 41.371C151.873 41.5642 183.749 60.0011 184.004 60.0011C184.099 60.0011 184.348 59.8091 184.557 59.574C189.756 53.7307 200.407 54.4516 205.657 61.0027C211.692 68.5315 208.245 80.6236 199.282 83.3768C198.843 83.5111 198.282 83.7198 198.036 83.841L197.587 84.0606L197.638 121.055L197.688 158.05L199.183 158.56C207.814 161.504 211.41 171.794 206.557 179.663C205.197 181.868 202.355 184.383 200.527 185C200.171 185.12 199.79 185.288 199.68 185.373C199.143 185.788 196.107 186.36 194.444 186.36C190.875 186.36 187.04 184.858 184.961 182.646C184.324 181.97 183.044 181.757 183.044 182.328C183.044 182.403 182.752 182.591 182.396 182.747C182.039 182.902 181.703 183.089 181.648 183.161C181.593 183.233 181.056 183.554 180.453 183.876C179.85 184.196 179.313 184.503 179.258 184.56C179.203 184.616 178.889 184.796 178.561 184.96C178.232 185.126 177.917 185.312 177.862 185.374C177.807 185.438 177.046 185.888 176.17 186.373C175.292 186.86 174.427 187.349 174.245 187.459C172.902 188.277 121.358 218.108 120.613 218.499C120.189 218.722 120.075 218.901 120.152 219.222C123.65 233.734 106.556 243.583 96.1061 233.076C92.7743 229.726 91.1735 223.993 92.3846 219.755C92.6201 218.932 92.5113 218.701 91.7354 218.368C91.3816 218.216 90.956 217.982 90.7922 217.849C90.6272 217.716 90.0008 217.339 89.3971 217.012C87.7808 216.136 87.3492 215.877 87.0623 215.614C86.9212 215.483 86.6032 215.315 86.3582 215.24C86.1119 215.164 85.7867 215.001 85.6361 214.876C85.3396 214.634 83.44 213.521 82.6235 213.11C82.3497 212.972 82.0808 212.807 82.0258 212.741C81.9708 212.676 81.208 212.225 80.3318 211.738C79.4555 211.252 78.5888 210.764 78.407 210.654C78.2241 210.543 77.373 210.048 76.5134 209.554C75.6551 209.059 74.7967 208.564 74.6054 208.453C63.087 201.784 30.5078 182.905 29.8503 182.52C28.8234 181.918 28.3285 181.834 28.0894 182.219C26.7935 184.312 21.8741 186.36 18.1418 186.36C3.55939 186.36 -1.4664 166.884 11.2164 159.52C12.4633 158.797 12.5733 158.752 14.033 158.373L14.8806 158.154L14.8304 121.023L14.7801 83.8938L13.5476 83.4703C9.43038 82.0548 5.42792 77.9509 4.59946 74.2957C4.52534 73.9658 4.36394 73.5699 4.242 73.4152C3.7662 72.8142 3.9802 67.0692 4.53729 65.4929C6.67122 59.4468 12.0019 55.5637 18.1669 55.5637C20.0367 55.5637 22.9213 56.1191 23.5466 56.6002C23.6566 56.6841 23.953 56.8161 24.2053 56.8941C24.8389 57.0896 26.9836 58.5351 27.83 59.3365C28.2137 59.7 28.5963 59.9975 28.68 59.9987C28.7637 59.9999 32.5975 57.819 37.1977 55.1522C41.7991 52.4855 45.7203 50.2134 45.9116 50.103C48.7365 48.4776 49.4346 48.0733 49.7156 47.9041C49.8973 47.7938 50.7186 47.3163 51.5411 46.8449C52.3624 46.3722 53.3486 45.7976 53.7324 45.5661C54.1161 45.3358 54.9231 44.8775 55.5256 44.5488C56.1281 44.2189 56.7558 43.8446 56.9207 43.7163C57.0845 43.5879 57.4431 43.3756 57.7169 43.2436C57.9919 43.1105 58.4844 42.8358 58.8132 42.633C60.2956 41.7141 60.8515 41.3974 61.4958 41.1047C61.876 40.932 62.2346 40.7268 62.2932 40.6489C62.408 40.4953 62.8001 40.2626 64.4917 39.3461C65.0942 39.0186 65.7218 38.6479 65.8868 38.5207C66.0506 38.3936 66.4547 38.1597 66.7834 37.9989C67.1122 37.8394 67.4254 37.663 67.4804 37.6078C67.5844 37.5035 67.9239 37.3055 69.4577 36.4562C69.9586 36.1791 70.5934 35.8036 70.8672 35.6225C71.1421 35.4425 71.6347 35.163 71.9634 35.0023C72.2922 34.8415 72.6054 34.664 72.6604 34.6088C72.7154 34.5536 72.9844 34.3809 73.2581 34.2237C76.3819 32.4339 77.5188 31.8101 77.6503 31.8101C77.7376 31.8101 77.838 31.7393 77.8739 31.6517C77.9408 31.4934 78.8984 30.9128 80.7298 29.9183C85.8166 27.1592 92.4814 23.0481 92.4348 22.699C91.9398 18.9778 91.9279 18.7283 92.1538 17.0212C93.3075 8.32521 102.086 2.51668 110.258 5.04427ZM82.2242 36.4994C74.9366 40.7172 68.8803 44.2453 68.7643 44.3377C68.6484 44.43 68.2001 44.6928 67.7673 44.9219C66.3554 45.6693 64.9914 46.4634 64.8898 46.5965C64.8348 46.6685 64.4989 46.8461 64.1426 46.99C63.7863 47.1352 63.4959 47.3103 63.4959 47.3799C63.4959 47.4495 63.2042 47.6342 62.8479 47.789C62.4917 47.9437 61.4026 48.5507 60.4271 49.1373C59.4516 49.7239 58.5848 50.2038 58.5011 50.2038C58.4175 50.2038 58.3182 50.271 58.2824 50.3538C58.2453 50.4365 57.632 50.8072 56.9207 51.1791C56.2082 51.5498 55.4909 51.954 55.326 52.0788C55.1622 52.2024 54.8131 52.4243 54.5513 52.5718C54.2907 52.7194 53.7527 53.0265 53.3558 53.2544C52.9601 53.4823 52.4126 53.7931 52.1388 53.9454C51.8651 54.099 51.3713 54.3869 51.0426 54.5848C50.4986 54.9135 49.8459 55.2902 48.5297 56.0327C48.2679 56.1815 47.9188 56.4022 47.755 56.5234C47.59 56.6457 46.9624 57.0128 46.3599 57.3403C44.8117 58.18 44.3108 58.4692 43.9689 58.7235C43.8051 58.8446 43.1775 59.2141 42.575 59.544C41.9713 59.8727 41.1966 60.313 40.8511 60.5217C40.2211 60.902 38.0155 62.176 36.8965 62.8058C36.0692 63.2712 32.8079 65.187 32.2736 65.5205C31.8432 65.7904 31.8408 65.8132 32.154 66.8461C32.5868 68.2784 32.5796 71.7645 32.1409 73.0529C31.5754 74.7143 31.2132 74.4 38.6395 78.6995C45.6223 82.7422 49.9583 85.2458 51.5303 86.1431C52.0181 86.4214 52.8693 86.9192 53.4228 87.2479C53.9763 87.5778 54.6983 87.9989 55.0271 88.1848C56.2058 88.8494 58.3661 90.0982 58.9817 90.4701C59.3272 90.6788 60.1031 91.1179 60.7056 91.4478C61.3081 91.7765 61.9358 92.146 62.1007 92.2683C62.2645 92.3907 62.6136 92.6114 62.8754 92.759C63.1372 92.9065 63.6752 93.2136 64.0709 93.4415C64.4666 93.6695 65.044 93.9982 65.3548 94.1721C65.6656 94.3472 66.1092 94.5968 66.3399 94.7275C66.8026 94.9891 66.9113 94.9471 67.9012 94.1373C69.8881 92.5142 74.829 90.1978 76.3221 90.1894C77.5439 90.1834 79.0371 88.6611 79.0371 87.4207C79.0371 87.3139 79.104 87.1951 79.1865 87.1592C79.2678 87.122 79.5511 86.6865 79.8153 86.1923C80.8649 84.2261 83.0299 81.6241 85.226 79.6903C86.657 78.4308 89.6134 76.7081 92.2865 75.5781C94.8556 74.4912 99.3064 73.7055 101.901 73.8806L103.745 74.0042L103.694 53.4692L103.644 32.9341L102.547 32.663C100.657 32.194 97.7212 30.5601 96.5592 29.3317C95.8383 28.5699 96.4564 28.2616 82.2242 36.4994ZM115.309 29.9075C113.834 31.1311 111.94 32.1388 110.219 32.6174L109.023 32.9497L108.973 54.1733C108.928 73.0397 108.955 75.3957 109.224 75.3957C109.39 75.3957 109.682 75.4821 109.873 75.5889C110.063 75.6944 110.667 75.9763 111.215 76.2139C112.687 76.8533 115.314 78.4008 115.986 79.0234C117.113 80.0694 117.32 80.1066 118.927 79.544C122.359 78.342 122.579 78.3048 126.158 78.3048C129.692 78.3048 130.042 78.3624 133.132 79.454C134.696 80.0058 137.637 81.6865 138.626 82.5934C141.532 85.2566 142.798 86.8245 144.05 89.3077C144.693 90.5853 145.781 93.7427 145.783 94.3401C145.784 94.8547 146.273 94.9435 146.764 94.5176C146.938 94.3676 148.559 93.396 150.366 92.3559C152.175 91.317 159.776 86.93 167.257 82.6054L180.859 74.7443L180.73 74.0198C180.659 73.6227 180.53 73.1596 180.445 72.9929C180.359 72.8261 180.231 71.9708 180.158 71.0939C180.042 69.6808 180.129 68.6623 180.573 66.2822L180.687 65.6657L172.784 61.0831C168.436 58.5639 164.416 56.2427 163.85 55.9248C162.63 55.241 158.441 52.8022 157.078 51.9816C156.551 51.6637 156.035 51.4034 155.933 51.4034C155.83 51.4034 155.746 51.335 155.746 51.2523C155.746 51.1695 155.456 50.9752 155.099 50.8216C154.743 50.6669 154.228 50.3873 153.953 50.2014C153.679 50.0143 153.044 49.634 152.543 49.3557C150.965 48.4823 150.669 48.3072 150.566 48.1944C150.511 48.1333 150.152 47.9257 149.769 47.7338C149.385 47.5406 148.713 47.1676 148.274 46.9049C147.837 46.6409 147.299 46.3326 147.079 46.2187C146.86 46.1047 146.322 45.7844 145.883 45.5073C145.446 45.2302 144.818 44.8655 144.489 44.6988C143.925 44.4109 143.495 44.1589 141.949 43.2076C141.593 42.9881 141.078 42.7014 140.803 42.5694C140.529 42.4375 140.17 42.224 140.006 42.0956C139.841 41.9672 139.214 41.5954 138.611 41.2679C137.063 40.4281 136.562 40.139 136.22 39.8847C136.055 39.7635 135.429 39.3941 134.825 39.0642C134.223 38.7355 133.416 38.2772 133.032 38.0469C132.648 37.8154 131.663 37.242 130.841 36.7705C130.019 36.3003 129.111 35.7784 128.824 35.6117C128.537 35.4449 125.784 33.847 122.705 32.0596C116.292 28.336 116.967 28.5315 115.309 29.9075ZM96.1718 33.6527C96.5556 33.895 97.0481 34.2021 97.2681 34.3341C97.9316 34.7336 99.7953 35.6081 99.9818 35.6081C100.081 35.6081 100.156 43.1333 100.156 53.0025V70.3969L99.2108 70.4077C94.7935 70.4593 86.1239 73.7163 83.819 76.1911C83.764 76.2498 83.3994 76.5366 83.0084 76.8281C81.5942 77.8849 79.7424 79.9219 77.6778 82.693C77.41 83.0517 75.7172 86.0843 75.5977 86.419C75.5283 86.6121 75.0501 86.8473 74.4189 86.9984C72.285 87.5082 69.3477 88.7822 67.2676 90.0994L66.4535 90.6152L52.0025 82.2551C44.055 77.6582 37.1595 73.6767 36.6789 73.408L35.8062 72.9209L35.9509 71.8089C36.1123 70.5745 36.1242 69.7275 35.9963 68.4224L35.9114 67.5466L50.7497 58.9622C58.91 54.2405 66.7081 49.7359 68.0781 48.9514C69.4481 48.168 70.6137 47.4759 70.6687 47.4159C70.7225 47.3547 71.1266 47.1136 71.5653 46.8809C72.9031 46.1671 74.3484 45.3358 74.4536 45.217C74.5086 45.1558 74.823 44.9699 75.1518 44.8055C75.4805 44.6412 75.7937 44.4613 75.8487 44.4061C75.9037 44.3509 76.2169 44.1709 76.5457 44.0078C76.8744 43.8434 77.6097 43.4164 78.1799 43.0577C78.7501 42.699 79.3108 42.4063 79.4256 42.4063C79.5404 42.4063 79.6348 42.3331 79.6348 42.2431C79.6348 42.1544 79.948 41.9576 80.3318 41.8065C80.7155 41.6553 81.0287 41.4802 81.0287 41.4178C81.0287 41.3554 81.3204 41.1779 81.6767 41.0231C82.0329 40.8672 82.7968 40.4413 83.3743 40.0742C83.9517 39.7072 84.5124 39.4073 84.6199 39.4073C84.7263 39.4073 84.8148 39.3389 84.8148 39.2561C84.8148 39.1733 85.1065 38.979 85.4628 38.8254C85.819 38.6707 86.3343 38.3912 86.608 38.2052C86.8818 38.0181 87.5094 37.6402 88.0032 37.3643C88.4957 37.0896 89.2237 36.6805 89.6194 36.455C90.0151 36.2307 90.5531 35.9248 90.8149 35.7772C91.0767 35.6297 91.4246 35.4089 91.5896 35.2866C91.8478 35.0946 93.0014 34.4408 94.7767 33.4812C95.4091 33.1393 95.3505 33.1321 96.1718 33.6527ZM118.56 33.8782C119.233 34.2465 120.096 34.7372 120.479 34.9687C120.863 35.2002 121.85 35.776 122.672 36.2475C123.493 36.7201 124.322 37.1964 124.512 37.3067C124.702 37.4171 126.585 38.5111 128.696 39.7384C130.807 40.9644 132.824 42.134 133.178 42.3367C133.532 42.5407 143.443 48.2724 155.206 55.0766L176.59 67.4459L176.578 69.6712C176.572 70.896 176.637 72.1448 176.721 72.4471C176.839 72.8729 176.806 72.9965 176.571 72.9965C176.405 72.9965 176.269 73.0865 176.269 73.1968C176.269 73.306 176.178 73.396 176.066 73.396C175.954 73.396 175.528 73.6059 175.119 73.8626C174.71 74.1193 173.883 74.5992 173.28 74.9291C171.617 75.8396 171.198 76.0843 171.089 76.2115C171.034 76.275 170.406 76.6445 169.694 77.0308C168.981 77.4171 168.085 77.9257 167.701 78.1596C167.317 78.3936 166.332 78.9694 165.511 79.4396C163.617 80.5241 164.523 79.9999 155.832 85.043C147.417 89.9267 148.111 89.6088 147.767 88.7414C143.538 78.0385 130.501 72.1208 118.988 75.6788L117.993 75.9859L116.873 75.1966C116.256 74.7635 115.023 74.039 114.131 73.5855L112.51 72.7638V54.2345V35.7064L113.157 35.4245C113.513 35.2698 114.03 35.0467 114.304 34.9291C114.577 34.8115 115.331 34.3773 115.979 33.9622C117.388 33.0601 117.082 33.0697 118.56 33.8782ZM27.8933 80.3477C27.3255 80.8684 26.7349 81.3962 26.5819 81.5198C25.9459 82.0368 23.28 83.3588 22.4013 83.5927L21.4545 83.8446V120.892V157.94L22.5998 158.364C24.9811 159.243 26.8174 160.383 28.2185 161.848C29.1068 162.779 28.9418 162.842 34.5689 159.468C34.753 159.358 35.6209 158.87 36.4972 158.383C37.3747 157.896 38.1362 157.447 38.1912 157.383C38.2462 157.32 38.5594 157.134 38.8881 156.97C39.2169 156.805 39.5313 156.624 39.5863 156.569C39.6401 156.513 40.1781 156.204 40.7818 155.884C41.3843 155.564 41.9223 155.249 41.9773 155.186C42.0311 155.122 42.3455 154.935 42.6742 154.771C43.003 154.605 43.3162 154.426 43.3712 154.371C43.4262 154.316 43.8302 154.082 44.2678 153.851C45.6784 153.109 47.0437 152.323 47.5864 151.943C47.8769 151.738 48.2141 151.571 48.3336 151.571C48.4532 151.571 48.5524 151.503 48.5524 151.42C48.5524 151.337 48.8429 151.143 49.1991 150.99C49.5554 150.835 50.0718 150.555 50.3456 150.369C50.6194 150.182 51.247 149.804 51.7395 149.528C52.2333 149.254 52.9601 148.845 53.3558 148.619C53.7527 148.395 54.2907 148.089 54.5513 147.941C54.8131 147.794 55.1622 147.573 55.326 147.451C55.4909 147.328 56.1186 146.959 56.7211 146.628C58.6243 145.584 59.1108 145.277 59.0606 145.15C59.0343 145.081 58.3063 144.458 57.4432 143.763C55.9667 142.575 53.6105 140.033 53.0761 139.052C51.608 136.354 51.0629 135.013 50.4066 132.484C48.3396 124.527 52.0049 115.32 59.0487 110.784L60.445 109.885L60.5502 107.485C60.6674 104.826 60.9925 103.618 62.3231 100.914C63.3811 98.7642 63.5855 99.1361 60.4067 97.4279C59.8592 97.1328 59.3655 96.8424 59.3117 96.7813C59.112 96.5593 29.2897 79.3941 29.1103 79.3988C29.0087 79.4 28.4612 79.8283 27.8933 80.3477ZM168.325 88.0864C150.839 98.198 152.92 96.8281 153.985 97.5238C155.344 98.4115 155.34 98.408 156.943 99.9878C161.639 104.616 162.778 112.85 159.497 118.44C158.811 119.609 158.76 119.246 159.89 121.215C160.804 122.812 161.484 124.498 162.253 127.079C162.77 128.812 162.775 135.068 162.264 137.076C161.319 140.776 159.552 144.227 157.408 146.562C156.836 147.184 156.951 147.327 158.908 148.421C159.745 148.888 160.579 149.36 160.763 149.471C161.041 149.638 164.698 151.751 165.953 152.471C166.144 152.581 170.144 154.898 174.84 157.62C183.59 162.691 183.77 162.783 183.968 162.266C184.294 161.414 187.946 159.098 190.267 158.272L191.214 157.935L191.163 120.914L191.113 83.8926L190.017 83.5435C188.054 82.9185 185.802 81.5318 184.448 80.1138C184.071 79.7179 183.668 79.3964 183.552 79.3988C183.437 79.4 176.584 83.3096 168.325 88.0864ZM31.0936 84.6028C31.8743 85.0478 32.8259 85.6009 33.2096 85.8312C33.5934 86.0615 34.4003 86.5198 35.0028 86.8497C35.6054 87.1784 36.233 87.5478 36.398 87.6702C36.5617 87.7913 36.9108 88.0121 37.1726 88.1608C37.4344 88.3084 37.9724 88.6155 38.3681 88.8434C38.7638 89.0702 39.3125 89.382 39.5863 89.5344C39.8601 89.6879 40.3526 89.9747 40.6814 90.1738C41.3735 90.5913 42.6527 91.3326 43.3712 91.7333C43.6461 91.8856 44.2284 92.2323 44.6671 92.5022C45.1046 92.7733 45.8004 93.15 46.2104 93.3396C46.6217 93.5291 46.9576 93.7534 46.9576 93.8374C46.9576 93.9214 47.0628 93.9898 47.1919 93.9898C47.3199 93.9898 47.5661 94.1121 47.7395 94.2621C48.0312 94.514 49.3259 95.2554 51.2422 96.2678C51.6798 96.4994 52.0838 96.7369 52.1388 96.7945C52.3158 96.984 54.6111 98.3036 55.277 98.5987C55.6332 98.757 55.9237 98.931 55.9249 98.9874C55.9249 99.0425 56.4987 99.3988 57.2017 99.7791L58.4784 100.47L58.115 101.478C57.4408 103.347 57.0821 104.869 56.9721 106.333L56.8621 107.787L55.4467 108.921C53.6834 110.335 52.7186 111.298 51.5004 112.861C50.9756 113.534 50.4747 114.173 50.385 114.284C46.0873 119.587 45.0257 131.3 48.2786 137.554C48.4269 137.841 48.55 138.15 48.5512 138.241C48.5548 138.833 51.5949 143.332 52.5955 144.228C53.0832 144.665 54.2177 143.923 44.5667 149.485C40.0191 152.108 36.2688 154.324 36.2318 154.412C36.1959 154.498 36.0692 154.57 35.9509 154.57C35.6783 154.57 32.5354 156.401 32.4457 156.612C32.4099 156.698 32.27 156.769 32.1361 156.769C32.0022 156.769 31.469 157.039 30.9514 157.369C29.7511 158.133 29.6507 158.126 28.2759 157.193C27.6471 156.766 26.662 156.179 26.087 155.89L25.0409 155.363V120.927V86.491L26.1862 85.9403C26.8162 85.6368 27.8252 85.0346 28.4277 84.6028C29.7642 83.6455 29.4164 83.6455 31.0936 84.6028ZM184.568 84.8943C185.241 85.3453 186.206 85.8864 186.709 86.0951L187.626 86.4742V120.901V155.329L186.58 155.874C186.005 156.175 184.944 156.802 184.225 157.267L182.917 158.114L182.133 157.64C181.702 157.38 181.081 157.03 180.752 156.863C180.182 156.573 179.48 156.161 178.161 155.344C177.833 155.14 177.34 154.865 177.066 154.734C176.792 154.602 176.433 154.388 176.269 154.26C176.104 154.131 175.476 153.759 174.874 153.432C173.326 152.592 172.825 152.303 172.483 152.049C172.319 151.928 171.691 151.558 171.089 151.228C170.485 150.9 169.678 150.441 169.296 150.211C168.912 149.979 167.926 149.405 167.103 148.932C166.282 148.461 165.459 147.983 165.275 147.873C165.091 147.763 164.349 147.329 163.624 146.91L162.308 146.145L162.952 145.009C164.185 142.842 164.515 142.081 165.184 139.875C167.103 133.558 166.54 126.187 163.712 120.603L163.104 119.404L163.604 118.211C164.682 115.642 164.97 113.803 164.848 110.284C164.686 105.615 163.49 102.213 160.824 98.8302C159.793 97.5214 159.623 97.2059 159.896 97.1112C160.08 97.0476 160.588 96.7681 161.027 96.4898C161.465 96.2127 162.16 95.83 162.571 95.6404C162.981 95.4497 163.318 95.2266 163.318 95.1426C163.318 95.0586 163.416 94.989 163.536 94.989C163.657 94.989 163.992 94.8223 164.283 94.6184C164.575 94.4144 165.215 94.0221 165.709 93.7462C166.202 93.4715 166.919 93.0637 167.303 92.8405C170.171 91.1731 171.944 90.1906 172.085 90.1906C172.176 90.1906 172.281 90.1186 172.317 90.0298C172.354 89.9399 172.922 89.5632 173.579 89.1913C174.237 88.8206 176.602 87.4567 178.838 86.1599C181.072 84.8643 182.999 83.865 183.121 83.9382C183.243 84.0126 183.894 84.442 184.568 84.8943ZM63.2962 148.911C61.0583 150.233 59.1874 151.3 58.5645 151.611C58.3171 151.734 58.1162 151.911 58.1162 152.003C58.1162 152.096 58.0146 152.171 57.8903 152.171C57.7026 152.171 56.2465 152.984 52.1591 155.373C51.8734 155.54 50.9684 156.061 50.146 156.533C49.3247 157.003 48.3372 157.578 47.9547 157.808C47.5709 158.038 46.764 158.497 46.1614 158.827C45.5577 159.155 44.9301 159.525 44.7663 159.647C44.4244 159.9 43.9235 160.191 42.3754 161.03C41.7728 161.357 41.1452 161.724 40.9802 161.846C40.8164 161.968 40.4674 162.189 40.2056 162.337C39.9449 162.484 39.407 162.791 39.0101 163.019C38.6144 163.247 38.0669 163.558 37.7931 163.71C37.5193 163.863 36.9359 164.21 36.4972 164.482C36.0596 164.753 35.5217 165.061 35.3017 165.167C35.0829 165.273 34.545 165.584 34.1062 165.859C33.6687 166.132 32.9729 166.541 32.5629 166.766C31.7105 167.231 31.6961 167.301 32.1433 168.78C32.5856 170.245 32.5939 173.696 32.1588 175.116C31.8408 176.151 31.842 176.172 32.2736 176.447C32.8498 176.815 55.6989 190.031 57.1192 190.818C57.7217 191.153 58.5573 191.641 58.9758 191.902C59.3942 192.165 60.066 192.565 60.4701 192.79C61.1766 193.185 64.7547 195.246 65.4493 195.658C65.6346 195.769 66.4594 196.245 67.2807 196.718C68.1032 197.189 69.0895 197.765 69.4733 197.995C69.8558 198.226 70.6628 198.684 71.2665 199.014C71.869 199.342 72.4966 199.712 72.6604 199.834C72.8254 199.955 73.1732 200.176 73.4351 200.325C74.7513 201.067 75.404 201.444 75.9479 201.773C76.2767 201.971 76.7704 202.259 77.0442 202.412C77.318 202.565 77.9013 202.899 78.3389 203.155C78.7776 203.41 79.361 203.745 79.6348 203.897C79.9086 204.05 80.4908 204.396 80.9295 204.666C81.3682 204.937 82.0628 205.314 82.4741 205.504C82.8841 205.693 83.2212 205.917 83.2212 206.001C83.2212 206.085 83.3193 206.154 83.4388 206.154C83.5595 206.154 83.8955 206.321 84.186 206.526C84.7287 206.906 86.094 207.692 87.5046 208.433C87.9434 208.665 88.3462 208.905 88.4012 208.968C88.5614 209.155 91.8155 210.952 91.9924 210.952C92.0809 210.952 92.1837 211.024 92.2196 211.112C92.3164 211.343 95.5096 213.152 95.8144 213.148C95.9555 213.146 96.2914 212.912 96.5604 212.628C97.9244 211.187 100.939 209.568 103.195 209.067L103.743 208.945V186.601V164.257L102.531 163.371C101.18 162.385 99.4773 160.753 98.2544 159.275C97.4486 158.3 97.4486 158.3 96.6608 158.514C92.2841 159.702 91.9351 159.768 90.0426 159.768C85.6098 159.768 80.6474 157.965 77.6706 155.275C75.63 153.431 74.621 152.19 73.3227 149.93L72.4261 148.372L70.2025 148.371C68.9795 148.371 67.6645 148.289 67.2807 148.19C65.4122 147.706 65.301 147.727 63.2962 148.911ZM151.363 151.436C148.176 153.322 144.874 154.166 140.676 154.168L138.256 154.171L137.813 155.12C135.834 159.352 131.97 163.287 127.797 165.321C125.112 166.63 124.631 166.816 122.472 167.379C120.629 167.86 116.628 168.176 115.021 167.968C112.41 167.631 110.638 167.329 110.318 167.17C110.154 167.088 109.773 166.962 109.47 166.89L108.922 166.758L108.973 187.89L109.023 209.021L110.119 209.275C111.956 209.701 114.895 211.348 116.106 212.628C116.689 213.245 116.959 213.271 117.659 212.784C117.951 212.583 118.323 212.359 118.488 212.289C118.652 212.218 119.145 211.938 119.583 211.666C120.022 211.395 120.605 211.048 120.879 210.896C121.597 210.494 122.876 209.753 123.569 209.335C123.897 209.137 124.39 208.849 124.664 208.696C124.939 208.543 125.498 208.224 125.909 207.986C126.321 207.748 126.992 207.364 127.404 207.133C127.815 206.9 128.241 206.643 128.351 206.559C128.459 206.475 128.953 206.183 129.446 205.909C129.939 205.634 130.657 205.228 131.04 205.005C133.908 203.337 135.681 202.355 135.822 202.355C135.913 202.355 136.018 202.281 136.054 202.19C136.091 202.1 136.838 201.62 137.715 201.124C139.621 200.045 179.554 176.953 180.216 176.546C180.589 176.318 180.655 176.148 180.559 175.663C179.966 172.663 179.964 170.424 180.553 168.485C180.717 167.945 180.851 167.436 180.851 167.356C180.851 167.275 179.638 166.502 178.154 165.638C176.671 164.774 175.304 163.977 175.116 163.866C174.929 163.756 174.103 163.28 173.28 162.807C172.459 162.335 171.471 161.76 171.089 161.528C170.705 161.297 169.808 160.792 169.096 160.405C168.383 160.02 167.426 159.448 166.968 159.136C166.51 158.824 166.087 158.569 166.027 158.569C165.969 158.569 165.237 158.164 164.403 157.669C163.569 157.175 162.804 156.769 162.704 156.769C162.603 156.769 162.521 156.696 162.521 156.607C162.521 156.517 162.206 156.321 161.824 156.169C161.44 156.018 161.126 155.822 161.126 155.733C161.126 155.643 161.032 155.57 160.918 155.57C160.803 155.57 160.242 155.272 159.672 154.907C159.102 154.543 158.344 154.116 157.988 153.959C157.631 153.801 157.341 153.621 157.341 153.559C157.341 153.497 157.026 153.322 156.643 153.17C156.259 153.019 155.946 152.833 155.946 152.755C155.946 152.677 155.61 152.47 155.199 152.292C154.459 151.972 154.155 151.8 153.127 151.121C152.481 150.694 152.671 150.661 151.363 151.436ZM68.6161 151.881L70.2491 152.01L71.2007 153.44C72.0411 154.702 75.0525 157.946 76.1476 158.77C77.5559 159.829 81.0957 161.768 81.6229 161.768C81.7376 161.768 81.9875 161.854 82.1776 161.961C84.5745 163.296 91.8597 163.698 95.2047 162.681L96.13 162.399L97.0027 163.334C97.4821 163.847 98.3883 164.706 99.0159 165.241L100.156 166.215V186.166V206.117L98.7122 206.823C97.9172 207.213 96.8449 207.813 96.3273 208.157L95.3864 208.783L93.8359 207.902C92.9835 207.417 83.1411 201.728 71.9634 195.259C60.7857 188.789 50.8106 183.017 49.7957 182.431C47.6331 181.181 44.3646 179.288 43.3712 178.711C42.9874 178.488 42.2701 178.082 41.7776 177.808C41.2839 177.533 40.7913 177.241 40.6814 177.158C40.5726 177.074 40.1458 176.816 39.7357 176.585C39.3245 176.353 38.6514 175.969 38.2414 175.733C37.8302 175.496 37.1619 175.122 36.7566 174.901L36.019 174.5L36.0585 172.682C36.0812 171.683 36.0298 170.46 35.9449 169.965L35.7907 169.064L45.9606 163.167C51.5542 159.923 56.2859 157.18 56.476 157.069C56.6649 156.959 57.4934 156.481 58.3146 156.01C59.1371 155.537 60.1234 154.961 60.5072 154.73C60.8897 154.498 61.7863 153.993 62.4988 153.606C63.2113 153.22 63.839 152.849 63.8939 152.783C63.9489 152.717 64.2179 152.549 64.4917 152.409C64.7654 152.269 65.2137 152.024 65.4875 151.864C65.7625 151.703 66.2108 151.612 66.4846 151.661C66.7583 151.71 67.7171 151.809 68.6161 151.881ZM164.777 162.066C174.18 167.503 176.843 169.128 176.736 169.363C176.662 169.53 176.584 170.716 176.564 171.998C176.525 174.56 176.519 174.575 175.173 175.283C173.762 176.025 172.398 176.811 171.855 177.192C171.563 177.395 171.228 177.563 171.108 177.563C170.987 177.563 170.889 177.632 170.889 177.716C170.889 177.8 170.553 178.024 170.142 178.214C169.731 178.403 169.036 178.78 168.597 179.05C168.16 179.321 167.577 179.666 167.303 179.819C167.029 179.972 166.446 180.306 166.008 180.562C165.569 180.818 164.987 181.153 164.712 181.305C164.438 181.459 163.946 181.745 163.617 181.944C163.072 182.273 162.419 182.649 161.104 183.392C160.842 183.54 160.493 183.761 160.33 183.883C160.165 184.005 159.537 184.375 158.934 184.704C158.332 185.033 157.525 185.492 157.141 185.722C156.561 186.07 155.295 186.804 153.105 188.059C152.913 188.169 144.775 192.879 135.022 198.524L117.291 208.788L116.047 208.004C115.362 207.573 114.286 206.985 113.656 206.698L112.51 206.175V188.783V171.391L115.35 171.505C119.217 171.662 123.659 171.091 125.76 170.169C125.979 170.072 127.01 169.626 128.052 169.176C129.972 168.346 132.369 166.956 133.76 165.867C134.739 165.101 138.412 161.389 138.412 161.166C138.412 161.072 138.528 160.878 138.667 160.733C138.942 160.448 140.021 158.674 140.237 158.15C140.342 157.894 140.822 157.807 142.628 157.712C145.671 157.554 149.379 156.603 151.463 155.448C152.516 154.865 151.17 154.196 164.777 162.066Z" fill="white" fill-opacity="0.48"/>
<path fill-rule="evenodd" clip-rule="evenodd" d="M104.441 9.94272C102.165 10.5365 100.322 11.7601 98.8547 13.6507C96.9287 16.1339 96.912 21.4494 98.8224 23.9674C102.118 28.3136 107.808 29.1174 112.087 25.8424C116.935 22.132 116.055 13.5728 110.551 10.9012C109.931 10.6001 109.252 10.269 109.044 10.1659C108.618 9.95352 105.057 9.78077 104.441 9.94272ZM15.7761 61.1987C5.79867 64.127 7.69111 78.7119 18.0679 78.863C24.2461 78.953 28.5677 73.25 26.8116 67.3215C26.5809 66.5394 26.3334 65.8556 26.264 65.8004C26.1935 65.7452 26.0022 65.4381 25.8373 65.119C24.2365 61.9977 19.4319 60.125 15.7761 61.1987ZM191.925 61.2311C188.111 62.2975 185.431 65.8892 185.436 69.9295C185.445 78.0713 195.383 81.9904 200.999 76.0679C202.811 74.1558 203.266 72.8949 203.266 69.7987C203.266 66.4614 202.659 65.161 199.979 62.757C198.131 61.0991 194.713 60.4513 191.925 61.2311ZM98.3633 78.3208C91.4068 79.6152 85.5526 83.5931 83.2453 88.5931C83.0672 88.9782 82.8771 89.3381 82.8221 89.3933C82.6655 89.5504 81.8263 91.3846 81.8263 91.5682C81.8263 91.6605 82.5376 91.7937 83.4067 91.8669C85.9829 92.0828 88.9155 92.9249 90.9992 94.0478C92.9095 95.077 92.8808 95.0579 94.5198 96.399L95.7572 97.4115L96.6119 97.1656C97.0829 97.0312 97.5564 96.8573 97.6663 96.7793C97.7763 96.7025 98.3812 96.4902 99.0113 96.3091C100.312 95.9348 100.293 95.9827 99.7632 94.4064C98.7064 91.2587 98.8499 89.3933 100.147 89.3933C100.975 89.3933 101.274 89.7999 101.42 91.1267C101.544 92.2591 102.16 94.488 102.533 95.1574C102.685 95.4285 103.103 95.4957 104.874 95.5293C108.074 95.5905 110.228 96.1231 113.208 97.5926C115.738 98.8402 115.779 98.8702 118.343 101.447C120.27 103.384 120.879 103.795 120.879 103.16C120.879 102.871 122.141 100.304 122.323 100.222C122.406 100.186 122.476 100.051 122.481 99.9223C122.524 98.6915 125.605 95.8484 126.431 96.2767C127.355 96.7565 127.254 97.3611 125.988 98.9506C124.82 100.417 123.748 102.19 123.183 103.588C122.52 105.227 122.085 106.86 122.253 107.076C122.608 107.531 123.289 110.172 123.503 111.916L123.728 113.751L125.043 114.194C131.489 116.363 136.605 122.284 137.814 128.975C138.194 131.08 138.029 130.979 141.093 130.979C142.561 130.979 144.211 130.876 144.76 130.749C145.941 130.475 146.78 130.848 146.78 131.646C146.78 132.9 145.25 133.362 141.053 133.371L138.213 133.378V134.128C138.212 135.065 137.736 137.439 137.18 139.271C136.809 140.496 136.786 140.787 136.994 141.67C137.562 144.08 137.649 144.976 137.537 147.23L137.418 149.584L137.929 149.78C138.209 149.886 139.463 149.974 140.713 149.974C149.652 149.974 157.119 143.573 158.325 134.877C158.684 132.283 158.351 127.453 157.759 126.693C157.669 126.577 157.536 126.231 157.463 125.925C156.905 123.585 153.157 118.819 150.858 117.528C149.743 116.902 150.276 115.214 151.598 115.187C151.672 115.186 151.851 115.297 151.996 115.435C154.74 118.038 154.984 118.093 155.886 116.305C158.522 111.085 157.003 105.011 152.122 101.26C150.086 99.6968 145.58 98.9038 143.177 99.6872C140.975 100.405 139.082 101.346 138.248 102.138C137.654 102.704 136.42 102.066 136.42 101.193C136.42 100.403 140.2 97.7798 141.326 97.7882C141.451 97.7894 141.646 97.6766 141.76 97.5374C141.968 97.2855 141.938 97.024 141.375 94.1917C141.159 93.1025 139.866 89.9931 139.629 89.9931C139.561 89.9931 139.392 89.7351 139.253 89.4196C138.957 88.7491 137.112 86.7829 135.808 85.7488C130.339 81.411 122.188 81.327 116.908 85.5557C115.003 87.0804 112.896 89.4232 112.556 90.3925C112.139 91.5838 110.808 91.9676 110.22 91.0655C109.885 90.5533 110.439 88.5931 110.918 88.5931C110.991 88.5931 111.153 88.3712 111.276 88.1001C111.565 87.4631 112.298 86.6138 113.896 85.0627L115.181 83.8163L114.607 83.2812C112.664 81.4746 109.107 79.5876 105.935 78.6819C104.86 78.3736 99.4584 78.1169 98.3633 78.3208ZM79.4353 94.007C78.504 94.0946 77.3827 94.2709 76.9451 94.3981C75.2894 94.8767 72.6605 95.8796 72.6605 96.0319C72.6605 96.1195 72.5697 96.1903 72.4573 96.1903C71.4017 96.1903 66.4847 100.938 66.4847 101.957C66.4847 102.084 66.401 102.188 66.3006 102.188C66.199 102.188 66.0089 102.527 65.8762 102.938C65.7435 103.351 65.569 103.778 65.4877 103.888C65.1541 104.342 64.8361 106.361 64.8146 108.164L64.7907 110.087L65.5032 110.024C65.8953 109.991 66.7884 109.844 67.4889 109.699C69.3048 109.324 70.1907 110.061 69.3933 111.284C69.0526 111.806 69.0191 111.816 66.7346 112.187C65.9396 112.317 65.2462 112.493 65.1924 112.581C65.1386 112.668 64.7776 112.799 64.3914 112.872C63.7327 112.997 61.7219 113.9 61.5031 114.171C61.4482 114.239 61.135 114.465 60.8062 114.675C54.7128 118.558 52.3386 127.704 55.5879 134.778C58.3304 140.75 65.2067 144.766 71.5248 144.087L72.7801 143.952L72.7753 140.515C72.7693 136.29 73.5488 133.249 75.2822 130.749C75.5871 130.309 75.7843 129.582 75.6002 129.579C75.5727 129.579 74.8985 129.312 74.1023 128.987C71.4495 127.902 67.2151 127.761 65.0167 128.682C63.5582 129.294 62.6986 128.99 62.6986 127.865C62.6986 127.091 62.8696 126.946 64.3962 126.424C67.9468 125.209 72.339 125.529 76.0904 127.274C77.2524 127.815 77.7664 127.779 78.1813 127.128C78.4765 126.665 80.6236 125.067 81.7988 124.435C82.5352 124.039 83.3553 124.121 83.708 124.626C84.2866 125.456 83.9698 125.937 82.1622 126.965C75.122 130.972 72.8183 141.833 77.5154 148.874C81.8047 155.304 89.8694 157.291 96.912 153.655C98.8224 152.669 99.144 152.696 99.7608 153.889C101.582 157.405 105.637 161.051 109.097 162.283C109.604 162.464 110.199 162.689 110.419 162.783C112.64 163.742 118.912 164.033 121.376 163.292C128.617 161.115 132.723 157.449 134.824 151.285C135.617 148.959 135.746 143.22 135.023 142.493C134.914 142.385 134.825 142.15 134.825 141.971C134.825 141.615 133.091 137.942 132.846 137.779C132.762 137.723 132.584 137.468 132.449 137.211C132.002 136.361 130.609 134.848 128.866 133.321C127.633 132.241 127.798 131.007 129.179 130.986C130.067 130.973 133.128 133.934 134.592 136.224C135.489 137.627 135.521 137.631 135.839 136.328C137.616 129.063 132.536 118.947 126.006 116.743C125.652 116.625 125.272 116.459 125.162 116.377C124.446 115.84 119.45 115.451 117.253 115.761C114.098 116.206 110.961 117.726 108.583 119.962C107.271 121.197 105.935 121.14 105.935 119.847C105.935 118.858 109.401 116.032 112.041 114.867C112.683 114.584 113.387 114.268 113.606 114.165C114.562 113.717 116.977 113.32 119.244 113.239C121.41 113.162 121.681 113.113 121.599 112.819C121.547 112.636 121.398 111.813 121.266 110.992C119.125 97.6346 101.615 93.0149 91.7499 103.204C90.1265 104.88 89.6806 105.072 88.9991 104.388C88.1623 103.548 89.9316 101.122 92.8247 99.1437C93.9711 98.3592 93.9663 98.4372 92.9263 97.6754C89.6076 95.245 84.6548 93.5859 81.4282 93.8234C81.2632 93.8354 80.3666 93.9182 79.4353 94.007ZM82.8592 112.145C84.6368 113.966 88.7995 114.94 91.4272 114.15C92.4864 113.832 93.096 114.394 93.0076 115.612C92.9382 116.579 88.8509 117.131 86.4085 116.501C84.014 115.884 81.2596 114.265 80.6451 113.112C79.9685 111.844 81.7892 111.049 82.8592 112.145ZM144.141 112.317C145.087 113.354 144.334 114.298 142.722 114.097C141.141 113.899 138.643 114.592 137.582 115.524C137.11 115.94 136.427 115.775 135.953 115.135L135.545 114.585L135.949 114.035C137.393 112.068 142.866 110.92 144.141 112.317ZM100.65 118.218C101.473 118.594 101.503 119.267 100.745 120.327C99.9366 121.457 98.961 123.344 98.961 123.779C98.961 123.957 98.8511 124.213 98.7148 124.349C98.1625 124.904 98.2629 130.088 98.8606 131.866C100.703 137.341 104.91 140.276 110.916 140.276C115.092 140.276 117.081 139.411 120.218 136.227C121.348 135.081 122.672 135.279 122.672 136.593C122.672 137.419 119.487 140.217 117.242 141.364C116.697 141.643 116.537 142.124 116.868 142.486C117.577 143.26 118.246 148.597 117.716 149.242C116.821 150.329 115.796 149.448 115.616 147.439C115.483 145.937 115.1 144.236 114.656 143.172L114.446 142.669H111.038C105.233 142.669 101.446 140.701 98.3478 136.073C97.2324 134.406 97.3424 134.466 96.1469 134.88C94.0261 135.617 92.1014 136.905 90.5927 138.599C88.1707 141.32 88.3476 141.206 87.5311 140.562C86.968 140.117 86.8425 139.38 87.2561 138.941C87.3924 138.796 87.7487 138.35 88.0463 137.949C88.9202 136.774 90.1958 135.598 91.689 134.589C92.9837 133.713 93.6663 133.353 95.6364 132.503L96.3944 132.174L96.2342 131.227C95.8552 129.001 96.056 124.782 96.6119 123.282C97.6723 120.421 99.0376 118.352 100.098 117.997C100.119 117.99 100.368 118.089 100.65 118.218ZM16.4731 163.096C8.1717 164.722 6.53628 176.123 14.0391 180.06C19.1486 182.741 25.4643 179.862 26.9108 174.193C28.5151 167.912 22.8175 161.855 16.4731 163.096ZM192.707 163.107C187.371 164.333 184.242 169.645 185.863 174.723C188.34 182.485 198.868 183.308 202.492 176.024L203.266 174.465V171.966C203.266 166.182 198.119 161.863 192.707 163.107ZM103.987 214.363C98.5773 215.766 95.7452 221.983 98.2282 227.011C101.678 234 111.296 233.772 114.637 226.62C115.711 224.322 115.307 219.926 113.844 217.997C111.353 214.711 107.757 213.386 103.987 214.363Z" fill="#FC5CAC"/>
</svg>
