<svg width="213" height="50" viewBox="0 0 213 50" fill="none" xmlns="http://www.w3.org/2000/svg">
<g id="surface1">
<path style=" stroke:none;fill-rule:evenodd;fill:rgb(100%,100%,100%);fill-opacity:0.478431;" d="M 22.554688 0.195312 C 21.699219 0.285156 20.84375 0.6875 20.210938 1.296875 C 19.914062 1.578125 19.566406 2.039062 19.566406 2.144531 C 19.566406 2.175781 19.546875 2.203125 19.527344 2.203125 C 19.503906 2.203125 19.476562 2.234375 19.464844 2.273438 C 19.449219 2.316406 19.378906 2.507812 19.308594 2.699219 C 19.15625 3.109375 19.078125 3.621094 19.097656 4.082031 L 19.113281 4.410156 L 15.046875 6.671875 C 10.605469 9.140625 10.847656 9.003906 10.425781 9.238281 C 10.265625 9.324219 10.070312 9.433594 9.996094 9.476562 C 9.921875 9.519531 9.753906 9.613281 9.625 9.679688 C 9.496094 9.75 9.359375 9.828125 9.324219 9.851562 C 9.289062 9.878906 9.210938 9.925781 9.152344 9.953125 C 9.09375 9.980469 9.003906 10.027344 8.957031 10.054688 C 8.910156 10.082031 8.726562 10.183594 8.550781 10.28125 C 8.371094 10.382812 8.160156 10.5 8.074219 10.546875 C 7.992188 10.597656 7.820312 10.691406 7.6875 10.757812 C 7.558594 10.828125 7.421875 10.902344 7.386719 10.929688 C 7.351562 10.953125 7.277344 11 7.21875 11.03125 C 6.9375 11.1875 6.792969 11.265625 6.675781 11.332031 C 6.316406 11.539062 6.214844 11.554688 6.097656 11.414062 C 6.085938 11.402344 6.027344 11.363281 5.96875 11.332031 C 3.761719 10.105469 1.007812 11.058594 0.273438 13.300781 C -0.183594 14.695312 0.132812 16.070312 1.144531 17.105469 C 1.320312 17.285156 1.847656 17.675781 1.914062 17.675781 C 1.9375 17.675781 1.964844 17.691406 1.972656 17.710938 C 1.980469 17.726562 2.097656 17.792969 2.234375 17.855469 L 2.480469 17.96875 L 2.480469 32.230469 L 2.214844 32.351562 C -0.792969 33.699219 -0.566406 38.054688 2.566406 39.179688 C 3.542969 39.527344 5.214844 39.417969 5.753906 38.96875 C 5.792969 38.9375 5.835938 38.914062 5.855469 38.914062 C 5.871094 38.914062 5.972656 38.855469 6.074219 38.789062 C 6.179688 38.71875 6.277344 38.664062 6.292969 38.664062 C 6.324219 38.664062 9.332031 40.324219 9.367188 40.363281 C 9.378906 40.375 9.445312 40.414062 9.515625 40.449219 C 9.589844 40.480469 9.792969 40.589844 9.96875 40.691406 C 10.40625 40.9375 10.550781 41.019531 10.828125 41.164062 C 10.960938 41.234375 11.09375 41.308594 11.132812 41.335938 C 11.167969 41.359375 11.242188 41.40625 11.296875 41.4375 C 11.355469 41.46875 11.46875 41.53125 11.554688 41.578125 C 11.640625 41.625 11.761719 41.691406 11.820312 41.722656 C 11.878906 41.753906 12.003906 41.824219 12.097656 41.882812 C 12.195312 41.9375 12.308594 42 12.355469 42.023438 C 12.40625 42.046875 12.519531 42.109375 12.617188 42.167969 C 12.710938 42.222656 12.835938 42.292969 12.894531 42.324219 C 12.953125 42.359375 13.074219 42.421875 13.15625 42.46875 C 13.242188 42.515625 13.359375 42.582031 13.417969 42.609375 C 13.472656 42.640625 13.546875 42.6875 13.582031 42.710938 C 13.617188 42.738281 13.753906 42.816406 13.882812 42.882812 C 14.015625 42.953125 14.1875 43.046875 14.273438 43.09375 C 14.355469 43.140625 14.566406 43.261719 14.746094 43.359375 C 14.921875 43.457031 15.117188 43.566406 15.179688 43.597656 C 16.0625 44.09375 16.378906 44.265625 16.417969 44.265625 C 16.445312 44.265625 16.464844 44.28125 16.464844 44.296875 C 16.464844 44.316406 16.511719 44.355469 16.5625 44.378906 C 16.699219 44.445312 17.039062 44.632812 18.144531 45.25 L 19.113281 45.789062 L 19.097656 46.09375 C 19.066406 46.851562 19.34375 47.863281 19.707031 48.308594 C 19.726562 48.332031 19.789062 48.414062 19.847656 48.496094 C 19.972656 48.667969 20.554688 49.242188 20.601562 49.242188 C 20.621094 49.242188 20.660156 49.265625 20.691406 49.296875 C 21.40625 49.980469 23.261719 50.195312 24.425781 49.730469 C 25.945312 49.121094 26.984375 47.515625 26.8125 46.042969 C 26.78125 45.796875 26.796875 45.773438 27.117188 45.609375 C 27.441406 45.441406 27.808594 45.238281 27.828125 45.21875 C 27.851562 45.195312 27.957031 45.132812 28.300781 44.957031 C 28.429688 44.886719 28.566406 44.8125 28.601562 44.78125 C 28.636719 44.757812 28.726562 44.710938 28.804688 44.679688 C 28.882812 44.652344 28.945312 44.613281 28.945312 44.59375 C 28.945312 44.578125 28.980469 44.554688 29.019531 44.539062 C 29.0625 44.527344 29.171875 44.46875 29.269531 44.410156 C 29.363281 44.355469 29.511719 44.277344 29.601562 44.238281 C 29.691406 44.203125 29.761719 44.160156 29.761719 44.140625 C 29.761719 44.125 29.832031 44.085938 29.914062 44.054688 C 29.996094 44.023438 30.0625 43.988281 30.0625 43.976562 C 30.0625 43.960938 30.128906 43.925781 30.203125 43.894531 C 30.28125 43.859375 30.445312 43.773438 30.566406 43.695312 C 30.691406 43.621094 30.8125 43.558594 30.835938 43.558594 C 30.859375 43.558594 30.882812 43.542969 30.882812 43.523438 C 30.882812 43.507812 30.949219 43.464844 31.03125 43.433594 C 31.113281 43.402344 31.183594 43.363281 31.183594 43.34375 C 31.183594 43.324219 31.199219 43.308594 31.222656 43.308594 C 31.242188 43.308594 31.410156 43.226562 31.589844 43.125 C 31.769531 43.019531 31.925781 42.9375 31.941406 42.9375 C 31.953125 42.9375 32.042969 42.882812 32.144531 42.820312 C 32.242188 42.753906 32.476562 42.617188 32.667969 42.519531 C 32.855469 42.417969 33.042969 42.316406 33.082031 42.292969 C 33.121094 42.269531 33.304688 42.167969 33.492188 42.066406 C 33.675781 41.960938 33.863281 41.859375 33.902344 41.835938 C 36.132812 40.589844 39.613281 38.664062 39.636719 38.664062 C 39.652344 38.664062 39.773438 38.734375 39.910156 38.824219 C 41.085938 39.59375 43.117188 39.574219 44.152344 38.785156 C 45.160156 38.015625 45.535156 37.46875 45.769531 36.445312 C 45.90625 35.851562 45.847656 34.878906 45.644531 34.453125 C 45.625 34.40625 45.582031 34.304688 45.550781 34.226562 C 45.269531 33.496094 44.492188 32.703125 43.71875 32.355469 L 43.445312 32.234375 L 43.445312 25.097656 C 43.445312 18.339844 43.449219 17.960938 43.519531 17.933594 C 44.292969 17.652344 45.113281 16.882812 45.472656 16.109375 C 45.546875 15.957031 45.625 15.792969 45.644531 15.746094 C 45.667969 15.699219 45.722656 15.488281 45.769531 15.273438 C 46.207031 13.28125 44.898438 11.3125 42.84375 10.863281 C 42.351562 10.757812 40.882812 10.824219 40.796875 10.960938 C 40.785156 10.980469 40.738281 10.996094 40.695312 10.996094 C 40.613281 10.996094 39.871094 11.351562 39.832031 11.410156 C 39.734375 11.550781 39.589844 11.542969 39.316406 11.371094 C 39.21875 11.308594 38.292969 10.796875 38.023438 10.652344 C 37.894531 10.585938 37.757812 10.507812 37.722656 10.484375 C 37.6875 10.457031 37.613281 10.410156 37.554688 10.378906 C 37.316406 10.25 37.128906 10.148438 36.925781 10.035156 C 36.808594 9.96875 36.679688 9.902344 36.636719 9.890625 C 36.59375 9.878906 36.5625 9.855469 36.5625 9.835938 C 36.5625 9.820312 36.492188 9.785156 36.410156 9.75 C 36.328125 9.71875 36.261719 9.683594 36.261719 9.667969 C 36.261719 9.648438 36.226562 9.625 36.183594 9.613281 C 36.144531 9.601562 36.03125 9.542969 35.9375 9.484375 C 35.84375 9.429688 35.699219 9.347656 35.613281 9.308594 C 35.53125 9.269531 35.453125 9.226562 35.441406 9.214844 C 35.429688 9.203125 35.363281 9.164062 35.292969 9.128906 C 35.222656 9.09375 35.152344 9.058594 35.140625 9.046875 C 35.128906 9.035156 35.0625 9 34.992188 8.964844 C 34.917969 8.929688 34.804688 8.863281 34.734375 8.816406 C 34.660156 8.769531 34.546875 8.703125 34.472656 8.671875 C 34.402344 8.636719 34.335938 8.601562 34.324219 8.589844 C 34.3125 8.578125 34.246094 8.542969 34.171875 8.507812 C 34.101562 8.472656 34.035156 8.433594 34.023438 8.421875 C 33.984375 8.382812 33.28125 8.011719 33.246094 8.011719 C 33.226562 8.011719 33.207031 7.996094 33.199219 7.976562 C 33.183594 7.945312 32.980469 7.824219 32.582031 7.617188 C 32.460938 7.554688 31.117188 6.808594 29.589844 5.957031 L 26.816406 4.40625 L 26.824219 4.1875 C 26.863281 3.316406 26.625 2.496094 26.125 1.765625 C 25.980469 1.558594 25.386719 0.957031 25.328125 0.957031 C 25.308594 0.957031 25.269531 0.933594 25.238281 0.90625 C 25.136719 0.816406 24.84375 0.644531 24.621094 0.546875 C 24.503906 0.496094 24.375 0.4375 24.335938 0.417969 C 24.054688 0.273438 23.03125 0.148438 22.554688 0.195312 Z M 23.8125 1.046875 C 25.332031 1.496094 26.246094 2.890625 26.003906 4.378906 C 25.972656 4.585938 25.949219 4.765625 25.957031 4.777344 C 25.976562 4.808594 26.597656 5.164062 27.117188 5.4375 C 27.257812 5.511719 27.402344 5.59375 27.4375 5.621094 C 27.476562 5.644531 27.550781 5.691406 27.605469 5.722656 C 27.664062 5.753906 27.777344 5.816406 27.863281 5.863281 C 27.949219 5.910156 28.070312 5.976562 28.128906 6.007812 C 28.1875 6.039062 28.3125 6.109375 28.40625 6.167969 C 28.5 6.222656 28.617188 6.289062 28.664062 6.308594 C 28.710938 6.332031 28.828125 6.394531 28.921875 6.453125 C 29.019531 6.507812 29.144531 6.578125 29.203125 6.609375 C 29.261719 6.644531 29.378906 6.707031 29.464844 6.753906 C 29.550781 6.800781 29.667969 6.867188 29.722656 6.894531 C 29.78125 6.925781 29.855469 6.972656 29.890625 7 C 29.925781 7.023438 30.0625 7.101562 30.191406 7.167969 C 30.453125 7.304688 30.574219 7.371094 31.054688 7.640625 C 31.230469 7.742188 31.433594 7.851562 31.503906 7.886719 C 31.578125 7.921875 31.644531 7.957031 31.65625 7.972656 C 31.699219 8.019531 32.675781 8.550781 32.722656 8.550781 C 32.746094 8.550781 32.773438 8.566406 32.78125 8.582031 C 32.800781 8.625 39.683594 12.449219 39.738281 12.449219 C 39.757812 12.449219 39.8125 12.410156 39.855469 12.359375 C 40.980469 11.148438 43.28125 11.296875 44.414062 12.65625 C 45.71875 14.21875 44.972656 16.726562 43.039062 17.296875 C 42.941406 17.324219 42.820312 17.371094 42.769531 17.394531 L 42.671875 17.441406 L 42.683594 25.113281 L 42.691406 32.789062 L 43.015625 32.894531 C 44.878906 33.507812 45.65625 35.640625 44.609375 37.273438 C 44.316406 37.730469 43.699219 38.253906 43.304688 38.382812 C 43.230469 38.40625 43.148438 38.441406 43.125 38.460938 C 43.007812 38.546875 42.351562 38.664062 41.992188 38.664062 C 41.222656 38.664062 40.394531 38.351562 39.945312 37.894531 C 39.808594 37.753906 39.53125 37.707031 39.53125 37.828125 C 39.53125 37.84375 39.46875 37.882812 39.390625 37.914062 C 39.3125 37.945312 39.242188 37.984375 39.230469 38 C 39.21875 38.015625 39.101562 38.082031 38.972656 38.148438 C 38.839844 38.214844 38.726562 38.277344 38.714844 38.289062 C 38.699219 38.300781 38.632812 38.339844 38.5625 38.375 C 38.492188 38.40625 38.421875 38.445312 38.410156 38.460938 C 38.398438 38.472656 38.234375 38.566406 38.046875 38.667969 C 37.855469 38.769531 37.667969 38.867188 37.628906 38.890625 C 37.339844 39.0625 26.207031 45.25 26.046875 45.332031 C 25.957031 45.378906 25.933594 45.414062 25.949219 45.480469 C 26.703125 48.492188 23.011719 50.535156 20.753906 48.355469 C 20.035156 47.660156 19.691406 46.472656 19.953125 45.59375 C 20.003906 45.421875 19.980469 45.375 19.8125 45.304688 C 19.734375 45.273438 19.644531 45.222656 19.609375 45.195312 C 19.570312 45.167969 19.4375 45.089844 19.304688 45.023438 C 18.957031 44.839844 18.863281 44.789062 18.800781 44.734375 C 18.773438 44.707031 18.703125 44.671875 18.648438 44.65625 C 18.597656 44.640625 18.527344 44.605469 18.496094 44.582031 C 18.429688 44.53125 18.019531 44.300781 17.84375 44.214844 C 17.785156 44.183594 17.726562 44.152344 17.714844 44.136719 C 17.703125 44.125 17.539062 44.03125 17.347656 43.929688 C 17.160156 43.828125 16.972656 43.726562 16.933594 43.703125 C 16.894531 43.679688 16.710938 43.578125 16.523438 43.476562 C 16.339844 43.375 16.152344 43.269531 16.113281 43.246094 C 13.625 41.863281 6.589844 37.945312 6.445312 37.867188 C 6.226562 37.742188 6.117188 37.726562 6.066406 37.804688 C 5.785156 38.238281 4.722656 38.664062 3.917969 38.664062 C 0.769531 38.664062 -0.316406 34.625 2.421875 33.09375 C 2.691406 32.945312 2.714844 32.9375 3.03125 32.859375 L 3.214844 32.8125 L 3.191406 17.40625 L 2.925781 17.316406 C 2.035156 17.023438 1.171875 16.171875 0.992188 15.414062 C 0.976562 15.34375 0.941406 15.261719 0.917969 15.230469 C 0.8125 15.105469 0.859375 13.914062 0.980469 13.585938 C 1.441406 12.332031 2.59375 11.527344 3.921875 11.527344 C 4.328125 11.527344 4.949219 11.644531 5.085938 11.742188 C 5.109375 11.761719 5.171875 11.789062 5.226562 11.804688 C 5.363281 11.84375 5.828125 12.144531 6.011719 12.308594 C 6.09375 12.386719 6.175781 12.449219 6.195312 12.449219 C 6.210938 12.449219 7.039062 11.996094 8.035156 11.441406 C 9.027344 10.890625 9.875 10.417969 9.914062 10.394531 C 10.523438 10.058594 10.675781 9.972656 10.738281 9.9375 C 10.777344 9.914062 10.953125 9.816406 11.132812 9.71875 C 11.308594 9.621094 11.519531 9.5 11.605469 9.453125 C 11.6875 9.40625 11.859375 9.3125 11.992188 9.242188 C 12.121094 9.175781 12.257812 9.097656 12.292969 9.070312 C 12.328125 9.042969 12.40625 9 12.464844 8.972656 C 12.523438 8.945312 12.628906 8.886719 12.703125 8.84375 C 13.023438 8.65625 13.140625 8.589844 13.28125 8.527344 C 13.363281 8.492188 13.441406 8.449219 13.453125 8.433594 C 13.476562 8.402344 13.5625 8.351562 13.929688 8.164062 C 14.058594 8.09375 14.195312 8.019531 14.230469 7.992188 C 14.265625 7.964844 14.351562 7.917969 14.421875 7.882812 C 14.492188 7.851562 14.5625 7.8125 14.574219 7.800781 C 14.59375 7.78125 14.667969 7.738281 15 7.5625 C 15.109375 7.507812 15.246094 7.429688 15.304688 7.390625 C 15.363281 7.351562 15.46875 7.296875 15.542969 7.261719 C 15.613281 7.230469 15.679688 7.191406 15.691406 7.179688 C 15.703125 7.167969 15.761719 7.132812 15.820312 7.101562 C 16.496094 6.730469 16.742188 6.597656 16.769531 6.597656 C 16.789062 6.597656 16.808594 6.585938 16.816406 6.566406 C 16.832031 6.535156 17.039062 6.414062 17.433594 6.207031 C 18.53125 5.632812 19.972656 4.78125 19.960938 4.710938 C 19.855469 3.9375 19.851562 3.886719 19.902344 3.53125 C 20.152344 1.726562 22.046875 0.523438 23.8125 1.046875 Z M 17.757812 7.574219 C 16.183594 8.449219 14.875 9.179688 14.851562 9.199219 C 14.824219 9.21875 14.730469 9.273438 14.636719 9.320312 C 14.332031 9.476562 14.035156 9.640625 14.015625 9.667969 C 14 9.683594 13.929688 9.71875 13.851562 9.75 C 13.777344 9.777344 13.710938 9.816406 13.710938 9.828125 C 13.710938 9.84375 13.648438 9.882812 13.574219 9.914062 C 13.496094 9.945312 13.261719 10.074219 13.050781 10.195312 C 12.839844 10.316406 12.652344 10.414062 12.632812 10.414062 C 12.617188 10.414062 12.59375 10.429688 12.585938 10.445312 C 12.578125 10.464844 12.445312 10.539062 12.292969 10.617188 C 12.140625 10.695312 11.984375 10.777344 11.949219 10.804688 C 11.914062 10.832031 11.835938 10.875 11.78125 10.90625 C 11.726562 10.9375 11.609375 11 11.523438 11.046875 C 11.4375 11.097656 11.320312 11.160156 11.261719 11.191406 C 11.199219 11.222656 11.09375 11.285156 11.023438 11.324219 C 10.90625 11.394531 10.765625 11.472656 10.480469 11.625 C 10.425781 11.65625 10.347656 11.703125 10.3125 11.726562 C 10.277344 11.753906 10.140625 11.828125 10.011719 11.894531 C 9.675781 12.070312 9.570312 12.128906 9.496094 12.183594 C 9.460938 12.207031 9.324219 12.285156 9.195312 12.355469 C 9.0625 12.421875 8.898438 12.511719 8.824219 12.554688 C 8.6875 12.636719 8.210938 12.898438 7.96875 13.03125 C 7.789062 13.125 7.085938 13.523438 6.96875 13.59375 C 6.875 13.648438 6.875 13.652344 6.945312 13.867188 C 7.039062 14.164062 7.035156 14.890625 6.941406 15.15625 C 6.820312 15.5 6.742188 15.4375 8.34375 16.328125 C 9.851562 17.167969 10.789062 17.6875 11.128906 17.871094 C 11.234375 17.929688 11.417969 18.03125 11.539062 18.101562 C 11.65625 18.167969 11.8125 18.257812 11.882812 18.296875 C 12.136719 18.433594 12.605469 18.691406 12.738281 18.769531 C 12.8125 18.8125 12.980469 18.902344 13.109375 18.972656 C 13.242188 19.039062 13.375 19.117188 13.410156 19.144531 C 13.445312 19.167969 13.523438 19.214844 13.578125 19.246094 C 13.636719 19.273438 13.75 19.339844 13.835938 19.386719 C 13.921875 19.433594 14.046875 19.5 14.113281 19.539062 C 14.179688 19.574219 14.277344 19.625 14.328125 19.652344 C 14.425781 19.707031 14.449219 19.699219 14.664062 19.53125 C 15.09375 19.195312 16.160156 18.714844 16.484375 18.710938 C 16.746094 18.710938 17.070312 18.394531 17.070312 18.136719 C 17.070312 18.113281 17.082031 18.089844 17.101562 18.082031 C 17.117188 18.074219 17.179688 17.984375 17.238281 17.882812 C 17.464844 17.472656 17.929688 16.933594 18.40625 16.535156 C 18.714844 16.273438 19.351562 15.914062 19.929688 15.679688 C 20.484375 15.453125 21.445312 15.292969 22.007812 15.328125 L 22.40625 15.355469 L 22.382812 6.832031 L 22.144531 6.777344 C 21.738281 6.679688 21.105469 6.339844 20.851562 6.085938 C 20.699219 5.925781 20.832031 5.863281 17.757812 7.574219 Z M 24.902344 6.203125 C 24.582031 6.457031 24.175781 6.667969 23.804688 6.765625 L 23.542969 6.835938 L 23.535156 11.238281 C 23.523438 15.152344 23.53125 15.640625 23.589844 15.640625 C 23.625 15.640625 23.6875 15.660156 23.726562 15.683594 C 23.769531 15.703125 23.898438 15.761719 24.019531 15.8125 C 24.335938 15.945312 24.902344 16.265625 25.046875 16.394531 C 25.292969 16.613281 25.335938 16.621094 25.683594 16.503906 C 26.425781 16.253906 26.472656 16.246094 27.246094 16.246094 C 28.007812 16.246094 28.085938 16.257812 28.75 16.484375 C 29.089844 16.597656 29.722656 16.949219 29.9375 17.136719 C 30.566406 17.6875 30.839844 18.011719 31.109375 18.527344 C 31.25 18.792969 31.484375 19.449219 31.484375 19.574219 C 31.484375 19.679688 31.589844 19.699219 31.695312 19.609375 C 31.734375 19.578125 32.082031 19.375 32.472656 19.160156 C 32.863281 18.945312 34.503906 18.035156 36.121094 17.136719 L 39.058594 15.507812 L 39.03125 15.355469 C 39.015625 15.273438 38.988281 15.179688 38.96875 15.144531 C 38.949219 15.109375 38.921875 14.933594 38.90625 14.75 C 38.882812 14.457031 38.902344 14.246094 38.996094 13.75 L 39.023438 13.625 L 37.316406 12.671875 C 36.375 12.148438 35.507812 11.667969 35.386719 11.601562 C 35.121094 11.460938 34.21875 10.953125 33.921875 10.785156 C 33.808594 10.71875 33.699219 10.664062 33.675781 10.664062 C 33.652344 10.664062 33.636719 10.652344 33.636719 10.632812 C 33.636719 10.617188 33.574219 10.574219 33.496094 10.542969 C 33.417969 10.511719 33.308594 10.453125 33.25 10.414062 C 33.1875 10.375 33.050781 10.296875 32.945312 10.238281 C 32.601562 10.058594 32.539062 10.023438 32.515625 10 C 32.503906 9.984375 32.425781 9.941406 32.34375 9.902344 C 32.261719 9.863281 32.117188 9.785156 32.023438 9.730469 C 31.925781 9.675781 31.8125 9.613281 31.761719 9.589844 C 31.714844 9.566406 31.601562 9.5 31.503906 9.441406 C 31.410156 9.382812 31.273438 9.308594 31.203125 9.273438 C 31.082031 9.214844 30.988281 9.160156 30.65625 8.964844 C 30.578125 8.917969 30.46875 8.859375 30.40625 8.832031 C 30.347656 8.804688 30.269531 8.761719 30.234375 8.734375 C 30.199219 8.707031 30.066406 8.628906 29.933594 8.5625 C 29.601562 8.386719 29.492188 8.328125 29.417969 8.273438 C 29.382812 8.25 29.246094 8.171875 29.117188 8.105469 C 28.988281 8.035156 28.8125 7.941406 28.730469 7.894531 C 28.648438 7.84375 28.433594 7.726562 28.257812 7.628906 C 28.078125 7.53125 27.882812 7.421875 27.820312 7.386719 C 27.757812 7.355469 27.164062 7.023438 26.5 6.652344 C 25.113281 5.878906 25.261719 5.917969 24.902344 6.203125 Z M 20.769531 6.980469 C 20.851562 7.03125 20.957031 7.097656 21.007812 7.125 C 21.148438 7.207031 21.550781 7.386719 21.59375 7.386719 C 21.613281 7.386719 21.628906 8.949219 21.628906 10.996094 L 21.628906 14.605469 L 21.425781 14.605469 C 20.472656 14.617188 18.597656 15.292969 18.101562 15.808594 C 18.089844 15.820312 18.011719 15.878906 17.925781 15.9375 C 17.621094 16.160156 17.222656 16.582031 16.777344 17.15625 C 16.71875 17.230469 16.351562 17.859375 16.328125 17.929688 C 16.3125 17.96875 16.207031 18.019531 16.070312 18.050781 C 15.609375 18.15625 14.976562 18.417969 14.527344 18.691406 L 14.351562 18.800781 L 11.230469 17.066406 C 9.515625 16.113281 8.023438 15.285156 7.921875 15.230469 L 7.734375 15.128906 L 7.765625 14.898438 C 7.800781 14.640625 7.800781 14.464844 7.773438 14.195312 L 7.753906 14.015625 L 10.960938 12.234375 C 12.722656 11.253906 14.40625 10.320312 14.703125 10.15625 C 15 9.992188 15.25 9.851562 15.261719 9.835938 C 15.273438 9.824219 15.359375 9.773438 15.457031 9.726562 C 15.746094 9.578125 16.054688 9.40625 16.078125 9.382812 C 16.089844 9.367188 16.160156 9.328125 16.230469 9.296875 C 16.300781 9.261719 16.367188 9.222656 16.378906 9.210938 C 16.390625 9.203125 16.460938 9.164062 16.53125 9.128906 C 16.601562 9.097656 16.761719 9.007812 16.882812 8.933594 C 17.007812 8.859375 17.128906 8.796875 17.152344 8.796875 C 17.179688 8.796875 17.199219 8.78125 17.199219 8.765625 C 17.199219 8.746094 17.265625 8.703125 17.347656 8.671875 C 17.429688 8.640625 17.5 8.605469 17.5 8.59375 C 17.5 8.578125 17.5625 8.542969 17.640625 8.511719 C 17.714844 8.480469 17.882812 8.390625 18.003906 8.3125 C 18.128906 8.238281 18.25 8.175781 18.273438 8.175781 C 18.296875 8.175781 18.316406 8.160156 18.316406 8.144531 C 18.316406 8.128906 18.378906 8.085938 18.457031 8.054688 C 18.535156 8.023438 18.644531 7.964844 18.703125 7.925781 C 18.761719 7.886719 18.898438 7.808594 19.003906 7.75 C 19.113281 7.695312 19.269531 7.609375 19.355469 7.5625 C 19.441406 7.515625 19.554688 7.453125 19.613281 7.421875 C 19.667969 7.390625 19.746094 7.347656 19.78125 7.320312 C 19.835938 7.28125 20.085938 7.144531 20.46875 6.945312 C 20.605469 6.875 20.59375 6.875 20.769531 6.980469 Z M 25.605469 7.027344 C 25.75 7.105469 25.9375 7.207031 26.019531 7.253906 C 26.101562 7.304688 26.316406 7.421875 26.492188 7.519531 C 26.667969 7.617188 26.847656 7.71875 26.890625 7.738281 C 26.929688 7.761719 27.335938 7.988281 27.792969 8.246094 C 28.25 8.5 28.683594 8.742188 28.761719 8.785156 C 28.839844 8.824219 30.976562 10.015625 33.519531 11.425781 L 38.136719 13.992188 L 38.132812 14.453125 C 38.132812 14.707031 38.148438 14.96875 38.164062 15.03125 C 38.191406 15.117188 38.183594 15.144531 38.132812 15.144531 C 38.097656 15.144531 38.066406 15.164062 38.066406 15.1875 C 38.066406 15.207031 38.046875 15.226562 38.023438 15.226562 C 38 15.226562 37.90625 15.269531 37.820312 15.324219 C 37.730469 15.378906 37.550781 15.476562 37.421875 15.546875 C 37.0625 15.734375 36.972656 15.785156 36.949219 15.8125 C 36.9375 15.824219 36.800781 15.902344 36.648438 15.980469 C 36.492188 16.0625 36.300781 16.167969 36.21875 16.214844 C 36.132812 16.265625 35.921875 16.382812 35.746094 16.480469 C 35.335938 16.707031 35.53125 16.597656 33.652344 17.644531 C 31.835938 18.65625 31.988281 18.589844 31.914062 18.410156 C 31 16.191406 28.183594 14.960938 25.695312 15.699219 L 25.480469 15.765625 L 25.238281 15.601562 C 25.105469 15.511719 24.839844 15.359375 24.648438 15.265625 L 24.296875 15.097656 L 24.296875 7.40625 L 24.4375 7.347656 C 24.515625 7.316406 24.625 7.269531 24.683594 7.246094 C 24.746094 7.222656 24.90625 7.132812 25.046875 7.046875 C 25.351562 6.859375 25.285156 6.859375 25.605469 7.027344 Z M 6.023438 16.667969 C 5.902344 16.777344 5.773438 16.886719 5.742188 16.914062 C 5.601562 17.019531 5.027344 17.292969 4.835938 17.34375 L 4.632812 17.394531 L 4.632812 32.769531 L 4.878906 32.855469 C 5.394531 33.039062 5.792969 33.273438 6.09375 33.578125 C 6.285156 33.773438 6.25 33.785156 7.464844 33.085938 C 7.503906 33.0625 7.691406 32.960938 7.882812 32.859375 C 8.070312 32.757812 8.234375 32.664062 8.246094 32.652344 C 8.257812 32.640625 8.328125 32.601562 8.398438 32.566406 C 8.46875 32.53125 8.539062 32.496094 8.550781 32.484375 C 8.5625 32.472656 8.675781 32.40625 8.808594 32.339844 C 8.9375 32.273438 9.054688 32.210938 9.066406 32.195312 C 9.078125 32.183594 9.144531 32.144531 9.214844 32.109375 C 9.285156 32.074219 9.355469 32.039062 9.367188 32.027344 C 9.378906 32.015625 9.464844 31.96875 9.558594 31.917969 C 9.863281 31.765625 10.160156 31.601562 10.277344 31.523438 C 10.339844 31.480469 10.414062 31.445312 10.4375 31.445312 C 10.464844 31.445312 10.484375 31.433594 10.484375 31.414062 C 10.484375 31.398438 10.546875 31.359375 10.625 31.324219 C 10.703125 31.292969 10.8125 31.234375 10.871094 31.195312 C 10.933594 31.15625 11.066406 31.078125 11.171875 31.023438 C 11.28125 30.964844 11.4375 30.878906 11.523438 30.832031 C 11.609375 30.789062 11.726562 30.722656 11.78125 30.691406 C 11.835938 30.664062 11.914062 30.617188 11.949219 30.589844 C 11.984375 30.566406 12.121094 30.488281 12.25 30.421875 C 12.660156 30.203125 12.765625 30.140625 12.753906 30.113281 C 12.75 30.101562 12.59375 29.96875 12.40625 29.828125 C 12.085938 29.578125 11.578125 29.050781 11.460938 28.847656 C 11.144531 28.289062 11.027344 28.011719 10.886719 27.484375 C 10.441406 25.835938 11.230469 23.925781 12.753906 22.984375 L 13.054688 22.796875 L 13.078125 22.300781 C 13.101562 21.75 13.171875 21.496094 13.460938 20.9375 C 13.6875 20.492188 13.730469 20.566406 13.046875 20.214844 C 12.925781 20.152344 12.820312 20.089844 12.808594 20.078125 C 12.765625 20.03125 6.324219 16.472656 6.285156 16.472656 C 6.265625 16.472656 6.148438 16.5625 6.023438 16.667969 Z M 36.351562 18.273438 C 32.574219 20.371094 33.023438 20.089844 33.253906 20.234375 C 33.546875 20.417969 33.546875 20.417969 33.894531 20.746094 C 34.90625 21.703125 35.152344 23.414062 34.445312 24.574219 C 34.296875 24.816406 34.285156 24.738281 34.53125 25.148438 C 34.726562 25.480469 34.875 25.828125 35.039062 26.363281 C 35.152344 26.722656 35.152344 28.023438 35.042969 28.4375 C 34.839844 29.207031 34.457031 29.921875 33.996094 30.40625 C 33.871094 30.535156 33.894531 30.566406 34.316406 30.792969 C 34.5 30.890625 34.679688 30.988281 34.71875 31.011719 C 34.777344 31.046875 35.570312 31.484375 35.839844 31.632812 C 35.882812 31.65625 36.746094 32.136719 37.757812 32.703125 C 39.648438 33.753906 39.6875 33.773438 39.730469 33.664062 C 39.800781 33.488281 40.589844 33.007812 41.089844 32.835938 L 41.296875 32.765625 L 41.273438 17.40625 L 41.035156 17.332031 C 40.613281 17.203125 40.125 16.914062 39.832031 16.621094 C 39.753906 16.539062 39.664062 16.472656 39.640625 16.472656 C 39.617188 16.472656 38.136719 17.285156 36.351562 18.273438 Z M 6.714844 17.550781 C 6.882812 17.644531 7.089844 17.757812 7.171875 17.808594 C 7.253906 17.855469 7.429688 17.949219 7.558594 18.019531 C 7.6875 18.085938 7.824219 18.164062 7.859375 18.1875 C 7.894531 18.214844 7.972656 18.261719 8.027344 18.289062 C 8.085938 18.320312 8.199219 18.386719 8.285156 18.433594 C 8.371094 18.480469 8.488281 18.542969 8.550781 18.574219 C 8.609375 18.609375 8.714844 18.667969 8.785156 18.707031 C 8.933594 18.792969 9.210938 18.949219 9.367188 19.03125 C 9.425781 19.0625 9.550781 19.136719 9.644531 19.191406 C 9.742188 19.246094 9.890625 19.324219 9.980469 19.363281 C 10.070312 19.40625 10.140625 19.449219 10.140625 19.46875 C 10.140625 19.484375 10.164062 19.5 10.191406 19.5 C 10.21875 19.5 10.273438 19.523438 10.308594 19.554688 C 10.371094 19.609375 10.652344 19.761719 11.066406 19.972656 C 11.160156 20.019531 11.25 20.070312 11.261719 20.082031 C 11.296875 20.121094 11.792969 20.394531 11.9375 20.457031 C 12.015625 20.488281 12.078125 20.523438 12.078125 20.535156 C 12.078125 20.546875 12.203125 20.621094 12.351562 20.699219 L 12.628906 20.84375 L 12.550781 21.054688 C 12.40625 21.441406 12.328125 21.757812 12.304688 22.0625 L 12.28125 22.363281 L 11.972656 22.597656 C 11.59375 22.890625 11.386719 23.089844 11.121094 23.414062 C 11.007812 23.554688 10.902344 23.6875 10.882812 23.710938 C 9.953125 24.8125 9.722656 27.242188 10.425781 28.539062 C 10.457031 28.597656 10.484375 28.660156 10.484375 28.679688 C 10.484375 28.804688 11.140625 29.738281 11.359375 29.921875 C 11.464844 30.011719 11.710938 29.859375 9.625 31.011719 C 8.644531 31.558594 7.832031 32.015625 7.824219 32.035156 C 7.816406 32.054688 7.789062 32.070312 7.765625 32.070312 C 7.707031 32.070312 7.027344 32.449219 7.007812 32.492188 C 7 32.511719 6.96875 32.523438 6.941406 32.523438 C 6.910156 32.523438 6.796875 32.582031 6.683594 32.648438 C 6.425781 32.808594 6.402344 32.804688 6.105469 32.613281 C 5.972656 32.523438 5.757812 32.402344 5.632812 32.34375 L 5.40625 32.234375 L 5.40625 17.945312 L 5.65625 17.828125 C 5.792969 17.765625 6.007812 17.640625 6.140625 17.550781 C 6.429688 17.355469 6.351562 17.355469 6.714844 17.550781 Z M 39.859375 17.613281 C 40.003906 17.707031 40.214844 17.820312 40.320312 17.863281 L 40.519531 17.941406 L 40.519531 32.226562 L 40.292969 32.339844 C 40.171875 32.402344 39.941406 32.53125 39.785156 32.628906 L 39.503906 32.804688 L 39.332031 32.707031 C 39.242188 32.652344 39.105469 32.578125 39.035156 32.542969 C 38.914062 32.484375 38.761719 32.398438 38.476562 32.230469 C 38.40625 32.1875 38.296875 32.128906 38.238281 32.101562 C 38.179688 32.074219 38.101562 32.03125 38.066406 32.003906 C 38.03125 31.976562 37.894531 31.898438 37.765625 31.832031 C 37.433594 31.65625 37.324219 31.597656 37.25 31.546875 C 37.214844 31.519531 37.078125 31.445312 36.949219 31.375 C 36.816406 31.308594 36.644531 31.210938 36.5625 31.164062 C 36.480469 31.117188 36.265625 30.996094 36.089844 30.898438 C 35.910156 30.800781 35.734375 30.703125 35.691406 30.679688 C 35.652344 30.65625 35.492188 30.566406 35.335938 30.480469 L 35.050781 30.320312 L 35.191406 30.085938 C 35.457031 29.636719 35.527344 29.476562 35.671875 29.019531 C 36.089844 27.710938 35.964844 26.179688 35.355469 25.019531 L 35.222656 24.773438 L 35.332031 24.523438 C 35.566406 23.992188 35.628906 23.609375 35.601562 22.878906 C 35.566406 21.910156 35.308594 21.207031 34.730469 20.503906 C 34.507812 20.234375 34.472656 20.167969 34.53125 20.148438 C 34.570312 20.132812 34.679688 20.078125 34.777344 20.019531 C 34.871094 19.960938 35.019531 19.882812 35.109375 19.84375 C 35.199219 19.804688 35.269531 19.757812 35.269531 19.738281 C 35.269531 19.722656 35.292969 19.707031 35.316406 19.707031 C 35.34375 19.707031 35.417969 19.671875 35.480469 19.628906 C 35.542969 19.589844 35.679688 19.507812 35.785156 19.449219 C 35.894531 19.390625 36.046875 19.308594 36.132812 19.261719 C 36.75 18.914062 37.132812 18.710938 37.164062 18.710938 C 37.183594 18.710938 37.207031 18.695312 37.214844 18.679688 C 37.222656 18.660156 37.34375 18.582031 37.488281 18.503906 C 37.628906 18.425781 38.140625 18.144531 38.621094 17.875 C 39.105469 17.605469 39.519531 17.398438 39.546875 17.414062 C 39.574219 17.429688 39.714844 17.519531 39.859375 17.613281 Z M 13.667969 30.894531 C 13.1875 31.167969 12.78125 31.390625 12.648438 31.453125 C 12.59375 31.480469 12.550781 31.515625 12.550781 31.535156 C 12.550781 31.554688 12.527344 31.570312 12.503906 31.570312 C 12.460938 31.570312 12.148438 31.738281 11.265625 32.234375 C 11.203125 32.269531 11.007812 32.378906 10.828125 32.476562 C 10.652344 32.574219 10.4375 32.691406 10.355469 32.742188 C 10.273438 32.789062 10.097656 32.882812 9.96875 32.953125 C 9.839844 33.019531 9.703125 33.097656 9.667969 33.121094 C 9.59375 33.175781 9.484375 33.234375 9.152344 33.410156 C 9.019531 33.476562 8.886719 33.550781 8.851562 33.578125 C 8.816406 33.601562 8.738281 33.648438 8.683594 33.679688 C 8.625 33.710938 8.511719 33.773438 8.425781 33.820312 C 8.339844 33.867188 8.222656 33.933594 8.160156 33.964844 C 8.101562 33.996094 7.976562 34.070312 7.882812 34.125 C 7.789062 34.179688 7.671875 34.246094 7.625 34.265625 C 7.578125 34.289062 7.460938 34.355469 7.367188 34.410156 C 7.269531 34.46875 7.121094 34.550781 7.03125 34.597656 C 6.847656 34.695312 6.84375 34.710938 6.941406 35.015625 C 7.039062 35.320312 7.039062 36.035156 6.945312 36.332031 C 6.875 36.546875 6.875 36.550781 6.96875 36.605469 C 7.09375 36.683594 12.027344 39.425781 12.335938 39.589844 C 12.464844 39.660156 12.644531 39.757812 12.738281 39.8125 C 12.828125 39.867188 12.972656 39.953125 13.058594 39.996094 C 13.210938 40.078125 13.984375 40.507812 14.132812 40.59375 C 14.175781 40.617188 14.351562 40.714844 14.53125 40.8125 C 14.707031 40.910156 14.921875 41.03125 15.003906 41.078125 C 15.085938 41.125 15.261719 41.222656 15.390625 41.289062 C 15.519531 41.355469 15.65625 41.433594 15.691406 41.460938 C 15.726562 41.484375 15.800781 41.53125 15.859375 41.5625 C 16.144531 41.714844 16.285156 41.792969 16.402344 41.863281 C 16.472656 41.902344 16.578125 41.960938 16.636719 41.996094 C 16.699219 42.027344 16.824219 42.09375 16.917969 42.148438 C 17.011719 42.203125 17.140625 42.269531 17.199219 42.300781 C 17.257812 42.335938 17.382812 42.40625 17.476562 42.460938 C 17.574219 42.519531 17.722656 42.597656 17.8125 42.636719 C 17.898438 42.675781 17.972656 42.722656 17.972656 42.738281 C 17.972656 42.757812 17.992188 42.769531 18.019531 42.769531 C 18.046875 42.769531 18.117188 42.804688 18.179688 42.847656 C 18.296875 42.925781 18.59375 43.089844 18.898438 43.242188 C 18.992188 43.292969 19.078125 43.339844 19.089844 43.355469 C 19.125 43.394531 19.828125 43.765625 19.867188 43.765625 C 19.886719 43.765625 19.910156 43.78125 19.914062 43.800781 C 19.9375 43.847656 20.625 44.222656 20.691406 44.222656 C 20.722656 44.222656 20.796875 44.171875 20.851562 44.113281 C 21.148438 43.816406 21.800781 43.480469 22.285156 43.375 L 22.40625 43.347656 L 22.40625 34.078125 L 22.144531 33.894531 C 21.851562 33.691406 21.484375 33.351562 21.21875 33.042969 C 21.046875 32.84375 21.046875 32.84375 20.875 32.886719 C 19.929688 33.132812 19.855469 33.148438 19.445312 33.148438 C 18.488281 33.148438 17.417969 32.773438 16.773438 32.214844 C 16.332031 31.832031 16.117188 31.574219 15.835938 31.105469 L 15.640625 30.78125 L 15.160156 30.78125 C 14.898438 30.78125 14.613281 30.765625 14.53125 30.746094 C 14.125 30.644531 14.101562 30.648438 13.667969 30.894531 Z M 32.6875 31.417969 C 32 31.808594 31.289062 31.984375 30.378906 31.984375 L 29.859375 31.984375 L 29.761719 32.183594 C 29.335938 33.0625 28.5 33.878906 27.597656 34.300781 C 27.019531 34.570312 26.914062 34.609375 26.449219 34.726562 C 26.050781 34.824219 25.1875 34.890625 24.839844 34.847656 C 24.277344 34.777344 23.894531 34.714844 23.824219 34.683594 C 23.789062 34.664062 23.707031 34.640625 23.640625 34.625 L 23.523438 34.597656 L 23.535156 38.980469 L 23.542969 43.367188 L 23.78125 43.417969 C 24.179688 43.507812 24.8125 43.847656 25.074219 44.113281 C 25.199219 44.242188 25.257812 44.246094 25.410156 44.144531 C 25.472656 44.105469 25.554688 44.058594 25.589844 44.042969 C 25.625 44.027344 25.730469 43.96875 25.824219 43.914062 C 25.921875 43.859375 26.046875 43.785156 26.105469 43.753906 C 26.261719 43.671875 26.535156 43.515625 26.6875 43.429688 C 26.757812 43.390625 26.863281 43.328125 26.921875 43.296875 C 26.980469 43.265625 27.101562 43.199219 27.191406 43.152344 C 27.28125 43.101562 27.425781 43.023438 27.515625 42.972656 C 27.601562 42.925781 27.695312 42.871094 27.71875 42.855469 C 27.742188 42.835938 27.847656 42.777344 27.957031 42.71875 C 28.0625 42.664062 28.21875 42.578125 28.300781 42.53125 C 28.917969 42.1875 29.300781 41.980469 29.332031 41.980469 C 29.351562 41.980469 29.375 41.96875 29.382812 41.949219 C 29.390625 41.929688 29.550781 41.828125 29.742188 41.726562 C 30.152344 41.503906 38.777344 36.710938 38.917969 36.628906 C 39 36.582031 39.015625 36.546875 38.992188 36.445312 C 38.867188 35.820312 38.867188 35.359375 38.992188 34.957031 C 39.027344 34.84375 39.058594 34.738281 39.058594 34.722656 C 39.058594 34.703125 38.796875 34.542969 38.472656 34.363281 C 38.15625 34.183594 37.859375 34.019531 37.820312 33.996094 C 37.777344 33.972656 37.601562 33.875 37.421875 33.777344 C 37.246094 33.679688 37.03125 33.558594 36.949219 33.511719 C 36.867188 33.464844 36.671875 33.359375 36.519531 33.277344 C 36.363281 33.199219 36.15625 33.082031 36.058594 33.015625 C 35.960938 32.949219 35.867188 32.898438 35.855469 32.898438 C 35.84375 32.898438 35.683594 32.8125 35.503906 32.710938 C 35.324219 32.609375 35.160156 32.523438 35.136719 32.523438 C 35.117188 32.523438 35.097656 32.507812 35.097656 32.492188 C 35.097656 32.472656 35.03125 32.433594 34.949219 32.398438 C 34.863281 32.367188 34.796875 32.328125 34.796875 32.308594 C 34.796875 32.292969 34.777344 32.277344 34.753906 32.277344 C 34.726562 32.277344 34.605469 32.214844 34.484375 32.136719 C 34.359375 32.0625 34.195312 31.972656 34.121094 31.941406 C 34.042969 31.910156 33.980469 31.871094 33.980469 31.859375 C 33.980469 31.847656 33.910156 31.808594 33.828125 31.777344 C 33.746094 31.746094 33.679688 31.707031 33.679688 31.691406 C 33.679688 31.675781 33.605469 31.632812 33.515625 31.597656 C 33.355469 31.53125 33.292969 31.492188 33.070312 31.351562 C 32.929688 31.265625 32.972656 31.257812 32.6875 31.417969 Z M 14.820312 31.511719 L 15.171875 31.539062 L 15.375 31.835938 C 15.558594 32.097656 16.207031 32.769531 16.445312 32.941406 C 16.75 33.160156 17.511719 33.5625 17.628906 33.5625 C 17.652344 33.5625 17.707031 33.578125 17.746094 33.601562 C 18.265625 33.878906 19.839844 33.960938 20.5625 33.75 L 20.761719 33.691406 L 20.949219 33.886719 C 21.050781 33.992188 21.25 34.171875 21.382812 34.28125 L 21.628906 34.484375 L 21.628906 42.761719 L 21.316406 42.910156 C 21.144531 42.992188 20.914062 43.113281 20.804688 43.1875 L 20.601562 43.316406 L 20.265625 43.132812 C 20.082031 43.03125 17.957031 41.851562 15.542969 40.511719 C 13.128906 39.167969 10.972656 37.96875 10.753906 37.847656 C 10.285156 37.589844 9.582031 37.195312 9.367188 37.078125 C 9.285156 37.03125 9.128906 36.945312 9.023438 36.890625 C 8.914062 36.832031 8.808594 36.773438 8.785156 36.753906 C 8.761719 36.738281 8.671875 36.683594 8.582031 36.636719 C 8.492188 36.585938 8.347656 36.507812 8.257812 36.460938 C 8.167969 36.410156 8.027344 36.332031 7.9375 36.285156 L 7.777344 36.203125 L 7.789062 35.824219 C 7.792969 35.617188 7.78125 35.363281 7.761719 35.261719 L 7.730469 35.074219 L 9.925781 33.851562 C 11.132812 33.179688 12.15625 32.609375 12.195312 32.585938 C 12.238281 32.5625 12.417969 32.464844 12.59375 32.367188 C 12.769531 32.269531 12.984375 32.148438 13.066406 32.101562 C 13.148438 32.054688 13.34375 31.949219 13.496094 31.867188 C 13.652344 31.789062 13.785156 31.710938 13.796875 31.699219 C 13.8125 31.683594 13.867188 31.648438 13.929688 31.621094 C 13.988281 31.589844 14.082031 31.539062 14.144531 31.507812 C 14.203125 31.472656 14.300781 31.453125 14.359375 31.464844 C 14.417969 31.476562 14.625 31.496094 14.820312 31.511719 Z M 35.585938 33.625 C 37.617188 34.75 38.191406 35.089844 38.167969 35.136719 C 38.152344 35.171875 38.136719 35.417969 38.132812 35.683594 C 38.121094 36.214844 38.121094 36.21875 37.832031 36.367188 C 37.527344 36.519531 37.230469 36.683594 37.113281 36.761719 C 37.050781 36.804688 36.980469 36.839844 36.953125 36.839844 C 36.925781 36.839844 36.90625 36.851562 36.90625 36.871094 C 36.90625 36.886719 36.832031 36.933594 36.746094 36.972656 C 36.65625 37.011719 36.503906 37.089844 36.410156 37.148438 C 36.316406 37.203125 36.191406 37.273438 36.132812 37.308594 C 36.070312 37.339844 35.945312 37.40625 35.851562 37.460938 C 35.757812 37.515625 35.632812 37.582031 35.570312 37.613281 C 35.511719 37.648438 35.40625 37.707031 35.335938 37.746094 C 35.21875 37.816406 35.078125 37.894531 34.792969 38.046875 C 34.734375 38.078125 34.660156 38.125 34.625 38.148438 C 34.589844 38.175781 34.453125 38.253906 34.324219 38.320312 C 34.195312 38.386719 34.019531 38.484375 33.9375 38.53125 C 33.8125 38.605469 33.539062 38.757812 33.066406 39.015625 C 33.023438 39.039062 31.265625 40.015625 29.160156 41.1875 L 25.332031 43.316406 L 25.0625 43.15625 C 24.914062 43.066406 24.679688 42.941406 24.546875 42.882812 L 24.296875 42.773438 L 24.296875 35.558594 L 24.910156 35.582031 C 25.746094 35.613281 26.707031 35.496094 27.160156 35.304688 C 27.207031 35.285156 27.429688 35.191406 27.65625 35.097656 C 28.070312 34.925781 28.585938 34.636719 28.886719 34.414062 C 29.097656 34.253906 29.890625 33.484375 29.890625 33.4375 C 29.890625 33.417969 29.917969 33.378906 29.945312 33.347656 C 30.007812 33.289062 30.238281 32.917969 30.285156 32.8125 C 30.308594 32.757812 30.414062 32.738281 30.800781 32.71875 C 31.460938 32.6875 32.261719 32.492188 32.710938 32.25 C 32.9375 32.128906 32.648438 31.992188 35.585938 33.625 Z M 35.585938 33.625 "/>
<path style=" stroke:none;fill-rule:evenodd;fill:rgb(98.823529%,36.078431%,67.45098%);fill-opacity:1;" d="M 22.554688 2.0625 C 22.0625 2.1875 21.664062 2.441406 21.347656 2.832031 C 20.933594 3.347656 20.929688 4.449219 21.34375 4.972656 C 22.054688 5.875 23.28125 6.039062 24.207031 5.363281 C 25.253906 4.589844 25.0625 2.816406 23.875 2.261719 C 23.742188 2.199219 23.59375 2.128906 23.550781 2.109375 C 23.457031 2.066406 22.6875 2.027344 22.554688 2.0625 Z M 3.40625 12.695312 C 1.253906 13.304688 1.660156 16.332031 3.902344 16.363281 C 5.234375 16.378906 6.167969 15.195312 5.789062 13.96875 C 5.742188 13.804688 5.6875 13.664062 5.671875 13.652344 C 5.65625 13.640625 5.617188 13.578125 5.578125 13.511719 C 5.234375 12.863281 4.195312 12.472656 3.40625 12.695312 Z M 41.449219 12.703125 C 40.625 12.925781 40.046875 13.671875 40.046875 14.507812 C 40.050781 16.199219 42.195312 17.011719 43.410156 15.78125 C 43.800781 15.386719 43.898438 15.125 43.898438 14.480469 C 43.898438 13.789062 43.765625 13.519531 43.1875 13.019531 C 42.789062 12.675781 42.050781 12.542969 41.449219 12.703125 Z M 21.242188 16.25 C 19.742188 16.519531 18.476562 17.34375 17.976562 18.378906 C 17.9375 18.460938 17.898438 18.535156 17.886719 18.546875 C 17.851562 18.578125 17.671875 18.960938 17.671875 18.996094 C 17.671875 19.015625 17.824219 19.042969 18.011719 19.058594 C 18.570312 19.105469 19.203125 19.277344 19.652344 19.511719 C 20.066406 19.726562 20.058594 19.722656 20.414062 20 L 20.679688 20.210938 L 20.863281 20.160156 C 20.964844 20.132812 21.070312 20.09375 21.09375 20.078125 C 21.117188 20.0625 21.246094 20.019531 21.382812 19.980469 C 21.664062 19.902344 21.660156 19.914062 21.546875 19.585938 C 21.316406 18.933594 21.347656 18.546875 21.628906 18.546875 C 21.808594 18.546875 21.871094 18.628906 21.902344 18.90625 C 21.929688 19.140625 22.0625 19.601562 22.144531 19.742188 C 22.175781 19.796875 22.265625 19.8125 22.648438 19.820312 C 23.339844 19.832031 23.804688 19.941406 24.449219 20.246094 C 24.996094 20.507812 25.003906 20.511719 25.558594 21.046875 C 25.972656 21.449219 26.105469 21.535156 26.105469 21.402344 C 26.105469 21.34375 26.378906 20.808594 26.417969 20.792969 C 26.433594 20.785156 26.449219 20.757812 26.453125 20.730469 C 26.460938 20.476562 27.125 19.886719 27.304688 19.972656 C 27.503906 20.074219 27.480469 20.199219 27.207031 20.527344 C 26.957031 20.832031 26.726562 21.203125 26.601562 21.492188 C 26.460938 21.832031 26.367188 22.171875 26.402344 22.214844 C 26.480469 22.308594 26.625 22.855469 26.671875 23.21875 L 26.71875 23.601562 L 27.003906 23.691406 C 28.398438 24.140625 29.5 25.371094 29.761719 26.757812 C 29.84375 27.195312 29.808594 27.175781 30.472656 27.175781 C 30.789062 27.175781 31.144531 27.152344 31.261719 27.125 C 31.519531 27.070312 31.699219 27.148438 31.699219 27.3125 C 31.699219 27.574219 31.367188 27.667969 30.460938 27.671875 L 29.847656 27.671875 L 29.847656 27.828125 C 29.847656 28.023438 29.746094 28.515625 29.625 28.894531 C 29.546875 29.148438 29.539062 29.207031 29.585938 29.390625 C 29.707031 29.890625 29.726562 30.078125 29.703125 30.546875 L 29.675781 31.035156 L 29.789062 31.074219 C 29.847656 31.097656 30.117188 31.113281 30.390625 31.113281 C 32.320312 31.113281 33.933594 29.785156 34.191406 27.984375 C 34.269531 27.445312 34.199219 26.441406 34.070312 26.285156 C 34.050781 26.261719 34.023438 26.1875 34.007812 26.125 C 33.886719 25.640625 33.074219 24.652344 32.578125 24.382812 C 32.339844 24.253906 32.453125 23.902344 32.738281 23.898438 C 32.753906 23.898438 32.792969 23.921875 32.824219 23.949219 C 33.417969 24.488281 33.472656 24.5 33.664062 24.128906 C 34.234375 23.046875 33.90625 21.785156 32.851562 21.007812 C 32.414062 20.683594 31.441406 20.519531 30.921875 20.683594 C 30.445312 20.832031 30.035156 21.027344 29.855469 21.191406 C 29.726562 21.308594 29.460938 21.175781 29.460938 20.996094 C 29.460938 20.832031 30.277344 20.285156 30.519531 20.289062 C 30.546875 20.289062 30.589844 20.265625 30.613281 20.234375 C 30.660156 20.183594 30.652344 20.128906 30.53125 19.542969 C 30.484375 19.316406 30.207031 18.671875 30.15625 18.671875 C 30.140625 18.671875 30.101562 18.617188 30.074219 18.550781 C 30.007812 18.414062 29.609375 18.003906 29.328125 17.789062 C 28.148438 16.890625 26.386719 16.871094 25.246094 17.75 C 24.835938 18.066406 24.382812 18.550781 24.308594 18.753906 C 24.21875 19 23.929688 19.082031 23.804688 18.894531 C 23.730469 18.785156 23.851562 18.378906 23.953125 18.378906 C 23.96875 18.378906 24.003906 18.335938 24.03125 18.277344 C 24.09375 18.144531 24.253906 17.96875 24.597656 17.648438 L 24.875 17.390625 L 24.75 17.277344 C 24.332031 16.902344 23.5625 16.511719 22.878906 16.324219 C 22.644531 16.261719 21.480469 16.207031 21.242188 16.25 Z M 17.15625 19.503906 C 16.953125 19.523438 16.710938 19.558594 16.617188 19.585938 C 16.257812 19.683594 15.691406 19.890625 15.691406 19.921875 C 15.691406 19.941406 15.671875 19.957031 15.648438 19.957031 C 15.421875 19.957031 14.359375 20.941406 14.359375 21.152344 C 14.359375 21.179688 14.339844 21.199219 14.320312 21.199219 C 14.296875 21.199219 14.253906 21.269531 14.226562 21.355469 C 14.199219 21.441406 14.160156 21.53125 14.144531 21.554688 C 14.070312 21.648438 14.003906 22.066406 13.996094 22.441406 L 13.992188 22.839844 L 14.144531 22.828125 C 14.230469 22.820312 14.421875 22.789062 14.574219 22.757812 C 14.96875 22.679688 15.160156 22.835938 14.988281 23.089844 C 14.914062 23.195312 14.90625 23.199219 14.414062 23.273438 C 14.242188 23.300781 14.089844 23.339844 14.078125 23.355469 C 14.066406 23.375 13.988281 23.402344 13.90625 23.417969 C 13.765625 23.445312 13.328125 23.628906 13.28125 23.6875 C 13.269531 23.699219 13.203125 23.746094 13.132812 23.792969 C 11.816406 24.597656 11.304688 26.496094 12.003906 27.960938 C 12.597656 29.203125 14.082031 30.035156 15.445312 29.894531 L 15.71875 29.867188 L 15.714844 29.152344 C 15.714844 28.277344 15.882812 27.644531 16.257812 27.125 C 16.324219 27.035156 16.367188 26.882812 16.328125 26.882812 C 16.320312 26.882812 16.175781 26.828125 16.003906 26.761719 C 15.429688 26.535156 14.515625 26.507812 14.042969 26.699219 C 13.726562 26.824219 13.539062 26.761719 13.539062 26.527344 C 13.539062 26.367188 13.578125 26.335938 13.90625 26.230469 C 14.675781 25.976562 15.621094 26.042969 16.433594 26.40625 C 16.683594 26.519531 16.792969 26.511719 16.882812 26.375 C 16.949219 26.277344 17.410156 25.949219 17.664062 25.816406 C 17.824219 25.734375 18 25.75 18.078125 25.855469 C 18.203125 26.027344 18.132812 26.128906 17.742188 26.339844 C 16.222656 27.171875 15.726562 29.425781 16.742188 30.886719 C 17.667969 32.222656 19.410156 32.632812 20.929688 31.878906 C 21.34375 31.675781 21.410156 31.679688 21.542969 31.925781 C 21.9375 32.65625 22.8125 33.414062 23.5625 33.667969 C 23.671875 33.707031 23.800781 33.753906 23.847656 33.773438 C 24.324219 33.972656 25.679688 34.03125 26.210938 33.878906 C 27.777344 33.425781 28.664062 32.664062 29.117188 31.386719 C 29.289062 30.90625 29.316406 29.714844 29.160156 29.5625 C 29.136719 29.539062 29.117188 29.492188 29.117188 29.453125 C 29.117188 29.378906 28.742188 28.617188 28.691406 28.585938 C 28.671875 28.574219 28.632812 28.519531 28.605469 28.46875 C 28.507812 28.289062 28.207031 27.976562 27.832031 27.660156 C 27.5625 27.4375 27.597656 27.179688 27.898438 27.175781 C 28.089844 27.171875 28.75 27.789062 29.066406 28.261719 C 29.261719 28.554688 29.265625 28.554688 29.335938 28.285156 C 29.71875 26.777344 28.621094 24.679688 27.210938 24.21875 C 27.136719 24.195312 27.054688 24.160156 27.03125 24.144531 C 26.875 24.03125 25.796875 23.953125 25.320312 24.015625 C 24.640625 24.109375 23.964844 24.425781 23.449219 24.886719 C 23.167969 25.144531 22.878906 25.132812 22.878906 24.863281 C 22.878906 24.660156 23.625 24.074219 24.195312 23.832031 C 24.335938 23.773438 24.488281 23.707031 24.535156 23.6875 C 24.742188 23.59375 25.261719 23.511719 25.753906 23.492188 C 26.21875 23.476562 26.277344 23.46875 26.261719 23.40625 C 26.25 23.367188 26.21875 23.199219 26.1875 23.027344 C 25.726562 20.257812 21.945312 19.296875 19.816406 21.410156 C 19.464844 21.757812 19.367188 21.800781 19.21875 21.65625 C 19.039062 21.484375 19.421875 20.980469 20.046875 20.570312 C 20.292969 20.40625 20.292969 20.421875 20.070312 20.265625 C 19.351562 19.761719 18.28125 19.417969 17.585938 19.464844 C 17.550781 19.46875 17.355469 19.484375 17.15625 19.503906 Z M 17.894531 23.265625 C 18.277344 23.644531 19.175781 23.847656 19.746094 23.683594 C 19.972656 23.617188 20.105469 23.734375 20.085938 23.984375 C 20.070312 24.1875 19.1875 24.300781 18.660156 24.171875 C 18.144531 24.042969 17.550781 23.707031 17.417969 23.46875 C 17.269531 23.203125 17.664062 23.039062 17.894531 23.265625 Z M 31.128906 23.300781 C 31.332031 23.515625 31.171875 23.714844 30.824219 23.671875 C 30.480469 23.628906 29.941406 23.773438 29.710938 23.96875 C 29.609375 24.054688 29.464844 24.019531 29.359375 23.886719 L 29.273438 23.773438 L 29.359375 23.660156 C 29.671875 23.25 30.855469 23.011719 31.128906 23.300781 Z M 21.738281 24.527344 C 21.914062 24.605469 21.921875 24.746094 21.757812 24.964844 C 21.582031 25.199219 21.371094 25.589844 21.371094 25.679688 C 21.371094 25.71875 21.347656 25.769531 21.320312 25.796875 C 21.199219 25.914062 21.222656 26.988281 21.351562 27.359375 C 21.75 28.492188 22.65625 29.101562 23.953125 29.101562 C 24.855469 29.101562 25.285156 28.921875 25.960938 28.261719 C 26.207031 28.023438 26.492188 28.066406 26.492188 28.339844 C 26.492188 28.511719 25.804688 29.089844 25.320312 29.328125 C 25.203125 29.386719 25.167969 29.484375 25.238281 29.5625 C 25.390625 29.722656 25.535156 30.828125 25.421875 30.964844 C 25.230469 31.1875 25.007812 31.003906 24.96875 30.589844 C 24.941406 30.277344 24.855469 29.925781 24.761719 29.703125 L 24.714844 29.597656 L 23.980469 29.597656 C 22.726562 29.597656 21.910156 29.191406 21.238281 28.230469 C 21 27.886719 21.023438 27.898438 20.765625 27.984375 C 20.304688 28.136719 19.890625 28.402344 19.566406 28.753906 C 19.042969 29.320312 19.078125 29.296875 18.902344 29.164062 C 18.78125 29.070312 18.753906 28.917969 18.84375 28.824219 C 18.875 28.796875 18.949219 28.703125 19.015625 28.621094 C 19.203125 28.375 19.480469 28.132812 19.800781 27.921875 C 20.082031 27.742188 20.226562 27.667969 20.652344 27.492188 L 20.816406 27.421875 L 20.78125 27.226562 C 20.699219 26.765625 20.746094 25.886719 20.863281 25.578125 C 21.09375 24.984375 21.386719 24.554688 21.617188 24.480469 C 21.621094 24.480469 21.675781 24.5 21.738281 24.527344 Z M 3.558594 33.835938 C 1.765625 34.175781 1.410156 36.539062 3.03125 37.355469 C 4.136719 37.914062 5.5 37.316406 5.8125 36.140625 C 6.15625 34.835938 4.925781 33.578125 3.558594 33.835938 Z M 41.617188 33.839844 C 40.464844 34.09375 39.789062 35.195312 40.140625 36.25 C 40.675781 37.859375 42.949219 38.03125 43.730469 36.519531 L 43.898438 36.195312 L 43.898438 35.675781 C 43.898438 34.476562 42.785156 33.582031 41.617188 33.839844 Z M 22.457031 44.472656 C 21.289062 44.765625 20.675781 46.054688 21.214844 47.097656 C 21.957031 48.546875 24.035156 48.5 24.757812 47.015625 C 24.988281 46.539062 24.902344 45.628906 24.585938 45.226562 C 24.046875 44.546875 23.269531 44.269531 22.457031 44.472656 Z M 22.457031 44.472656 "/>
</g>
<path d="M53.494 31V18.4H59.65C61.234 18.4 62.422 18.7 63.214 19.3C64.018 19.9 64.42 20.692 64.42 21.676C64.42 22.336 64.258 22.912 63.934 23.404C63.61 23.884 63.166 24.256 62.602 24.52C62.038 24.784 61.39 24.916 60.658 24.916L61 24.178C61.792 24.178 62.494 24.31 63.106 24.574C63.718 24.826 64.192 25.204 64.528 25.708C64.876 26.212 65.05 26.83 65.05 27.562C65.05 28.642 64.624 29.488 63.772 30.1C62.92 30.7 61.666 31 60.01 31H53.494ZM56.392 28.804H59.794C60.55 28.804 61.12 28.684 61.504 28.444C61.9 28.192 62.098 27.796 62.098 27.256C62.098 26.728 61.9 26.338 61.504 26.086C61.12 25.822 60.55 25.69 59.794 25.69H56.176V23.566H59.29C59.998 23.566 60.538 23.446 60.91 23.206C61.294 22.954 61.486 22.576 61.486 22.072C61.486 21.58 61.294 21.214 60.91 20.974C60.538 20.722 59.998 20.596 59.29 20.596H56.392V28.804ZM67.0597 31V21.316H69.7417V24.052L69.3637 23.26C69.6517 22.576 70.1137 22.06 70.7497 21.712C71.3857 21.352 72.1597 21.172 73.0717 21.172V23.764C72.9517 23.752 72.8437 23.746 72.7477 23.746C72.6517 23.734 72.5497 23.728 72.4417 23.728C71.6737 23.728 71.0497 23.95 70.5697 24.394C70.1017 24.826 69.8677 25.504 69.8677 26.428V31H67.0597ZM80.0485 31V29.11L79.8685 28.696V25.312C79.8685 24.712 79.6825 24.244 79.3105 23.908C78.9505 23.572 78.3925 23.404 77.6365 23.404C77.1205 23.404 76.6105 23.488 76.1065 23.656C75.6145 23.812 75.1945 24.028 74.8465 24.304L73.8385 22.342C74.3665 21.97 75.0025 21.682 75.7465 21.478C76.4905 21.274 77.2465 21.172 78.0145 21.172C79.4905 21.172 80.6365 21.52 81.4525 22.216C82.2685 22.912 82.6765 23.998 82.6765 25.474V31H80.0485ZM77.0965 31.144C76.3405 31.144 75.6925 31.018 75.1525 30.766C74.6125 30.502 74.1985 30.148 73.9105 29.704C73.6225 29.26 73.4785 28.762 73.4785 28.21C73.4785 27.634 73.6165 27.13 73.8925 26.698C74.1805 26.266 74.6305 25.93 75.2425 25.69C75.8545 25.438 76.6525 25.312 77.6365 25.312H80.2105V26.95H77.9425C77.2825 26.95 76.8265 27.058 76.5745 27.274C76.3345 27.49 76.2145 27.76 76.2145 28.084C76.2145 28.444 76.3525 28.732 76.6285 28.948C76.9165 29.152 77.3065 29.254 77.7985 29.254C78.2665 29.254 78.6865 29.146 79.0585 28.93C79.4305 28.702 79.7005 28.372 79.8685 27.94L80.3005 29.236C80.0965 29.86 79.7245 30.334 79.1845 30.658C78.6445 30.982 77.9485 31.144 77.0965 31.144ZM85.2179 31V21.316H88.0259V31H85.2179ZM86.6219 19.966C86.1059 19.966 85.6859 19.816 85.3619 19.516C85.0379 19.216 84.8759 18.844 84.8759 18.4C84.8759 17.956 85.0379 17.584 85.3619 17.284C85.6859 16.984 86.1059 16.834 86.6219 16.834C87.1379 16.834 87.5579 16.978 87.8819 17.266C88.2059 17.542 88.3679 17.902 88.3679 18.346C88.3679 18.814 88.2059 19.204 87.8819 19.516C87.5699 19.816 87.1499 19.966 86.6219 19.966ZM96.5179 21.172C97.2859 21.172 97.9699 21.328 98.5699 21.64C99.1819 21.94 99.6619 22.408 100.01 23.044C100.358 23.668 100.532 24.472 100.532 25.456V31H97.7239V25.888C97.7239 25.108 97.5499 24.532 97.2019 24.16C96.8659 23.788 96.3859 23.602 95.7619 23.602C95.3179 23.602 94.9159 23.698 94.5559 23.89C94.2079 24.07 93.9319 24.352 93.7279 24.736C93.5359 25.12 93.4399 25.612 93.4399 26.212V31H90.6319V21.316H93.3139V23.998L92.8099 23.188C93.1579 22.54 93.6559 22.042 94.3039 21.694C94.9519 21.346 95.6899 21.172 96.5179 21.172ZM103.275 31V18.4H108.999C110.367 18.4 111.573 18.664 112.617 19.192C113.661 19.708 114.477 20.434 115.065 21.37C115.653 22.306 115.947 23.416 115.947 24.7C115.947 25.972 115.653 27.082 115.065 28.03C114.477 28.966 113.661 29.698 112.617 30.226C111.573 30.742 110.367 31 108.999 31H103.275ZM106.191 28.606H108.855C109.695 28.606 110.421 28.45 111.033 28.138C111.657 27.814 112.137 27.358 112.473 26.77C112.821 26.182 112.995 25.492 112.995 24.7C112.995 23.896 112.821 23.206 112.473 22.63C112.137 22.042 111.657 21.592 111.033 21.28C110.421 20.956 109.695 20.794 108.855 20.794H106.191V28.606ZM116.315 31L121.931 18.4H124.811L130.445 31H127.385L122.777 19.876H123.929L119.303 31H116.315ZM119.123 28.3L119.897 26.086H126.377L127.169 28.3H119.123ZM137.696 31.216C136.7 31.216 135.776 31.054 134.924 30.73C134.084 30.406 133.352 29.95 132.728 29.362C132.116 28.774 131.636 28.084 131.288 27.292C130.952 26.5 130.784 25.636 130.784 24.7C130.784 23.764 130.952 22.9 131.288 22.108C131.636 21.316 132.122 20.626 132.746 20.038C133.37 19.45 134.102 18.994 134.942 18.67C135.782 18.346 136.694 18.184 137.678 18.184C138.674 18.184 139.586 18.346 140.414 18.67C141.254 18.994 141.98 19.45 142.592 20.038C143.216 20.626 143.702 21.316 144.05 22.108C144.398 22.888 144.572 23.752 144.572 24.7C144.572 25.636 144.398 26.506 144.05 27.31C143.702 28.102 143.216 28.792 142.592 29.38C141.98 29.956 141.254 30.406 140.414 30.73C139.586 31.054 138.68 31.216 137.696 31.216ZM137.678 28.732C138.242 28.732 138.758 28.636 139.226 28.444C139.706 28.252 140.126 27.976 140.486 27.616C140.846 27.256 141.122 26.83 141.314 26.338C141.518 25.846 141.62 25.3 141.62 24.7C141.62 24.1 141.518 23.554 141.314 23.062C141.122 22.57 140.846 22.144 140.486 21.784C140.138 21.424 139.724 21.148 139.244 20.956C138.764 20.764 138.242 20.668 137.678 20.668C137.114 20.668 136.592 20.764 136.112 20.956C135.644 21.148 135.23 21.424 134.87 21.784C134.51 22.144 134.228 22.57 134.024 23.062C133.832 23.554 133.736 24.1 133.736 24.7C133.736 25.288 133.832 25.834 134.024 26.338C134.228 26.83 134.504 27.256 134.852 27.616C135.212 27.976 135.632 28.252 136.112 28.444C136.592 28.636 137.114 28.732 137.678 28.732Z" fill="white" fill-opacity="0.92"/>
</svg>
