<svg width="145" height="50" viewBox="0 0 145 50" fill="none" xmlns="http://www.w3.org/2000/svg">
<path fill-rule="evenodd" clip-rule="evenodd" d="M22.4859 0.0100139C21.6304 0.099858 20.7749 0.502202 20.1421 1.11158C19.8452 1.39283 19.4976 1.85376 19.4976 1.95923C19.4976 1.99048 19.478 2.01783 19.4585 2.01783C19.4351 2.01783 19.4077 2.04908 19.396 2.08814C19.3804 2.13111 19.3101 2.32251 19.2398 2.51392C19.0874 2.92408 19.0093 3.4358 19.0288 3.89673L19.0445 4.22486L14.978 6.48658C10.5366 8.95533 10.7788 8.81861 10.357 9.05298C10.1968 9.13892 10.0015 9.2483 9.92727 9.29126C9.85305 9.33423 9.68508 9.42798 9.55617 9.49439C9.42727 9.5647 9.29055 9.64283 9.25539 9.66626C9.22023 9.69361 9.14211 9.74048 9.08352 9.76783C9.02492 9.79517 8.93508 9.84205 8.8882 9.86939C8.84133 9.89673 8.65773 9.9983 8.48195 10.096C8.30227 10.1975 8.09133 10.3147 8.00539 10.3616C7.92336 10.4124 7.75148 10.5061 7.61867 10.5725C7.48977 10.6428 7.35305 10.717 7.31789 10.7444C7.28273 10.7678 7.20852 10.8147 7.14992 10.846C6.86867 11.0022 6.72414 11.0803 6.60695 11.1467C6.24758 11.3538 6.14602 11.3694 6.02883 11.2288C6.01711 11.217 5.95852 11.178 5.89992 11.1467C3.69289 9.92017 0.938984 10.8733 0.20461 13.1155C-0.252422 14.51 0.0639839 15.885 1.0757 16.9202C1.25148 17.0999 1.77883 17.4905 1.84523 17.4905C1.86867 17.4905 1.89602 17.5061 1.90383 17.5256C1.91164 17.5413 2.02883 17.6077 2.16555 17.6702L2.41164 17.7835V32.0452L2.14602 32.1663C-0.861797 33.5139 -0.635234 37.8694 2.49758 38.9944C3.47414 39.342 5.14602 39.2327 5.68508 38.7835C5.72414 38.7522 5.76711 38.7288 5.78664 38.7288C5.80227 38.7288 5.90383 38.6702 6.00539 38.6038C6.11086 38.5335 6.20852 38.4788 6.22414 38.4788C6.25539 38.4788 9.2632 40.1389 9.29836 40.178C9.31008 40.1897 9.37648 40.2288 9.4468 40.2639C9.52102 40.2952 9.72414 40.4045 9.89992 40.5061C10.3374 40.7522 10.482 40.8342 10.7593 40.9788C10.8921 41.0491 11.0249 41.1233 11.064 41.1506C11.0991 41.1741 11.1734 41.221 11.228 41.2522C11.2866 41.2835 11.3999 41.346 11.4859 41.3928C11.5718 41.4397 11.6929 41.5061 11.7515 41.5374C11.8101 41.5686 11.9351 41.6389 12.0288 41.6975C12.1265 41.7522 12.2398 41.8147 12.2866 41.8381C12.3374 41.8616 12.4507 41.9241 12.5484 41.9827C12.6421 42.0374 12.7671 42.1077 12.8257 42.1389C12.8843 42.1741 13.0054 42.2366 13.0874 42.2835C13.1734 42.3303 13.2905 42.3967 13.3491 42.4241C13.4038 42.4553 13.478 42.5022 13.5132 42.5256C13.5484 42.553 13.6851 42.6311 13.814 42.6975C13.9468 42.7678 14.1187 42.8616 14.2046 42.9085C14.2866 42.9553 14.4976 43.0764 14.6773 43.1741C14.853 43.2717 15.0484 43.3811 15.1109 43.4124C15.9937 43.9085 16.3101 44.0803 16.3491 44.0803C16.3765 44.0803 16.396 44.096 16.396 44.1116C16.396 44.1311 16.4429 44.1702 16.4937 44.1936C16.6304 44.26 16.9702 44.4475 18.0757 45.0647L19.0445 45.6038L19.0288 45.9085C18.9976 46.6663 19.2749 47.678 19.6382 48.1233C19.6577 48.1467 19.7202 48.2288 19.7788 48.3108C19.9038 48.4827 20.4859 49.0569 20.5327 49.0569C20.5523 49.0569 20.5913 49.0803 20.6226 49.1116C21.3374 49.7952 23.1929 50.01 24.357 49.5452C25.8765 48.9358 26.9155 47.3303 26.7437 45.8577C26.7124 45.6116 26.728 45.5881 27.0484 45.4241C27.3726 45.2561 27.7398 45.053 27.7593 45.0335C27.7827 45.01 27.8882 44.9475 28.232 44.7717C28.3609 44.7014 28.4976 44.6272 28.5327 44.596C28.5679 44.5725 28.6577 44.5256 28.7359 44.4944C28.814 44.467 28.8765 44.428 28.8765 44.4085C28.8765 44.3928 28.9116 44.3694 28.9507 44.3538C28.9937 44.342 29.103 44.2835 29.2007 44.2249C29.2945 44.1702 29.4429 44.092 29.5327 44.053C29.6226 44.0178 29.6929 43.9749 29.6929 43.9553C29.6929 43.9397 29.7632 43.9006 29.8452 43.8694C29.9273 43.8381 29.9937 43.803 29.9937 43.7913C29.9937 43.7756 30.0601 43.7405 30.1343 43.7092C30.2124 43.6741 30.3765 43.5881 30.4976 43.51C30.6226 43.4358 30.7437 43.3733 30.7671 43.3733C30.7905 43.3733 30.814 43.3577 30.814 43.3381C30.814 43.3225 30.8804 43.2795 30.9624 43.2483C31.0445 43.217 31.1148 43.178 31.1148 43.1585C31.1148 43.1389 31.1304 43.1233 31.1538 43.1233C31.1734 43.1233 31.3413 43.0413 31.521 42.9397C31.7007 42.8342 31.857 42.7522 31.8726 42.7522C31.8843 42.7522 31.9741 42.6975 32.0757 42.635C32.1734 42.5686 32.4077 42.4319 32.5991 42.3342C32.7866 42.2327 32.9741 42.1311 33.0132 42.1077C33.0523 42.0842 33.2359 41.9827 33.4234 41.8811C33.607 41.7756 33.7945 41.6741 33.8335 41.6506C36.064 40.4045 39.5445 38.4788 39.5679 38.4788C39.5835 38.4788 39.7046 38.5491 39.8413 38.6389C41.0171 39.4085 43.0484 39.3889 44.0835 38.5999C45.0913 37.8303 45.4663 37.2835 45.7007 36.26C45.8374 35.6663 45.7788 34.6936 45.5757 34.2678C45.5562 34.221 45.5132 34.1194 45.482 34.0413C45.2007 33.3108 44.4234 32.5178 43.6499 32.1702L43.3765 32.0491V24.9124C43.3765 18.1545 43.3804 17.7756 43.4507 17.7483C44.2241 17.467 45.0445 16.6975 45.4038 15.9241C45.478 15.7717 45.5562 15.6077 45.5757 15.5608C45.5991 15.5139 45.6538 15.303 45.7007 15.0881C46.1382 13.096 44.8296 11.1272 42.7749 10.678C42.2827 10.5725 40.814 10.6389 40.728 10.7756C40.7163 10.7952 40.6695 10.8108 40.6265 10.8108C40.5445 10.8108 39.8023 11.1663 39.7632 11.2249C39.6655 11.3655 39.521 11.3577 39.2476 11.1858C39.1499 11.1233 38.2241 10.6116 37.9546 10.467C37.8257 10.4006 37.689 10.3225 37.6538 10.2991C37.6187 10.2717 37.5445 10.2249 37.4859 10.1936C37.2476 10.0647 37.0601 9.96314 36.857 9.84986C36.7398 9.78345 36.6109 9.71705 36.5679 9.70533C36.5249 9.69361 36.4937 9.67017 36.4937 9.65064C36.4937 9.63501 36.4234 9.59986 36.3413 9.5647C36.2593 9.53345 36.1929 9.4983 36.1929 9.48267C36.1929 9.46314 36.1577 9.4397 36.1148 9.42798C36.0757 9.41626 35.9624 9.35767 35.8687 9.29908C35.7749 9.24439 35.6304 9.16236 35.5445 9.1233C35.4624 9.08423 35.3843 9.04126 35.3726 9.02955C35.3609 9.01783 35.2945 8.97876 35.2241 8.94361C35.1538 8.90845 35.0835 8.8733 35.0718 8.86158C35.0601 8.84986 34.9937 8.8147 34.9234 8.77955C34.8491 8.74439 34.7359 8.67798 34.6655 8.63111C34.5913 8.58423 34.478 8.51783 34.4038 8.48658C34.3335 8.45142 34.2671 8.41626 34.2554 8.40455C34.2437 8.39283 34.1773 8.35767 34.103 8.32251C34.0327 8.28736 33.9663 8.2483 33.9546 8.23658C33.9155 8.19751 33.2124 7.82642 33.1773 7.82642C33.1577 7.82642 33.1382 7.8108 33.1304 7.79126C33.1148 7.76001 32.9116 7.63892 32.5132 7.43189C32.3921 7.36939 31.0484 6.6233 29.521 5.77173L26.7476 4.22095L26.7554 4.0022C26.7945 3.13111 26.5562 2.3108 26.0562 1.58033C25.9116 1.3733 25.3179 0.771733 25.2593 0.771733C25.2398 0.771733 25.2007 0.748296 25.1695 0.720952C25.0679 0.631108 24.7749 0.459233 24.5523 0.361577C24.4351 0.310796 24.3062 0.252202 24.2671 0.232671C23.9859 0.08814 22.9624 -0.0368601 22.4859 0.0100139ZM23.7437 0.861577C25.2632 1.3108 26.1773 2.70533 25.9351 4.19361C25.9038 4.40064 25.8804 4.58033 25.8882 4.59205C25.9077 4.6233 26.5288 4.97876 27.0484 5.2522C27.189 5.32642 27.3335 5.40845 27.3687 5.4358C27.4077 5.45923 27.482 5.50611 27.5366 5.53736C27.5952 5.56861 27.7085 5.63111 27.7945 5.67798C27.8804 5.72486 28.0015 5.79126 28.0601 5.82251C28.1187 5.85376 28.2437 5.92408 28.3374 5.98267C28.4312 6.03736 28.5484 6.10376 28.5952 6.1233C28.6421 6.14673 28.7593 6.20923 28.853 6.26783C28.9507 6.32251 29.0757 6.39283 29.1343 6.42408C29.1929 6.45923 29.3101 6.52173 29.396 6.56861C29.482 6.61548 29.5991 6.68189 29.6538 6.70923C29.7124 6.74048 29.7866 6.78736 29.8218 6.8147C29.857 6.83814 29.9937 6.91626 30.1226 6.98267C30.3843 7.11939 30.5054 7.1858 30.9859 7.45533C31.1616 7.55689 31.3648 7.66626 31.4351 7.70142C31.5093 7.73658 31.5757 7.77173 31.5874 7.78736C31.6304 7.83423 32.607 8.36548 32.6538 8.36548C32.6773 8.36548 32.7046 8.38111 32.7124 8.39673C32.732 8.4397 39.6148 12.2639 39.6695 12.2639C39.689 12.2639 39.7437 12.2249 39.7866 12.1741C40.9116 10.9631 43.2124 11.1116 44.3452 12.471C45.6499 14.0335 44.9038 16.5413 42.9702 17.1116C42.8726 17.1389 42.7515 17.1858 42.7007 17.2092L42.603 17.2561L42.6148 24.928L42.6226 32.6038L42.9468 32.7092C44.8101 33.3225 45.5874 35.4553 44.5405 37.0881C44.2476 37.5452 43.6304 38.0686 43.2359 38.1975C43.1616 38.221 43.0796 38.2561 43.0562 38.2756C42.939 38.3616 42.2827 38.4788 41.9234 38.4788C41.1538 38.4788 40.3257 38.1663 39.8765 37.7092C39.7398 37.5686 39.4624 37.5217 39.4624 37.6428C39.4624 37.6585 39.3999 37.6975 39.3218 37.7288C39.2437 37.76 39.1734 37.7991 39.1616 37.8147C39.1499 37.8303 39.0327 37.8967 38.9038 37.9631C38.771 38.0295 38.6577 38.092 38.646 38.1038C38.6304 38.1155 38.564 38.1545 38.4937 38.1897C38.4234 38.221 38.353 38.26 38.3413 38.2756C38.3296 38.2874 38.1655 38.3811 37.978 38.4827C37.7866 38.5842 37.5991 38.6819 37.5601 38.7053C37.271 38.8772 26.1382 45.0647 25.978 45.1467C25.8882 45.1936 25.8648 45.2288 25.8804 45.2952C26.6343 48.3069 22.9429 50.3499 20.6851 48.1702C19.9663 47.4749 19.6226 46.2874 19.8843 45.4085C19.9351 45.2366 19.9116 45.1897 19.7437 45.1194C19.6655 45.0881 19.5757 45.0374 19.5405 45.01C19.5015 44.9827 19.3687 44.9045 19.2359 44.8381C18.8882 44.6545 18.7945 44.6038 18.732 44.5491C18.7046 44.5217 18.6343 44.4866 18.5796 44.471C18.5288 44.4553 18.4585 44.4202 18.4273 44.3967C18.3609 44.346 17.9507 44.1155 17.7749 44.0295C17.7163 43.9983 17.6577 43.967 17.646 43.9514C17.6343 43.9397 17.4702 43.846 17.2788 43.7444C17.0913 43.6428 16.9038 43.5413 16.8648 43.5178C16.8257 43.4944 16.6421 43.3928 16.4546 43.2913C16.271 43.1897 16.0835 43.0842 16.0445 43.0608C13.5562 41.678 6.52102 37.76 6.37648 37.6819C6.15773 37.5569 6.04836 37.5413 5.99758 37.6194C5.71633 38.053 4.65383 38.4788 3.84914 38.4788C0.700703 38.4788 -0.385234 34.4397 2.35305 32.9085C2.62258 32.76 2.64602 32.7522 2.96242 32.6741L3.14602 32.6272L3.12258 17.221L2.85695 17.1311C1.96633 16.8381 1.10305 15.9866 0.92336 15.2288C0.907734 15.1585 0.872578 15.0764 0.849141 15.0452C0.743672 14.9202 0.790547 13.7288 0.911641 13.4006C1.37258 12.1467 2.52492 11.342 3.85305 11.342C4.2593 11.342 4.88039 11.4592 5.01711 11.5569C5.04055 11.5764 5.10305 11.6038 5.15773 11.6194C5.29445 11.6585 5.7593 11.9592 5.94289 12.1233C6.02492 12.2014 6.10695 12.2639 6.12648 12.2639C6.14211 12.2639 6.97023 11.8108 7.96633 11.2561C8.95852 10.7053 9.80617 10.2327 9.84523 10.2092C10.4546 9.8733 10.607 9.78736 10.6695 9.7522C10.7085 9.72876 10.8843 9.63111 11.064 9.53345C11.2398 9.4358 11.4507 9.3147 11.5366 9.26783C11.6187 9.22095 11.7905 9.1272 11.9234 9.05689C12.0523 8.99048 12.189 8.91236 12.2241 8.88501C12.2593 8.85767 12.3374 8.8147 12.396 8.78736C12.4546 8.76001 12.5601 8.70142 12.6343 8.65845C12.9546 8.47095 13.0718 8.40455 13.2124 8.34205C13.2945 8.30689 13.3726 8.26392 13.3843 8.2483C13.4077 8.21705 13.4937 8.16626 13.8609 7.97876C13.9898 7.90845 14.1265 7.83423 14.1616 7.80689C14.1968 7.77955 14.2827 7.73267 14.353 7.69751C14.4234 7.66626 14.4937 7.6272 14.5054 7.61548C14.5249 7.59595 14.5991 7.55298 14.9312 7.3772C15.0405 7.32251 15.1773 7.24439 15.2359 7.20533C15.2945 7.16626 15.3999 7.11158 15.4741 7.07642C15.5445 7.04517 15.6109 7.00611 15.6226 6.99439C15.6343 6.98267 15.6929 6.94751 15.7515 6.91626C16.4273 6.54517 16.6734 6.41236 16.7007 6.41236C16.7202 6.41236 16.7398 6.40064 16.7476 6.38111C16.7632 6.34986 16.9702 6.22876 17.3648 6.02173C18.4624 5.44751 19.9038 4.59595 19.8921 4.52564C19.7866 3.7522 19.7827 3.70142 19.8335 3.34595C20.0835 1.54126 21.978 0.33814 23.7437 0.861577ZM17.689 7.38892C16.1148 8.26392 14.8062 8.99439 14.7827 9.01392C14.7554 9.03345 14.6616 9.08814 14.5679 9.13501C14.2632 9.29126 13.9663 9.45533 13.9468 9.48267C13.9312 9.4983 13.8609 9.53345 13.7827 9.5647C13.7085 9.59205 13.6421 9.63111 13.6421 9.64283C13.6421 9.65845 13.5796 9.69751 13.5054 9.72876C13.4273 9.76001 13.1929 9.88892 12.982 10.01C12.771 10.1311 12.5835 10.2288 12.564 10.2288C12.5484 10.2288 12.5249 10.2444 12.5171 10.26C12.5093 10.2795 12.3765 10.3538 12.2241 10.4319C12.0718 10.51 11.9155 10.592 11.8804 10.6194C11.8452 10.6467 11.7671 10.6897 11.7124 10.721C11.6577 10.7522 11.5405 10.8147 11.4546 10.8616C11.3687 10.9124 11.2515 10.9749 11.1929 11.0061C11.1304 11.0374 11.0249 11.0999 10.9546 11.1389C10.8374 11.2092 10.6968 11.2874 10.4116 11.4397C10.357 11.471 10.2788 11.5178 10.2437 11.5413C10.2085 11.5686 10.0718 11.6428 9.94289 11.7092C9.60695 11.885 9.50148 11.9436 9.42727 11.9983C9.39211 12.0217 9.25539 12.0999 9.12648 12.1702C8.99367 12.2366 8.82961 12.3264 8.75539 12.3694C8.61867 12.4514 8.14211 12.7131 7.89992 12.846C7.72023 12.9397 7.01711 13.3381 6.89992 13.4085C6.80617 13.4631 6.80617 13.467 6.87648 13.6819C6.97023 13.9788 6.96633 14.7053 6.87258 14.971C6.75148 15.3147 6.67336 15.2522 8.27492 16.1428C9.78273 16.9827 10.7202 17.5022 11.0601 17.6858C11.1655 17.7444 11.3491 17.846 11.4702 17.9163C11.5874 17.9827 11.7437 18.0725 11.814 18.1116C12.0679 18.2483 12.5366 18.5061 12.6695 18.5842C12.7437 18.6272 12.9116 18.717 13.0405 18.7874C13.1734 18.8538 13.3062 18.9319 13.3413 18.9592C13.3765 18.9827 13.4546 19.0295 13.5093 19.0608C13.5679 19.0881 13.6812 19.1545 13.7671 19.2014C13.853 19.2483 13.978 19.3147 14.0445 19.3538C14.1109 19.3889 14.2085 19.4397 14.2593 19.467C14.357 19.5217 14.3804 19.5139 14.5952 19.346C15.0249 19.01 16.0913 18.5295 16.4155 18.5256C16.6773 18.5256 17.0015 18.2092 17.0015 17.9514C17.0015 17.928 17.0132 17.9045 17.0327 17.8967C17.0484 17.8889 17.1109 17.7991 17.1695 17.6975C17.396 17.2874 17.8609 16.7483 18.3374 16.3499C18.646 16.0881 19.2827 15.7288 19.8609 15.4944C20.4155 15.2678 21.3765 15.1077 21.939 15.1428L22.3374 15.1702L22.314 6.64673L22.0757 6.59205C21.6695 6.49439 21.0366 6.15455 20.7827 5.90064C20.6304 5.74048 20.7632 5.67798 17.689 7.38892ZM24.8335 6.01783C24.5132 6.27173 24.107 6.48267 23.7359 6.58033L23.4741 6.65064L23.4663 11.053C23.4546 14.967 23.4624 15.4553 23.521 15.4553C23.5562 15.4553 23.6187 15.4749 23.6577 15.4983C23.7007 15.5178 23.8296 15.5764 23.9507 15.6272C24.2671 15.76 24.8335 16.0803 24.978 16.2092C25.2241 16.428 25.2671 16.4358 25.6148 16.3186C26.357 16.0686 26.4038 16.0608 27.1773 16.0608C27.939 16.0608 28.0171 16.0725 28.6812 16.2991C29.021 16.4124 29.6538 16.7639 29.8687 16.9514C30.4976 17.5022 30.771 17.8264 31.0405 18.342C31.1812 18.6077 31.4155 19.2639 31.4155 19.3889C31.4155 19.4944 31.521 19.5139 31.6265 19.4241C31.6655 19.3928 32.0132 19.1897 32.4038 18.9749C32.7945 18.76 34.4351 17.8499 36.0523 16.9514L38.9898 15.3225L38.9624 15.1702C38.9468 15.0881 38.9195 14.9944 38.8999 14.9592C38.8804 14.9241 38.853 14.7483 38.8374 14.5647C38.814 14.2717 38.8335 14.0608 38.9273 13.5647L38.9546 13.4397L37.2476 12.4866C36.3062 11.9631 35.439 11.4827 35.3179 11.4163C35.0523 11.2756 34.1499 10.7678 33.853 10.5999C33.7398 10.5335 33.6304 10.4788 33.607 10.4788C33.5835 10.4788 33.5679 10.467 33.5679 10.4475C33.5679 10.4319 33.5054 10.3889 33.4273 10.3577C33.3491 10.3264 33.2398 10.2678 33.1812 10.2288C33.1187 10.1897 32.982 10.1116 32.8765 10.053C32.5327 9.8733 32.4702 9.83814 32.4468 9.8147C32.4351 9.79908 32.357 9.75611 32.2749 9.71705C32.1929 9.67798 32.0484 9.59986 31.9546 9.54517C31.857 9.49048 31.7437 9.42798 31.6929 9.40455C31.646 9.38111 31.5327 9.3147 31.4351 9.25611C31.3413 9.19751 31.2046 9.1233 31.1343 9.08814C31.0132 9.02955 30.9195 8.97486 30.5874 8.77955C30.5093 8.73267 30.3999 8.67408 30.3374 8.64673C30.2788 8.61939 30.2007 8.57642 30.1655 8.54908C30.1304 8.52173 29.9976 8.44361 29.8648 8.3772C29.5327 8.20142 29.4234 8.14283 29.3491 8.08814C29.314 8.0647 29.1773 7.98658 29.0484 7.92017C28.9195 7.84986 28.7437 7.75611 28.6616 7.70923C28.5796 7.65845 28.3648 7.54126 28.189 7.44361C28.0093 7.34595 27.814 7.23658 27.7515 7.20142C27.689 7.17017 27.0952 6.83814 26.4312 6.46705C25.0445 5.69361 25.1929 5.73267 24.8335 6.01783ZM20.7007 6.79517C20.7827 6.84595 20.8882 6.91236 20.939 6.9397C21.0796 7.02173 21.482 7.20142 21.5249 7.20142C21.5445 7.20142 21.5601 8.76392 21.5601 10.8108V14.4202H21.357C20.4038 14.4319 18.5288 15.1077 18.0327 15.6233C18.021 15.635 17.9429 15.6936 17.857 15.7522C17.5523 15.9749 17.1538 16.3967 16.7085 16.971C16.6499 17.0452 16.2827 17.6741 16.2593 17.7444C16.2437 17.7835 16.1382 17.8342 16.0015 17.8655C15.5405 17.971 14.9077 18.2327 14.4585 18.5061L14.2827 18.6155L11.1616 16.8811C9.4468 15.928 7.95461 15.0999 7.85305 15.0452L7.66555 14.9436L7.6968 14.7131C7.73195 14.4553 7.73195 14.2795 7.70461 14.01L7.68508 13.8303L10.8921 12.0491C12.6538 11.0686 14.3374 10.135 14.6343 9.97095C14.9312 9.80689 15.1812 9.66626 15.1929 9.65064C15.2046 9.63892 15.2905 9.58814 15.3882 9.54126C15.6773 9.39283 15.9859 9.22095 16.0093 9.19751C16.021 9.18189 16.0913 9.14283 16.1616 9.11158C16.232 9.07642 16.2984 9.03736 16.3101 9.02564C16.3218 9.01783 16.3921 8.97876 16.4624 8.94361C16.5327 8.91236 16.6929 8.82251 16.814 8.7483C16.939 8.67408 17.0601 8.61158 17.0835 8.61158C17.1109 8.61158 17.1304 8.59595 17.1304 8.58033C17.1304 8.5608 17.1968 8.51783 17.2788 8.48658C17.3609 8.45533 17.4312 8.42017 17.4312 8.40845C17.4312 8.39283 17.4937 8.35767 17.5718 8.32642C17.646 8.29517 17.814 8.20533 17.9351 8.1272C18.0601 8.05298 18.1812 7.99048 18.2046 7.99048C18.228 7.99048 18.2476 7.97486 18.2476 7.95923C18.2476 7.94361 18.3101 7.90064 18.3882 7.86939C18.4663 7.83814 18.5757 7.77955 18.6343 7.74048C18.6929 7.70142 18.8296 7.6233 18.9351 7.5647C19.0445 7.51001 19.2007 7.42408 19.2866 7.3772C19.3726 7.33033 19.4859 7.26783 19.5445 7.23658C19.5991 7.20533 19.6773 7.16236 19.7124 7.13501C19.7671 7.09595 20.0171 6.95923 20.3999 6.76001C20.5366 6.6897 20.5249 6.6897 20.7007 6.79517ZM25.5366 6.84205C25.6812 6.92017 25.8687 7.02173 25.9507 7.06861C26.0327 7.11939 26.2476 7.23658 26.4234 7.33423C26.5991 7.43189 26.7788 7.53345 26.8218 7.55298C26.8609 7.57642 27.2671 7.80298 27.7241 8.0608C28.1812 8.3147 28.6148 8.55689 28.6929 8.59986C28.771 8.63892 30.9077 9.83033 33.4507 11.2405L38.0679 13.8069L38.064 14.2678C38.064 14.5217 38.0796 14.7835 38.0952 14.846C38.1226 14.9319 38.1148 14.9592 38.064 14.9592C38.0288 14.9592 37.9976 14.9788 37.9976 15.0022C37.9976 15.0217 37.978 15.0413 37.9546 15.0413C37.9312 15.0413 37.8374 15.0842 37.7515 15.1389C37.6616 15.1936 37.482 15.2913 37.353 15.3616C36.9937 15.5491 36.9038 15.5999 36.8804 15.6272C36.8687 15.6389 36.732 15.717 36.5796 15.7952C36.4234 15.8772 36.232 15.9827 36.1499 16.0295C36.064 16.0803 35.853 16.1975 35.6773 16.2952C35.2671 16.5217 35.4624 16.4124 33.5835 17.4592C31.7671 18.471 31.9195 18.4045 31.8452 18.2249C30.9312 16.0061 28.1148 14.7756 25.6265 15.5139L25.4116 15.5803L25.1695 15.4163C25.0366 15.3264 24.771 15.1741 24.5796 15.0803L24.228 14.9124V7.22095L24.3687 7.16236C24.4468 7.13111 24.5562 7.08423 24.6148 7.0608C24.6773 7.03736 24.8374 6.94751 24.978 6.86158C25.2827 6.67408 25.2163 6.67408 25.5366 6.84205ZM5.95461 16.4827C5.83352 16.592 5.70461 16.7014 5.67336 16.7288C5.53273 16.8342 4.95852 17.1077 4.76711 17.1585L4.56398 17.2092V32.5842L4.81008 32.6702C5.3257 32.8538 5.72414 33.0881 6.02492 33.3928C6.21633 33.5881 6.18117 33.5999 7.39602 32.9006C7.43508 32.8772 7.62258 32.7756 7.81398 32.6741C8.00148 32.5725 8.16555 32.4788 8.17727 32.467C8.18898 32.4553 8.2593 32.4163 8.32961 32.3811C8.39992 32.346 8.47023 32.3108 8.48195 32.2991C8.49367 32.2874 8.60695 32.221 8.73977 32.1545C8.86867 32.0881 8.98586 32.0256 8.99758 32.01C9.0093 31.9983 9.0757 31.9592 9.14602 31.9241C9.21633 31.8889 9.28664 31.8538 9.29836 31.842C9.31008 31.8303 9.39602 31.7835 9.48977 31.7327C9.79445 31.5803 10.0913 31.4163 10.2085 31.3381C10.271 31.2952 10.3452 31.26 10.3687 31.26C10.396 31.26 10.4155 31.2483 10.4155 31.2288C10.4155 31.2131 10.478 31.1741 10.5562 31.1389C10.6343 31.1077 10.7437 31.0491 10.8023 31.01C10.8648 30.971 10.9976 30.8928 11.103 30.8381C11.2124 30.7795 11.3687 30.6936 11.4546 30.6467C11.5405 30.6038 11.6577 30.5374 11.7124 30.5061C11.7671 30.4788 11.8452 30.4319 11.8804 30.4045C11.9155 30.3811 12.0523 30.303 12.1812 30.2366C12.5913 30.0178 12.6968 29.9553 12.6851 29.928C12.6812 29.9163 12.5249 29.7835 12.3374 29.6428C12.0171 29.3928 11.5093 28.8655 11.3921 28.6624C11.0757 28.1038 10.9585 27.8264 10.8179 27.2991C10.3726 25.6506 11.1616 23.7405 12.6851 22.7991L12.9859 22.6116L13.0093 22.1155C13.0327 21.5647 13.103 21.3108 13.3921 20.7522C13.6187 20.3069 13.6616 20.3811 12.978 20.0295C12.857 19.967 12.7515 19.9045 12.7398 19.8928C12.6968 19.846 6.25539 16.2874 6.21633 16.2874C6.1968 16.2874 6.07961 16.3772 5.95461 16.4827ZM36.2827 18.0881C32.5054 20.1858 32.9546 19.9045 33.1851 20.0491C33.478 20.2327 33.478 20.2327 33.8257 20.5608C34.8374 21.5178 35.0835 23.2288 34.3765 24.3889C34.228 24.6311 34.2163 24.553 34.4624 24.9631C34.6577 25.2952 34.8062 25.6428 34.9702 26.178C35.0835 26.5374 35.0835 27.8381 34.9741 28.2522C34.771 29.0217 34.3882 29.7366 33.9273 30.221C33.8023 30.3499 33.8257 30.3811 34.2476 30.6077C34.4312 30.7053 34.6109 30.803 34.6499 30.8264C34.7085 30.8616 35.5015 31.2991 35.771 31.4475C35.814 31.471 36.6773 31.9514 37.689 32.5178C39.5796 33.5686 39.6187 33.5881 39.6616 33.4788C39.732 33.303 40.521 32.8225 41.021 32.6506L41.228 32.5803L41.2046 17.221L40.9663 17.1467C40.5445 17.0178 40.0562 16.7288 39.7632 16.4358C39.6851 16.3538 39.5952 16.2874 39.5718 16.2874C39.5484 16.2874 38.0679 17.0999 36.2827 18.0881ZM6.64602 17.3655C6.81398 17.4592 7.02102 17.5725 7.10305 17.6233C7.18508 17.6702 7.36086 17.7639 7.48977 17.8342C7.61867 17.9006 7.75539 17.9788 7.79055 18.0022C7.8257 18.0295 7.90383 18.0764 7.95852 18.1038C8.01711 18.135 8.13039 18.2014 8.21633 18.2483C8.30227 18.2952 8.41945 18.3577 8.48195 18.3889C8.54055 18.4241 8.64602 18.4827 8.71633 18.5217C8.86477 18.6077 9.14211 18.7639 9.29836 18.846C9.35695 18.8772 9.48195 18.9514 9.5757 19.0061C9.67336 19.0608 9.8218 19.1389 9.91164 19.178C10.0015 19.221 10.0718 19.2639 10.0718 19.2835C10.0718 19.2991 10.0952 19.3147 10.1226 19.3147C10.1499 19.3147 10.2046 19.3381 10.2398 19.3694C10.3023 19.4241 10.5835 19.5764 10.9976 19.7874C11.0913 19.8342 11.1812 19.885 11.1929 19.8967C11.228 19.9358 11.7241 20.2092 11.8687 20.2717C11.9468 20.303 12.0093 20.3381 12.0093 20.3499C12.0093 20.3616 12.1343 20.4358 12.2827 20.5139L12.5601 20.6585L12.482 20.8694C12.3374 21.2561 12.2593 21.5725 12.2359 21.8772L12.2124 22.178L11.9038 22.4124C11.5249 22.7053 11.3179 22.9045 11.0523 23.2288C10.939 23.3694 10.8335 23.5022 10.814 23.5256C9.8843 24.6272 9.65383 27.0569 10.357 28.3538C10.3882 28.4124 10.4155 28.4749 10.4155 28.4944C10.4155 28.6194 11.0718 29.553 11.2905 29.7366C11.396 29.8264 11.6421 29.6741 9.55617 30.8264C8.5757 31.3733 7.7632 31.8303 7.75539 31.8499C7.74758 31.8694 7.72023 31.885 7.6968 31.885C7.6382 31.885 6.95852 32.2639 6.93898 32.3069C6.93117 32.3264 6.89992 32.3381 6.87258 32.3381C6.84133 32.3381 6.72805 32.3967 6.61477 32.4631C6.35695 32.6233 6.33352 32.6194 6.03664 32.428C5.90383 32.3381 5.68898 32.217 5.56398 32.1585L5.33742 32.0491V17.76L5.58742 17.6428C5.72414 17.5803 5.93898 17.4553 6.0718 17.3655C6.36086 17.1702 6.28273 17.1702 6.64602 17.3655ZM39.7905 17.428C39.9351 17.5217 40.146 17.635 40.2515 17.678L40.4507 17.7561V32.0413L40.2241 32.1545C40.103 32.217 39.8726 32.346 39.7163 32.4436L39.4351 32.6194L39.2632 32.5217C39.1734 32.467 39.0366 32.3928 38.9663 32.3577C38.8452 32.2991 38.6929 32.2131 38.4077 32.0452C38.3374 32.0022 38.228 31.9436 38.1695 31.9163C38.1109 31.8889 38.0327 31.846 37.9976 31.8186C37.9624 31.7913 37.8257 31.7131 37.6968 31.6467C37.3648 31.471 37.2554 31.4124 37.1812 31.3616C37.146 31.3342 37.0093 31.26 36.8804 31.1897C36.7476 31.1233 36.5757 31.0256 36.4937 30.9788C36.4116 30.9319 36.1968 30.8108 36.021 30.7131C35.8413 30.6155 35.6655 30.5178 35.6226 30.4944C35.5835 30.471 35.4234 30.3811 35.2671 30.2952L34.982 30.135L35.1226 29.9006C35.3882 29.4514 35.4585 29.2913 35.603 28.8342C36.021 27.5256 35.896 25.9944 35.2866 24.8342L35.1538 24.5881L35.2632 24.3381C35.4976 23.8069 35.5601 23.4241 35.5327 22.6936C35.4976 21.7249 35.2398 21.0217 34.6616 20.3186C34.439 20.0491 34.4038 19.9827 34.4624 19.9631C34.5015 19.9475 34.6109 19.8928 34.7085 19.8342C34.8023 19.7756 34.9507 19.6975 35.0405 19.6585C35.1304 19.6194 35.2007 19.5725 35.2007 19.553C35.2007 19.5374 35.2241 19.5217 35.2476 19.5217C35.2749 19.5217 35.3491 19.4866 35.4116 19.4436C35.4741 19.4045 35.6109 19.3225 35.7163 19.2639C35.8257 19.2053 35.978 19.1233 36.064 19.0764C36.6812 18.7288 37.064 18.5256 37.0952 18.5256C37.1148 18.5256 37.1382 18.51 37.146 18.4944C37.1538 18.4749 37.2749 18.3967 37.4195 18.3186C37.5601 18.2405 38.0718 17.9592 38.5523 17.6897C39.0366 17.4202 39.4507 17.2131 39.478 17.2288C39.5054 17.2444 39.646 17.3342 39.7905 17.428ZM13.5991 30.7092C13.1187 30.9827 12.7124 31.2053 12.5796 31.2678C12.5249 31.2952 12.482 31.3303 12.482 31.3499C12.482 31.3694 12.4585 31.385 12.4351 31.385C12.3921 31.385 12.0796 31.553 11.1968 32.0491C11.1343 32.0842 10.939 32.1936 10.7593 32.2913C10.5835 32.3889 10.3687 32.5061 10.2866 32.5569C10.2046 32.6038 10.0288 32.6975 9.89992 32.7678C9.77102 32.8342 9.6343 32.9124 9.59914 32.9358C9.52492 32.9905 9.41555 33.0491 9.08352 33.2249C8.9507 33.2913 8.81789 33.3655 8.78273 33.3928C8.74758 33.4163 8.66945 33.4631 8.61477 33.4944C8.55617 33.5256 8.44289 33.5881 8.35695 33.635C8.27102 33.6819 8.15383 33.7483 8.09133 33.7795C8.03273 33.8108 7.90773 33.885 7.81398 33.9397C7.72023 33.9944 7.60305 34.0608 7.55617 34.0803C7.5093 34.1038 7.39211 34.1702 7.29836 34.2249C7.2007 34.2835 7.05227 34.3655 6.96242 34.4124C6.77883 34.51 6.77492 34.5256 6.87258 34.8303C6.97023 35.135 6.97023 35.8499 6.87648 36.1467C6.80617 36.3616 6.80617 36.3655 6.89992 36.4202C7.02492 36.4983 11.9585 39.2405 12.2671 39.4045C12.396 39.4749 12.5757 39.5725 12.6695 39.6272C12.7593 39.6819 12.9038 39.7678 12.9898 39.8108C13.1421 39.8928 13.9155 40.3225 14.064 40.4085C14.107 40.4319 14.2827 40.5295 14.4624 40.6272C14.6382 40.7249 14.853 40.846 14.9351 40.8928C15.0171 40.9397 15.1929 41.0374 15.3218 41.1038C15.4507 41.1702 15.5874 41.2483 15.6226 41.2756C15.6577 41.2991 15.732 41.346 15.7905 41.3772C16.0757 41.5295 16.2163 41.6077 16.3335 41.678C16.4038 41.717 16.5093 41.7756 16.5679 41.8108C16.6304 41.842 16.7554 41.9085 16.8491 41.9631C16.9429 42.0178 17.0718 42.0842 17.1304 42.1155C17.189 42.1506 17.314 42.221 17.4077 42.2756C17.5054 42.3342 17.6538 42.4124 17.7437 42.4514C17.8296 42.4905 17.9038 42.5374 17.9038 42.553C17.9038 42.5725 17.9234 42.5842 17.9507 42.5842C17.978 42.5842 18.0484 42.6194 18.1109 42.6624C18.228 42.7405 18.5249 42.9045 18.8296 43.0569C18.9234 43.1077 19.0093 43.1545 19.021 43.1702C19.0562 43.2092 19.7593 43.5803 19.7984 43.5803C19.8179 43.5803 19.8413 43.596 19.8452 43.6155C19.8687 43.6624 20.5562 44.0374 20.6226 44.0374C20.6538 44.0374 20.728 43.9866 20.7827 43.928C21.0796 43.6311 21.732 43.2952 22.2163 43.1897L22.3374 43.1624V33.8928L22.0757 33.7092C21.7827 33.5061 21.4155 33.1663 21.1499 32.8577C20.978 32.6585 20.978 32.6585 20.8062 32.7014C19.8609 32.9475 19.7866 32.9631 19.3765 32.9631C18.4195 32.9631 17.3491 32.5881 16.7046 32.0295C16.2632 31.6467 16.0484 31.3889 15.7671 30.9202L15.5718 30.596H15.0913C14.8296 30.596 14.5445 30.5803 14.4624 30.5608C14.0562 30.4592 14.0327 30.4631 13.5991 30.7092ZM32.6187 31.2327C31.9312 31.6233 31.2202 31.7991 30.3101 31.7991H29.7905L29.6929 31.9983C29.2671 32.8772 28.4312 33.6936 27.5288 34.1155C26.9507 34.385 26.8452 34.4241 26.3804 34.5413C25.982 34.6389 25.1187 34.7053 24.771 34.6624C24.2085 34.592 23.8257 34.5295 23.7554 34.4983C23.7202 34.4788 23.6382 34.4553 23.5718 34.4397L23.4546 34.4124L23.4663 38.7952L23.4741 43.1819L23.7124 43.2327C24.1109 43.3225 24.7437 43.6624 25.0054 43.928C25.1304 44.0569 25.189 44.0608 25.3413 43.9592C25.4038 43.9202 25.4859 43.8733 25.521 43.8577C25.5562 43.842 25.6616 43.7835 25.7554 43.7288C25.853 43.6741 25.978 43.5999 26.0366 43.5686C26.1929 43.4866 26.4663 43.3303 26.6187 43.2444C26.689 43.2053 26.7945 43.1428 26.853 43.1116C26.9116 43.0803 27.0327 43.0139 27.1226 42.967C27.2124 42.9163 27.357 42.8381 27.4468 42.7874C27.5327 42.7405 27.6265 42.6858 27.6499 42.6702C27.6734 42.6506 27.7788 42.592 27.8882 42.5335C27.9937 42.4788 28.1499 42.3928 28.232 42.346C28.8491 42.0022 29.232 41.7952 29.2632 41.7952C29.2827 41.7952 29.3062 41.7835 29.314 41.7639C29.3218 41.7444 29.482 41.6428 29.6734 41.5413C30.0835 41.3186 38.7085 36.5256 38.8491 36.4436C38.9312 36.3967 38.9468 36.3616 38.9234 36.26C38.7984 35.635 38.7984 35.1741 38.9234 34.7717C38.9585 34.6585 38.9898 34.553 38.9898 34.5374C38.9898 34.5178 38.728 34.3577 38.4038 34.178C38.0874 33.9983 37.7905 33.8342 37.7515 33.8108C37.7085 33.7874 37.5327 33.6897 37.353 33.592C37.1773 33.4944 36.9624 33.3733 36.8804 33.3264C36.7984 33.2795 36.603 33.1741 36.4507 33.092C36.2945 33.0139 36.0874 32.8967 35.9898 32.8303C35.8921 32.7639 35.7984 32.7131 35.7866 32.7131C35.7749 32.7131 35.6148 32.6272 35.4351 32.5256C35.2554 32.4241 35.0913 32.3381 35.0679 32.3381C35.0484 32.3381 35.0288 32.3225 35.0288 32.3069C35.0288 32.2874 34.9624 32.2483 34.8804 32.2131C34.7945 32.1819 34.728 32.1428 34.728 32.1233C34.728 32.1077 34.7085 32.092 34.6851 32.092C34.6577 32.092 34.5366 32.0295 34.4155 31.9514C34.2905 31.8772 34.1265 31.7874 34.0523 31.7561C33.9741 31.7249 33.9116 31.6858 33.9116 31.6741C33.9116 31.6624 33.8413 31.6233 33.7593 31.592C33.6773 31.5608 33.6109 31.5217 33.6109 31.5061C33.6109 31.4905 33.5366 31.4475 33.4468 31.4124C33.2866 31.346 33.2241 31.3069 33.0015 31.1663C32.8609 31.0803 32.9038 31.0725 32.6187 31.2327ZM14.7515 31.3264L15.103 31.3538L15.3062 31.6506C15.4898 31.9124 16.1382 32.5842 16.3765 32.7561C16.6812 32.9749 17.4429 33.3772 17.5601 33.3772C17.5835 33.3772 17.6382 33.3928 17.6773 33.4163C18.1968 33.6936 19.771 33.7756 20.4937 33.5647L20.6929 33.5061L20.8804 33.7014C20.982 33.8069 21.1812 33.9866 21.314 34.096L21.5601 34.2991V42.5764L21.2476 42.7249C21.0757 42.8069 20.8452 42.928 20.7359 43.0022L20.5327 43.1311L20.1968 42.9475C20.0132 42.846 17.8882 41.6663 15.4741 40.3264C13.0601 38.9827 10.9038 37.7835 10.6851 37.6624C10.2163 37.4045 9.5132 37.01 9.29836 36.8928C9.21633 36.846 9.06008 36.76 8.95461 36.7053C8.84523 36.6467 8.73977 36.5881 8.71633 36.5686C8.69289 36.553 8.60305 36.4983 8.5132 36.4514C8.42336 36.4006 8.27883 36.3225 8.18898 36.2756C8.09914 36.2249 7.95852 36.1467 7.86867 36.0999L7.70852 36.0178L7.72023 35.6389C7.72414 35.4319 7.71242 35.178 7.69289 35.0764L7.66164 34.8889L9.85695 33.6663C11.064 32.9944 12.0874 32.4241 12.1265 32.4006C12.1695 32.3772 12.3491 32.2795 12.5249 32.1819C12.7007 32.0842 12.9155 31.9631 12.9976 31.9163C13.0796 31.8694 13.2749 31.7639 13.4273 31.6819C13.5835 31.6038 13.7163 31.5256 13.728 31.5139C13.7437 31.4983 13.7984 31.4631 13.8609 31.4358C13.9195 31.4045 14.0132 31.3538 14.0757 31.3225C14.1343 31.2874 14.232 31.2678 14.2905 31.2795C14.3491 31.2913 14.5562 31.3108 14.7515 31.3264ZM35.5171 33.4397C37.5484 34.5647 38.1226 34.9045 38.0991 34.9514C38.0835 34.9866 38.0679 35.2327 38.064 35.4983C38.0523 36.0295 38.0523 36.0335 37.7632 36.1819C37.4585 36.3342 37.1616 36.4983 37.0445 36.5764C36.982 36.6194 36.9116 36.6545 36.8843 36.6545C36.857 36.6545 36.8374 36.6663 36.8374 36.6858C36.8374 36.7014 36.7632 36.7483 36.6773 36.7874C36.5874 36.8264 36.4351 36.9045 36.3413 36.9631C36.2476 37.0178 36.1226 37.0881 36.064 37.1233C36.0015 37.1545 35.8765 37.221 35.7827 37.2756C35.689 37.3303 35.564 37.3967 35.5015 37.428C35.4429 37.4631 35.3374 37.5217 35.2671 37.5608C35.1499 37.6311 35.0093 37.7092 34.7241 37.8616C34.6655 37.8928 34.5913 37.9397 34.5562 37.9631C34.521 37.9905 34.3843 38.0686 34.2554 38.135C34.1265 38.2014 33.9507 38.2991 33.8687 38.346C33.7437 38.4202 33.4702 38.5725 32.9976 38.8303C32.9546 38.8538 31.1968 39.8303 29.0913 41.0022L25.2632 43.1311L24.9937 42.971C24.8452 42.8811 24.6109 42.7561 24.478 42.6975L24.228 42.5881V35.3733L24.8413 35.3967C25.6773 35.428 26.6382 35.3108 27.0913 35.1194C27.1382 35.0999 27.3609 35.0061 27.5874 34.9124C28.0015 34.7405 28.5171 34.4514 28.8179 34.2288C29.0288 34.0686 29.8218 33.2991 29.8218 33.2522C29.8218 33.2327 29.8491 33.1936 29.8765 33.1624C29.939 33.1038 30.1695 32.7327 30.2163 32.6272C30.2398 32.5725 30.3452 32.553 30.732 32.5335C31.3921 32.5022 32.1929 32.3069 32.6421 32.0647C32.8687 31.9436 32.5796 31.8069 35.5171 33.4397Z" fill="white" fill-opacity="0.478431"/>
<path fill-rule="evenodd" clip-rule="evenodd" d="M22.4855 1.87691C21.9933 2.00191 21.5949 2.25582 21.2785 2.64644C20.8644 3.16207 20.8605 4.26363 21.2746 4.78707C21.9855 5.68941 23.2121 5.85347 24.1379 5.17769C25.1848 4.40425 24.9933 2.63082 23.8058 2.07613C23.673 2.01363 23.5246 1.94332 23.4816 1.92379C23.3879 1.88082 22.6183 1.84175 22.4855 1.87691ZM3.3371 12.5097C1.18475 13.1191 1.591 16.1464 3.83319 16.1777C5.16522 16.1933 6.09882 15.0097 5.71991 13.7832C5.67304 13.6191 5.61835 13.4785 5.60272 13.4668C5.5871 13.455 5.54804 13.3925 5.50897 13.3261C5.16522 12.6777 4.12616 12.2871 3.3371 12.5097ZM41.3801 12.5175C40.5558 12.7402 39.9777 13.4863 39.9777 14.3222C39.9816 16.0136 42.1262 16.8261 43.341 15.5957C43.7316 15.2011 43.8293 14.9394 43.8293 14.2949C43.8293 13.6035 43.6965 13.3339 43.1183 12.8339C42.7199 12.4902 41.9816 12.3574 41.3801 12.5175ZM21.173 16.0644C19.673 16.3339 18.4074 17.1582 17.9074 18.1933C17.8683 18.2753 17.8293 18.3496 17.8176 18.3613C17.7824 18.3925 17.6027 18.7753 17.6027 18.8105C17.6027 18.83 17.7551 18.8574 17.9426 18.873C18.5012 18.9199 19.134 19.0918 19.5832 19.3261C19.9973 19.541 19.9894 19.5371 20.3449 19.8144L20.6105 20.0253L20.7941 19.9746C20.8957 19.9472 21.0012 19.9082 21.0246 19.8925C21.048 19.8769 21.1769 19.8339 21.3137 19.7949C21.5949 19.7168 21.591 19.7285 21.4777 19.4003C21.2473 18.748 21.2785 18.3613 21.5598 18.3613C21.7394 18.3613 21.8019 18.4433 21.8332 18.7207C21.8605 18.955 21.9933 19.416 22.0754 19.5566C22.1066 19.6113 22.1965 19.6269 22.5793 19.6347C23.2707 19.6464 23.7355 19.7558 24.3801 20.0605C24.9269 20.3222 24.9348 20.3261 25.4894 20.8613C25.9035 21.2636 26.0363 21.3496 26.0363 21.2168C26.0363 21.1582 26.3098 20.623 26.3488 20.6074C26.3644 20.5996 26.3801 20.5722 26.384 20.5449C26.3918 20.291 27.0558 19.7011 27.2355 19.7871C27.4348 19.8886 27.4113 20.0136 27.1379 20.3418C26.8879 20.6464 26.6574 21.0175 26.5324 21.3066C26.3918 21.6464 26.298 21.9863 26.3332 22.0293C26.4113 22.123 26.5558 22.6699 26.6027 23.0332L26.6496 23.416L26.9348 23.5058C28.3293 23.955 29.4308 25.1855 29.6926 26.5722C29.7746 27.0097 29.7394 26.9902 30.4035 26.9902C30.7199 26.9902 31.0754 26.9668 31.1926 26.9394C31.4504 26.8847 31.6301 26.9628 31.6301 27.1269C31.6301 27.3886 31.298 27.4824 30.3918 27.4863H29.7785V27.6425C29.7785 27.8378 29.6769 28.33 29.5558 28.7089C29.4777 28.9628 29.4699 29.0214 29.5168 29.205C29.6379 29.705 29.6574 29.8925 29.634 30.3613L29.6066 30.8496L29.7199 30.8886C29.7785 30.9121 30.048 30.9277 30.3215 30.9277C32.2512 30.9277 33.8644 29.5996 34.1223 27.7988C34.2004 27.2597 34.1301 26.2558 34.0012 26.0996C33.9816 26.0761 33.9543 26.0019 33.9387 25.9394C33.8176 25.455 33.0051 24.4668 32.509 24.1972C32.2707 24.0683 32.384 23.7168 32.6691 23.7128C32.6848 23.7128 32.7238 23.7363 32.7551 23.7636C33.3488 24.3027 33.4035 24.3144 33.5949 23.9433C34.1652 22.8613 33.8371 21.5996 32.7824 20.8222C32.3449 20.498 31.3723 20.3339 30.8527 20.498C30.3762 20.6464 29.966 20.8418 29.7863 21.0058C29.6574 21.123 29.3918 20.9902 29.3918 20.8105C29.3918 20.6464 30.2082 20.0996 30.4504 20.1035C30.4777 20.1035 30.5207 20.08 30.5441 20.0488C30.591 19.998 30.5832 19.9433 30.4621 19.3574C30.4152 19.1308 30.1379 18.4863 30.0871 18.4863C30.0715 18.4863 30.0324 18.4316 30.0051 18.3652C29.9387 18.2285 29.5402 17.8183 29.259 17.6035C28.0793 16.705 26.3176 16.6855 25.1769 17.5644C24.7668 17.8808 24.3137 18.3652 24.2394 18.5683C24.1496 18.8144 23.8605 18.8964 23.7355 18.7089C23.6613 18.5996 23.7824 18.1933 23.884 18.1933C23.8996 18.1933 23.9348 18.1503 23.9621 18.0918C24.0246 17.9589 24.1848 17.7832 24.5285 17.4628L24.8058 17.205L24.6808 17.0918C24.2629 16.7168 23.4933 16.3261 22.8098 16.1386C22.5754 16.0761 21.4113 16.0214 21.173 16.0644ZM17.0871 19.3183C16.884 19.3378 16.6418 19.373 16.548 19.4003C16.1887 19.498 15.6223 19.705 15.6223 19.7363C15.6223 19.7558 15.6027 19.7714 15.5793 19.7714C15.3527 19.7714 14.2902 20.7558 14.2902 20.9668C14.2902 20.9941 14.2707 21.0136 14.2512 21.0136C14.2277 21.0136 14.1848 21.0839 14.1574 21.1699C14.1301 21.2558 14.091 21.3457 14.0754 21.3691C14.0012 21.4628 13.9348 21.8808 13.9269 22.2558L13.923 22.6543L14.0754 22.6425C14.1613 22.6347 14.3527 22.6035 14.5051 22.5722C14.8996 22.4941 15.091 22.6503 14.9191 22.9043C14.8449 23.0097 14.8371 23.0136 14.3449 23.0878C14.173 23.1152 14.0207 23.1543 14.009 23.1699C13.9973 23.1894 13.9191 23.2168 13.8371 23.2324C13.6965 23.2597 13.259 23.4433 13.2121 23.5019C13.2004 23.5136 13.134 23.5605 13.0637 23.6074C11.7473 24.4121 11.2355 26.3105 11.9348 27.7753C12.5285 29.0175 14.0129 29.8496 15.3762 29.7089L15.6496 29.6816L15.6457 28.9668C15.6457 28.0918 15.8137 27.4589 16.1887 26.9394C16.2551 26.8496 16.298 26.6972 16.259 26.6972C16.2512 26.6972 16.1066 26.6425 15.9348 26.5761C15.3605 26.3496 14.4465 26.3222 13.9738 26.5136C13.6574 26.6386 13.4699 26.5761 13.4699 26.3418C13.4699 26.1816 13.509 26.1503 13.8371 26.0449C14.6066 25.791 15.5519 25.8574 16.3644 26.2207C16.6144 26.3339 16.7238 26.3261 16.8137 26.1894C16.8801 26.0918 17.341 25.7636 17.5949 25.6308C17.7551 25.5488 17.9308 25.5644 18.009 25.6699C18.134 25.8418 18.0637 25.9433 17.673 26.1543C16.1535 26.9863 15.6574 29.2402 16.673 30.7011C17.5988 32.0371 19.341 32.4472 20.8605 31.6933C21.2746 31.4902 21.341 31.4941 21.4738 31.7402C21.8683 32.4707 22.7433 33.2285 23.4933 33.4824C23.6027 33.5214 23.7316 33.5683 23.7785 33.5878C24.2551 33.7871 25.6105 33.8457 26.1418 33.6933C27.7082 33.2402 28.5949 32.4785 29.048 31.2011C29.2199 30.7207 29.2473 29.5293 29.091 29.3769C29.0676 29.3535 29.048 29.3066 29.048 29.2675C29.048 29.1933 28.673 28.4316 28.6223 28.4003C28.6027 28.3886 28.5637 28.3339 28.5363 28.2832C28.4387 28.1035 28.1379 27.791 27.7629 27.4746C27.4933 27.2519 27.5285 26.9941 27.8293 26.9902C28.0207 26.9863 28.6808 27.6035 28.9973 28.0761C29.1926 28.3691 29.1965 28.3691 29.2668 28.0996C29.6496 26.5918 28.5519 24.4941 27.1418 24.0332C27.0676 24.0097 26.9855 23.9746 26.9621 23.9589C26.8058 23.8457 25.7277 23.7675 25.2512 23.83C24.5715 23.9238 23.8957 24.2402 23.3801 24.7011C23.0988 24.9589 22.8098 24.9472 22.8098 24.6777C22.8098 24.4746 23.5558 23.8886 24.1262 23.6464C24.2668 23.5878 24.4191 23.5214 24.466 23.5019C24.673 23.4082 25.1926 23.3261 25.6848 23.3066C26.1496 23.291 26.2082 23.2832 26.1926 23.2207C26.1808 23.1816 26.1496 23.0136 26.1183 22.8418C25.6574 20.0722 21.8762 19.1113 19.7473 21.2246C19.3957 21.5722 19.298 21.6152 19.1496 21.4707C18.9699 21.2988 19.3527 20.7949 19.9777 20.3847C20.2238 20.2207 20.2238 20.2363 20.0012 20.08C19.2824 19.5761 18.2121 19.2324 17.5168 19.2793C17.4816 19.2832 17.2863 19.2988 17.0871 19.3183ZM17.8254 23.08C18.2082 23.4589 19.1066 23.6621 19.6769 23.498C19.9035 23.4316 20.0363 23.5488 20.0168 23.7988C20.0012 24.0019 19.1183 24.1152 18.591 23.9863C18.0754 23.8574 17.4816 23.5214 17.3488 23.2832C17.2004 23.0175 17.5949 22.8535 17.8254 23.08ZM31.0598 23.1152C31.2629 23.33 31.1027 23.5293 30.7551 23.4863C30.4113 23.4433 29.8723 23.5878 29.6418 23.7832C29.5402 23.8691 29.3957 23.8339 29.2902 23.7011L29.2043 23.5878L29.2902 23.4746C29.6027 23.0644 30.7863 22.8261 31.0598 23.1152ZM21.6691 24.3418C21.8449 24.4199 21.8527 24.5605 21.6887 24.7793C21.5129 25.0136 21.3019 25.4043 21.3019 25.4941C21.3019 25.5332 21.2785 25.5839 21.2512 25.6113C21.1301 25.7285 21.1535 26.8027 21.2824 27.1738C21.6808 28.3066 22.5871 28.916 23.884 28.916C24.7863 28.916 25.216 28.7363 25.8918 28.0761C26.1379 27.8378 26.423 27.8808 26.423 28.1543C26.423 28.3261 25.7355 28.9043 25.2512 29.1425C25.134 29.2011 25.0988 29.2988 25.1691 29.3769C25.3215 29.5371 25.466 30.6425 25.3527 30.7793C25.1613 31.0019 24.9387 30.8183 24.8996 30.4043C24.8723 30.0918 24.7863 29.7402 24.6926 29.5175L24.6457 29.4121H23.9113C22.6574 29.4121 21.841 29.0058 21.1691 28.0449C20.9308 27.7011 20.9543 27.7128 20.6965 27.7988C20.2355 27.9511 19.8215 28.2168 19.4973 28.5683C18.9738 29.1347 19.009 29.1113 18.8332 28.9785C18.7121 28.8847 18.6848 28.7324 18.7746 28.6386C18.8058 28.6113 18.8801 28.5175 18.9465 28.4355C19.134 28.1894 19.4113 27.9472 19.7316 27.7363C20.0129 27.5566 20.1574 27.4824 20.5832 27.3066L20.7473 27.2363L20.7121 27.041C20.6301 26.58 20.6769 25.7011 20.7941 25.3925C21.0246 24.7988 21.3176 24.3691 21.548 24.2949C21.5519 24.2949 21.6066 24.3144 21.6691 24.3418ZM3.48944 33.6503C1.69647 33.9902 1.341 36.3535 2.9621 37.1699C4.06757 37.7285 5.43085 37.1308 5.74335 35.955C6.0871 34.6503 4.85663 33.3925 3.48944 33.6503ZM41.548 33.6543C40.3957 33.9082 39.7199 35.0097 40.0715 36.0644C40.6066 37.6738 42.8801 37.8457 43.6613 36.3339L43.8293 36.0097V35.4902C43.8293 34.291 42.716 33.3964 41.548 33.6543ZM22.3879 44.2871C21.2199 44.58 20.6066 45.8691 21.1457 46.9121C21.8879 48.3613 23.966 48.3144 24.6887 46.83C24.9191 46.3535 24.8332 45.4433 24.5168 45.041C23.9777 44.3613 23.2004 44.0839 22.3879 44.2871Z" fill="#FC5CAC"/>
<path d="M53.4258 30.8144V18.2144H59.5818C61.1658 18.2144 62.3538 18.5144 63.1458 19.1144C63.9498 19.7144 64.3518 20.5064 64.3518 21.4904C64.3518 22.1504 64.1898 22.7264 63.8658 23.2184C63.5418 23.6984 63.0978 24.0704 62.5338 24.3344C61.9698 24.5984 61.3218 24.7304 60.5898 24.7304L60.9318 23.9924C61.7238 23.9924 62.4258 24.1244 63.0378 24.3884C63.6498 24.6404 64.1238 25.0184 64.4598 25.5224C64.8078 26.0264 64.9818 26.6444 64.9818 27.3764C64.9818 28.4564 64.5558 29.3024 63.7038 29.9144C62.8518 30.5144 61.5978 30.8144 59.9418 30.8144H53.4258ZM56.3238 28.6184H59.7258C60.4818 28.6184 61.0518 28.4984 61.4358 28.2584C61.8318 28.0064 62.0298 27.6104 62.0298 27.0704C62.0298 26.5424 61.8318 26.1524 61.4358 25.9004C61.0518 25.6364 60.4818 25.5044 59.7258 25.5044H56.1078V23.3804H59.2218C59.9298 23.3804 60.4698 23.2604 60.8418 23.0204C61.2258 22.7684 61.4178 22.3904 61.4178 21.8864C61.4178 21.3944 61.2258 21.0284 60.8418 20.7884C60.4698 20.5364 59.9298 20.4104 59.2218 20.4104H56.3238V28.6184ZM66.9915 30.8144V21.1304H69.6735V23.8664L69.2955 23.0744C69.5835 22.3904 70.0455 21.8744 70.6815 21.5264C71.3175 21.1664 72.0915 20.9864 73.0035 20.9864V23.5784C72.8835 23.5664 72.7755 23.5604 72.6795 23.5604C72.5835 23.5484 72.4815 23.5424 72.3735 23.5424C71.6055 23.5424 70.9815 23.7644 70.5015 24.2084C70.0335 24.6404 69.7995 25.3184 69.7995 26.2424V30.8144H66.9915ZM79.9803 30.8144V28.9244L79.8003 28.5104V25.1264C79.8003 24.5264 79.6143 24.0584 79.2423 23.7224C78.8823 23.3864 78.3243 23.2184 77.5683 23.2184C77.0523 23.2184 76.5423 23.3024 76.0383 23.4704C75.5463 23.6264 75.1263 23.8424 74.7783 24.1184L73.7703 22.1564C74.2983 21.7844 74.9343 21.4964 75.6783 21.2924C76.4223 21.0884 77.1783 20.9864 77.9463 20.9864C79.4223 20.9864 80.5683 21.3344 81.3843 22.0304C82.2003 22.7264 82.6083 23.8124 82.6083 25.2884V30.8144H79.9803ZM77.0283 30.9584C76.2723 30.9584 75.6243 30.8324 75.0843 30.5804C74.5443 30.3164 74.1303 29.9624 73.8423 29.5184C73.5543 29.0744 73.4103 28.5764 73.4103 28.0244C73.4103 27.4484 73.5483 26.9444 73.8243 26.5124C74.1123 26.0804 74.5623 25.7444 75.1743 25.5044C75.7863 25.2524 76.5843 25.1264 77.5683 25.1264H80.1423V26.7644H77.8743C77.2143 26.7644 76.7583 26.8724 76.5063 27.0884C76.2663 27.3044 76.1463 27.5744 76.1463 27.8984C76.1463 28.2584 76.2843 28.5464 76.5603 28.7624C76.8483 28.9664 77.2383 29.0684 77.7303 29.0684C78.1983 29.0684 78.6183 28.9604 78.9903 28.7444C79.3623 28.5164 79.6323 28.1864 79.8003 27.7544L80.2323 29.0504C80.0283 29.6744 79.6563 30.1484 79.1163 30.4724C78.5763 30.7964 77.8803 30.9584 77.0283 30.9584ZM85.1497 30.8144V21.1304H87.9577V30.8144H85.1497ZM86.5537 19.7804C86.0377 19.7804 85.6177 19.6304 85.2937 19.3304C84.9697 19.0304 84.8077 18.6584 84.8077 18.2144C84.8077 17.7704 84.9697 17.3984 85.2937 17.0984C85.6177 16.7984 86.0377 16.6484 86.5537 16.6484C87.0697 16.6484 87.4897 16.7924 87.8137 17.0804C88.1377 17.3564 88.2997 17.7164 88.2997 18.1604C88.2997 18.6284 88.1377 19.0184 87.8137 19.3304C87.5017 19.6304 87.0817 19.7804 86.5537 19.7804ZM96.4497 20.9864C97.2177 20.9864 97.9017 21.1424 98.5017 21.4544C99.1137 21.7544 99.5937 22.2224 99.9418 22.8584C100.29 23.4824 100.464 24.2864 100.464 25.2704V30.8144H97.6557V25.7024C97.6557 24.9224 97.4817 24.3464 97.1337 23.9744C96.7977 23.6024 96.3177 23.4164 95.6937 23.4164C95.2497 23.4164 94.8477 23.5124 94.4877 23.7044C94.1397 23.8844 93.8637 24.1664 93.6597 24.5504C93.4677 24.9344 93.3717 25.4264 93.3717 26.0264V30.8144H90.5637V21.1304H93.2457V23.8124L92.7417 23.0024C93.0897 22.3544 93.5877 21.8564 94.2357 21.5084C94.8837 21.1604 95.6217 20.9864 96.4497 20.9864ZM103.207 30.8144V18.2144H108.931C110.299 18.2144 111.505 18.4784 112.549 19.0064C113.593 19.5224 114.409 20.2484 114.997 21.1844C115.585 22.1204 115.879 23.2304 115.879 24.5144C115.879 25.7864 115.585 26.8964 114.997 27.8444C114.409 28.7804 113.593 29.5124 112.549 30.0404C111.505 30.5564 110.299 30.8144 108.931 30.8144H103.207ZM106.123 28.4204H108.787C109.627 28.4204 110.353 28.2644 110.965 27.9524C111.589 27.6284 112.069 27.1724 112.405 26.5844C112.753 25.9964 112.927 25.3064 112.927 24.5144C112.927 23.7104 112.753 23.0204 112.405 22.4444C112.069 21.8564 111.589 21.4064 110.965 21.0944C110.353 20.7704 109.627 20.6084 108.787 20.6084H106.123V28.4204ZM116.247 30.8144L121.863 18.2144H124.743L130.377 30.8144H127.317L122.709 19.6904H123.861L119.235 30.8144H116.247ZM119.055 28.1144L119.829 25.9004H126.309L127.101 28.1144H119.055ZM137.628 31.0304C136.632 31.0304 135.708 30.8684 134.856 30.5444C134.016 30.2204 133.284 29.7644 132.66 29.1764C132.048 28.5884 131.568 27.8984 131.22 27.1064C130.884 26.3144 130.716 25.4504 130.716 24.5144C130.716 23.5784 130.884 22.7144 131.22 21.9224C131.568 21.1304 132.054 20.4404 132.678 19.8524C133.302 19.2644 134.034 18.8084 134.874 18.4844C135.714 18.1604 136.626 17.9984 137.61 17.9984C138.606 17.9984 139.518 18.1604 140.346 18.4844C141.186 18.8084 141.912 19.2644 142.524 19.8524C143.148 20.4404 143.634 21.1304 143.982 21.9224C144.33 22.7024 144.504 23.5664 144.504 24.5144C144.504 25.4504 144.33 26.3204 143.982 27.1244C143.634 27.9164 143.148 28.6064 142.524 29.1944C141.912 29.7704 141.186 30.2204 140.346 30.5444C139.518 30.8684 138.612 31.0304 137.628 31.0304ZM137.61 28.5464C138.174 28.5464 138.69 28.4504 139.158 28.2584C139.638 28.0664 140.058 27.7904 140.418 27.4304C140.778 27.0704 141.054 26.6444 141.246 26.1524C141.45 25.6604 141.552 25.1144 141.552 24.5144C141.552 23.9144 141.45 23.3684 141.246 22.8764C141.054 22.3844 140.778 21.9584 140.418 21.5984C140.07 21.2384 139.656 20.9624 139.176 20.7704C138.696 20.5784 138.174 20.4824 137.61 20.4824C137.046 20.4824 136.524 20.5784 136.044 20.7704C135.576 20.9624 135.162 21.2384 134.802 21.5984C134.442 21.9584 134.16 22.3844 133.956 22.8764C133.764 23.3684 133.668 23.9144 133.668 24.5144C133.668 25.1024 133.764 25.6484 133.956 26.1524C134.16 26.6444 134.436 27.0704 134.784 27.4304C135.144 27.7904 135.564 28.0664 136.044 28.2584C136.524 28.4504 137.046 28.5464 137.61 28.5464Z" fill="white" fill-opacity="0.92"/>
</svg>
