<svg width="25" height="22" viewBox="0 0 25 22" fill="none" xmlns="http://www.w3.org/2000/svg">
<g clip-path="url(#clip0_35_13545)">
<path d="M23.4541 13.2802C23.4541 13.7644 23.3653 14.2275 23.2029 14.6545C22.647 16.1129 21.2346 17.1489 19.5795 17.1489C17.8855 17.1489 16.4461 16.0636 15.9192 14.5513C12.7899 14.776 11.0005 13.3793 10.2565 10.7174C8.37707 10.207 6.99561 8.49112 6.99561 6.45255C6.99561 5.13413 7.5738 3.95025 8.4908 3.14099C9.27108 2.4512 10.2973 2.03275 11.4215 2.03275C12.7095 2.03275 13.8693 2.58186 14.6771 3.45962C15.2205 3.10482 15.8698 2.89917 16.5672 2.89917C17.0539 2.89917 17.5178 2.99973 17.9381 3.18104C19.1545 3.70528 20.0097 4.9061 20.0287 6.30873C20.0294 6.32514 20.0294 6.34091 20.0294 6.35736L20.0287 6.41585V6.41649C20.2056 6.37771 20.3891 6.35736 20.578 6.35736C21.4213 6.35736 22.1706 6.76074 22.6429 7.3848H22.6437C22.9712 7.81774 23.1653 8.35706 23.1653 8.94175C23.1665 9.54813 22.9525 10.1353 22.5614 10.5992C22.532 10.6349 22.5015 10.6698 22.4699 10.7036C23.0824 11.3875 23.454 12.2908 23.454 13.2802" fill="#FF5CAA"/>
<path d="M16.5241 6.14016C15.8231 6.90094 15.395 7.91646 15.395 9.03189C15.395 11.391 17.3101 13.3034 19.6724 13.3034C19.9772 13.3036 20.2812 13.2713 20.5791 13.2073M11.2344 4.76132C11.3414 6.30408 12.6285 7.52244 14.2006 7.52244M18.9292 6.94952C19.2471 6.68573 19.6243 6.50273 20.0285 6.41617M14.6768 3.45925C14.1789 3.78306 13.7697 4.23181 13.4941 4.76132" stroke="#103849" stroke-width="0.52629" stroke-miterlimit="10" stroke-linecap="round" stroke-linejoin="round"/>
<path d="M23.4538 13.2797C23.4538 15.4167 21.7191 17.1484 19.5792 17.1484C17.8853 17.1484 16.4459 16.0632 15.9189 14.5509C12.7896 14.7755 11.0003 13.3789 10.2563 10.717C8.37683 10.2066 6.99536 8.49069 6.99536 6.45212C6.99536 4.01101 8.97673 2.03231 11.4213 2.03231C12.7093 2.03231 13.8691 2.58143 14.6769 3.45918C15.2202 3.10439 15.8695 2.89873 16.5669 2.89873C18.4792 2.89873 20.0291 4.4472 20.0291 6.35693L20.0285 6.41541V6.41605C20.2054 6.37728 20.3889 6.35693 20.5778 6.35693C22.0066 6.35693 23.1651 7.51375 23.1651 8.94131C23.1651 9.62258 22.9013 10.2414 22.4696 10.7032C23.0822 11.3871 23.4538 12.2903 23.4538 13.2798L23.4538 13.2797Z" stroke="#103849" stroke-width="0.460473" stroke-miterlimit="10" stroke-linejoin="round"/>
<path d="M22.4698 10.7029C22.4698 10.7029 22.1695 10.3917 21.7586 10.0677M10.9162 17.7191C10.7466 17.3653 10.6381 16.9855 10.5952 16.5956" stroke="#103849" stroke-width="0.52629" stroke-miterlimit="10" stroke-linecap="round" stroke-linejoin="round"/>
<path d="M18.5136 15.0285C18.6506 15.408 18.7205 15.8083 18.7201 16.2117C18.7201 18.2863 16.8966 19.9674 14.6468 19.9674C12.9785 19.9674 11.545 19.043 10.9162 17.7194C10.3979 18.0708 9.7761 18.2758 9.1084 18.2758C7.61124 18.2758 6.34813 17.247 5.95214 15.8398C5.66942 15.9102 5.37912 15.9458 5.08774 15.9456C3.13197 15.9456 1.5459 14.3623 1.5459 12.4086C1.5459 10.9081 2.48199 9.62584 3.80292 9.11273C3.75097 8.89796 3.72334 8.67526 3.72334 8.44665C3.72334 6.67488 5.37193 5.23879 7.40594 5.23879C8.57363 5.23879 9.61555 5.71302 10.2899 6.45144C10.8307 6.16173 11.4543 5.99559 12.1187 5.99559C14.1797 5.99559 15.8506 7.59131 15.8506 9.55947C15.8508 9.60589 15.8497 9.6523 15.8473 9.69866C17.5478 10.01 18.8405 11.5697 18.8405 13.4472C18.8405 14.0115 18.7241 14.5469 18.5136 15.0284" fill="#FF5CAA"/>
<path d="M17.1918 13.2801C17.7989 13.7281 18.2634 14.3338 18.5134 15.0289M5.95191 15.8401C5.86768 15.5419 5.82294 15.2272 5.82294 14.9014C5.82294 13.5717 6.57223 12.4215 7.66034 11.8716M4.72506 8.89103C4.40274 8.92389 4.09353 8.99948 3.80273 9.11309M10.2904 6.45244L10.2897 6.4518M10.2897 6.4518C9.82727 6.70145 9.426 7.04181 9.11221 7.4478" stroke="#103849" stroke-width="0.52629" stroke-miterlimit="10" stroke-linecap="round" stroke-linejoin="round"/>
<path d="M18.5136 15.0286C18.6506 15.408 18.7205 15.8084 18.7201 16.2117C18.7201 18.2864 16.8966 19.9674 14.6468 19.9674C12.9785 19.9674 11.545 19.0431 10.9162 17.7194C10.3979 18.0709 9.7761 18.2758 9.1084 18.2758C7.61124 18.2758 6.34813 17.2471 5.95214 15.8399C5.66942 15.9103 5.37912 15.9458 5.08774 15.9457C3.13197 15.9457 1.5459 14.3624 1.5459 12.4087C1.5459 10.9082 2.48199 9.6259 3.80292 9.1128C3.75097 8.89803 3.72334 8.67533 3.72334 8.44671C3.72334 6.67495 5.37193 5.23886 7.40594 5.23886C8.57363 5.23886 9.61555 5.71309 10.2899 6.45151C10.8307 6.1618 11.4543 5.99566 12.1187 5.99566C14.1797 5.99566 15.8506 7.59138 15.8506 9.55954C15.8508 9.60596 15.8497 9.65237 15.8473 9.69873C17.5478 10.0101 18.8405 11.5698 18.8405 13.4473C18.8405 14.0116 18.7241 14.547 18.5136 15.0285L18.5136 15.0286Z" stroke="#103849" stroke-width="0.460473" stroke-miterlimit="10" stroke-linejoin="round"/>
<path d="M12.6641 10.758C13.3193 10.0696 14.2238 9.64318 15.2224 9.64318C15.4356 9.64318 15.6441 9.66225 15.8474 9.6996M15.6131 14.1745C15.0968 14.8191 14.3026 15.2321 13.4118 15.2321C11.8561 15.2321 10.595 13.9726 10.595 12.4191C10.594 11.7704 10.8184 11.1415 11.2301 10.6396" stroke="#103849" stroke-width="0.52629" stroke-miterlimit="10" stroke-linecap="round" stroke-linejoin="round"/>
<path d="M14.6575 16.6244C14.6575 16.072 14.518 15.5524 14.2719 15.0984M8.77042 14.8278C9.23484 14.1406 9.95789 13.6433 10.8006 13.4745M3.74854 12.4115C4.10535 12.2703 4.4857 12.1979 4.8695 12.198C5.48488 12.1971 6.08589 12.3837 6.59234 12.7328M9.53985 9.82251C9.34817 9.87887 9.14529 9.90908 8.93531 9.90908C8.378 9.9098 7.84256 9.69256 7.44367 9.30389M18.7848 9.68534C19.0796 9.46564 19.4378 9.34721 19.8057 9.34779C19.9079 9.34773 20.01 9.35678 20.1106 9.37484" stroke="#103849" stroke-width="0.52629" stroke-miterlimit="10" stroke-linecap="round" stroke-linejoin="round"/>
<path d="M22.7732 10.7047C23.1758 10.2059 23.3955 9.58728 23.3955 8.94144C23.3955 7.38962 22.1315 6.12706 20.5779 6.12706C20.4693 6.12706 20.361 6.13337 20.2535 6.14578C20.1436 4.21004 18.532 2.66896 16.5669 2.66896C15.9117 2.66896 15.2753 2.84027 14.7145 3.16605C13.8408 2.29414 12.6565 1.80378 11.4213 1.80249C9.35104 1.80249 7.59282 3.15915 6.98927 5.02867C5.02694 5.21201 3.49307 6.67485 3.49307 8.44676C3.49307 8.6231 3.50851 8.79974 3.53895 8.97396C2.18185 9.58136 1.31567 10.9091 1.31567 12.4087C1.31567 14.4858 3.00783 16.1756 5.08773 16.1756C5.32524 16.1757 5.56224 16.1535 5.79563 16.1095C6.28931 17.5308 7.62213 18.5058 9.10844 18.5058C9.71153 18.5062 10.3041 18.3479 10.8264 18.0467C11.5617 19.3613 13.0326 20.1974 14.6468 20.1974C16.612 20.1974 18.2726 18.9706 18.7857 17.3009C19.0438 17.3517 19.3092 17.3784 19.5792 17.3784C21.8427 17.3784 23.6842 15.5397 23.6842 13.2798C23.6842 12.3383 23.3621 11.4316 22.7732 10.7047V10.7047Z" stroke="#103849" stroke-width="0.920996" stroke-miterlimit="10" stroke-linejoin="round"/>
<path d="M11.4213 0.48864C10.2052 0.48864 9.0354 0.850285 8.03842 1.53441C7.17757 2.12511 6.49517 2.92186 6.04442 3.85741C3.8503 4.3884 2.28159 6.15164 2.18243 8.23667C0.824392 9.17828 0 10.733 0 12.4088C0 15.1809 2.23492 17.4417 4.99978 17.4888C5.87282 18.9213 7.42915 19.8197 9.10847 19.8197C9.53747 19.8197 9.95906 19.763 10.368 19.6504C11.4263 20.8258 12.9813 21.5113 14.6468 21.5113C15.775 21.5113 16.8678 21.1919 17.8072 20.5876C18.5705 20.0967 19.1855 19.4487 19.6111 18.6923C22.5856 18.6752 24.9999 16.2538 24.9999 13.2799C24.9999 12.3611 24.7697 11.4695 24.3301 10.6724C24.5813 10.1298 24.7114 9.53918 24.7112 8.94143C24.7112 7.85881 24.2933 6.83507 23.5346 6.05891C22.9362 5.44678 22.1788 5.04242 21.3546 4.88593C21.0759 3.98275 20.5424 3.169 19.8134 2.54879C18.9075 1.7787 17.7568 1.35555 16.5671 1.35501C16.0126 1.35501 15.456 1.44897 14.9317 1.62901C13.913 0.890441 12.6853 0.48864 11.4213 0.48864ZM11.4213 1.34265C12.6544 1.34265 13.8636 1.79992 14.7899 2.60727C15.3455 2.34495 15.9524 2.20896 16.567 2.20912C18.614 2.20912 20.3328 3.6957 20.6629 5.66835C22.4312 5.71363 23.8559 7.16454 23.8559 8.94148C23.8553 9.5641 23.6774 10.1737 23.343 10.6992C23.8621 11.4545 24.1446 12.3581 24.1446 13.2799C24.1446 15.7935 22.0965 17.8385 19.5792 17.8385C19.4164 17.8385 19.253 17.8296 19.0904 17.812C18.3878 19.5056 16.6173 20.6574 14.6467 20.6574C13.0216 20.6574 11.5323 19.8962 10.6585 18.6448C10.1692 18.8563 9.64167 18.9655 9.10847 18.9658C7.55491 18.9658 6.14976 18.0355 5.50274 16.6154C5.36489 16.6289 5.2262 16.6356 5.08775 16.6356C2.75396 16.6356 0.855228 14.7395 0.855228 12.4088C0.855228 10.8615 1.70325 9.4439 3.04244 8.70774C3.03594 8.62092 3.03268 8.53388 3.03267 8.44681C3.03267 6.53516 4.56807 4.92909 6.65044 4.60746C7.41119 2.6427 9.29245 1.34265 11.4214 1.34265" fill="#F0F0F0"/>
</g>
<defs>
<clipPath id="clip0_35_13545">
<rect width="25" height="21.0227" fill="white" transform="translate(0 0.48864)"/>
</clipPath>
</defs>
</svg>
