<svg width="36" height="25" viewBox="0 0 36 25" fill="none" xmlns="http://www.w3.org/2000/svg">
<g clip-path="url(#clip0_284_5622)">
<path d="M10 25C8.65025 25 7.34072 24.7354 6.10739 24.214C4.91639 23.7102 3.84746 22.9891 2.92881 22.0712C2.01087 21.1532 1.28978 20.0836 0.786002 18.8926C0.264588 17.6593 0 16.3497 0 15C0 13.6503 0.264588 12.3407 0.786002 11.1074C1.28978 9.91639 2.01087 8.84746 2.92881 7.92881C3.84746 7.01087 4.91639 6.28978 6.10739 5.786C7.34072 5.26459 8.65025 5 10 5C11.3497 5 12.6593 5.26459 13.8926 5.786C15.0836 6.28978 16.1525 7.01087 17.0712 7.92881C17.9891 8.84675 18.7102 9.91639 19.214 11.1074C19.7354 12.3407 20 13.6503 20 15C20 16.3497 19.7354 17.6593 19.214 18.8926C18.7102 20.0836 17.9891 21.1525 17.0712 22.0712C16.1532 22.9891 15.0836 23.7102 13.8926 24.214C12.6593 24.7361 11.3497 25 10 25Z" fill="white"/>
<path d="M9.99991 24.4701C15.2301 24.4701 19.47 20.2302 19.47 15C19.47 9.76982 15.2301 5.52991 9.99991 5.52991C4.7697 5.52991 0.529785 9.76982 0.529785 15C0.529785 20.2302 4.7697 24.4701 9.99991 24.4701Z" fill="black"/>
<path d="M10.2329 11.233C11.498 11.3459 12.4935 12.3936 12.5246 13.6806L14.4656 14.4871L13.4538 12.8374L15.6051 10.6862L14.3196 9.40062L12.4766 11.2443L10.2336 7.58661V11.233H10.2329Z" fill="white"/>
<path d="M12.4914 14.1597C12.3052 15.2801 11.3795 16.1501 10.2329 16.2531V17.5852L14.5044 14.9965L12.4914 14.1597Z" fill="white"/>
<path d="M7.51982 14.1597L5.50684 14.9958L9.77834 17.5845V16.2524C8.63179 16.1501 7.70609 15.2801 7.51982 14.1597Z" fill="white"/>
<path d="M14.4564 16.354L10.2329 18.9138V22.3041L11.9707 19.855L13.7847 21.669L15.0703 20.3835L13.0382 18.3515L14.4564 16.354Z" fill="white"/>
<path d="M9.77828 18.9138L5.55476 16.354L6.97295 18.3515L4.94092 20.3835L6.22646 21.669L8.04047 19.8557L9.77828 22.3033V18.9138Z" fill="white"/>
<path d="M5.54574 14.4878L7.48676 13.6813C7.5178 12.3943 8.51336 11.3466 9.77844 11.2337V7.58661L7.53544 11.2443L5.69179 9.40062L4.40625 10.6869L6.55752 12.8381L5.54574 14.4878Z" fill="white"/>
<path d="M10.0943 13.4534C9.47132 13.2622 9.47132 13.1564 9.47132 13.071C9.47132 12.9525 9.65053 12.7888 9.98709 12.7888C10.1861 12.7888 10.5205 12.8381 10.5205 13.1712H11.1266C11.1266 12.5799 10.6687 12.1827 9.98709 12.1827C9.25824 12.1827 8.86523 12.6406 8.86523 13.071C8.86523 13.6594 9.38171 13.8683 9.9123 14.032C10.5353 14.2232 10.5388 14.3304 10.5388 14.4158C10.5388 14.5343 10.3596 14.698 10.0231 14.698C9.82339 14.698 9.48966 14.6486 9.48966 14.3156H8.88358C8.88358 14.9069 9.34149 15.3041 10.0231 15.3041C10.7519 15.3041 11.1449 14.8462 11.1449 14.4158C11.1456 13.8266 10.6256 13.6164 10.0943 13.4534Z" fill="white"/>
</g>
<g clip-path="url(#clip1_284_5622)">
<path d="M30.7625 16.8081C30.7625 17.1919 30.6915 17.5591 30.5615 17.8976C30.1168 19.0538 28.9869 19.8751 27.6628 19.8751C26.3076 19.8751 25.1561 19.0148 24.7345 17.8158C22.2311 17.9939 20.7996 16.8867 20.2044 14.7763C18.7009 14.3717 17.5957 13.0113 17.5957 11.3952C17.5957 10.3499 18.0583 9.41136 18.7919 8.76978C19.4161 8.22292 20.2371 7.89117 21.1364 7.89117C22.1668 7.89117 23.0947 8.32651 23.7409 9.02239C24.1756 8.74111 24.695 8.57807 25.2529 8.57807C25.6423 8.57807 26.0134 8.65779 26.3497 8.80154C27.3228 9.21715 28.007 10.1692 28.0222 11.2811C28.0227 11.2942 28.0227 11.3067 28.0227 11.3197L28.0222 11.3661V11.3666C28.1637 11.3358 28.3105 11.3197 28.4616 11.3197C29.1363 11.3197 29.7357 11.6395 30.1135 12.1342H30.1141C30.3762 12.4775 30.5315 12.905 30.5315 13.3686C30.5324 13.8493 30.3612 14.3148 30.0483 14.6826C30.0248 14.7109 30.0004 14.7385 29.9751 14.7654C30.4652 15.3075 30.7624 16.0237 30.7624 16.8081" fill="#FF5CAA"/>
<path d="M25.2264 11.1466C24.6656 11.7497 24.3231 12.5548 24.3231 13.4391C24.3231 15.3094 25.8552 16.8256 27.7451 16.8256C27.9889 16.8257 28.2321 16.8001 28.4704 16.7493M20.9946 10.0535C21.0802 11.2765 22.1099 12.2424 23.3676 12.2424M27.1505 11.7882C27.4048 11.5791 27.7066 11.434 28.0299 11.3654M23.7486 9.02118C23.3503 9.27789 23.0229 9.63366 22.8024 10.0535" stroke="#103849" stroke-width="0.417239" stroke-miterlimit="10" stroke-linecap="round" stroke-linejoin="round"/>
<path d="M30.7693 16.807C30.7693 18.5012 29.3815 19.8741 27.6696 19.8741C26.3145 19.8741 25.163 19.0137 24.7414 17.8148C22.238 17.9929 20.8065 16.8856 20.2113 14.7753C18.7077 14.3706 17.6025 13.0103 17.6025 11.3941C17.6025 9.45884 19.1876 7.89014 21.1433 7.89014C22.1737 7.89014 23.1015 8.32547 23.7477 9.02135C24.1824 8.74007 24.7019 8.57703 25.2598 8.57703C26.7896 8.57703 28.0296 9.80465 28.0296 11.3187L28.029 11.365V11.3655C28.1705 11.3348 28.3174 11.3187 28.4685 11.3187C29.6115 11.3187 30.5383 12.2358 30.5383 13.3675C30.5383 13.9076 30.3273 14.3983 29.982 14.7643C30.472 15.3065 30.7693 16.0226 30.7693 16.807L30.7693 16.807Z" stroke="#103849" stroke-width="0.36506" stroke-miterlimit="10" stroke-linejoin="round"/>
<path d="M29.9831 14.7646C29.9831 14.7646 29.7428 14.5179 29.4141 14.261M20.7402 20.327C20.6045 20.0465 20.5177 19.7454 20.4834 19.4363" stroke="#103849" stroke-width="0.417239" stroke-miterlimit="10" stroke-linecap="round" stroke-linejoin="round"/>
<path d="M26.811 18.1936C26.9206 18.4944 26.9765 18.8118 26.9762 19.1316C26.9762 20.7763 25.5174 22.1091 23.7175 22.1091C22.3829 22.1091 21.2361 21.3763 20.733 20.3269C20.3184 20.6055 19.821 20.768 19.2868 20.768C18.0891 20.768 17.0786 19.9524 16.7618 18.8368C16.5356 18.8926 16.3034 18.9208 16.0703 18.9207C14.5057 18.9207 13.2368 17.6654 13.2368 16.1165C13.2368 14.927 13.9857 13.9104 15.0424 13.5036C15.0009 13.3333 14.9788 13.1568 14.9788 12.9755C14.9788 11.5709 16.2976 10.4324 17.9249 10.4324C18.859 10.4324 19.6925 10.8083 20.232 11.3937C20.6646 11.1641 21.1635 11.0324 21.6951 11.0324C23.3439 11.0324 24.6805 12.2974 24.6805 13.8578C24.6807 13.8946 24.6798 13.9314 24.6779 13.9681C26.0384 14.215 27.0725 15.4515 27.0725 16.9399C27.0725 17.3873 26.9794 17.8118 26.811 18.1935" fill="#FF5CAA"/>
<path d="M25.7601 16.8078C26.2458 17.1629 26.6174 17.6432 26.8174 18.1942M16.7682 18.8374C16.7008 18.6009 16.665 18.3514 16.665 18.0931C16.665 17.0389 17.2644 16.1271 18.1349 15.6911M15.7867 13.3282C15.5288 13.3542 15.2815 13.4141 15.0488 13.5042M20.239 11.3949L20.2384 11.3943M20.2384 11.3943C19.8685 11.5923 19.5474 11.8621 19.2964 12.184" stroke="#103849" stroke-width="0.417239" stroke-miterlimit="10" stroke-linecap="round" stroke-linejoin="round"/>
<path d="M26.8198 18.1936C26.9294 18.4944 26.9853 18.8118 26.985 19.1316C26.985 20.7763 25.5262 22.1091 23.7263 22.1091C22.3917 22.1091 21.2449 21.3763 20.7418 20.3269C20.3272 20.6055 19.8298 20.768 19.2956 20.768C18.0979 20.768 17.0874 19.9524 16.7706 18.8368C16.5444 18.8926 16.3122 18.9208 16.0791 18.9207C14.5145 18.9207 13.2456 17.6654 13.2456 16.1165C13.2456 14.927 13.9945 13.9104 15.0512 13.5036C15.0097 13.3333 14.9876 13.1568 14.9876 12.9755C14.9876 11.5709 16.3064 10.4324 17.9336 10.4324C18.8678 10.4324 19.7013 10.8083 20.2408 11.3937C20.6734 11.1641 21.1723 11.0324 21.7039 11.0324C23.3527 11.0324 24.6893 12.2974 24.6893 13.8578C24.6895 13.8946 24.6886 13.9314 24.6867 13.9681C26.0472 14.215 27.0813 15.4515 27.0813 16.9399C27.0813 17.3873 26.9881 17.8118 26.8198 18.1935L26.8198 18.1936Z" stroke="#103849" stroke-width="0.36506" stroke-miterlimit="10" stroke-linejoin="round"/>
<path d="M22.1416 14.8086C22.6658 14.2628 23.3894 13.9247 24.1883 13.9247C24.3588 13.9247 24.5257 13.9399 24.6882 13.9695M24.5008 17.5172C24.0878 18.0282 23.4525 18.3556 22.7398 18.3556C21.4952 18.3556 20.4863 17.3571 20.4863 16.1255C20.4855 15.6112 20.6651 15.1126 20.9944 14.7147" stroke="#103849" stroke-width="0.417239" stroke-miterlimit="10" stroke-linecap="round" stroke-linejoin="round"/>
<path d="M23.735 19.4595C23.735 19.0215 23.6234 18.6096 23.4265 18.2497M19.0253 18.0351C19.3969 17.4904 19.9753 17.0961 20.6495 16.9622M15.0078 16.1195C15.2933 16.0076 15.5975 15.9502 15.9046 15.9502C16.3969 15.9496 16.8777 16.0975 17.2829 16.3743M19.6409 14.067C19.4875 14.1117 19.3252 14.1356 19.1572 14.1356C18.7114 14.1362 18.283 13.964 17.9639 13.6558M27.0368 13.9582C27.2727 13.7841 27.5592 13.6902 27.8535 13.6906C27.9353 13.6906 28.017 13.6978 28.0975 13.7121" stroke="#103849" stroke-width="0.417239" stroke-miterlimit="10" stroke-linecap="round" stroke-linejoin="round"/>
<path d="M30.2261 14.766C30.5482 14.3705 30.7239 13.8801 30.7239 13.3681C30.7239 12.1378 29.7127 11.1369 28.4698 11.1369C28.383 11.1369 28.2963 11.1419 28.2103 11.1517C28.1224 9.61706 26.8331 8.39531 25.2611 8.39531C24.7369 8.39531 24.2277 8.53112 23.7792 8.78939C23.0802 8.09815 22.1327 7.7094 21.1446 7.70837C19.4884 7.70837 18.0818 8.78393 17.5989 10.2661C16.0291 10.4114 14.802 11.5711 14.802 12.9759C14.802 13.1157 14.8143 13.2557 14.8387 13.3939C13.753 13.8754 13.0601 14.928 13.0601 16.1169C13.0601 17.7636 14.4138 19.1033 16.0777 19.1033C16.2677 19.1033 16.4573 19.0858 16.644 19.0508C17.039 20.1777 18.1052 20.9506 19.2943 20.9506C19.7767 20.9509 20.2508 20.8254 20.6686 20.5867C21.2569 21.6288 22.4336 22.2917 23.7249 22.2917C25.2971 22.2917 26.6256 21.3191 27.0361 19.9954C27.2425 20.0356 27.4549 20.0569 27.6709 20.0569C29.4817 20.0569 30.9549 18.5991 30.9549 16.8075C30.9549 16.0611 30.6972 15.3423 30.2261 14.766V14.766Z" stroke="#103849" stroke-width="0.730159" stroke-miterlimit="10" stroke-linejoin="round"/>
<path d="M21.1371 6.66669C20.1642 6.66669 19.2283 6.9534 18.4307 7.49576C17.7421 7.96407 17.1961 8.59573 16.8355 9.33742C15.0802 9.75839 13.8253 11.1563 13.7459 12.8093C12.6595 13.5558 12 14.7883 12 16.1169C12 18.3146 13.7879 20.1069 15.9998 20.1443C16.6983 21.2799 17.9433 21.9922 19.2868 21.9922C19.63 21.9922 19.9672 21.9472 20.2944 21.858C21.1411 22.7898 22.385 23.3333 23.7174 23.3333C24.62 23.3333 25.4943 23.08 26.2457 22.601C26.8564 22.2118 27.3484 21.6981 27.6889 21.0984C30.0685 21.0849 31.9999 19.1652 31.9999 16.8075C31.9999 16.0791 31.8158 15.3722 31.4641 14.7403C31.6651 14.3101 31.7691 13.8419 31.7689 13.368C31.7689 12.5097 31.4347 11.6981 30.8276 11.0828C30.3489 10.5975 29.743 10.2769 29.0836 10.1528C28.8608 9.4368 28.434 8.79166 27.8507 8.29996C27.126 7.68944 26.2054 7.35397 25.2537 7.35354C24.81 7.35354 24.3648 7.42803 23.9453 7.57076C23.1304 6.98523 22.1483 6.66669 21.1371 6.66669ZM21.1371 7.34374C22.1235 7.34374 23.0909 7.70626 23.8319 8.34632C24.2764 8.13835 24.7619 8.03055 25.2536 8.03067C26.8912 8.03067 28.2662 9.20922 28.5303 10.7731C29.9449 10.809 31.0847 11.9593 31.0847 13.368C31.0842 13.8616 30.9419 14.3449 30.6744 14.7616C31.0897 15.3603 31.3157 16.0767 31.3157 16.8075C31.3157 18.8003 29.6772 20.4215 27.6634 20.4215C27.5331 20.4215 27.4024 20.4145 27.2723 20.4006C26.7102 21.7432 25.2939 22.6563 23.7174 22.6563C22.4173 22.6563 21.2258 22.0528 20.5268 21.0608C20.1353 21.2284 19.7133 21.315 19.2868 21.3152C18.0439 21.3152 16.9198 20.5777 16.4022 19.4519C16.2919 19.4625 16.181 19.4679 16.0702 19.4679C14.2032 19.4679 12.6842 17.9647 12.6842 16.1169C12.6842 14.8902 13.3626 13.7663 14.434 13.1827C14.4288 13.1139 14.4261 13.0449 14.4261 12.9759C14.4261 11.4603 15.6545 10.187 17.3204 9.93205C17.9289 8.37441 19.434 7.34374 21.1372 7.34374" fill="#F0F0F0"/>
</g>
<defs>
<clipPath id="clip0_284_5622">
<rect width="20" height="20" fill="white" transform="translate(0 5)"/>
</clipPath>
<clipPath id="clip1_284_5622">
<rect width="20" height="16.6667" fill="white" transform="translate(12 6.66669)"/>
</clipPath>
</defs>
</svg>
