<svg width="30" height="30" viewBox="0 0 30 30" fill="none" xmlns="http://www.w3.org/2000/svg">
<g clip-path="url(#clip0_550_5418)">
<path d="M15 30C12.9754 30 11.0111 29.6031 9.16108 28.821C7.37459 28.0653 5.77118 26.9837 4.39321 25.6068C3.0163 24.2299 1.93466 22.6254 1.179 20.8389C0.396881 18.9889 0 17.0246 0 15C0 12.9754 0.396881 11.0111 1.179 9.16108C1.93466 7.37459 3.0163 5.77118 4.39321 4.39321C5.77118 3.0163 7.37459 1.93466 9.16108 1.179C11.0111 0.396881 12.9754 0 15 0C17.0246 0 18.9889 0.396881 20.8389 1.179C22.6254 1.93466 24.2288 3.0163 25.6068 4.39321C26.9837 5.77013 28.0653 7.37459 28.821 9.16108C29.6031 11.0111 30 12.9754 30 15C30 17.0246 29.6031 18.9889 28.821 20.8389C28.0653 22.6254 26.9837 24.2288 25.6068 25.6068C24.2299 26.9837 22.6254 28.0653 20.8389 28.821C18.9889 29.6042 17.0246 30 15 30Z" fill="white"/>
<path d="M15.0001 29.2052C22.8454 29.2052 29.2053 22.8453 29.2053 15C29.2053 7.15471 22.8454 0.79483 15.0001 0.79483C7.1548 0.79483 0.794922 7.15471 0.794922 15C0.794922 22.8453 7.1548 29.2052 15.0001 29.2052Z" fill="black"/>
<path d="M15.3496 12.3319V18.8767L21.7569 14.9937L15.3496 12.3319Z" fill="white"/>
<path d="M15.3496 11.5932L21.6987 14.2316L20.181 11.7572L23.4079 8.5303L21.4796 6.60093L18.7152 9.3664L15.3496 3.87991V11.5932Z" fill="white"/>
<path d="M14.668 18.8767V12.3319L8.26074 14.9937L14.668 18.8767Z" fill="white"/>
<path d="M8.31861 14.2316L14.6677 11.5932V3.87991L11.3032 9.3664L8.53769 6.60093L6.60938 8.5303L9.83629 11.7562L8.31861 14.2316Z" fill="white"/>
<path d="M21.6849 17.031L15.3496 20.8707V25.956L17.9563 22.2825L20.6773 25.0035L22.6057 23.0752L19.5576 20.0272L21.6849 17.031Z" fill="white"/>
<path d="M14.6672 20.8707L8.3319 17.031L10.4592 20.0272L7.41113 23.0752L9.33945 25.0035L12.0605 22.2836L14.6672 25.955V20.8707Z" fill="white"/>
</g>
<defs>
<clipPath id="clip0_550_5418">
<rect width="30" height="30" fill="white"/>
</clipPath>
</defs>
</svg>
