<svg width="21" height="15" viewBox="0 0 21 15" fill="none" xmlns="http://www.w3.org/2000/svg">
<circle cx="6.09459" cy="6.09459" r="6.09459" fill="black"/>
<g clip-path="url(#clip0_193_3045)">
<path d="M3.42787 7.33892C3.45088 7.38636 3.57912 7.4711 3.60563 7.51668C3.64382 7.58334 3.61118 7.68541 3.60563 7.69444C3.60146 7.70277 3.35496 7.92844 3.07235 8.22771C2.78974 8.52699 2.54185 8.75474 2.53907 8.76099C2.82313 9.04686 3.13471 9.37326 3.42787 9.64978L3.96114 9.11651L4.31666 8.58323H4.49442C4.57992 8.63843 4.75875 8.71581 4.84994 8.76099C4.90618 8.46588 4.90479 8.15203 5.0277 7.87219C4.65482 7.67916 4.45276 7.23337 4.31666 6.80564C4.21427 6.84556 4.05612 6.9281 3.96114 6.9834C3.76325 7.11741 3.61813 7.20699 3.42787 7.33892ZM5.0277 3.9615C4.97354 3.87956 4.90827 3.8629 4.84994 3.78374C4.72064 3.75181 4.57604 3.53346 4.49442 3.42822V3.60598V3.42822C4.35223 3.28986 4.10457 3.20978 3.96114 3.07271C3.7695 2.888 3.65215 2.58595 3.60563 2.53943H3.42787L3.07235 3.07271C2.83974 3.3199 2.54116 3.42406 2.53907 3.42822C2.53699 3.43239 2.81474 3.71361 3.07235 3.9615L3.60563 4.31702V4.49478C3.58618 4.52718 3.44546 4.63921 3.42787 4.67254C3.69867 4.85099 4.03336 5.03916 4.31666 5.20581C4.49998 4.8614 4.81105 4.50936 5.20546 4.31702C5.16144 4.25121 5.2517 4.20352 5.20546 4.13926C5.17074 4.09065 5.05547 4.01011 5.0277 3.9615ZM8.58287 4.49478L9.11615 3.9615C9.38973 3.67264 9.65151 3.43308 9.64943 3.42822C9.64318 3.41017 8.77174 2.53943 8.76063 2.53943C8.75369 2.53943 8.48775 2.79565 8.22736 3.07271C7.96558 3.34906 7.69894 3.6039 7.69408 3.60598C7.68922 3.60807 7.71908 3.62334 7.69408 3.60598C7.64478 3.57265 7.3219 3.5664 7.1608 3.60598C7.07054 3.80735 7.0629 4.11287 6.98305 4.31702C7.06989 4.36219 7.08121 4.43778 7.1608 4.49478C7.28996 4.58713 7.60312 4.71975 7.69408 4.85029C7.7163 4.88224 7.8517 4.99403 7.87184 5.02805C8.16139 4.90584 8.47108 4.79891 8.76063 4.67254C8.74327 4.63921 8.59746 4.51977 8.58287 4.49478ZM8.76063 7.87219L8.58287 7.69444C8.60371 7.65972 8.74119 7.55278 8.76063 7.51668C8.51344 7.30003 8.13709 7.01118 7.87184 6.80564C7.77602 7.09381 7.71422 7.3292 7.51632 7.51668C7.41286 7.61389 7.30454 7.80484 7.1608 7.87219C7.21635 8.13606 7.40522 8.34714 7.51632 8.58323C7.53025 8.61236 7.50714 8.73003 7.51632 8.76099C7.55243 8.74108 7.65936 8.60406 7.69408 8.58323L7.87184 8.76099C8.19997 9.08053 8.42912 9.33375 8.76063 9.64978C8.76966 9.65256 9.65082 8.7714 9.64943 8.76099C9.64873 8.75543 9.11754 8.21244 8.76063 7.87219Z" fill="white"/>
<path d="M6.09451 9.11651C5.3805 9.11623 4.69181 8.83948 4.13916 8.40548C3.58652 7.97148 3.2144 7.29967 3.07261 6.62789C2.93082 5.95611 3.09505 5.27883 3.42813 4.67254C3.76121 4.06626 4.19262 3.51754 4.8502 3.25047C5.60644 2.94374 6.7559 2.95402 7.51658 3.25047C8.27726 3.54692 8.97465 4.12432 9.29417 4.8503C9.61369 5.57628 9.60298 6.43093 9.29417 7.16117C8.98536 7.89141 8.45058 8.63202 7.69434 8.93875C7.31321 9.0936 6.50837 9.11729 6.09451 9.11651ZM6.09451 4.31703C5.05661 4.31703 4.31692 5.09824 4.31692 6.09461C4.31692 7.09098 5.05661 7.8722 6.09451 7.8722C7.13241 7.8722 8.22762 7.09098 8.22762 6.09461C8.22762 5.09824 7.13241 4.31703 6.09451 4.31703Z" fill="white"/>
</g>
<g clip-path="url(#clip1_193_3045)">
<path d="M19.9147 7.49098C19.9147 7.76735 19.8635 8.03172 19.7699 8.27544C19.4497 9.10791 18.6362 9.69925 17.6829 9.69925C16.7072 9.69925 15.8781 9.07979 15.5745 8.21655C13.7721 8.34477 12.7414 7.54756 12.3129 6.0281C11.2303 5.73676 10.4346 4.75731 10.4346 3.59368C10.4346 2.8411 10.7676 2.16534 11.2958 1.7034C11.7452 1.30966 12.3364 1.0708 12.9839 1.0708C13.7258 1.0708 14.3938 1.38424 14.8591 1.88528C15.1721 1.68275 15.5461 1.56536 15.9478 1.56536C16.2281 1.56536 16.4953 1.62276 16.7375 1.72626C17.4381 2.0255 17.9307 2.71094 17.9417 3.51158C17.942 3.52095 17.942 3.52995 17.942 3.53934L17.9417 3.57272V3.57309C18.0435 3.55095 18.1492 3.53934 18.258 3.53934C18.7438 3.53934 19.1754 3.76959 19.4474 4.12581H19.4478C19.6365 4.37294 19.7483 4.68079 19.7483 5.01453C19.749 5.36066 19.6258 5.69584 19.4005 5.9606C19.3835 5.98102 19.366 6.00091 19.3478 6.02022C19.7006 6.41059 19.9146 6.92619 19.9146 7.49098" fill="#FF5CAA"/>
<path d="M15.9277 3.41472C15.5239 3.84898 15.2774 4.42865 15.2774 5.06535C15.2774 6.41194 16.3805 7.5036 17.7412 7.5036C17.9167 7.50368 18.0918 7.48528 18.2634 7.4487M12.8809 2.62767C12.9425 3.50829 13.6839 4.20374 14.5894 4.20374M17.3131 3.87672C17.4962 3.72614 17.7135 3.62168 17.9463 3.57227M14.8637 1.88443C14.5769 2.06926 14.3412 2.32542 14.1825 2.62767" stroke="#103849" stroke-width="0.300412" stroke-miterlimit="10" stroke-linecap="round" stroke-linejoin="round"/>
<path d="M19.9195 7.49015C19.9195 8.70995 18.9203 9.69846 17.6878 9.69846C16.712 9.69846 15.883 9.079 15.5794 8.21576C13.777 8.34397 12.7463 7.54677 12.3177 6.02731C11.2352 5.73597 10.4395 4.75652 10.4395 3.59288C10.4395 2.19947 11.5807 1.07001 12.9888 1.07001C13.7307 1.07001 14.3987 1.38345 14.864 1.88448C15.177 1.68196 15.551 1.56457 15.9527 1.56457C17.0542 1.56457 17.9469 2.44846 17.9469 3.53855L17.9465 3.57193V3.57229C18.0484 3.55016 18.1541 3.53855 18.2629 3.53855C19.0859 3.53855 19.7532 4.19887 19.7532 5.01374C19.7532 5.40261 19.6012 5.75585 19.3526 6.01943C19.7055 6.40979 19.9195 6.92539 19.9195 7.49018L19.9195 7.49015Z" stroke="#103849" stroke-width="0.262843" stroke-miterlimit="10" stroke-linejoin="round"/>
<path d="M19.3525 6.01965C19.3525 6.01965 19.1795 5.84199 18.9428 5.65707M12.6976 10.0246C12.5999 9.82262 12.5374 9.60581 12.5127 9.38327" stroke="#103849" stroke-width="0.300412" stroke-miterlimit="10" stroke-linecap="round" stroke-linejoin="round"/>
<path d="M17.0683 8.48852C17.1472 8.70512 17.1875 8.93365 17.1873 9.16389C17.1873 10.3481 16.1369 11.3077 14.841 11.3077C13.8801 11.3077 13.0544 10.78 12.6922 10.0245C12.3937 10.2251 12.0355 10.3421 11.6509 10.3421C10.7886 10.3421 10.061 9.75486 9.83292 8.95164C9.67007 8.99182 9.50286 9.0121 9.33502 9.01202C8.2085 9.01202 7.29492 8.10825 7.29492 6.99305C7.29492 6.13658 7.83411 5.40462 8.59497 5.11174C8.56504 4.98915 8.54913 4.86203 8.54913 4.73153C8.54913 3.72019 9.49871 2.90045 10.6703 2.90045C11.3429 2.90045 11.943 3.17115 12.3314 3.59264C12.6429 3.42727 13.0022 3.33244 13.3849 3.33244C14.572 3.33244 15.5344 4.24329 15.5344 5.36674C15.5345 5.39324 15.5339 5.41973 15.5325 5.44619C16.512 5.62394 17.2566 6.51421 17.2566 7.5859C17.2566 7.90801 17.1895 8.21363 17.0683 8.48849" fill="#FF5CAA"/>
<path d="M16.3107 7.49075C16.6604 7.74645 16.928 8.09224 17.072 8.48895M9.83656 8.95205C9.78804 8.78181 9.76227 8.60218 9.76227 8.4162C9.76227 7.65718 10.1939 7.00063 10.8206 6.68676M9.12989 4.98542C8.94423 5.00418 8.76613 5.04732 8.59863 5.11217M12.3355 3.59344L12.3351 3.59308M12.3351 3.59308C12.0688 3.73558 11.8376 3.92986 11.6569 4.16161" stroke="#103849" stroke-width="0.300412" stroke-miterlimit="10" stroke-linecap="round" stroke-linejoin="round"/>
<path d="M17.0742 8.48855C17.1531 8.70515 17.1933 8.93368 17.1931 9.16392C17.1931 10.3481 16.1428 11.3077 14.8469 11.3077C13.886 11.3077 13.0603 10.7801 12.698 10.0245C12.3995 10.2251 12.0414 10.3421 11.6568 10.3421C10.7944 10.3421 10.0669 9.75489 9.83878 8.95167C9.67593 8.99185 9.50872 9.01213 9.34088 9.01205C8.21436 9.01205 7.30078 8.10828 7.30078 6.99308C7.30078 6.13661 7.83997 5.40465 8.60083 5.11177C8.5709 4.98918 8.55499 4.86206 8.55499 4.73156C8.55499 3.72022 9.50457 2.90048 10.6762 2.90048C11.3488 2.90048 11.9489 3.17118 12.3373 3.59267C12.6488 3.4273 13.008 3.33247 13.3907 3.33247C14.5779 3.33247 15.5403 4.24332 15.5403 5.36677C15.5404 5.39327 15.5398 5.41976 15.5384 5.44622C16.5179 5.62397 17.2624 6.51424 17.2624 7.58593C17.2624 7.90804 17.1954 8.21366 17.0742 8.48852L17.0742 8.48855Z" stroke="#103849" stroke-width="0.262843" stroke-miterlimit="10" stroke-linejoin="round"/>
<path d="M13.7055 6.05137C14.0829 5.65839 14.6039 5.41501 15.1791 5.41501C15.3019 5.41501 15.422 5.42589 15.5391 5.44721M15.4041 8.00156C15.1067 8.3695 14.6493 8.60521 14.1362 8.60521C13.2401 8.60521 12.5137 7.88628 12.5137 6.99952C12.5131 6.62924 12.6424 6.27024 12.8795 5.98379" stroke="#103849" stroke-width="0.300412" stroke-miterlimit="10" stroke-linecap="round" stroke-linejoin="round"/>
<path d="M14.8529 9.4C14.8529 9.08464 14.7725 8.78807 14.6308 8.52894M11.4619 8.37445C11.7294 7.98221 12.1459 7.69832 12.6313 7.60197M8.56934 6.99519C8.77486 6.91461 8.99394 6.87326 9.21501 6.87333C9.56947 6.87284 9.91565 6.97934 10.2074 7.17861M11.9051 5.51738C11.7947 5.54955 11.6779 5.56679 11.5569 5.56679C11.2359 5.56721 10.9275 5.44321 10.6977 5.22134M17.2302 5.43908C17.4001 5.31367 17.6064 5.24607 17.8183 5.2464C17.8772 5.24637 17.9359 5.25154 17.9939 5.26184" stroke="#103849" stroke-width="0.300412" stroke-miterlimit="10" stroke-linecap="round" stroke-linejoin="round"/>
<path d="M19.5266 6.02067C19.7585 5.73592 19.8849 5.38282 19.8849 5.01417C19.8849 4.12837 19.1569 3.40769 18.262 3.40769C18.1995 3.40769 18.1371 3.41129 18.0752 3.41838C18.0119 2.31344 17.0836 1.43377 15.9517 1.43377C15.5743 1.43377 15.2077 1.53156 14.8847 1.71751C14.3815 1.21982 13.6993 0.939917 12.9878 0.939178C11.7954 0.939178 10.7826 1.71358 10.435 2.78072C9.30468 2.88537 8.42117 3.72037 8.42117 4.7318C8.42117 4.83246 8.43007 4.93328 8.4476 5.03273C7.66591 5.37944 7.16699 6.1373 7.16699 6.99335C7.16699 8.17895 8.14167 9.14352 9.33969 9.14352C9.4765 9.14354 9.61302 9.13089 9.74745 9.10575C10.0318 9.91707 10.7995 10.4736 11.6556 10.4736C12.003 10.4738 12.3443 10.3835 12.6451 10.2116C13.0687 10.9619 13.9159 11.4392 14.8457 11.4392C15.9777 11.4392 16.9342 10.7389 17.2297 9.78582C17.3784 9.81481 17.5313 9.83009 17.6868 9.83009C18.9905 9.83009 20.0512 8.78052 20.0512 7.49055C20.0512 6.95316 19.8657 6.43559 19.5266 6.02065V6.02067Z" stroke="#103849" stroke-width="0.525714" stroke-miterlimit="10" stroke-linejoin="round"/>
<path d="M12.984 0.189178C12.2835 0.189178 11.6097 0.39561 11.0354 0.786113C10.5396 1.12329 10.1465 1.57809 9.88686 2.11211C8.62305 2.4152 7.71947 3.42168 7.66235 4.61184C6.88012 5.14932 6.40527 6.03677 6.40527 6.99333C6.40527 8.57568 7.69259 9.86615 9.28515 9.89304C9.78802 10.7107 10.6845 11.2236 11.6518 11.2236C11.8989 11.2236 12.1417 11.1912 12.3772 11.1269C12.9868 11.7978 13.8825 12.1892 14.8418 12.1892C15.4917 12.1892 16.1211 12.0068 16.6622 11.6619C17.1019 11.3817 17.4561 11.0118 17.7013 10.58C19.4146 10.5703 20.8052 9.18808 20.8052 7.49057C20.8052 6.96608 20.6726 6.45717 20.4194 6.00215C20.5641 5.69247 20.639 5.35533 20.6389 5.01412C20.6389 4.39615 20.3982 3.81179 19.9612 3.36875C19.6165 3.01934 19.1803 2.78852 18.7055 2.6992C18.545 2.18366 18.2377 1.71916 17.8178 1.36513C17.296 0.92556 16.6332 0.684021 15.9479 0.683713C15.6285 0.683713 15.3079 0.737346 15.0059 0.840111C14.4192 0.418531 13.712 0.189178 12.984 0.189178ZM12.984 0.676654C13.6942 0.676654 14.3907 0.937674 14.9242 1.39852C15.2443 1.24878 15.5939 1.17116 15.9478 1.17124C17.1269 1.17124 18.1169 2.01981 18.3071 3.14581C19.3256 3.17166 20.1463 3.99986 20.1463 5.01415C20.1459 5.36955 20.0435 5.71752 19.8509 6.01748C20.1498 6.4486 20.3126 6.96439 20.3126 7.49059C20.3126 8.92537 19.1329 10.0926 17.6829 10.0926C17.5891 10.0926 17.495 10.0876 17.4013 10.0776C16.9966 11.0442 15.9769 11.7017 14.8418 11.7017C13.9057 11.7017 13.0479 11.2672 12.5446 10.5529C12.2627 10.6736 11.9589 10.736 11.6518 10.7361C10.7569 10.7361 9.94753 10.2051 9.57485 9.39451C9.49545 9.40219 9.41556 9.40602 9.33582 9.40602C7.99155 9.40602 6.89788 8.32372 6.89788 6.99333C6.89788 6.11009 7.38635 5.30093 8.15772 4.88073C8.15398 4.83117 8.1521 4.78149 8.15209 4.73179C8.15209 3.6406 9.03648 2.72384 10.2359 2.54024C10.6741 1.41874 11.7577 0.676654 12.984 0.676654" fill="#F0F0F0"/>
</g>
<circle cx="10" cy="11" r="4" fill="white"/>
<g clip-path="url(#clip2_193_3045)">
<path d="M9.79208 7.99994L9.75293 8.1382V12.1502L9.79208 12.1908L11.5844 11.09L9.79208 7.99994Z" fill="#343434"/>
<path d="M9.7923 7.99994L8 11.09L9.7923 12.1909V10.2435V7.99994Z" fill="#8C8C8C"/>
<path d="M9.79159 12.5435L9.76953 12.5714V14.0006L9.79159 14.0675L11.585 11.4432L9.79159 12.5435Z" fill="#3C3C3B"/>
<path d="M9.7923 14.0676V12.5435L8 11.4432L9.7923 14.0676Z" fill="#8C8C8C"/>
<path d="M9.79297 12.1909L11.5852 11.0901L9.79297 10.2436V12.1909Z" fill="#141414"/>
<path d="M8 11.0901L9.79228 12.1909V10.2436L8 11.0901Z" fill="#393939"/>
</g>
<defs>
<clipPath id="clip0_193_3045">
<rect width="7.11035" height="7.11035" fill="white" transform="translate(2.53906 2.53943)"/>
</clipPath>
<clipPath id="clip1_193_3045">
<rect width="14.4" height="12" fill="white" transform="translate(6.40527 0.189178)"/>
</clipPath>
<clipPath id="clip2_193_3045">
<rect width="3.58621" height="6.06897" fill="white" transform="translate(8 8)"/>
</clipPath>
</defs>
</svg>
