<svg width="24" height="18" viewBox="0 0 24 18" fill="none" xmlns="http://www.w3.org/2000/svg">
<rect x="0.5" y="0.928467" width="23" height="16.1429" rx="3.5" fill="white" stroke="#F5F5F5"/>
<mask id="mask0_30768_686" style="mask-type:luminance" maskUnits="userSpaceOnUse" x="0" y="0" width="24" height="18">
<rect x="0.5" y="0.928467" width="23" height="16.1429" rx="3.5" fill="white" stroke="white"/>
</mask>
<g mask="url(#mask0_30768_686)">
<ellipse cx="12" cy="9" rx="4" ry="4" fill="#E01B41"/>
<mask id="mask1_30768_686" style="mask-type:luminance" maskUnits="userSpaceOnUse" x="8" y="5" width="8" height="8">
<ellipse cx="12" cy="9" rx="4" ry="4" fill="white"/>
</mask>
<g mask="url(#mask1_30768_686)">
<path fill-rule="evenodd" clip-rule="evenodd" d="M7.99988 9.57136C9.14274 10.6428 10.857 11.2856 11.9999 9.57136C13.1427 7.85707 15.4285 7.85707 15.9999 9.57136C16.5713 11.2856 15.9999 12.9999 15.9999 12.9999H7.99988C7.99988 12.9999 6.85702 8.49993 7.99988 9.57136Z" fill="#0E4B9C"/>
</g>
<path opacity="0.75" fill-rule="evenodd" clip-rule="evenodd" d="M5.14846 3.72453C5.30626 3.45122 5.65574 3.35758 5.92905 3.51537C6.20236 3.67317 6.296 4.02265 6.13821 4.29596L4.99535 6.27545C4.83755 6.54876 4.48807 6.6424 4.21476 6.4846C3.94145 6.32681 3.84781 5.97733 4.00561 5.70402L5.14846 3.72453ZM18.0712 3.51537C17.7979 3.67317 17.7042 4.02265 17.862 4.29596L19.0049 6.27545C19.1627 6.54876 19.5121 6.6424 19.7855 6.4846C20.0588 6.32681 20.1524 5.97733 19.9946 5.70402L18.8518 3.72453C18.694 3.45122 18.3445 3.35758 18.0712 3.51537ZM16.5866 4.37252C16.3132 4.53031 16.2196 4.87979 16.3774 5.1531L17.5203 7.13259C17.6781 7.4059 18.0275 7.49954 18.3008 7.34175C18.5742 7.18395 18.6678 6.83447 18.51 6.56116L17.3671 4.58167C17.2093 4.30836 16.8599 4.21472 16.5866 4.37252ZM4.00561 12.296C3.84781 12.0226 3.94145 11.6732 4.21476 11.5154C4.48807 11.3576 4.83756 11.4512 4.99535 11.7245L6.13821 13.704C6.296 13.9773 6.20236 14.3268 5.92905 14.4846C5.65574 14.6424 5.30626 14.5488 5.14846 14.2754L4.00561 12.296ZM5.69938 10.6582C5.42607 10.816 5.33243 11.1655 5.49022 11.4388L6.63308 13.4183C6.79088 13.6916 7.14036 13.7853 7.41367 13.6275C7.68698 13.4697 7.78062 13.1202 7.62282 12.8469L6.47997 10.8674C6.32217 10.5941 5.97269 10.5004 5.69938 10.6582ZM17.5203 10.8674C17.6781 10.5941 18.0275 10.5004 18.3008 10.6582C18.5742 10.816 18.6678 11.1655 18.51 11.4388L17.3671 13.4183C17.2093 13.6916 16.8599 13.7853 16.5866 13.6275C16.3132 13.4697 16.2196 13.1202 16.3774 12.8469L17.5203 10.8674ZM19.7855 11.5154C19.5121 11.3576 19.1627 11.4512 19.0049 11.7245L17.862 13.704C17.7042 13.9773 17.7979 14.3268 18.0712 14.4846C18.3445 14.6424 18.694 14.5488 18.8518 14.2754L19.9946 12.296C20.1524 12.0227 20.0588 11.6732 19.7855 11.5154ZM7.41367 4.37252C7.14036 4.21472 6.79088 4.30836 6.63308 4.58167L5.49022 6.56116C5.33243 6.83447 5.42607 7.18395 5.69938 7.34175C5.97269 7.49954 6.32217 7.4059 6.47997 7.13259L7.62282 5.1531C7.78062 4.87979 7.68698 4.53031 7.41367 4.37252Z" fill="#262626"/>
</g>
</svg>
