<svg width="24" height="18" viewBox="0 0 24 18" fill="none" xmlns="http://www.w3.org/2000/svg">
<rect y="0.428467" width="24" height="17.1429" fill="white"/>
<mask id="mask0_30768_2787" style="mask-type:luminance" maskUnits="userSpaceOnUse" x="0" y="0" width="24" height="18">
<rect y="0.428467" width="24" height="17.1429" fill="white"/>
</mask>
<g mask="url(#mask0_30768_2787)">
<path fill-rule="evenodd" clip-rule="evenodd" d="M24 0.428467H0V1.57132H24V0.428467ZM24 2.71418H0V3.85704H24V2.71418ZM0 4.9999H24V6.14275H0V4.9999ZM24 7.28561H0V8.42847H24V7.28561ZM0 9.57132H24V10.7142H0V9.57132ZM24 11.857H0V12.9999H24V11.857ZM0 14.1428H24V15.2856H0V14.1428ZM24 16.4285H0V17.5713H24V16.4285Z" fill="#D02F44"/>
<rect y="0.428467" width="10.2857" height="8" fill="#46467F"/>
<g filter="url(#filter0_d_30768_2787)">
<path fill-rule="evenodd" clip-rule="evenodd" d="M1.71425 2.71415C2.02984 2.71415 2.28568 2.45831 2.28568 2.14272C2.28568 1.82713 2.02984 1.57129 1.71425 1.57129C1.39866 1.57129 1.14282 1.82713 1.14282 2.14272C1.14282 2.45831 1.39866 2.71415 1.71425 2.71415ZM3.99997 2.71415C4.31556 2.71415 4.57139 2.45831 4.57139 2.14272C4.57139 1.82713 4.31556 1.57129 3.99997 1.57129C3.68437 1.57129 3.42854 1.82713 3.42854 2.14272C3.42854 2.45831 3.68437 2.71415 3.99997 2.71415ZM6.85711 2.14272C6.85711 2.45831 6.60127 2.71415 6.28568 2.71415C5.97009 2.71415 5.71425 2.45831 5.71425 2.14272C5.71425 1.82713 5.97009 1.57129 6.28568 1.57129C6.60127 1.57129 6.85711 1.82713 6.85711 2.14272ZM8.57139 2.71415C8.88699 2.71415 9.14282 2.45831 9.14282 2.14272C9.14282 1.82713 8.88699 1.57129 8.57139 1.57129C8.2558 1.57129 7.99997 1.82713 7.99997 2.14272C7.99997 2.45831 8.2558 2.71415 8.57139 2.71415ZM3.42854 3.28557C3.42854 3.60117 3.1727 3.857 2.85711 3.857C2.54152 3.857 2.28568 3.60117 2.28568 3.28557C2.28568 2.96998 2.54152 2.71415 2.85711 2.71415C3.1727 2.71415 3.42854 2.96998 3.42854 3.28557ZM5.14282 3.857C5.45841 3.857 5.71425 3.60117 5.71425 3.28557C5.71425 2.96998 5.45841 2.71415 5.14282 2.71415C4.82723 2.71415 4.57139 2.96998 4.57139 3.28557C4.57139 3.60117 4.82723 3.857 5.14282 3.857ZM7.99997 3.28557C7.99997 3.60117 7.74413 3.857 7.42854 3.857C7.11295 3.857 6.85711 3.60117 6.85711 3.28557C6.85711 2.96998 7.11295 2.71415 7.42854 2.71415C7.74413 2.71415 7.99997 2.96998 7.99997 3.28557ZM8.57139 4.99986C8.88699 4.99986 9.14282 4.74402 9.14282 4.42843C9.14282 4.11284 8.88699 3.857 8.57139 3.857C8.2558 3.857 7.99997 4.11284 7.99997 4.42843C7.99997 4.74402 8.2558 4.99986 8.57139 4.99986ZM6.85711 4.42843C6.85711 4.74402 6.60127 4.99986 6.28568 4.99986C5.97009 4.99986 5.71425 4.74402 5.71425 4.42843C5.71425 4.11284 5.97009 3.857 6.28568 3.857C6.60127 3.857 6.85711 4.11284 6.85711 4.42843ZM3.99997 4.99986C4.31556 4.99986 4.57139 4.74402 4.57139 4.42843C4.57139 4.11284 4.31556 3.857 3.99997 3.857C3.68437 3.857 3.42854 4.11284 3.42854 4.42843C3.42854 4.74402 3.68437 4.99986 3.99997 4.99986ZM2.28568 4.42843C2.28568 4.74402 2.02984 4.99986 1.71425 4.99986C1.39866 4.99986 1.14282 4.74402 1.14282 4.42843C1.14282 4.11284 1.39866 3.857 1.71425 3.857C2.02984 3.857 2.28568 4.11284 2.28568 4.42843ZM2.85711 6.14272C3.1727 6.14272 3.42854 5.88688 3.42854 5.57129C3.42854 5.2557 3.1727 4.99986 2.85711 4.99986C2.54152 4.99986 2.28568 5.2557 2.28568 5.57129C2.28568 5.88688 2.54152 6.14272 2.85711 6.14272ZM5.71425 5.57129C5.71425 5.88688 5.45841 6.14272 5.14282 6.14272C4.82723 6.14272 4.57139 5.88688 4.57139 5.57129C4.57139 5.2557 4.82723 4.99986 5.14282 4.99986C5.45841 4.99986 5.71425 5.2557 5.71425 5.57129ZM7.42854 6.14272C7.74413 6.14272 7.99997 5.88688 7.99997 5.57129C7.99997 5.2557 7.74413 4.99986 7.42854 4.99986C7.11295 4.99986 6.85711 5.2557 6.85711 5.57129C6.85711 5.88688 7.11295 6.14272 7.42854 6.14272ZM9.14282 6.71415C9.14282 7.02974 8.88699 7.28557 8.57139 7.28557C8.2558 7.28557 7.99997 7.02974 7.99997 6.71415C7.99997 6.39855 8.2558 6.14272 8.57139 6.14272C8.88699 6.14272 9.14282 6.39855 9.14282 6.71415ZM6.28568 7.28557C6.60127 7.28557 6.85711 7.02974 6.85711 6.71415C6.85711 6.39855 6.60127 6.14272 6.28568 6.14272C5.97009 6.14272 5.71425 6.39855 5.71425 6.71415C5.71425 7.02974 5.97009 7.28557 6.28568 7.28557ZM4.57139 6.71415C4.57139 7.02974 4.31556 7.28557 3.99997 7.28557C3.68437 7.28557 3.42854 7.02974 3.42854 6.71415C3.42854 6.39855 3.68437 6.14272 3.99997 6.14272C4.31556 6.14272 4.57139 6.39855 4.57139 6.71415ZM1.71425 7.28557C2.02984 7.28557 2.28568 7.02974 2.28568 6.71415C2.28568 6.39855 2.02984 6.14272 1.71425 6.14272C1.39866 6.14272 1.14282 6.39855 1.14282 6.71415C1.14282 7.02974 1.39866 7.28557 1.71425 7.28557Z" fill="url(#paint0_linear_30768_2787)"/>
</g>
</g>
<defs>
<filter id="filter0_d_30768_2787" x="1.14282" y="1.57129" width="8" height="7.71436" filterUnits="userSpaceOnUse" color-interpolation-filters="sRGB">
<feFlood flood-opacity="0" result="BackgroundImageFix"/>
<feColorMatrix in="SourceAlpha" type="matrix" values="0 0 0 0 0 0 0 0 0 0 0 0 0 0 0 0 0 0 127 0" result="hardAlpha"/>
<feOffset dy="2"/>
<feColorMatrix type="matrix" values="0 0 0 0 0 0 0 0 0 0 0 0 0 0 0 0 0 0 0.06 0"/>
<feBlend mode="normal" in2="BackgroundImageFix" result="effect1_dropShadow_30768_2787"/>
<feBlend mode="normal" in="SourceGraphic" in2="effect1_dropShadow_30768_2787" result="shape"/>
</filter>
<linearGradient id="paint0_linear_30768_2787" x1="1.14282" y1="1.57129" x2="1.14282" y2="7.28557" gradientUnits="userSpaceOnUse">
<stop stop-color="white"/>
<stop offset="1" stop-color="#F0F0F0"/>
</linearGradient>
</defs>
</svg>
