<svg width="34" height="28" viewBox="0 0 34 28" fill="none" xmlns="http://www.w3.org/2000/svg">
<circle cx="12" cy="12" r="12" fill="black"/>
<g clip-path="url(#clip0_1691_39866)">
<path d="M6.75002 14.45C6.79533 14.5434 7.04783 14.7103 7.10002 14.8C7.17522 14.9313 7.11096 15.1322 7.10002 15.15C7.09182 15.1664 6.60647 15.6107 6.05002 16.2C5.49358 16.7893 5.00549 17.2377 5.00002 17.25C5.55931 17.8129 6.1728 18.4555 6.75002 19L7.80002 17.95L8.50002 16.9H8.85002C9.01837 17.0087 9.37047 17.1611 9.55002 17.25C9.66077 16.6689 9.65803 16.051 9.90002 15.5C9.16584 15.1199 8.76799 14.2422 8.50002 13.4C8.29841 13.4786 7.98702 13.6411 7.80002 13.75C7.41037 14.0139 7.12463 14.1902 6.75002 14.45ZM9.90002 7.8C9.79338 7.63867 9.66487 7.60586 9.55002 7.45C9.29544 7.38714 9.01073 6.95721 8.85002 6.75V7.1V6.75C8.57006 6.47758 8.08243 6.31989 7.80002 6.05C7.42268 5.68633 7.19162 5.0916 7.10002 5H6.75002L6.05002 6.05C5.59202 6.53672 5.00412 6.7418 5.00002 6.75C4.99592 6.7582 5.5428 7.31191 6.05002 7.8L7.10002 8.5V8.85C7.06174 8.9138 6.78466 9.13438 6.75002 9.2C7.28323 9.55137 7.94221 9.92188 8.50002 10.25C8.86096 9.57188 9.47346 8.87871 10.25 8.5C10.1633 8.37043 10.3411 8.27654 10.25 8.15C10.1817 8.0543 9.95471 7.8957 9.90002 7.8ZM16.9 8.85L17.95 7.8C18.4887 7.23125 19.0041 6.75957 19 6.75C18.9877 6.71445 17.2719 5 17.25 5C17.2364 5 16.7127 5.50449 16.2 6.05C15.6846 6.59414 15.1596 7.0959 15.15 7.1C15.1405 7.1041 15.1992 7.13418 15.15 7.1C15.053 7.03438 14.4172 7.02207 14.1 7.1C13.9223 7.49648 13.9072 8.09805 13.75 8.5C13.921 8.58895 13.9433 8.73777 14.1 8.85C14.3543 9.03184 14.9709 9.29297 15.15 9.55C15.1938 9.61289 15.4604 9.83301 15.5 9.9C16.0701 9.65938 16.6799 9.44883 17.25 9.2C17.2158 9.13438 16.9287 8.89922 16.9 8.85ZM17.25 15.5L16.9 15.15C16.941 15.0816 17.2117 14.8711 17.25 14.8C16.7633 14.3734 16.0223 13.8047 15.5 13.4C15.3114 13.9674 15.1897 14.4309 14.8 14.8C14.5963 14.9914 14.383 15.3674 14.1 15.5C14.2094 16.0195 14.5813 16.4352 14.8 16.9C14.8274 16.9574 14.7819 17.1891 14.8 17.25C14.8711 17.2108 15.0817 16.941 15.15 16.9L15.5 17.25C16.1461 17.8792 16.5973 18.3777 17.25 19C17.2678 19.0055 19.0028 17.2705 19 17.25C18.9987 17.2391 17.9528 16.1699 17.25 15.5Z" fill="white"/>
<path d="M11.9999 17.95C10.594 17.9495 9.23802 17.4046 8.14988 16.55C7.06175 15.6955 6.32906 14.3728 6.04988 13.05C5.77071 11.7273 6.09406 10.3938 6.74988 9.20005C7.40571 8.0063 8.25514 6.9259 9.54988 6.40005C11.0389 5.7961 13.3021 5.81635 14.7999 6.40005C16.2976 6.98375 17.6708 8.12063 18.2999 9.55005C18.929 10.9795 18.9079 12.6622 18.2999 14.1C17.6919 15.5379 16.6389 16.9961 15.1499 17.6C14.3995 17.9049 12.8148 17.9516 11.9999 17.95ZM11.9999 8.50005C9.9563 8.50005 8.49988 10.0382 8.49988 12.0001C8.49988 13.9619 9.9563 15.5 11.9999 15.5C14.0435 15.5 16.1999 13.9619 16.1999 12.0001C16.1999 10.0382 14.0435 8.50005 11.9999 8.50005Z" fill="white"/>
</g>
<circle cx="24" cy="20" r="8" fill="white"/>
<g clip-path="url(#clip1_1691_39866)">
<path d="M23.5842 13.9999L23.5059 14.2764V22.3005L23.5842 22.3817L27.1688 20.18L23.5842 13.9999Z" fill="#343434"/>
<path d="M23.5846 13.9999L20 20.1801L23.5846 22.3818V18.4871V13.9999Z" fill="#8C8C8C"/>
<path d="M23.5832 23.087L23.5391 23.1428V26.0012L23.5832 26.1351L27.17 20.8864L23.5832 23.087Z" fill="#3C3C3B"/>
<path d="M23.5846 26.1351V23.087L20 20.8864L23.5846 26.1351Z" fill="#8C8C8C"/>
<path d="M23.5859 22.3818L27.1705 20.1801L23.5859 18.4872V22.3818Z" fill="#141414"/>
<path d="M20 20.1801L23.5846 22.3818V18.4872L20 20.1801Z" fill="#393939"/>
</g>
<defs>
<clipPath id="clip0_1691_39866">
<rect width="14" height="14" fill="white" transform="translate(5 5)"/>
</clipPath>
<clipPath id="clip1_1691_39866">
<rect width="7.17241" height="12.1379" fill="white" transform="translate(20 14)"/>
</clipPath>
</defs>
</svg>
