<svg width="146" height="50" viewBox="0 0 146 50" fill="none" xmlns="http://www.w3.org/2000/svg">
<path fill-rule="evenodd" clip-rule="evenodd" d="M21.6079 1.2902C20.6432 1.48249 19.9423 2.53305 20.147 3.47948C20.5408 5.29817 22.9288 5.61006 23.7052 3.9442C24.3583 2.54279 23.1288 0.987047 21.6079 1.2902ZM2.59457 12.25C0.955576 12.7942 0.734387 14.9552 2.23663 15.7466C3.86367 16.6039 5.60878 14.8623 4.78604 13.2027C4.41515 12.4543 3.36027 11.9958 2.59457 12.25ZM40.292 12.2795C39.1267 12.6918 38.6348 14.0568 39.2847 15.0751C40.344 16.7352 42.8469 15.9256 42.753 13.9531C42.6949 12.738 41.4291 11.877 40.292 12.2795ZM20.1552 15.9588C18.7138 16.2235 17.6128 17.0549 16.9435 18.3844C16.7726 18.7232 16.7674 18.7125 17.1156 18.7439C18.0323 18.8274 18.9103 19.1907 19.5599 19.7558L19.7532 19.9239L20.1826 19.777C20.4188 19.6961 20.6185 19.6249 20.6265 19.6187C20.6347 19.6125 20.6026 19.4891 20.5553 19.3445C20.2975 18.5567 20.3739 18.1234 20.756 18.2076C20.914 18.2423 20.9444 18.2999 21.0021 18.6753C21.0275 18.8406 21.0921 19.0935 21.1456 19.2371L21.2428 19.4981L21.7785 19.5261C23.0422 19.5922 24.1643 20.1491 24.8986 21.0748L25.0269 21.2364L25.2127 20.8665C25.7062 19.8857 26.1438 19.4666 26.4034 19.7268C26.5438 19.8679 26.506 19.992 26.1979 20.3986C25.6282 21.1507 25.3856 21.7972 25.5243 22.193C25.6401 22.5242 25.7373 22.9856 25.7383 23.2101C25.739 23.4124 25.7373 23.4109 26.1802 23.579C27.5257 24.0899 28.5054 25.2706 28.7919 26.7264L28.8628 27.0875L29.1707 27.1165C29.3498 27.1332 29.7063 27.1227 30.0228 27.0912L30.5669 27.0373L30.6438 27.1324C30.9524 27.5143 30.38 27.7582 29.288 27.7105C28.8536 27.6913 28.8526 27.6921 28.8526 27.9683C28.8526 28.1705 28.7522 28.6592 28.6412 28.9971C28.5575 29.2508 28.5572 29.2615 28.6302 29.4965C28.6867 29.6788 28.7072 29.9011 28.7146 30.422C28.7261 31.2331 28.6661 31.1651 29.3767 31.1694C32.9852 31.1904 34.5199 26.6607 31.6598 24.43C31.3766 24.2093 31.3014 24.0487 31.4115 23.9004C31.5699 23.6866 31.7403 23.7163 32.0908 24.0195C32.4308 24.3136 32.4103 24.3171 32.6099 23.9276C33.7489 21.7031 31.0511 19.4454 29.0103 20.9152C28.7037 21.136 28.3961 21.0558 28.3961 20.7554C28.3961 20.5866 29.0118 20.1618 29.4858 20.0035C29.7197 19.9254 29.3827 18.7692 28.9565 18.1871C27.5492 16.2658 24.7135 16.3726 23.4335 18.3951C23.1861 18.7859 23.015 18.8688 22.8329 18.6865C22.6406 18.4935 22.8606 18.0477 23.4571 17.4222L23.8273 17.0339L23.6726 16.9105C22.6172 16.0682 21.381 15.7336 20.1552 15.9588ZM16.3096 19.2706C14.5543 19.4294 13.2089 20.6765 13.1287 22.2193L13.1061 22.6515L13.2266 22.63C13.2926 22.6181 13.4941 22.5838 13.674 22.5536L14.0013 22.4987L14.0997 22.6136C14.2626 22.8033 14.1448 23.098 13.9059 23.098C13.8055 23.098 13.2329 23.2389 12.9526 23.3325C12.2405 23.57 11.4404 24.3591 11.1221 25.1377C10.1681 27.4703 11.8818 30.0032 14.356 29.9173C14.8571 29.9001 14.8173 29.9415 14.7682 29.4868C14.687 28.7349 14.8711 27.8439 15.2395 27.2024C15.3302 27.0445 15.3992 26.9112 15.3927 26.906C15.04 26.6078 13.9223 26.4824 13.2819 26.6692C12.8759 26.7873 12.7267 26.7873 12.6435 26.6682C12.174 25.996 14.2544 25.731 15.512 26.3026L15.785 26.4267L15.9982 26.234C16.6404 25.6531 17.1054 25.4993 17.2295 25.8267C17.2907 25.988 17.2135 26.1134 16.9674 26.2527C15.1832 27.2621 14.7794 29.8266 16.1678 31.3289C17.1824 32.4265 18.6039 32.6604 19.9859 31.9575C20.4392 31.727 20.4723 31.7377 20.7366 32.202C22.0012 34.4237 25.3432 34.7948 27.192 32.9184C28.6613 31.4273 28.5323 29.2063 26.8936 27.7847C26.5214 27.4621 26.5266 27.0935 26.9033 27.0935C27.0754 27.0935 27.7943 27.7797 28.076 28.2127L28.2488 28.4784L28.2875 28.3166C28.3086 28.2277 28.3268 27.8926 28.3281 27.5722C28.3398 24.4113 24.8735 22.7254 22.5878 24.7804C22.2493 25.0845 22.1215 25.1212 21.9683 24.9579C21.8199 24.7996 21.8513 24.6692 22.0961 24.4273C22.7931 23.7383 23.6786 23.3585 24.6827 23.3178L25.2247 23.2958L25.192 23.0224C24.9395 20.919 22.5963 19.5505 20.4081 20.2283C20.0182 20.3489 19.2334 20.8858 18.8647 21.2838C18.5494 21.6242 18.4722 21.6551 18.2928 21.5136C18.0343 21.3098 18.2637 20.9455 19.0525 20.3067L19.2361 20.1581L18.9693 19.9683C18.4722 19.615 17.7784 19.3383 17.2701 19.2908C16.7275 19.2401 16.6618 19.2389 16.3096 19.2706ZM17.0399 23.1197C17.4756 23.4776 18.0557 23.6327 18.6014 23.537C18.9928 23.4686 19.0799 23.4858 19.1639 23.6486C19.5482 24.394 17.4457 24.3019 16.6272 23.5378C16.1923 23.1317 16.5786 22.7407 17.0399 23.1197ZM30.1292 23.1098C30.4117 23.3705 30.2149 23.5717 29.652 23.5974C29.2253 23.6172 29.1804 23.6279 28.8805 23.7825C28.4474 24.006 28.1958 23.9056 28.286 23.5455C28.3871 23.1412 29.8009 22.8068 30.1292 23.1098ZM20.8818 24.43C21.0054 24.5539 20.9837 24.6947 20.7991 24.9656C18.9619 27.6638 22.4777 30.5756 24.8563 28.3258C25.2424 27.9608 25.5315 27.9717 25.5315 28.3513C25.5315 28.5728 24.7088 29.3037 24.309 29.4373C24.2811 29.4468 24.2986 29.5567 24.3569 29.74C24.6356 30.6158 24.5915 31.1724 24.243 31.1724C24.0261 31.1724 23.9708 31.0765 23.9371 30.6415C23.9224 30.4524 23.8686 30.1643 23.8176 30.0009L23.7249 29.704L22.9779 29.697C21.7347 29.6853 20.8206 29.1989 20.2384 28.2394C20.0432 27.9181 20.029 27.9163 19.536 28.1573C19.1806 28.3311 18.7623 28.663 18.5352 28.9519C18.239 29.3282 18.095 29.3871 17.9057 29.2088C17.5555 28.879 18.6346 27.8234 19.7241 27.4304L19.8327 27.3914L19.7781 27.0862C19.55 25.8069 20.3453 23.8921 20.8818 24.43ZM2.64688 34.1088C1.69985 34.339 1.05372 35.3606 1.2617 36.2986C1.71704 38.3497 4.54866 38.33 4.96713 36.2726C5.2359 34.9516 3.98398 33.7839 2.64688 34.1088ZM40.3936 34.1195C39.4244 34.3735 38.8022 35.4056 39.0458 36.3555C39.4279 37.8466 41.2121 38.3368 42.2503 37.2363C43.5515 35.8571 42.2299 33.6383 40.3936 34.1195ZM21.3733 45.0874C20.0544 45.5651 19.6845 47.2746 20.6935 48.2313C21.9016 49.3768 23.8729 48.5435 23.8821 46.8836C23.8891 45.5866 22.5811 44.6499 21.3733 45.0874Z" fill="#FB5BAB"/>
<path fill-rule="evenodd" clip-rule="evenodd" d="M21.5667 0.0393702C20.7375 0.171221 20.0493 0.573017 19.4986 1.24725C19.0233 1.8286 18.7874 2.9261 18.9426 3.83382L18.9755 4.02586L15.6008 5.9754C13.7446 7.04769 12.0297 8.03707 11.7901 8.17416C11.5502 8.31126 11.3447 8.43362 11.3335 8.4466C11.322 8.45934 11.2565 8.4978 11.188 8.53201C11.0261 8.61316 10.5713 8.87686 10.5446 8.90533C10.5332 8.91757 10.4492 8.96677 10.3578 9.01496C9.95852 9.22572 9.68876 9.38004 9.62798 9.43273C9.59186 9.4637 9.54055 9.48917 9.5139 9.48917C9.48725 9.48917 9.46533 9.50366 9.46533 9.52114C9.46533 9.53862 9.39508 9.58507 9.30965 9.62477C9.22396 9.66423 9.07924 9.74238 8.98782 9.79882C8.89641 9.85501 8.77511 9.92718 8.71807 9.95889C8.66102 9.99061 8.53946 10.06 8.44805 10.113C8.35688 10.1657 8.17929 10.265 8.05375 10.3337C7.92821 10.4021 7.79743 10.4791 7.76306 10.5043C7.72893 10.5297 7.6562 10.5757 7.60165 10.6064C7.32766 10.7612 7.19165 10.8396 7.07807 10.9081C7.00957 10.9493 6.90695 11.0092 6.84991 11.0409C6.79287 11.0729 6.67853 11.1376 6.59609 11.185C6.51364 11.2322 6.40155 11.2961 6.347 11.3271C6.29245 11.3578 6.21972 11.4038 6.18559 11.4292C6.15122 11.4544 6.02044 11.5314 5.8949 11.6C5.76936 11.6685 5.60148 11.7616 5.52152 11.807L5.37655 11.8892L5.12722 11.6872C4.98997 11.5758 4.85397 11.4654 4.82483 11.4415C4.79568 11.4177 4.64623 11.3416 4.49279 11.2724C4.3391 11.203 4.1762 11.1293 4.13062 11.1083C3.93832 11.0204 3.56071 10.9687 3.11359 10.9687C2.66623 10.9687 2.28862 11.0204 2.09632 11.1083C2.05074 11.1293 1.88783 11.203 1.7344 11.2724C1.58096 11.3416 1.43151 11.418 1.40211 11.4422C1.37297 11.4664 1.2417 11.5718 1.11043 11.6762C0.45309 12.1994 0.0533048 12.9957 0.0102127 13.8687C-0.0107107 14.294 0.0465791 14.8686 0.125042 15.0217C0.143474 15.0576 0.190551 15.1777 0.229409 15.2886C0.492196 16.0363 1.40959 16.8741 2.17777 17.0678L2.36658 17.1155L2.35587 25.0036L2.34541 32.8919L2.17952 32.9489C2.0881 32.9803 1.95459 33.0338 1.8826 33.0675C1.81062 33.1014 1.73315 33.1292 1.71048 33.1292C1.66017 33.1292 1.0524 33.5624 0.925859 33.6883C0.616991 33.9962 0.165892 34.7271 0.165892 34.9196C0.165892 34.9558 0.149452 35.0033 0.129276 35.025C0.0697438 35.0887 0 35.5856 0 35.9447C0 38.6764 3.17612 40.0698 5.24728 38.2466L5.38054 38.1292L7.57849 39.4001C8.78756 40.0988 9.83273 40.7031 9.90123 40.7425C9.96973 40.782 10.1531 40.8879 10.309 40.9775C10.4647 41.0674 10.6236 41.1598 10.6617 41.1828C10.7001 41.2058 10.8717 41.3049 11.0428 41.4033C11.2142 41.5014 11.4194 41.6213 11.4994 41.6692C11.5793 41.7172 11.7475 41.8126 11.873 41.8813C11.9985 41.9497 12.1293 42.0266 12.1637 42.0521C12.1978 42.0773 12.2705 42.1232 12.3251 42.1542C12.5993 42.3088 12.7353 42.3872 12.8487 42.4556C12.9172 42.4968 13.0201 42.5567 13.0771 42.5887C13.1341 42.6204 13.251 42.6868 13.3364 42.7365C13.4221 42.786 13.5563 42.8629 13.6348 42.9076C13.7133 42.952 13.8485 43.0322 13.9357 43.0854C14.0229 43.1386 14.1502 43.2097 14.2187 43.2437C14.2872 43.2774 14.3524 43.3144 14.3639 43.3259C14.3753 43.3374 14.4409 43.3748 14.5093 43.4093C14.5778 43.4435 14.6431 43.4819 14.6546 43.4949C14.6765 43.5194 14.9776 43.6927 15.2566 43.841C15.3478 43.8897 15.432 43.9389 15.4434 43.9504C15.4549 43.9619 15.5201 43.9991 15.5886 44.0336C15.6571 44.0678 15.7224 44.1062 15.7339 44.1192C15.7558 44.1437 16.0569 44.317 16.3359 44.4653C16.4273 44.514 16.5113 44.5645 16.5227 44.5777C16.5342 44.5909 16.6929 44.6863 16.8757 44.7895C18.71 45.8265 18.9802 45.9981 18.9538 46.1102C18.3037 48.8626 21.3249 51.0174 23.7019 49.4964C24.7767 48.8087 25.3808 47.2879 25.039 46.1302C25.0029 46.0083 25.0099 45.9951 25.1519 45.9177C25.6702 45.6345 25.808 45.5568 25.8635 45.5156C25.9347 45.4627 26.0391 45.4025 26.3617 45.2277C26.4872 45.1595 26.618 45.0831 26.6524 45.0577C26.6865 45.0324 26.7592 44.9865 26.8138 44.9555C27.0995 44.7942 27.2243 44.722 27.3374 44.6531C27.4059 44.6112 27.5179 44.5485 27.5864 44.5135C27.6549 44.4788 27.7857 44.4029 27.8769 44.345C27.9683 44.2873 28.0709 44.2281 28.1053 44.2136C28.1394 44.1991 28.1955 44.1644 28.2298 44.1364C28.264 44.1085 28.4134 44.0223 28.5619 43.9452C28.7103 43.8677 28.8411 43.7951 28.8526 43.7838C28.864 43.7724 28.9153 43.7396 28.9666 43.7109C29.0182 43.6822 29.1021 43.6355 29.1535 43.6068C29.205 43.5783 29.275 43.5341 29.3091 43.5087C29.3435 43.4832 29.4743 43.406 29.5998 43.3369C29.8105 43.2207 30.4898 42.8319 30.783 42.6596C30.8515 42.6192 31.1036 42.4733 31.3434 42.335C31.5833 42.1969 33.3192 41.194 35.2013 40.1068L38.6233 38.1297L38.8337 38.3063C40.8357 39.9846 43.8431 38.7246 43.9926 36.1447C44.0571 35.0338 43.549 33.952 42.6971 33.3856C42.4241 33.2043 42.3705 33.1726 42.2617 33.1282C42.2046 33.1049 42.1207 33.0677 42.0749 33.0458C42.0293 33.0235 41.9172 32.9818 41.8258 32.9526L41.6599 32.8999L41.6494 25.0061L41.6387 17.1123L41.774 17.0853C43.2852 16.7844 44.371 14.7734 43.881 13.183C43.3627 11.5006 41.343 10.4556 39.8747 11.1101C39.8291 11.1306 39.6562 11.2077 39.4906 11.2816C39.3252 11.3556 39.1897 11.4307 39.1897 11.4487C39.1897 11.4667 39.1521 11.4934 39.106 11.5081C39.0599 11.5226 38.9339 11.6163 38.8258 11.7162L38.6292 11.8977L38.4631 11.8038C37.5081 11.2642 35.9279 10.3387 35.9169 10.313C35.9095 10.2948 35.8878 10.28 35.8691 10.28C35.8392 10.28 35.6586 10.1816 35.1732 9.90046C34.9353 9.76261 34.7318 9.64674 34.54 9.53986C34.4373 9.48268 34.3036 9.40102 34.2431 9.35857C34.1825 9.31587 34.1123 9.28116 34.0874 9.28116C34.0625 9.28116 34.0418 9.26692 34.0418 9.24944C34.0418 9.23196 33.9718 9.18526 33.8861 9.14581C33.8007 9.10635 33.6557 9.02794 33.5645 8.97151C33.4731 8.91532 33.3518 8.84315 33.2945 8.81144C33.1448 8.72803 32.8783 8.57371 32.7341 8.48681C32.6656 8.44535 32.563 8.38567 32.5059 8.35371C32.4489 8.32199 32.3345 8.25707 32.2521 8.20987C32.1697 8.16243 32.0576 8.0985 32.003 8.06778C31.9485 8.03682 31.8757 7.99087 31.8416 7.96565C31.8072 7.94018 31.6767 7.86326 31.5509 7.79484C31.4254 7.72617 31.2572 7.63078 31.1773 7.58283C31.0973 7.53489 30.8921 7.41502 30.7207 7.31688C30.5496 7.21849 30.377 7.11936 30.3371 7.09638C30.2975 7.07341 29.0869 6.3732 27.647 5.54014L25.0286 4.02586L25.0619 3.79212C25.383 1.54716 23.6675 -0.295001 21.5667 0.0393702ZM22.6196 1.33715C23.9308 1.78914 24.3311 3.43053 23.3813 4.45912C22.2166 5.72044 20.0929 4.8699 20.0929 3.14236C20.0929 1.83434 21.3852 0.911135 22.6196 1.33715ZM19.8854 5.45424C19.8854 5.57336 20.7991 6.08128 21.1667 6.16618L21.3799 6.21563V10.552V14.8883L20.9129 14.8871C19.2923 14.8821 17.7029 15.6205 16.7666 16.8134C16.6316 16.9857 16.505 17.1465 16.4859 17.1707C16.4453 17.2219 16.1309 17.7808 15.9745 18.0794C15.8701 18.279 15.8611 18.285 15.5622 18.3599C14.8132 18.5477 14.0423 18.912 13.6587 19.2594C13.5556 19.3528 13.4091 19.3862 13.4091 19.3163C13.4091 19.2961 13.3765 19.2686 13.3364 19.2554C13.2965 19.2421 13.1518 19.164 13.0148 19.0818C12.8778 18.9994 12.7329 18.9217 12.693 18.9088C12.6531 18.896 12.6203 18.8726 12.6203 18.8566C12.6203 18.8406 12.555 18.8019 12.475 18.7704C12.3951 18.739 12.3298 18.698 12.3298 18.6795C12.3298 18.6608 12.3102 18.6456 12.2862 18.6456C12.2623 18.6456 12.1455 18.5834 12.0267 18.5075C11.9079 18.4316 11.7502 18.3429 11.676 18.3102C11.6018 18.2775 11.541 18.24 11.541 18.227C11.541 18.214 11.4755 18.1776 11.3958 18.1461C11.3158 18.1147 11.2503 18.0757 11.2503 18.0597C11.2503 18.0435 11.1803 17.9995 11.0946 17.9623C11.0092 17.9249 10.855 17.84 10.7521 17.7738C10.6495 17.7074 10.5421 17.6517 10.5135 17.6499C10.4848 17.6482 10.4617 17.6302 10.4617 17.6102C10.4617 17.59 10.4009 17.5491 10.3267 17.5188C10.2524 17.4889 10.1824 17.4517 10.171 17.4362C10.1595 17.4209 10.033 17.345 9.88977 17.2674C9.7463 17.19 9.56621 17.0891 9.48949 17.0431C9.41277 16.9974 9.20329 16.8758 9.02369 16.7729C8.8441 16.67 8.66501 16.5669 8.6254 16.5439C8.58605 16.521 7.99272 16.1764 7.30723 15.7783C6.44913 15.2801 6.0725 15.0401 6.09866 15.0084C6.17886 14.9113 6.23914 14.2648 6.20751 13.8417C6.15122 13.0878 6.08695 13.216 6.68377 12.8901C6.80931 12.8216 6.94008 12.7447 6.97445 12.7193C7.00858 12.694 7.08131 12.6481 7.13586 12.6171C7.19016 12.5864 7.30225 12.5225 7.38495 12.475C7.4674 12.4278 7.58147 12.3629 7.63852 12.3312C7.69581 12.2992 7.79843 12.2396 7.86693 12.1981C7.98027 12.1297 8.11627 12.0515 8.39051 11.8967C8.44506 11.866 8.51755 11.8198 8.55192 11.7941C8.58605 11.7681 8.7355 11.6839 8.88395 11.6068C9.03241 11.5294 9.16318 11.4567 9.17464 11.4455C9.1861 11.434 9.2399 11.3995 9.29445 11.3685C9.349 11.3378 9.45511 11.2779 9.53059 11.2357C9.60581 11.1932 9.73857 11.1148 9.82576 11.0616C9.91294 11.0085 10.0402 10.9373 10.1087 10.9033C10.1772 10.8696 10.2425 10.8312 10.2539 10.8179C10.2654 10.8047 10.4243 10.7093 10.6069 10.6062C10.7895 10.503 11.266 10.2293 11.6655 9.9981C20.0568 5.1411 19.8854 5.23574 19.8854 5.45424ZM27.026 6.92982C28.3616 7.70195 29.5572 8.39091 29.6828 8.46084C29.8085 8.53051 29.9824 8.63239 30.0696 8.68683C30.1568 8.74152 30.2875 8.81943 30.3603 8.85989C30.571 8.97775 31.0493 9.25319 31.1917 9.33934C31.2637 9.38254 31.4254 9.47419 31.5509 9.54286C31.6767 9.61129 31.8072 9.6882 31.8416 9.71367C31.8757 9.73889 31.9485 9.78484 32.003 9.8158C32.0576 9.84652 32.1697 9.91045 32.2521 9.95789C32.3345 10.0051 32.4489 10.07 32.5059 10.1017C32.563 10.1337 32.6656 10.1934 32.7341 10.2348C32.8477 10.3033 32.9837 10.3814 33.2577 10.5362C33.3122 10.567 33.3849 10.6131 33.4191 10.6389C33.4534 10.6648 33.6029 10.749 33.7514 10.8262C33.8996 10.9036 34.0303 10.976 34.0418 10.9875C34.0627 11.0085 34.1833 11.0801 34.3741 11.1848C34.4311 11.216 34.5524 11.2871 34.6438 11.3431C34.7353 11.3988 34.8752 11.4764 34.9552 11.5156C35.0352 11.5546 35.1099 11.597 35.1213 11.6098C35.1328 11.6225 35.1981 11.6607 35.2666 11.6952C35.3351 11.7294 35.4003 11.7686 35.4118 11.7823C35.4337 11.8085 35.7311 11.9794 36.0138 12.1279C36.1052 12.1761 36.1892 12.2253 36.2006 12.2373C36.2273 12.2658 36.6821 12.5297 36.844 12.6106C36.9125 12.6451 36.978 12.6838 36.9895 12.6973C37.0007 12.7105 37.2032 12.8304 37.4393 12.9637C37.8414 13.191 37.8668 13.213 37.8424 13.3143C37.7751 13.5918 37.7711 14.4673 37.8359 14.7722C37.872 14.9422 37.8972 15.0843 37.8917 15.0878C37.8865 15.0916 36.5391 15.8699 34.8982 16.8179C33.2569 17.7658 31.8653 18.5699 31.8052 18.6046C31.7455 18.6393 31.5562 18.7477 31.385 18.8453C31.2137 18.943 31.0455 19.0406 31.0114 19.0623C30.977 19.0841 30.8512 19.1577 30.7314 19.2261L30.514 19.3505L30.4886 19.2374C30.3752 18.7317 30.3538 18.669 30.1346 18.2086C29.8257 17.5588 28.7557 16.3981 28.4657 16.3981C28.452 16.3981 28.3514 16.3457 28.242 16.2817C27.2973 15.7289 25.7758 15.6475 24.6502 16.0897L24.3956 16.1896L24.2205 16.0545C24.1241 15.9803 24.0108 15.8964 23.9684 15.8682C23.9261 15.84 23.8212 15.7701 23.7351 15.7129C23.5423 15.5845 23.0867 15.3525 22.8226 15.2482L22.6256 15.1702V10.6901L22.6254 6.20963L22.8433 6.15894C23.2483 6.06505 23.8688 5.7142 24.152 5.41903L24.2467 5.32064L24.422 5.42328C24.5184 5.47971 25.6901 6.15744 27.026 6.92982ZM3.63693 12.2406C4.79145 12.5979 5.35289 13.876 4.81984 14.9325C3.9184 16.719 1.21281 16.086 1.20484 14.0865C1.19985 12.8192 2.44728 11.8722 3.63693 12.2406ZM41.3216 12.2188C42.5095 12.526 43.1208 13.7823 42.6179 14.8836C41.8734 16.514 39.4276 16.2668 39.026 14.5205C38.7075 13.135 39.9696 11.8695 41.3216 12.2188ZM21.9521 15.9971C22.4532 16.1294 23.0991 16.4488 23.5273 16.7762L23.8688 17.0374L23.4852 17.4357C22.7492 18.1998 22.5648 18.7427 23.0416 18.7427C23.1903 18.7427 23.1863 18.7467 23.4586 18.3257C25.0906 15.802 28.9786 16.5482 29.5378 19.4921C29.6262 19.9576 29.624 19.9721 29.4441 20.0437C28.6002 20.3803 28.2523 20.7409 28.5467 20.9732C28.6944 21.0895 28.721 21.085 29.0028 20.8928C31.1409 19.4347 33.7673 21.6681 32.614 23.964C32.4205 24.3494 32.4377 24.3471 32.0715 24.0352C31.7298 23.744 31.609 23.7066 31.468 23.8479C31.3235 23.9928 31.3609 24.1286 31.603 24.3404C32.4723 25.1002 32.7966 25.5555 33.0317 26.3451C33.7994 28.9247 31.5295 31.5772 28.8942 31.1804L28.7073 31.1521L28.7031 30.5279C28.7004 30.0896 28.6774 29.8127 28.6264 29.5982C28.5477 29.2675 28.5507 29.2211 28.6812 28.7723C28.729 28.608 28.79 28.2954 28.8167 28.0776L28.8653 27.6818L29.409 27.6848C30.301 27.6901 30.6791 27.5862 30.6791 27.336C30.6791 27.0843 30.5025 26.9993 30.1807 27.0965C30.101 27.1207 29.7876 27.1412 29.4845 27.1422C28.8996 27.1444 28.811 27.1192 28.811 26.9517C28.811 26.7386 28.596 26.0612 28.4032 25.6676C27.8873 24.6136 27.0688 23.8886 25.999 23.5383C25.7337 23.4514 25.7529 23.4831 25.6976 23.0378C25.6727 22.8361 25.5987 22.5044 25.5335 22.3012L25.4149 21.9316L25.4879 21.6934C25.6431 21.1857 25.9233 20.6783 26.2939 20.2335C26.5463 19.9311 26.4481 19.5822 26.133 19.6617C25.9709 19.7024 25.5175 20.3102 25.2704 20.8181C25.0149 21.344 25.0654 21.3263 24.7874 20.9887C24.0586 20.1039 22.8752 19.56 21.6691 19.5558C21.2619 19.5543 21.2529 19.5523 21.1968 19.4434C21.1109 19.2758 21.0083 18.906 20.9662 18.6116C20.9219 18.2999 20.8733 18.2293 20.7034 18.2293C20.3604 18.2293 20.3402 18.7577 20.6523 19.5645C20.6725 19.6172 20.5858 19.6619 20.2159 19.7888L19.7544 19.9471L19.6435 19.8572C18.8268 19.1954 18.0491 18.8538 17.2055 18.7859C16.7424 18.7484 16.7479 18.7557 16.9153 18.4058C17.8309 16.4902 19.9606 15.4717 21.9521 15.9971ZM12.6517 20.3277C12.6601 20.3364 12.5981 20.481 12.5137 20.649C12.2369 21.2002 12.1231 21.6741 12.1226 22.2787C12.1221 22.5986 12.1203 22.6043 11.9933 22.6742C10.7207 23.3747 9.8397 24.9277 9.8397 26.4699C9.8397 27.4151 10.2285 28.615 10.7003 29.1252C10.7289 29.1559 10.7521 29.1959 10.7521 29.2138C10.7521 29.268 11.328 29.8344 11.5676 30.0159C11.6912 30.1093 11.7871 30.1905 11.7808 30.1962C11.7744 30.2022 11.7019 30.2447 11.6194 30.2906C11.3151 30.4607 11.2697 30.4872 11.2089 30.5326C11.1746 30.5578 11.0438 30.6345 10.9183 30.7024C10.5957 30.8772 10.4913 30.9374 10.4201 30.9903C10.3857 31.0158 10.2549 31.0927 10.1294 31.1611C10.0039 31.2298 9.83572 31.326 9.75576 31.3746C9.6758 31.4236 9.56396 31.4863 9.50667 31.5137C9.44963 31.5412 9.37491 31.5857 9.34078 31.6124C9.30641 31.6388 9.17564 31.7168 9.0501 31.7854C8.72603 31.9622 8.53922 32.0694 8.35738 32.1835C8.2702 32.2382 8.09634 32.3396 7.9708 32.4092C7.84501 32.4786 7.22877 32.8332 6.60082 33.1971L5.459 33.8583L5.35538 33.744C5.2144 33.5886 4.65495 33.1861 4.503 33.1307C4.43525 33.1059 4.34234 33.0677 4.29676 33.0458C4.25093 33.0235 4.13884 32.9818 4.04767 32.9526L3.88153 32.8999L3.87107 25.0081L3.86061 17.1165L4.05788 17.0624C4.45717 16.9527 5.03431 16.5991 5.33496 16.28L5.4468 16.1611L9.04138 18.2365C11.0184 19.3782 12.6429 20.3192 12.6517 20.3277ZM38.6128 16.2483C38.7075 16.3691 39.2432 16.7727 39.309 16.7727C39.3347 16.7727 39.3558 16.7902 39.3558 16.8114C39.3558 16.8329 39.3977 16.8631 39.4492 16.8786C39.5005 16.894 39.5987 16.9322 39.6672 16.9632C39.7357 16.9944 39.8665 17.0439 39.9576 17.0733L40.1238 17.1268L40.1342 25.0044C40.1442 32.4794 40.1409 32.8832 40.072 32.9072C39.4746 33.1137 38.9134 33.4381 38.6679 33.7187L38.5455 33.8583L35.7388 32.2382L32.9324 30.618L33.1533 30.3441C33.2746 30.1935 33.3981 30.0234 33.4278 29.966C33.4572 29.9088 33.4918 29.8526 33.5045 29.8411C33.5175 29.8296 33.5994 29.6706 33.6866 29.4875C34.3982 27.9937 34.3023 26.2779 33.4258 24.8266L33.3508 24.7022L33.5267 24.3271C34.248 22.7904 33.7593 20.9482 32.3866 20.0292L32.142 19.8654L34.3686 18.5806C35.5931 17.8739 36.6012 17.2811 36.6089 17.2631C36.6164 17.2451 36.6428 17.2304 36.6674 17.2304C36.7098 17.2304 37.3601 16.8651 37.4045 16.8164C37.4159 16.8036 37.4907 16.7609 37.5706 16.721C37.6506 16.681 37.8466 16.5727 38.0065 16.48C38.1664 16.3871 38.3391 16.2905 38.3906 16.2648C38.4419 16.2393 38.484 16.2026 38.484 16.1833C38.484 16.1214 38.5323 16.1459 38.6128 16.2483ZM17.7266 19.3518C18.1428 19.4726 18.6711 19.7248 18.9967 19.9578C19.3038 20.1776 19.3063 20.1833 19.1304 20.2874C18.7458 20.5152 18.1542 21.1934 18.2038 21.35C18.3027 21.6626 18.5256 21.6342 18.8507 21.2673C19.2841 20.7784 20.0411 20.2994 20.6362 20.1371C22.7414 19.5638 25.2408 21.2191 25.2408 23.1869V23.3422L24.7944 23.344C23.4212 23.3492 21.49 24.4517 21.985 24.9479C22.119 25.0825 22.2856 25.0301 22.5693 24.7639C24.3144 23.1275 27.1894 23.8242 28.0879 26.1014C28.3501 26.7666 28.4488 27.78 28.3033 28.3154L28.2485 28.5169L28.1133 28.3074C27.4905 27.3437 26.6384 26.8103 26.6384 27.3842C26.6384 27.5005 26.6882 27.565 26.9993 27.8521C28.459 29.1996 28.651 31.0755 27.4871 32.6182C25.8356 34.8075 22.1018 34.6012 20.7365 32.2454C20.4481 31.7477 20.4476 31.7475 19.9457 32.0017C18.636 32.6654 17.1629 32.4352 16.2094 31.4176C14.7522 29.8624 15.1191 27.3055 16.9519 26.2415C17.2663 26.0589 17.3113 25.795 17.0483 25.6746C16.8969 25.6054 16.2893 25.9558 15.9648 26.2994C15.8215 26.451 15.7657 26.457 15.5456 26.3441C14.5746 25.8457 12.6203 25.9401 12.6203 26.4854C12.6203 26.7659 12.75 26.8026 13.2462 26.6617C13.787 26.5082 14.4222 26.5171 14.9243 26.685C15.3102 26.8141 15.4509 26.8895 15.4066 26.9434C15.3411 27.0231 15.0798 27.564 14.9883 27.8087C14.8023 28.3074 14.7208 29.2078 14.8167 29.7055L14.8508 29.8821L14.7009 29.9238C14.0284 30.1111 12.8213 29.757 12.0763 29.1537C10.6288 27.9817 10.4121 25.742 11.6055 24.2914C12.1263 23.6584 12.7493 23.3043 13.6702 23.118C14.0515 23.0406 14.1564 22.9729 14.1564 22.8041C14.1564 22.5566 13.9888 22.5139 13.4188 22.6163L13.1169 22.6705L13.0915 22.5689C13.0248 22.3024 13.1752 21.5228 13.367 21.1417C13.8774 20.1274 14.8053 19.4976 16.1491 19.2534C16.4335 19.2017 17.4232 19.2634 17.7266 19.3518ZM16.525 23.0845C16.0724 23.6614 18.357 24.4697 19.0861 23.9908C19.3466 23.8197 19.1264 23.4848 18.7909 23.5415C18.1019 23.6576 17.5407 23.5345 17.0707 23.1644C16.7882 22.9419 16.6525 22.922 16.525 23.0845ZM29.1432 23.0725C28.6299 23.1852 28.2196 23.4968 28.2966 23.7158C28.3765 23.9438 28.5138 23.9528 28.8937 23.755C29.2234 23.583 29.2451 23.5777 29.6427 23.5742C30.152 23.5695 30.2861 23.4796 30.1842 23.2109C30.1132 23.0238 29.6479 22.9619 29.1432 23.0725ZM20.5629 24.401C20.0037 24.7134 19.6119 26.2467 19.8251 27.2875C19.8503 27.4104 19.8426 27.4211 19.6924 27.4701C18.706 27.7905 17.6038 28.8857 17.9343 29.2168C18.0887 29.3717 18.1981 29.3265 18.4668 28.9966C18.8325 28.5481 19.2124 28.2594 19.7163 28.0472C20.0478 27.9076 20.0839 27.9153 20.2055 28.1525C20.6915 29.1015 21.9927 29.7852 23.1442 29.6973C23.3497 29.6816 23.5647 29.6653 23.6217 29.6613C23.7577 29.6516 23.8999 30.0561 23.9632 30.632C24.0108 31.0662 24.0671 31.1731 24.2479 31.1731C24.5795 31.1731 24.6106 30.5461 24.3209 29.707C24.2721 29.5654 24.2499 29.4441 24.2716 29.4368C24.8044 29.2588 25.6122 28.4472 25.4881 28.215C25.3666 27.987 25.1907 28.0332 24.8213 28.39C24.1289 29.0595 23.2986 29.3005 22.3852 29.0975C20.5221 28.6834 19.6749 26.5054 20.7784 24.9654C21.0429 24.5966 20.8969 24.2143 20.5629 24.401ZM13.5753 30.8847C13.7008 30.9057 14.0027 30.9229 14.2461 30.9232L14.6884 30.9234L14.8384 31.1966C15.7844 32.9224 17.8571 33.7794 19.6585 33.1898C19.9758 33.086 20.1345 33.0622 20.1347 33.1187C20.1352 33.2368 20.8364 33.937 21.2036 34.186L21.3799 34.3058V39.0602V43.8148L21.2203 43.8403C21.078 43.8633 20.7609 43.9844 20.4673 44.1285C20.4105 44.1564 20.2217 44.2938 20.0476 44.4336L19.7312 44.6881L18.0001 43.6845C17.048 43.1326 16.2373 42.6621 16.1984 42.6391C16.1596 42.6164 15.9785 42.5153 15.7959 42.4146C15.6133 42.314 15.4549 42.2204 15.4434 42.2066C15.432 42.1926 15.3478 42.1417 15.2566 42.0935C15.1652 42.0451 14.9784 41.9407 14.8414 41.8615C14.7044 41.7826 14.5457 41.691 14.4884 41.6583C14.4314 41.6255 14.3753 41.5893 14.3639 41.5778C14.3524 41.5664 14.2872 41.5297 14.2187 41.4962C14.1502 41.4627 14.0475 41.4045 13.9902 41.3668C13.9332 41.3294 13.8009 41.2512 13.6966 41.1933C13.3678 41.0115 13.306 40.975 13.2846 40.9516C13.2731 40.9388 13.1984 40.8959 13.1184 40.8562C13.0385 40.8162 12.9172 40.7495 12.8487 40.7081C12.7356 40.6394 12.6053 40.5642 12.3251 40.4062C12.2705 40.3752 12.2165 40.3392 12.2053 40.326C12.1938 40.3128 12.0631 40.2359 11.9146 40.1555C11.7661 40.075 11.5793 39.9697 11.4994 39.9215C11.4194 39.8733 11.2142 39.7534 11.0428 39.6553C10.8717 39.5569 10.6991 39.4577 10.6595 39.4348C10.6198 39.4118 10.2275 39.1841 9.78764 38.9288C9.34776 38.6736 8.91136 38.4207 8.8177 38.367C8.72429 38.3133 8.08264 37.9425 7.39217 37.5434L6.13702 36.8177L6.15993 36.6901C6.25459 36.1652 6.21448 35.0922 6.09741 35.0195C6.02866 34.9771 6.06129 34.9341 6.20626 34.8772C6.28622 34.8457 6.35173 34.807 6.35173 34.791C6.35173 34.775 6.38436 34.7511 6.42421 34.7378C6.46432 34.7246 6.60904 34.6464 6.74604 34.5643C6.88304 34.4819 7.02776 34.4042 7.06786 34.3912C7.10771 34.3785 7.14034 34.355 7.14034 34.339C7.14034 34.3231 7.20585 34.2844 7.28581 34.2529C7.36552 34.2214 7.43103 34.1805 7.43103 34.162C7.43103 34.1433 7.44822 34.128 7.46914 34.128C7.49006 34.128 7.64948 34.0436 7.82309 33.9407C7.99696 33.8379 8.15737 33.7535 8.17954 33.7535C8.20171 33.7535 8.21989 33.7395 8.22014 33.7222C8.22039 33.705 8.26223 33.6705 8.31354 33.6456C8.41891 33.5939 9.20378 33.1511 9.29918 33.0895C9.33331 33.0672 9.66958 32.8705 10.0464 32.652C10.4231 32.4332 11.2919 31.9285 11.9769 31.5302C12.6619 31.1317 13.2502 30.815 13.2846 30.8263C13.3187 30.8375 13.4495 30.8637 13.5753 30.8847ZM32.1101 31.5892C32.1908 31.6351 32.3268 31.7128 32.4125 31.762C32.4979 31.8109 32.6708 31.9073 32.7964 31.9757C32.9221 32.0444 33.0527 32.1211 33.087 32.1465C33.1583 32.1995 33.2626 32.2596 33.5852 32.4344C33.7108 32.5024 33.8415 32.579 33.8759 32.6043C33.91 32.6297 33.9828 32.6757 34.0373 32.7064C34.0916 32.7374 34.2037 32.8013 34.2864 32.8485C34.3688 32.8959 34.4829 32.9606 34.54 32.9926C34.5973 33.0243 34.6999 33.0842 34.7684 33.1254C34.8817 33.1938 35.0177 33.2722 35.292 33.4271C35.3465 33.4578 35.419 33.5037 35.4534 33.5292C35.4875 33.5544 35.6183 33.6313 35.7441 33.7C35.8696 33.7684 36.0313 33.8601 36.1032 33.9035C36.2241 33.9764 36.6318 34.2119 36.9272 34.3795C36.9957 34.4184 37.197 34.5371 37.3746 34.6429C37.5522 34.7488 37.7111 34.8362 37.7275 34.837C37.8753 34.8435 37.9014 34.9451 37.8356 35.2558C37.7761 35.5367 37.7741 36.0801 37.8304 36.7176C37.8399 36.8245 35.2558 38.3645 31.3641 40.5715C31.1815 40.6751 31.0229 40.7708 31.0114 40.784C30.9999 40.7972 30.9344 40.8359 30.8659 40.8699C30.7974 40.9039 30.6014 41.014 30.43 41.1144C29.966 41.3871 29.8504 41.4532 29.5998 41.5898C29.4743 41.6585 29.3435 41.7352 29.3091 41.7606C29.275 41.7861 29.2023 41.8321 29.1477 41.8628C29.0934 41.8935 28.9813 41.9574 28.8986 42.0049C28.8162 42.0523 28.7021 42.117 28.6451 42.1487C28.588 42.1804 28.4665 42.2528 28.3751 42.3093C28.2839 42.3657 28.1718 42.4299 28.126 42.4519C28.0804 42.4741 27.9683 42.5388 27.8769 42.5957C27.7857 42.6526 27.6549 42.7278 27.5864 42.7628C27.5179 42.7977 27.4011 42.8636 27.3269 42.9096C27.2527 42.9555 27.1314 43.0305 27.0571 43.0764C26.9829 43.1223 26.8661 43.1885 26.7976 43.2232C26.7291 43.2582 26.617 43.3211 26.5485 43.3628C26.4357 43.432 26.3109 43.5039 26.0249 43.6655C25.9704 43.6962 25.8976 43.7421 25.8635 43.7676C25.8291 43.7928 25.6986 43.8698 25.5728 43.9382C25.2488 44.1152 25.0622 44.2224 24.8804 44.3365C24.7932 44.3909 24.6156 44.4938 24.4858 44.5647L24.2499 44.6936L24.1538 44.5997C23.8327 44.286 23.2409 43.9537 22.8386 43.8605L22.6254 43.8111V39.3601V34.9091L22.7394 34.9371C24.695 35.4168 26.5438 34.9713 27.8116 33.7145C28.2919 33.2383 28.4984 32.9604 28.7664 32.428L28.8951 32.172H29.426C30.2001 32.172 30.9167 32.0042 31.5509 31.6748C31.9201 31.483 31.9226 31.4825 32.1101 31.5892ZM3.69472 34.117C5.04851 34.559 5.46772 36.2704 4.46763 37.273C2.94745 38.797 0.476005 37.0542 1.39564 35.1069C1.79243 34.2669 2.8107 33.8284 3.69472 34.117ZM41.5082 34.1315C42.859 34.5957 43.2336 36.3765 42.1835 37.3406C40.9331 38.4883 38.9822 37.6101 38.9822 35.8993C38.9822 34.6297 40.2917 33.7135 41.5082 34.1315ZM22.6254 45.0579C24.6377 45.8553 24.1396 48.7782 21.9912 48.7782C20.0466 48.7782 19.3748 46.1704 21.0691 45.1985C21.5139 44.9433 22.1835 44.8829 22.6254 45.0579Z" fill="#143C4C"/>
<path fill-rule="evenodd" clip-rule="evenodd" d="M21.9314 5.0639C21.9715 5.07439 22.0368 5.07439 22.0769 5.0639C22.1168 5.05341 22.0841 5.04492 22.0042 5.04492C21.9242 5.04492 21.8916 5.05341 21.9314 5.0639ZM3.04239 12.1808C3.08224 12.1913 3.14775 12.1913 3.18761 12.1808C3.22771 12.1704 3.19483 12.1619 3.11512 12.1619C3.03517 12.1619 3.00254 12.1704 3.04239 12.1808ZM40.8207 12.1808C40.8606 12.1913 40.9261 12.1913 40.966 12.1808C41.0058 12.1704 40.9732 12.1619 40.8932 12.1619C40.8133 12.1619 40.7806 12.1704 40.8207 12.1808ZM13.0891 22.3698C13.0896 22.4612 13.0981 22.4939 13.108 22.442C13.1177 22.3903 13.1175 22.3154 13.107 22.2757C13.0966 22.2357 13.0886 22.2782 13.0891 22.3698ZM19.7342 26.4692C19.7342 26.618 19.7417 26.6789 19.7509 26.6045C19.7601 26.5301 19.7601 26.4085 19.7509 26.3341C19.7417 26.2597 19.7342 26.3203 19.7342 26.4692ZM14.7515 29.0912C14.7515 29.2173 14.7595 29.2688 14.7689 29.2058C14.7784 29.1429 14.7784 29.0398 14.7689 28.9768C14.7595 28.9139 14.7515 28.9653 14.7515 29.0912ZM24.1531 34.1567C24.2046 34.1667 24.2793 34.1662 24.3192 34.156C24.3588 34.1455 24.3165 34.1372 24.2253 34.1377C24.1339 34.1382 24.1015 34.1467 24.1531 34.1567Z" fill="#754872"/>
<path fill-rule="evenodd" clip-rule="evenodd" d="M20.6511 1.80136L20.5291 1.93646L20.6641 1.81435C20.7899 1.70048 20.818 1.66602 20.7861 1.66602C20.7789 1.66602 20.7181 1.72695 20.6511 1.80136ZM23.3081 4.50655L23.1861 4.6419L23.3211 4.51954C23.4469 4.40566 23.475 4.3712 23.4429 4.3712C23.4357 4.3712 23.3752 4.43213 23.3081 4.50655ZM42.7716 14.0687C42.7716 14.1716 42.7796 14.2138 42.7895 14.1624C42.7995 14.1107 42.7995 14.0265 42.7895 13.9751C42.7796 13.9234 42.7716 13.9656 42.7716 14.0687ZM20.8302 15.8877C20.8815 15.8977 20.9655 15.8977 21.017 15.8877C21.0684 15.8777 21.0263 15.8697 20.9236 15.8697C20.8208 15.8697 20.7787 15.8777 20.8302 15.8877ZM26.1647 16.8036C26.2274 16.8134 26.3303 16.8134 26.3931 16.8036C26.4559 16.7941 26.4046 16.7864 26.279 16.7864C26.1532 16.7864 26.1019 16.7941 26.1647 16.8036ZM17.8078 17.138L17.6646 17.2941L17.8202 17.1507C17.9652 17.0171 17.9951 16.9819 17.9635 16.9819C17.9565 16.9819 17.8865 17.0523 17.8078 17.138ZM28.5208 17.7026C28.5208 17.7099 28.5813 17.7705 28.6556 17.8377L28.7906 17.9601L28.6685 17.8247C28.5549 17.6986 28.5208 17.6704 28.5208 17.7026ZM16.4503 19.2581C16.4904 19.2686 16.5556 19.2686 16.5957 19.2581C16.6356 19.2476 16.603 19.2391 16.523 19.2391C16.443 19.2391 16.4104 19.2476 16.4503 19.2581ZM16.8655 19.2581C16.9054 19.2686 16.9709 19.2686 17.0107 19.2581C17.0508 19.2476 17.0179 19.2391 16.9382 19.2391C16.8583 19.2391 16.8256 19.2476 16.8655 19.2581ZM21.4519 20.0502C21.5257 20.0594 21.6564 20.0597 21.7426 20.0507C21.8286 20.0417 21.7683 20.034 21.6086 20.034C21.4487 20.0337 21.3782 20.041 21.4519 20.0502ZM13.9679 20.3219L13.8037 20.4989L13.9803 20.3344C14.1442 20.1813 14.1758 20.1451 14.1442 20.1451C14.1375 20.1451 14.0583 20.2248 13.9679 20.3219ZM30.3578 20.4235C30.3977 20.434 30.4632 20.434 30.503 20.4235C30.5429 20.413 30.5103 20.4046 30.4303 20.4046C30.3503 20.4046 30.3177 20.413 30.3578 20.4235ZM24.5767 20.7487C24.6542 20.8286 24.7269 20.8942 24.7384 20.8942C24.7499 20.8942 24.6958 20.8286 24.6183 20.7487C24.5409 20.6685 24.4681 20.6028 24.4567 20.6028C24.4452 20.6028 24.4993 20.6685 24.5767 20.7487ZM29.5488 23.5875C29.6003 23.5972 29.6751 23.5969 29.7147 23.5865C29.7545 23.576 29.7122 23.568 29.6208 23.5685C29.5296 23.569 29.497 23.5775 29.5488 23.5875ZM22.4777 24.8585L22.3559 24.9939L22.4906 24.8715C22.6164 24.7576 22.6448 24.7232 22.6127 24.7232C22.6055 24.7232 22.5447 24.7841 22.4777 24.8585ZM27.1508 24.7779C27.1508 24.7851 27.2113 24.846 27.2856 24.9132L27.4206 25.0353L27.2985 24.9002C27.1849 24.7741 27.1508 24.7456 27.1508 24.7779ZM29.2992 31.2036C29.3505 31.2136 29.4345 31.2136 29.486 31.2036C29.5373 31.1938 29.4952 31.1856 29.3926 31.1856C29.2897 31.1856 29.2476 31.1938 29.2992 31.2036ZM18.1525 32.3683C18.1924 32.3787 18.2579 32.3787 18.2977 32.3683C18.3376 32.3578 18.305 32.3493 18.225 32.3493C18.1451 32.3493 18.1124 32.3578 18.1525 32.3683ZM18.6091 32.3683C18.649 32.3787 18.7145 32.3787 18.7543 32.3683C18.7944 32.3578 18.7616 32.3493 18.6818 32.3493C18.6019 32.3493 18.5693 32.3578 18.6091 32.3683ZM42.7716 35.9604C42.7716 36.0636 42.7796 36.1058 42.7895 36.0541C42.7995 36.0026 42.7995 35.9185 42.7895 35.8668C42.7796 35.8154 42.7716 35.8576 42.7716 35.9604Z" fill="#A34E83"/>
<path fill-rule="evenodd" clip-rule="evenodd" d="M21.9294 1.23602C21.9695 1.24626 22.0348 1.24626 22.0749 1.23602C22.1148 1.22554 22.0821 1.2168 22.0022 1.2168C21.9222 1.2168 21.8896 1.22554 21.9294 1.23602ZM21.3899 19.5485C21.4298 19.559 21.4953 19.559 21.5351 19.5485C21.575 19.5381 21.5424 19.5296 21.4624 19.5296C21.3824 19.5296 21.3498 19.5381 21.3899 19.5485ZM21.7431 19.5493C21.7949 19.5593 21.8697 19.5588 21.9093 19.5485C21.9489 19.5381 21.9068 19.5298 21.8154 19.5303C21.7239 19.5308 21.6916 19.5393 21.7431 19.5493ZM24.5663 23.3368C24.6178 23.3465 24.6926 23.3462 24.7322 23.3358C24.772 23.3253 24.7297 23.3173 24.6383 23.3178C24.5471 23.3183 24.5145 23.3268 24.5663 23.3368ZM24.9606 23.337C25.0239 23.3467 25.1173 23.3465 25.1683 23.3365C25.2194 23.3265 25.1676 23.3188 25.0535 23.319C24.9394 23.3195 24.8976 23.3275 24.9606 23.337ZM27.5237 24.444C27.5237 24.4512 27.5842 24.5119 27.6585 24.5791L27.7935 24.7015L27.6714 24.5661C27.5578 24.44 27.5237 24.4118 27.5237 24.444ZM13.9387 26.001C14.0134 26.0102 14.1255 26.01 14.1878 26.0005C14.2501 25.991 14.189 25.9835 14.052 25.9838C13.9151 25.984 13.864 25.9917 13.9387 26.001ZM28.3644 27.5732C28.3649 27.6649 28.3733 27.6973 28.3833 27.6456C28.3933 27.5937 28.3928 27.5188 28.3826 27.4791C28.3721 27.4394 28.3639 27.4816 28.3644 27.5732ZM24.8228 28.3743L24.6799 28.5304L24.8355 28.387C24.9212 28.3081 24.9912 28.238 24.9912 28.231C24.9912 28.1993 24.9561 28.2292 24.8228 28.3743ZM14.1041 29.9553C14.201 29.964 14.3599 29.964 14.4568 29.9553C14.554 29.9465 14.4745 29.9393 14.2805 29.9393C14.0864 29.9393 14.007 29.9465 14.1041 29.9553ZM28.2391 30.5074C28.2391 30.5875 28.2475 30.6203 28.258 30.5803C28.2685 30.5401 28.2685 30.4747 28.258 30.4345C28.2475 30.3945 28.2391 30.4272 28.2391 30.5074ZM28.6957 30.5905C28.6957 30.6707 28.7041 30.7034 28.7146 30.6635C28.725 30.6235 28.725 30.5578 28.7146 30.5179C28.7041 30.4777 28.6957 30.5104 28.6957 30.5905ZM27.1683 32.9733L27.0462 33.1087L27.1812 32.9863C27.307 32.8725 27.3351 32.838 27.303 32.838C27.2958 32.838 27.2353 32.8989 27.1683 32.9733Z" fill="#4C4464"/>
<path d="M53.494 31V18.4H59.65C61.234 18.4 62.422 18.7 63.214 19.3C64.018 19.9 64.42 20.692 64.42 21.676C64.42 22.336 64.258 22.912 63.934 23.404C63.61 23.884 63.166 24.256 62.602 24.52C62.038 24.784 61.39 24.916 60.658 24.916L61 24.178C61.792 24.178 62.494 24.31 63.106 24.574C63.718 24.826 64.192 25.204 64.528 25.708C64.876 26.212 65.05 26.83 65.05 27.562C65.05 28.642 64.624 29.488 63.772 30.1C62.92 30.7 61.666 31 60.01 31H53.494ZM56.392 28.804H59.794C60.55 28.804 61.12 28.684 61.504 28.444C61.9 28.192 62.098 27.796 62.098 27.256C62.098 26.728 61.9 26.338 61.504 26.086C61.12 25.822 60.55 25.69 59.794 25.69H56.176V23.566H59.29C59.998 23.566 60.538 23.446 60.91 23.206C61.294 22.954 61.486 22.576 61.486 22.072C61.486 21.58 61.294 21.214 60.91 20.974C60.538 20.722 59.998 20.596 59.29 20.596H56.392V28.804ZM67.0597 31V21.316H69.7417V24.052L69.3637 23.26C69.6517 22.576 70.1137 22.06 70.7497 21.712C71.3857 21.352 72.1597 21.172 73.0717 21.172V23.764C72.9517 23.752 72.8437 23.746 72.7477 23.746C72.6517 23.734 72.5497 23.728 72.4417 23.728C71.6737 23.728 71.0497 23.95 70.5697 24.394C70.1017 24.826 69.8677 25.504 69.8677 26.428V31H67.0597ZM80.0485 31V29.11L79.8685 28.696V25.312C79.8685 24.712 79.6825 24.244 79.3105 23.908C78.9505 23.572 78.3925 23.404 77.6365 23.404C77.1205 23.404 76.6105 23.488 76.1065 23.656C75.6145 23.812 75.1945 24.028 74.8465 24.304L73.8385 22.342C74.3665 21.97 75.0025 21.682 75.7465 21.478C76.4905 21.274 77.2465 21.172 78.0145 21.172C79.4905 21.172 80.6365 21.52 81.4525 22.216C82.2685 22.912 82.6765 23.998 82.6765 25.474V31H80.0485ZM77.0965 31.144C76.3405 31.144 75.6925 31.018 75.1525 30.766C74.6125 30.502 74.1985 30.148 73.9105 29.704C73.6225 29.26 73.4785 28.762 73.4785 28.21C73.4785 27.634 73.6165 27.13 73.8925 26.698C74.1805 26.266 74.6305 25.93 75.2425 25.69C75.8545 25.438 76.6525 25.312 77.6365 25.312H80.2105V26.95H77.9425C77.2825 26.95 76.8265 27.058 76.5745 27.274C76.3345 27.49 76.2145 27.76 76.2145 28.084C76.2145 28.444 76.3525 28.732 76.6285 28.948C76.9165 29.152 77.3065 29.254 77.7985 29.254C78.2665 29.254 78.6865 29.146 79.0585 28.93C79.4305 28.702 79.7005 28.372 79.8685 27.94L80.3005 29.236C80.0965 29.86 79.7245 30.334 79.1845 30.658C78.6445 30.982 77.9485 31.144 77.0965 31.144ZM85.2179 31V21.316H88.0259V31H85.2179ZM86.6219 19.966C86.1059 19.966 85.6859 19.816 85.3619 19.516C85.0379 19.216 84.8759 18.844 84.8759 18.4C84.8759 17.956 85.0379 17.584 85.3619 17.284C85.6859 16.984 86.1059 16.834 86.6219 16.834C87.1379 16.834 87.5579 16.978 87.8819 17.266C88.2059 17.542 88.3679 17.902 88.3679 18.346C88.3679 18.814 88.2059 19.204 87.8819 19.516C87.5699 19.816 87.1499 19.966 86.6219 19.966ZM96.5179 21.172C97.2859 21.172 97.9699 21.328 98.5699 21.64C99.1819 21.94 99.6619 22.408 100.01 23.044C100.358 23.668 100.532 24.472 100.532 25.456V31H97.7239V25.888C97.7239 25.108 97.5499 24.532 97.2019 24.16C96.8659 23.788 96.3859 23.602 95.7619 23.602C95.3179 23.602 94.9159 23.698 94.5559 23.89C94.2079 24.07 93.9319 24.352 93.7279 24.736C93.5359 25.12 93.4399 25.612 93.4399 26.212V31H90.6319V21.316H93.3139V23.998L92.8099 23.188C93.1579 22.54 93.6559 22.042 94.3039 21.694C94.9519 21.346 95.6899 21.172 96.5179 21.172ZM103.275 31V18.4H108.999C110.367 18.4 111.573 18.664 112.617 19.192C113.661 19.708 114.477 20.434 115.065 21.37C115.653 22.306 115.947 23.416 115.947 24.7C115.947 25.972 115.653 27.082 115.065 28.03C114.477 28.966 113.661 29.698 112.617 30.226C111.573 30.742 110.367 31 108.999 31H103.275ZM106.191 28.606H108.855C109.695 28.606 110.421 28.45 111.033 28.138C111.657 27.814 112.137 27.358 112.473 26.77C112.821 26.182 112.995 25.492 112.995 24.7C112.995 23.896 112.821 23.206 112.473 22.63C112.137 22.042 111.657 21.592 111.033 21.28C110.421 20.956 109.695 20.794 108.855 20.794H106.191V28.606ZM116.315 31L121.931 18.4H124.811L130.445 31H127.385L122.777 19.876H123.929L119.303 31H116.315ZM119.123 28.3L119.897 26.086H126.377L127.169 28.3H119.123ZM137.696 31.216C136.7 31.216 135.776 31.054 134.924 30.73C134.084 30.406 133.352 29.95 132.728 29.362C132.116 28.774 131.636 28.084 131.288 27.292C130.952 26.5 130.784 25.636 130.784 24.7C130.784 23.764 130.952 22.9 131.288 22.108C131.636 21.316 132.122 20.626 132.746 20.038C133.37 19.45 134.102 18.994 134.942 18.67C135.782 18.346 136.694 18.184 137.678 18.184C138.674 18.184 139.586 18.346 140.414 18.67C141.254 18.994 141.98 19.45 142.592 20.038C143.216 20.626 143.702 21.316 144.05 22.108C144.398 22.888 144.572 23.752 144.572 24.7C144.572 25.636 144.398 26.506 144.05 27.31C143.702 28.102 143.216 28.792 142.592 29.38C141.98 29.956 141.254 30.406 140.414 30.73C139.586 31.054 138.68 31.216 137.696 31.216ZM137.678 28.732C138.242 28.732 138.758 28.636 139.226 28.444C139.706 28.252 140.126 27.976 140.486 27.616C140.846 27.256 141.122 26.83 141.314 26.338C141.518 25.846 141.62 25.3 141.62 24.7C141.62 24.1 141.518 23.554 141.314 23.062C141.122 22.57 140.846 22.144 140.486 21.784C140.138 21.424 139.724 21.148 139.244 20.956C138.764 20.764 138.242 20.668 137.678 20.668C137.114 20.668 136.592 20.764 136.112 20.956C135.644 21.148 135.23 21.424 134.87 21.784C134.51 22.144 134.228 22.57 134.024 23.062C133.832 23.554 133.736 24.1 133.736 24.7C133.736 25.288 133.832 25.834 134.024 26.338C134.228 26.83 134.504 27.256 134.852 27.616C135.212 27.976 135.632 28.252 136.112 28.444C136.592 28.636 137.114 28.732 137.678 28.732Z" fill="#1A202C"/>
</svg>
