<svg width="342" height="397" viewBox="0 0 342 397" fill="none" xmlns="http://www.w3.org/2000/svg">
<path d="M339.117 225C339.117 319.7 263.318 396.457 169.83 396.457C76.3415 396.457 0.542587 319.7 0.542587 225C0.542587 130.3 76.3415 53.5426 169.83 53.5426C263.318 53.5426 339.117 130.3 339.117 225Z" fill="white" stroke="white" stroke-width="1.08517"/>
<rect x="93" y="112" width="45" height="39" fill="#1682FE"/>
<rect x="137" y="87" width="45" height="39" fill="#1682FE"/>
<rect x="183" y="112" width="45" height="39" fill="#1682FE"/>
<rect x="223" y="135" width="45" height="39" fill="#1682FE"/>
<rect x="210" y="251" width="45" height="39" fill="#FF5A5A"/>
<rect x="184" y="273" width="45" height="39" fill="#FF5A5A"/>
<rect x="140" y="295" width="45" height="39" fill="#FF5A5A"/>
<rect x="89" y="273" width="45" height="39" fill="#F4BB3B"/>
<rect x="64" y="214" width="45" height="77" fill="#F4BB3B"/>
<rect x="64" y="137" width="45" height="77" fill="#60D8A4"/>
<rect x="154" y="87" width="45" height="39" fill="#3A3A3A"/>
<rect x="109" y="112" width="45" height="39" fill="#3A3A3A"/>
<rect x="109" y="273" width="45" height="39" fill="#3A3A3A"/>
<rect x="154" y="295" width="45" height="39" fill="#3A3A3A"/>
<rect x="199" y="273" width="64" height="39" fill="#3A3A3A"/>
<rect x="244" y="251" width="45" height="39" fill="#3A3A3A"/>
<rect x="82" y="137" width="45" height="155" fill="#3A3A3A"/>
<rect x="199" y="112" width="45" height="39" fill="#3A3A3A"/>
<rect x="244" y="135" width="45" height="39" fill="#3A3A3A"/>
<path d="M327.534 75.5133C327.534 109.3 300.585 136.561 267.5 136.561C234.414 136.561 207.466 109.3 207.466 75.5133C207.466 41.7271 234.414 14.466 267.5 14.466C300.585 14.466 327.534 41.7271 327.534 75.5133Z" fill="white" stroke="#1682FE" stroke-width="9.64401"/>
<g filter="url(#filter0_b_203_100)">
<path d="M336.461 75.6641C336.461 114.474 305.505 145.789 267.5 145.789C229.495 145.789 198.539 114.474 198.539 75.6641C198.539 36.8538 229.495 5.53903 267.5 5.53903C305.505 5.53903 336.461 36.8538 336.461 75.6641Z" stroke="#D0E6FF" stroke-opacity="0.7" stroke-width="11.0781"/>
</g>
<rect x="285.613" y="39.3398" width="10.1262" height="17.5796" transform="rotate(32.6356 285.613 39.3398)" fill="#202020"/>
<rect x="252.147" y="90.6536" width="10.1262" height="17.5796" transform="rotate(32.6356 252.147 90.6536)" fill="#202020"/>
<rect x="303.423" y="95.504" width="10.1262" height="17.5796" transform="rotate(123.38 303.423 95.504)" fill="#202020"/>
<rect x="248.912" y="60.7272" width="10.1262" height="17.5796" transform="rotate(114.87 248.912 60.7272)" fill="#202020"/>
<path d="M288.888 75.4645C288.888 87.5087 279.291 97.1636 267.585 97.1636C255.88 97.1636 246.283 87.5087 246.283 75.4645C246.283 63.4203 255.88 53.7655 267.585 53.7655C279.291 53.7655 288.888 63.4203 288.888 75.4645Z" fill="white" stroke="#202020" stroke-width="8.19741"/>
<defs>
<filter id="filter0_b_203_100" x="189.959" y="-3.04082" width="155.082" height="157.41" filterUnits="userSpaceOnUse" color-interpolation-filters="sRGB">
<feFlood flood-opacity="0" result="BackgroundImageFix"/>
<feGaussianBlur in="BackgroundImageFix" stdDeviation="1.52041"/>
<feComposite in2="SourceAlpha" operator="in" result="effect1_backgroundBlur_203_100"/>
<feBlend mode="normal" in="SourceGraphic" in2="effect1_backgroundBlur_203_100" result="shape"/>
</filter>
</defs>
</svg>
