<svg width="600" height="600" viewBox="0 0 600 600" fill="none" xmlns="http://www.w3.org/2000/svg">
<path d="M95.8001 411.5C95.8001 419.5 99.8001 423.6 116.2 424.8C132.6 426 139.1 429.6 134.5 431.1C129.9 432.6 111.2 431.3 107 438.6C102.8 445.8 119.6 449.7 141 449.7C162.4 449.7 252.6 449.7 282.4 449.7C312.2 449.7 336.1 443.9 336.1 434.7C336.1 425.5 318.9 424.1 311.8 420.7C304.7 417.3 308.9 408.6 322.7 408.6C336.5 408.6 356.3 408.6 369.3 408.6C382.3 408.6 385.2 415.4 376.4 416.8C367.6 418.2 365.9 429.4 386.9 429.4C407.9 429.4 460.3 429.4 480.5 429.4C500.7 429.4 511.6 417.8 501.9 409.6C492.2 401.4 499 396.6 513.2 394.6C527.5 392.7 541.7 391.2 541.7 378.7C541.7 366.2 519.5 361.8 503.1 361.8C486.7 361.8 479.6 357.9 479.6 352.6C479.6 347.3 471.6 343.4 446.5 343.4C421.4 343.4 298.4 343.4 237.9 343.4C177.4 343.4 181.7 343.4 169.6 343.4C157.5 343.4 150.9 354 159.5 358.2C168.2 362.4 178 357.9 180.2 365.6C182.4 373.3 177.4 374.6 159.8 374.6C142.2 374.6 126 374.6 113.4 374.6C75.9001 374.6 75.6001 394.6 99.7001 394.6C114.3 394.6 95.8001 403.6 95.8001 411.5Z" fill="#FEC272"/>
<path d="M81.9 443C91.5098 443 99.3 440.493 99.3 437.4C99.3 434.307 91.5098 431.8 81.9 431.8C72.2902 431.8 64.5 434.307 64.5 437.4C64.5 440.493 72.2902 443 81.9 443Z" fill="#FEC272"/>
<path d="M352.6 428.3C359.448 428.3 365 426.509 365 424.3C365 422.091 359.448 420.3 352.6 420.3C345.752 420.3 340.2 422.091 340.2 424.3C340.2 426.509 345.752 428.3 352.6 428.3Z" fill="#FEC272"/>
<path d="M524.2 406.1C531.048 406.1 536.6 404.309 536.6 402.1C536.6 399.891 531.048 398.1 524.2 398.1C517.352 398.1 511.8 399.891 511.8 402.1C511.8 404.309 517.352 406.1 524.2 406.1Z" fill="#FEC272"/>
<path d="M288.2 266.3C288.2 266.3 280.9 253.3 286.3 250.2C291.7 247.1 297.7 253.1 297.7 253.1C297.7 253.1 291.6 239 298.6 234.8C305.6 230.6 316.8 245.8 316.8 245.8L288.2 266.3Z" fill="#99ADF9"/>
<path d="M316.8 248.6C316.8 248.6 307.1 233.2 315.8 229.4C321.5 226.9 330.5 236.6 330.5 236.6C330.5 236.6 326.7 227.6 334.2 224.5C341.7 221.4 348.2 233.9 348.2 233.9L316.8 248.6Z" fill="#7791E5"/>
<path d="M120.5 342.1C120.5 342.1 115.9 331.7 120.2 329.8C124.5 327.9 128.7 332.8 128.7 332.8C128.7 332.8 125.1 321.7 130.7 319C136.3 316.3 143.7 328.6 143.7 328.6L120.5 342.1Z" fill="#99ADF9"/>
<path d="M143.4 331C143.4 331 138.9 316.6 143.5 315.3C148.1 314 152.8 323 152.8 323C152.8 323 151.3 312.7 157.2 310.9C163.1 309.1 168.2 321.1 168.2 321.1L143.4 331Z" fill="#7791E5"/>
<path d="M436.8 262.2C436.8 262.2 443.5 253.5 447.2 256.3C450.8 259.1 448.5 264.9 448.5 264.9C448.5 264.9 456.3 256.7 461.2 260.2C466.1 263.7 459 275.7 459 275.7L436.8 262.2Z" fill="#99ADF9"/>
<path d="M457 275.7C457 275.7 467.2 265.3 470.4 268.6C473.6 271.9 468.2 280.1 468.2 280.1C468.2 280.1 476.3 274.1 480.6 278.3C484.9 282.5 477 292.4 477 292.4L457 275.7Z" fill="#7791E5"/>
<path d="M513.6 384.8C512.1 385.3 510.8 385.5 509.7 385.5C509.5 385.5 509.3 385.5 509.1 385.5C505.8 385 504.2 381.6 500.8 374.5C496.1 364.8 485.5 358.1 458.7 356.3C431.9 354.5 388.2 386 340 385.9C338.8 385.9 337.7 385.9 336.5 385.9C335.6 385.9 334.8 385.9 333.9 385.9C332.5 385.9 331.1 385.9 329.6 385.8C328.5 385.8 327.3 385.7 326.2 385.7C325.1 385.7 324 385.6 322.9 385.6H323C320.8 385.5 318.6 385.4 316.5 385.4C314.3 385.3 312.2 385.2 310 385.1C307.9 385 305.8 384.9 303.7 384.7C302.7 384.6 301.7 384.6 300.7 384.5C297.1 384.3 293.5 384 290.1 383.7C289.3 383.6 288.4 383.6 287.6 383.5C286.5 383.4 285.3 383.3 284.2 383.2C283.1 383.1 282 383 280.9 382.9C277.1 382.5 273.3 382.1 269.7 381.7C269.2 381.6 268.7 381.6 268.2 381.5C264.1 381 260.3 380.5 256.6 380C255.8 379.9 255 379.8 254.2 379.7C251.4 379.3 248.6 378.9 246 378.5C245.6 378.4 245.2 378.4 244.8 378.3C243.2 378 241.6 377.8 240.1 377.5C239.5 377.4 238.9 377.3 238.3 377.2C237.8 377.1 237.3 377 236.7 376.9C220.1 374 210.4 371.5 210.4 371.5C210.4 371.5 176.9 367 155.8 368.2C140.9 369.1 125.8 371.9 117.4 368.6C116.5 368.2 115.6 367.7 114.8 367.2C114.7 367.1 114.5 367 114.4 366.9C111.7 364.7 110.3 361.1 111 355.5C111.5 351.3 113.4 347.6 116.3 344.3C125.3 333.9 143.5 327.3 156.9 323C174.6 317.3 199.5 310.8 199.5 310.8C199.5 310.8 266.4 284.2 293 260.7C324.1 233.2 370.9 211.6 408.2 235.9C442.4 258.2 479.8 288.4 504.4 322.9C515 337.8 519.5 350.9 520.5 361.3C522 374.9 517.6 383.6 513.6 384.8Z" fill="#FF97C9"/>
<path d="M509.7 385.6C509.5 385.6 509.3 385.6 509.1 385.6C505.8 385.1 504.2 381.7 500.8 374.6C496.1 364.9 485.5 358.2 458.7 356.4C431.9 354.6 388.2 386.1 340 386C338.8 386 337.7 386 336.5 386C335.6 386 334.8 386 333.9 386C332.5 386 331.1 386 329.6 385.9C328.5 385.9 327.3 385.9 326.2 385.8C325.1 385.8 324 385.7 322.9 385.7H323C320.8 385.6 318.6 385.5 316.5 385.5C314.3 385.4 312.2 385.3 310 385.2C307.9 385.1 305.8 385 303.7 384.8C302.7 384.7 301.7 384.7 300.7 384.6C297.1 384.4 293.5 384.1 290.1 383.8C289.3 383.7 288.4 383.7 287.6 383.6C286.5 383.5 285.3 383.4 284.2 383.3C283.1 383.2 282 383.1 280.9 383C277.1 382.6 273.3 382.2 269.8 381.8C269.3 381.7 268.8 381.7 268.3 381.6C264.2 381.1 260.4 380.6 256.7 380.1C255.9 380 255.1 379.9 254.3 379.8C251.5 379.4 248.7 379 246.1 378.6C245.7 378.5 245.3 378.5 244.9 378.4C243.3 378.1 241.7 377.9 240.1 377.6C239.5 377.5 238.9 377.4 238.3 377.3C237.8 377.2 237.2 377.1 236.7 377C220.1 374.1 210.4 371.6 210.4 371.6C210.4 371.6 176.9 367.1 155.8 368.3C139.2 369.3 122.3 372.7 114.9 367.3C114.8 367.2 114.6 367.1 114.5 367C114.8 366 115.2 364.9 115.8 363.9C122.6 351.3 149.6 347.7 182.4 345.4C215.2 343.1 256.7 345.9 284.6 338.6C312.5 331.4 341.3 309.8 379.1 303.5C416.9 297.2 461.7 314.5 491 337.9C517.2 358.8 511.2 381.3 509.7 385.6Z" fill="#F982C6"/>
<path d="M509.1 385.5C505.8 385 504.2 381.6 500.8 374.5C498 368.8 493.2 364.1 484.2 360.8C483.1 360.4 481.9 360 480.6 359.6C474.9 357.9 467.7 356.8 458.7 356.2C457.5 356.1 456.4 356.1 455.2 356.1C454.1 356.1 452.9 356.2 451.8 356.4C430.9 358.7 401.9 375.1 369.4 382.4C368.1 382.7 366.8 383 365.5 383.2C357.3 384.8 348.9 385.8 340.3 385.8H340C338.8 385.8 337.7 385.8 336.5 385.8C335.6 385.8 334.8 385.8 333.9 385.8C332.5 385.8 331.1 385.8 329.6 385.7C328.5 385.7 327.3 385.7 326.2 385.6C325.1 385.6 324 385.5 322.9 385.5H323C320.8 385.4 318.6 385.3 316.5 385.3C315.3 385.2 314.1 385.2 312.8 385.1C311.9 385.1 310.9 385 310 385C309.7 385 309.5 385 309.2 385C307.4 384.9 305.5 384.8 303.7 384.7C302.7 384.6 301.7 384.6 300.7 384.5C297.1 384.3 293.5 384 290.1 383.7C289.3 383.6 288.4 383.6 287.6 383.5C286.5 383.4 285.3 383.3 284.2 383.2C283.1 383.1 282 383 280.9 382.9C277.1 382.5 273.3 382.1 269.8 381.7C269.3 381.6 268.8 381.6 268.3 381.5C264.2 381 260.4 380.5 256.7 380C255.9 379.9 255.1 379.8 254.3 379.7C251.5 379.3 248.7 378.9 246.1 378.5C245.7 378.4 245.3 378.4 244.9 378.3C243.3 378 241.7 377.8 240.1 377.5C239.5 377.4 238.9 377.3 238.3 377.2C237.9 377.1 237.4 377 237 377C236.9 377 236.8 377 236.7 377C235.6 376.8 234.5 376.6 233.4 376.4C218.8 373.8 210.4 371.6 210.4 371.6C210.4 371.6 208.6 371.4 205.5 371C204.4 370.9 203.2 370.7 201.9 370.6C195.9 369.9 187.5 369.1 178.7 368.6C177.5 368.5 176.3 368.5 175.1 368.4C168.4 368.1 161.6 368 155.8 368.3C139.2 369.3 122.3 372.7 114.9 367.3C115.7 364.6 117.7 361.7 121.9 359C132.2 352.4 143.2 343.9 175 346.1C176.2 346.2 177.4 346.3 178.7 346.4C185.4 347 193 348.1 201.6 349.7C202.8 349.9 204.1 350.2 205.4 350.4C205.8 350.5 206.2 350.6 206.7 350.7C213.6 352.1 223 353.6 234 355C235.2 355.1 236.4 355.3 237.6 355.4C257.7 357.7 282.9 359.5 308.9 359.3C310.1 359.3 311.3 359.3 312.5 359.3C316.3 359.3 320.1 359.2 323.8 359C328.2 358.8 332.4 358.6 336.4 358.3C337.6 358.2 338.8 358.1 340 358C349.5 357.1 358.2 355.8 366.2 354.3C367.4 354.1 368.6 353.8 369.8 353.6C402.7 346.9 424.5 336.7 452.9 336.3C454.1 336.3 455.3 336.3 456.6 336.3C457.3 336.3 458.1 336.3 458.8 336.4C469.5 336.8 478.1 338.8 485 341.8C486.2 342.3 487.4 342.9 488.5 343.5C504.3 352.1 509.4 366.3 510.2 375.5C510.5 379.4 510 382.8 509.1 385.5Z" fill="#FFCAE8"/>
<path d="M364.7 251.8C357.1 251 346.3 256.4 346.7 264.5C347.1 272.6 360 271.7 368.9 267C377.9 262.2 377.1 253 364.7 251.8Z" fill="#F982C6"/>
<path d="M366.2 276.3C363.6 277.4 360.8 281.1 362.1 283.3C363.4 285.5 369.4 282.8 370.9 279.4C371.8 277.4 370.6 274.4 366.2 276.3Z" fill="#F982C6"/>
<path d="M340.5 249.9C338.8 250.3 336.8 252.2 337.4 253.6C338 255 341.7 254 343 252.1C343.6 251.1 343.2 249.2 340.5 249.9Z" fill="#F982C6"/>
<path d="M334.4 261.5C332 262.1 329 264.9 329.9 267C330.7 269.1 336.3 267.6 338.1 264.9C339 263.3 338.4 260.5 334.4 261.5Z" fill="#F982C6"/>
<path d="M437.7 270C430.3 267.9 418.8 271.4 417.7 279.4C416.6 287.4 429.6 288.8 439.1 285.7C448.9 282.5 449.8 273.4 437.7 270Z" fill="#F982C6"/>
<path d="M447.3 292.3C443.7 292.8 441.1 296.1 442.1 299.1C443.1 302.1 449.5 301 452.3 297.4C453.8 295.4 453.2 291.4 447.3 292.3Z" fill="#F982C6"/>
<path d="M258.3 297.9C253.3 302.1 252.4 308.9 256.3 312.6C260.1 316.3 271.6 309.1 274.3 300.3C276.5 292.9 269.4 288.4 258.3 297.9Z" fill="#F982C6"/>
<path d="M282.6 313.1C280.9 314.5 280.6 316.8 281.9 318.1C283.2 319.4 287.1 316.9 288 313.9C288.8 311.5 286.4 309.9 282.6 313.1Z" fill="#F982C6"/>
<path d="M283.9 296.4C282.5 297.4 282.1 299.2 283 300.3C283.9 301.4 287.2 299.7 288.1 297.4C288.9 295.5 287.1 294.1 283.9 296.4Z" fill="#F982C6"/>
<path d="M260.1 319.5C256.9 321.8 256.1 325.8 258.2 328.2C260.3 330.6 267.5 326.9 269.5 321.8C271.2 317.5 267.2 314.4 260.1 319.5Z" fill="#F982C6"/>
<path d="M509.7 385.6C509.5 385.6 509.3 385.6 509.1 385.6C505.8 385.1 504.2 381.7 500.8 374.6C496.1 364.9 485.5 358.2 458.7 356.4C431.9 354.6 388.2 386.1 340 386C338.8 386 337.7 386 336.5 386C335.6 386 334.8 386 333.9 386C332.5 386 331.1 386 329.6 385.9C328.5 385.9 327.3 385.9 326.2 385.8C325.1 385.8 324 385.7 322.9 385.7H323C320.8 385.6 318.6 385.5 316.5 385.5C314.3 385.4 312.2 385.3 310 385.2C307.9 385.1 305.8 385 303.7 384.8C302.7 384.7 301.7 384.7 300.7 384.6C297.1 384.4 293.5 384.1 290.1 383.8C289.3 383.7 288.4 383.7 287.6 383.6C286.5 383.5 285.3 383.4 284.2 383.3C283.1 383.2 282 383.1 280.9 383C277.1 382.6 273.3 382.2 269.8 381.8C269.3 381.7 268.8 381.7 268.3 381.6C264.2 381.1 260.4 380.6 256.7 380.1C255.9 380 255.1 379.9 254.3 379.8C251.5 379.4 248.7 379 246.1 378.6C245.7 378.5 245.3 378.5 244.9 378.4C243.3 378.1 241.7 377.9 240.1 377.6C239.5 377.5 238.9 377.4 238.3 377.3C237.8 377.2 237.2 377.1 236.7 377C220.1 374.1 210.4 371.6 210.4 371.6C210.4 371.6 176.9 367.1 155.8 368.3C140.9 369.2 125.8 372 117.4 368.7C124.5 365.6 141 361.9 163.9 361.4C191.2 360.8 237.7 372.2 281.2 375.8C324.7 379.4 361.6 380.9 406.3 364.7C451 348.5 469.6 348.8 489.4 358.1C509.2 367.3 509.7 385.6 509.7 385.6Z" fill="#FFBDE6"/>
<path d="M276.1 414.1C243.7 439.6 194.2 432.4 191.5 422.2C189.2 413.4 193.5 416 213.5 406C216.8 404.4 220.4 402.4 224.5 400C253.9 382.9 236.8 350.2 260.2 340C274.3 333.8 285.3 333.7 292.9 338.4C297.9 341.5 301.4 346.7 303.5 353.8C307.7 368.9 308.5 388.6 276.1 414.1Z" fill="#FF97C9"/>
<path d="M276.1 414.1C243.7 439.6 194.2 432.4 191.5 422.2C189.2 413.4 229.6 441.6 277.5 398.3C297.4 380.4 294.9 348.4 292.8 338.4C297.8 341.5 301.3 346.7 303.4 353.8C307.7 368.9 308.5 388.6 276.1 414.1Z" fill="#F982C6"/>
<path d="M222 433.2C201 433.2 190.9 423.9 190.4 423.4C190.3 423.3 190.3 423.3 190.2 423.2C189.9 422.8 187.6 419.6 188.5 416.4C188.8 415.2 189.8 413.6 192.3 412.7C193 412.4 194.2 412.1 195.8 411.7C203.4 409.8 221.3 405.4 231.6 391.8C239.8 380.9 241.4 373 243 365.3C243.8 361.3 244.6 357.6 246.2 353.7C251 342.1 258.5 338.4 258.8 338.2C259.6 337.8 260.5 338.1 260.9 338.9C261.3 339.7 261 340.6 260.2 341C260.1 341 253.5 344.5 249.1 354.9C247.6 358.5 246.9 362.1 246.1 365.9C244.5 373.5 242.8 382.2 234.1 393.7C223.1 408.3 204.5 412.8 196.6 414.8C195.1 415.2 194 415.4 193.4 415.7C191.8 416.3 191.6 417.1 191.5 417.4C191.1 418.7 192.1 420.6 192.6 421.3C194.1 422.6 213.2 438.2 252.3 424.5C301.1 407.3 303.9 370.1 304 365.9C304.5 352.1 296.1 340.5 288 338.4C287.2 338.2 286.7 337.3 286.9 336.5C287.1 335.7 288 335.2 288.8 335.4C298 337.8 307.7 350.3 307.1 366.1C306.9 370.5 304.1 409.7 253.3 427.5C241 431.6 230.6 433.2 222 433.2Z" fill="#F774B9"/>
<path d="M120.4 381.7C109.6 382.9 95.5 395.8 105.4 410.2C115.3 424.6 148.3 428.2 161.8 426.7C175.3 425.2 180.4 421.6 182.5 415C184.6 408.4 171.2 409.4 154 395.2C139.9 383.5 130.2 380.6 120.4 381.7Z" fill="#FF97C9"/>
<path d="M115.9 399.9C120.9 405.6 140.1 416.3 156.4 417.7C179.1 419.7 184.7 415.7 165.6 409.3C146.5 402.9 141.2 400.6 131.9 393.4C120 384.2 107.4 390.1 115.9 399.9Z" fill="#F982C6"/>
<path d="M153.5 428.4C138.8 428.4 119.1 424.9 107.1 413.9C102.2 409.4 99.9001 404.6 100.3 399.5C101.1 390 111.1 383.3 111.6 383C112.3 382.5 113.3 382.7 113.8 383.4C114.3 384.1 114.1 385.1 113.4 385.6C113.3 385.7 104.2 391.7 103.5 399.8C103.2 403.9 105.1 407.8 109.3 411.6C125 425.9 154.5 426.8 166.8 424.1C175.2 422.3 179.6 418.7 180.9 416.1C181.5 414.9 181.6 413.8 181.1 412.8C179.7 409.7 174.4 408.9 172.5 408.8C171.6 408.8 171 408 171 407.2C171 406.3 171.7 405.6 172.6 405.7C173 405.7 181.5 406.1 184 411.6C184.8 413.5 184.7 415.5 183.7 417.6C181.5 421.9 175.5 425.5 167.5 427.3C163.8 427.9 159 428.4 153.5 428.4Z" fill="#F774B9"/>
<path d="M456.8 345C456.6 351.7 455.6 354.9 455.1 356.2C454 356.2 452.8 356.3 451.7 356.5C451.5 355.9 451.5 355.2 451.8 354.6C451.9 354.5 453 352 453.2 344.9C453.4 340.2 452.9 337.1 452.7 336.2C453.9 336.2 455.1 336.2 456.4 336.2C456.7 337.8 457 340.8 456.8 345Z" fill="#F982C6"/>
<path d="M488.4 343.4C488.4 344.9 488.2 347.7 487.5 351.4C486.3 357 484.9 359.7 484.2 360.8C483.1 360.4 481.9 360 480.6 359.6C480.6 359.4 480.8 359.1 481 358.8C481.1 358.7 482.8 355.9 484 350.1C485 345.4 484.8 342.5 484.8 342.4C484.8 342.1 484.8 341.8 484.9 341.5C486.1 342.2 487.3 342.8 488.4 343.4Z" fill="#F982C6"/>
<path d="M341 371.5C340.9 378.2 340.4 383.8 340.1 385.9H340C338.8 385.9 337.7 385.9 336.5 385.9C336.6 384.8 337.3 378.6 337.4 371.4C337.5 363.7 336.5 359.1 336.4 359.1C336.3 358.8 336.3 358.5 336.3 358.2C337.5 358.1 338.7 358 339.9 357.9C340.2 358.9 341.1 363.8 341 371.5Z" fill="#F982C6"/>
<path d="M370.3 367.8C370.2 375.4 369.7 379.9 369.2 382.5C367.9 382.8 366.6 383.1 365.3 383.3V383.2C365.3 383.1 366.5 379.2 366.7 367.8C366.8 360.5 366.3 355.8 366.1 354.2C367.3 354 368.5 353.7 369.7 353.5C369.9 355.4 370.4 360.3 370.3 367.8Z" fill="#F982C6"/>
<path d="M313.5 372.5C313.4 377.8 313.1 382.5 312.8 385.2C311.9 385.2 310.9 385.1 310 385.1C309.7 385.1 309.5 385.1 309.2 385.1C309.5 382.5 309.8 377.8 309.9 372.5C310 364.8 308.9 360.2 308.9 360.2C308.8 359.9 308.8 359.6 308.8 359.3C310 359.3 311.2 359.3 312.4 359.3C312.8 360.7 313.6 365.4 313.5 372.5Z" fill="#F982C6"/>
<path d="M205.9 361C205.9 364.8 205.7 368.2 205.5 370.9C204.4 370.8 203.2 370.6 201.9 370.5C202.1 367.9 202.3 364.6 202.3 361C202.4 355.4 201.8 351.5 201.5 349.7C202.7 349.9 204 350.2 205.3 350.4C205.7 352.8 206 356.4 205.9 361Z" fill="#F982C6"/>
<path d="M237.7 364.1C237.6 370.1 237.3 374.2 236.9 376.9C236.8 376.9 236.7 376.9 236.6 376.9C235.5 376.7 234.4 376.5 233.3 376.3C233.6 373.9 234 370 234.1 364.1C234.1 360.3 234 357.3 233.9 355C235.1 355.1 236.3 355.3 237.5 355.4C237.7 357.6 237.7 360.6 237.7 364.1Z" fill="#F982C6"/>
<path d="M179.3 356.9C179.2 361.5 179 365.6 178.7 368.4C177.5 368.3 176.3 368.3 175.1 368.2C175.3 365.5 175.6 361.4 175.7 356.8C175.8 351.7 175.3 347.9 175 345.9C176.2 346 177.4 346.1 178.7 346.2C179 348.7 179.3 352.3 179.3 356.9Z" fill="#FF97C9"/>
<path d="M477.1 396.3C476.9 402.2 458.4 408 435.9 401.9C413.4 395.8 387.5 383.4 367.7 344.3C358.3 325.7 360.5 312.4 367.4 303.7C375 294.1 388.5 290.3 398.3 291.6C414.7 293.9 424 299.7 429.4 310.3C434.8 320.9 431 337.5 441.6 355.3C450.5 370.3 469.7 384.9 475.5 392.6C476.6 394.2 477.2 395.4 477.1 396.3Z" fill="#FF97C9"/>
<path d="M477.1 396.3C476.9 402.2 458.4 408 435.9 401.9C413.4 395.8 387.5 383.4 367.7 344.3C358.3 325.7 360.5 312.4 367.4 303.7C369 315.8 376.7 350.9 412 374.5C447 397.8 468.4 397.7 475.5 392.7C476.6 394.2 477.2 395.4 477.1 396.3Z" fill="#F982C6"/>
<path d="M455.9 404.6C446.2 404.6 431.9 402.1 413 392.4C386.7 378.9 370.6 359.1 365.2 333.7C358.6 303.1 377.8 293.2 378 293.1C378.8 292.7 379.7 293 380.1 293.8C380.5 294.6 380.2 295.5 379.4 295.9C378.7 296.3 362.2 304.9 368.3 333.1C373.6 357.6 389.1 376.6 414.5 389.7C446.2 406 464.2 401.4 468.9 399.6C472.3 398.3 473.7 396.8 473.9 396.2C474.2 395.4 475.1 395 475.9 395.3C476.7 395.6 477.1 396.5 476.8 397.3C476.1 399.2 473.6 401.1 470 402.4C467.8 403.2 463.1 404.6 455.9 404.6Z" fill="#F774B9"/>
<path d="M227.3 406.8C224.6 409.3 221.1 411.5 216.7 413.2C192.4 422.4 155.9 414.1 135.4 404C120.4 396.6 112.2 388.1 109.8 375.9C108.9 371.4 108.8 366.5 109.5 360.9C112 340.1 125.4 335.6 139.2 335.2C152.3 334.9 160.1 344.2 161.3 345.7C161.3 345.7 155.1 348.5 157.4 354.8C159.7 361.1 173 355.4 183.6 353.3C194.2 351.3 212 352.4 224.8 365.9C235.3 377 239.5 395.5 227.3 406.8Z" fill="#FF97C9"/>
<path d="M227.3 406.8C224.6 409.3 221.1 411.5 216.7 413.2C204 418 187.9 418.1 172.6 415.5C170.9 415.2 169.3 414.9 167.6 414.6C158.7 412.8 150.3 410.2 143 407.3C141.1 406.6 139.4 405.8 137.7 405C136.9 404.6 136.2 404.3 135.5 403.9C120.5 396.5 112.3 388 109.9 375.8C114.6 380 122.7 385.8 136.6 391.7C137.7 392.2 138.9 392.7 140.1 393.1C145.3 395.2 151.2 397.3 157.9 399.3C160.2 400 162.5 400.6 164.7 401.2C165.9 401.5 167.1 401.8 168.3 402.1C192 407.9 212.6 408 227.3 406.8Z" fill="#FFCAE8"/>
<path d="M172.6 415.5C170.9 415.2 169.3 414.9 167.6 414.6C166.8 413.1 166 411.1 165.4 408.6C164.7 405.5 164.5 403 164.6 401.3C165.8 401.6 167 401.9 168.2 402.2C168.2 403.4 168.4 405.1 168.8 407.1C169.8 411.5 171.9 414.1 172 414.1C172.4 414.5 172.6 415 172.6 415.5Z" fill="#FF97C9"/>
<path d="M143 407.3C141.1 406.6 139.4 405.8 137.7 405C137.1 403.4 136.6 401.3 136.4 398.7C136.2 395.7 136.3 393.5 136.5 391.7C137.6 392.2 138.8 392.7 140 393.1C139.9 394.4 139.8 396 140 398.2C140.4 404 142.7 406.7 142.7 406.7C142.9 407 143 407.2 143 407.3Z" fill="#FF97C9"/>
<path d="M129.3 349.3C125.6 351.2 121.4 356.8 121 360.6C120.5 364.3 121.5 366.5 126.4 366.1C131.4 365.8 135.4 357.8 135.4 353.5C135.4 349.2 133 347.4 129.3 349.3Z" fill="#F982C6"/>
<path d="M133.4 368.2C131.4 369.1 129.1 371.9 128.8 373.8C128.6 375.6 129 376.7 131.8 376.5C134.5 376.3 136.8 372.4 136.8 370.3C136.8 368.2 135.5 367.3 133.4 368.2Z" fill="#F982C6"/>
<path d="M151 371.3C149.6 372 148 374.1 147.8 375.5C147.6 376.9 148 377.7 149.9 377.6C151.8 377.5 153.3 374.5 153.3 372.9C153.3 371.3 152.4 370.6 151 371.3Z" fill="#F982C6"/>
<path d="M218.6 362.4C218.2 362.4 217.8 362.2 217.5 361.9C217.5 361.9 211.8 356.5 196.7 354.7C190.7 354 183.3 355.6 176.7 357C168.3 358.8 161.1 360.4 157.4 357.4C155.8 356.2 155 354.2 155 351.7C155 349.8 155.7 348.2 157.1 346.9C161.7 342.6 172.7 343.5 173.9 343.7C174.8 343.8 175.4 344.5 175.3 345.4C175.2 346.3 174.5 346.9 173.6 346.8C170.6 346.5 162.2 346.4 159.2 349.2C158.4 349.9 158.1 350.7 158.1 351.7C158.1 353.3 158.5 354.3 159.3 355C161.9 357.1 168.8 355.6 176 354C182.8 352.5 190.6 350.8 197.1 351.6C213.4 353.6 219.5 359.5 219.7 359.7C220.3 360.3 220.3 361.3 219.7 361.9C219.4 362.2 219 362.4 218.6 362.4Z" fill="#F774B9"/>
<path d="M213.4 398.1C203 398.1 195.1 394.8 194.7 394.6C193.8 394.2 193.4 393.2 193.8 392.4C194.2 391.5 195.2 391.1 196 391.5C196.1 391.5 206.8 395.9 219 394.3C229 393 231.1 389.8 231.2 389.7C231.6 388.9 232.7 388.6 233.5 389C234.3 389.4 234.6 390.5 234.2 391.3C233.9 391.8 231.3 396 219.5 397.6C217.4 398 215.3 398.1 213.4 398.1Z" fill="#1C3177"/>
<path d="M203.6 379C198.6 379 196.1 375.6 195.4 373.6C195.1 372.7 195.6 371.6 196.5 371.3C197.4 371 198.5 371.5 198.8 372.4C198.9 372.8 200.2 375.8 204.4 375.3C208.3 374.9 208.6 372.4 208.6 371.9C208.6 370.9 209.4 370.1 210.4 370.1C211.4 370.1 212.2 370.9 212.2 371.9C212.2 374 210.6 378.3 204.7 378.9C204.4 378.9 204 379 203.6 379Z" fill="#1C3177"/>
<path d="M225.1 378.6C224.8 378.6 224.4 378.6 224.1 378.5C219.1 377.8 218.1 373.3 218 373.1C217.8 372.1 218.4 371.2 219.4 371C220.4 370.8 221.3 371.4 221.5 372.4C221.6 372.6 222.1 374.7 224.6 375C225.1 375.1 225.8 375.1 226.2 374.8C226.6 374.5 226.7 373.9 226.7 373.8C226.8 372.8 227.7 372.1 228.7 372.2C229.7 372.3 230.4 373.2 230.3 374.1C230.3 374.3 230.1 376.2 228.5 377.5C227.7 378 226.7 378.6 225.1 378.6Z" fill="#1C3177"/>
<path d="M244.7 341.2C244.4 343.2 243.9 345.4 243.1 347.7C240.1 356.5 233.5 365.6 226.1 365.3C220.6 365 212.7 353.9 210.7 341.6V341.5C208.6 329.2 211.2 315.5 227.1 315.5C242.9 315.4 246.1 331.3 244.7 341.2Z" fill="#99ADF9"/>
<path d="M243.1 347.6C240.1 356.4 233.5 365.5 226.1 365.2C220.6 364.9 212.7 353.8 210.7 341.5V341.4C212.9 344.9 216.5 348.5 222 351.1C230.8 355.4 238.5 351.4 243.1 347.6Z" fill="#7C99F2"/>
<path d="M225.5 317.8C222.2 314.8 215.8 318.5 213 325.1C210.1 331.7 210.9 337.9 214.1 338.7C217.3 339.5 215.8 332.2 220.4 328C224.9 323.7 228.2 320.2 225.5 317.8Z" fill="#C7D4FF"/>
<path d="M170.6 299.6C173.251 299.6 175.4 297.451 175.4 294.8C175.4 292.149 173.251 290 170.6 290C167.949 290 165.8 292.149 165.8 294.8C165.8 297.451 167.949 299.6 170.6 299.6Z" fill="#D2E9FF"/>
<path d="M163 281.3C164.546 281.3 165.8 280.046 165.8 278.5C165.8 276.954 164.546 275.7 163 275.7C161.454 275.7 160.2 276.954 160.2 278.5C160.2 280.046 161.454 281.3 163 281.3Z" fill="#D2E9FF"/>
<path d="M91.2999 262.2C88.5999 264.2 91.6999 267.2 91.4999 267.9C91.2999 268.6 84.5999 268.1 81.0999 269.6C77.4999 271.1 79.1999 275.2 84.7999 275.7C90.3999 276.2 105.6 277.3 109.3 274.7C113 272.1 110.6 269.8 108.6 268.9C106.6 268 102.6 268.1 103 266.8C103.4 265.5 108.4 265.6 106.8 262.9C105.8 261.1 95.3999 259.3 91.2999 262.2Z" fill="#D2E9FF"/>
<path d="M194.4 230.3C196.3 236 185.4 235 186 236.7C187.2 239.9 192.5 237.1 192.7 242.6C192.9 248.1 187.3 247.7 173.3 248.3C166.8 248.6 160.1 246.6 160.5 242.1C160.9 237.6 171.3 239.2 170 236.8C168.7 234.4 168 232.7 170.1 230.1C172.2 227.5 177.4 227.4 183.8 227.8C190.1 228.2 193.8 228.7 194.4 230.3Z" fill="#D2E9FF"/>
<path d="M172.9 181.2C155.5 182 159.1 181 154.6 183.3C150.1 185.6 156.4 189.5 153.7 190.7C151 191.9 142 193.6 142.4 196.1C143.5 203.7 180.7 203.5 182.3 196.9C183.3 192.7 176.6 193.2 177.3 191.5C178 189.8 190 190.9 191.6 185.9C193.2 180.9 181.3 180.8 172.9 181.2Z" fill="#D2E9FF"/>
<path d="M152.7 291.9C148.7 298.8 138.2 307.7 134.1 302.9C134 302.7 133.8 302.6 133.7 302.4C130.7 298.1 132.9 289.8 133.6 287.4C133.7 287.1 133.8 286.9 133.8 286.8C133.5 287.4 130.6 293.3 129 294.8C126.8 296.8 122.6 297.3 121.2 294C121 293.4 120.8 292.8 120.8 292C120.6 288 123.4 284.2 128.7 279.1C134 274 141.6 269.7 144.2 276.6C146.6 283.4 141.5 293.7 141.2 294.3C141.5 293.8 146.3 286.2 148.8 285C150.1 284.4 151.9 284.4 153.1 285.3C154.4 286.1 154.9 288.2 152.7 291.9Z" fill="#1C3177"/>
<path d="M133.7 287.4C133.8 287 133.9 286.7 133.9 286.7C133.9 286.7 130.8 293.2 129.1 294.7C126.9 296.7 122.7 297.2 121.3 293.9C122.6 294.2 124.4 294.1 126.2 292.5C129.5 289.7 136 280 136 280C136 280 135 283.7 133.7 287.4Z" fill="#0C215B"/>
<path d="M152.7 291.9C148.7 298.8 138.2 307.7 134.1 302.9C134 302.7 133.8 302.6 133.7 302.4C134.6 302.4 136.9 302.3 140.3 300.6C144.9 298.4 148.8 292.2 151.2 288.7C152.1 287.4 152.7 286.2 153 285.1C154.4 286.1 154.9 288.2 152.7 291.9Z" fill="#0C215B"/>
<path d="M147.9 257.1C143.6 261 133.8 263.1 128.7 262.7C124.6 262.3 121.1 260.1 121.8 256.3C122 255.4 122.3 254.4 123 253.4C126.4 247.9 134.9 242.3 134.9 242.3L134.2 242.6C132.2 243.3 126.5 245.2 122.7 244.3C119.8 243.6 117.9 241.2 118.2 238.5C118.4 237 119.3 235.4 121.3 234.1C129 229.1 140.4 227.5 145.1 228.1C149.8 228.7 151.7 231.8 150.5 237C149.3 242 139.9 249.4 139.3 249.9C139.8 249.8 147.1 247.6 149 249.1C149.7 249.7 150.4 250.5 150.6 251.4C151 252.9 150.5 254.7 147.9 257.1Z" fill="#1C3177"/>
<path d="M139.7 237.9L134.9 242.4L134.2 242.7C132.2 243.4 126.5 245.3 122.7 244.4C119.8 243.7 117.9 241.3 118.2 238.6C118.9 239.5 120.9 241 125.7 240.5C132.2 239.7 139.7 237.9 139.7 237.9Z" fill="#0C215B"/>
<path d="M147.9 257.1C143.6 261 133.8 263.1 128.7 262.7C124.6 262.3 121.1 260.1 121.8 256.3C123.1 257.4 126 258.8 132 258.3C141.3 257.4 148.9 252.9 150.7 251.5C151 252.9 150.5 254.7 147.9 257.1Z" fill="#0C215B"/>
<path d="M126.8 210.8C120.2 216.8 108.4 224.5 104 225.7C99.7001 226.8 94.6001 226.6 93.8001 219.8V219.7C93.0001 212.8 98.8001 201.2 98.8001 201.2C98.8001 201.2 98.8001 201.2 98.7001 201.3C97.8001 202.2 89.6001 209.8 85.0001 207.8C83.1001 207 81.8001 205.9 81.0001 204.7C78.3001 200.7 80.6001 195 85.4001 190.5C91.8001 184.6 104.5 176.9 108.8 175.3C113.1 173.7 117 173.8 117.4 182.9C117.8 191.1 111.7 203.1 110.6 205.2C111.1 204.4 112.6 202.2 115.5 200.1C119.2 197.6 126.3 192.8 130.5 196.3C131.7 197.3 132.4 198.6 132.6 200.1C132.9 203.1 131.2 206.9 126.8 210.8Z" fill="#1C3177"/>
<path d="M102.4 193.5L98.7 201.3C97.8 202.2 89.6 209.8 85 207.8C83.1 207 81.8 205.9 81 204.7C82.3 204.7 84.2 204.4 86.6 203.7C92.3 201.9 102.4 193.5 102.4 193.5Z" fill="#0C215B"/>
<path d="M126.8 210.8C120.2 216.8 108.4 224.5 104 225.7C99.7 226.8 94.6 226.6 93.8 219.8C95.6 221.2 98.8 222.3 104.4 220.1C113.3 216.5 128.4 204.9 132.6 200.2C132.9 203.1 131.2 206.9 126.8 210.8Z" fill="#0C215B"/>
</svg>
