<svg width="76" height="34" viewBox="0 0 114 58" fill="none" xmlns="http://www.w3.org/2000/svg">
<g clip-path="url(#clip0_1289_5391)">
<path d="M65.6692 35.2916C65.6692 36.6274 65.4207 37.9052 64.9657 39.0832C63.4092 43.1068 59.4546 45.9649 54.8202 45.9649C50.0772 45.9649 46.0469 42.9709 44.5714 38.7985C35.8094 39.4183 30.7992 35.5651 28.716 28.221C23.4536 26.8129 19.5854 22.0789 19.5854 16.4546C19.5854 12.8172 21.2044 9.55099 23.772 7.31829C25.9568 5.41522 28.8302 4.26074 31.9781 4.26074C35.5844 4.26074 38.8318 5.77572 41.0937 8.19737C42.6151 7.21851 44.4331 6.65113 46.3858 6.65113C47.7486 6.65113 49.0475 6.92857 50.2245 7.4288C53.6302 8.87513 56.0249 12.1881 56.0782 16.0578C56.08 16.1031 56.08 16.1466 56.08 16.192L56.0782 16.3534V16.3551C56.5735 16.2482 57.0874 16.192 57.6162 16.192C59.9775 16.192 62.0756 17.3049 63.3979 19.0266H63.4C64.3171 20.2211 64.8606 21.709 64.8606 23.3221C64.8639 24.9951 64.2648 26.6151 63.1697 27.8948C63.0874 27.9935 63.0019 28.0896 62.9134 28.183C64.6285 30.0697 65.669 32.5618 65.669 35.2916" fill="#FF5CAA"/>
<path d="M46.2716 15.5927C44.3088 17.6916 43.1101 20.4934 43.1101 23.5708C43.1101 30.0792 48.4724 35.3556 55.087 35.3556C55.9404 35.356 56.7915 35.2671 57.6257 35.0903M31.4604 11.7886C31.7601 16.0449 35.3641 19.4063 39.7658 19.4063M53.006 17.8257C53.8962 17.0979 54.9522 16.593 56.0839 16.3542M41.0994 8.19629C39.7052 9.08964 38.5593 10.3277 37.7877 11.7886" stroke="#103849" stroke-width="1.47361" stroke-miterlimit="10" stroke-linecap="round" stroke-linejoin="round"/>
<path d="M65.6731 35.2895C65.6731 41.1852 60.8158 45.963 54.8241 45.963C50.0811 45.963 46.0508 42.9689 44.5753 38.7966C35.8133 39.4163 30.8032 35.5631 28.7199 28.2191C23.4575 26.8109 19.5894 22.0769 19.5894 16.4527C19.5894 9.71787 25.1372 4.25879 31.982 4.25879C35.5883 4.25879 38.8357 5.77377 41.0976 8.19542C42.619 7.21656 44.437 6.64918 46.3897 6.64918C51.7442 6.64918 56.0839 10.9213 56.0839 16.1901L56.0821 16.3514V16.3532C56.5774 16.2462 57.0913 16.1901 57.6201 16.1901C61.6207 16.1901 64.8645 19.3816 64.8645 23.3202C64.8645 25.1997 64.1258 26.907 62.9173 28.181C64.6324 30.0678 65.6729 32.5598 65.6729 35.2896L65.6731 35.2895Z" stroke="#103849" stroke-width="1.28933" stroke-miterlimit="10" stroke-linejoin="round"/>
<path d="M62.9203 28.1802C62.9203 28.1802 62.0793 27.3215 60.9289 26.4277M30.57 47.5372C30.0952 46.5612 29.7914 45.5133 29.6714 44.4377" stroke="#103849" stroke-width="1.47361" stroke-miterlimit="10" stroke-linecap="round" stroke-linejoin="round"/>
<path d="M51.8373 40.1145C52.2208 41.1614 52.4164 42.2659 52.4155 43.3788C52.4155 49.1025 47.3097 53.7404 41.0101 53.7404C36.339 53.7404 32.3252 51.1902 30.5644 47.5383C29.1131 48.5079 27.3722 49.0734 25.5027 49.0734C21.3106 49.0734 17.7739 46.2351 16.6651 42.3529C15.8735 42.5471 15.0607 42.6451 14.2448 42.6447C8.76865 42.6447 4.32764 38.2765 4.32764 32.8863C4.32764 28.7468 6.9487 25.209 10.6473 23.7934C10.5018 23.2008 10.4245 22.5864 10.4245 21.9557C10.4245 17.0675 15.0405 13.1055 20.7358 13.1055C24.0053 13.1055 26.9227 14.4138 28.8107 16.4511C30.325 15.6518 32.0711 15.1934 33.9316 15.1934C39.7024 15.1934 44.3807 19.5959 44.3807 25.0259C44.3813 25.1539 44.3782 25.282 44.3715 25.4099C49.1331 26.269 52.7524 30.5719 52.7524 35.7518C52.7524 37.3087 52.4265 38.7858 51.8372 40.1143" fill="#FF5CAA"/>
<path d="M48.1373 35.2909C49.8372 36.5268 51.1378 38.1981 51.8378 40.1155M16.6656 42.3538C16.4298 41.531 16.3045 40.6628 16.3045 39.7639C16.3045 36.0953 18.4025 32.922 21.4492 31.4049M13.2305 23.1818C12.328 23.2725 11.4622 23.481 10.6479 23.7944M28.8134 16.4539L28.8114 16.4521M28.8114 16.4521C27.5167 17.1409 26.3931 18.0799 25.5145 19.2" stroke="#103849" stroke-width="1.47361" stroke-miterlimit="10" stroke-linecap="round" stroke-linejoin="round"/>
<path d="M51.8412 40.1145C52.2247 41.1614 52.4203 42.2659 52.4194 43.3788C52.4194 49.1025 47.3136 53.7404 41.014 53.7404C36.3429 53.7404 32.3291 51.1902 30.5683 47.5383C29.117 48.5079 27.3761 49.0734 25.5066 49.0734C21.3145 49.0734 17.7778 46.2351 16.669 42.3529C15.8774 42.5471 15.0646 42.6451 14.2487 42.6447C8.77255 42.6447 4.33154 38.2765 4.33154 32.8863C4.33154 28.7468 6.9526 25.209 10.6512 23.7934C10.5057 23.2008 10.4284 22.5864 10.4284 21.9557C10.4284 17.0675 15.0444 13.1055 20.7397 13.1055C24.0092 13.1055 26.9266 14.4138 28.8146 16.4511C30.3289 15.6518 32.075 15.1934 33.9355 15.1934C39.7063 15.1934 44.3846 19.5959 44.3846 25.0259C44.3852 25.1539 44.3821 25.282 44.3754 25.4099C49.137 26.269 52.7563 30.5719 52.7563 35.7518C52.7563 37.3087 52.4304 38.7858 51.8411 40.1143L51.8412 40.1145Z" stroke="#103849" stroke-width="1.28933" stroke-miterlimit="10" stroke-linejoin="round"/>
<path d="M35.4611 28.3316C37.2957 26.4322 39.8283 25.2559 42.6243 25.2559C43.2212 25.2559 43.8052 25.3085 44.3742 25.4115M43.7181 37.7575C42.2727 39.5359 40.049 40.6752 37.5547 40.6752C33.1987 40.6752 29.6675 37.2003 29.6675 32.9143C29.6647 31.1247 30.2932 29.3895 31.4457 28.005" stroke="#103849" stroke-width="1.47361" stroke-miterlimit="10" stroke-linecap="round" stroke-linejoin="round"/>
<path d="M41.0446 44.5171C41.0446 42.9929 40.6539 41.5595 39.965 40.307M24.5608 39.5603C25.8612 37.6645 27.8857 36.2924 30.2453 35.8267M10.4995 32.8939C11.4986 32.5044 12.5636 32.3046 13.6382 32.3049C15.3613 32.3026 17.0441 32.8173 18.4622 33.7805M26.7152 25.7511C26.1785 25.9067 25.6104 25.99 25.0225 25.99C23.462 25.992 21.9628 25.3926 20.8459 24.3203M52.601 25.3727C53.4266 24.7666 54.4295 24.4398 55.4596 24.4414C55.7458 24.4413 56.0316 24.4662 56.3133 24.5161" stroke="#103849" stroke-width="1.47361" stroke-miterlimit="10" stroke-linecap="round" stroke-linejoin="round"/>
<path d="M63.7682 28.1856C64.8955 26.8092 65.5104 25.1026 65.5104 23.3208C65.5104 19.0394 61.9712 15.5561 57.6212 15.5561C57.3172 15.5561 57.0138 15.5735 56.7129 15.6078C56.4051 10.2672 51.8928 6.01552 46.3906 6.01552C44.556 6.01552 42.7739 6.48816 41.2039 7.38695C38.7574 4.98142 35.4414 3.62857 31.9828 3.625C26.186 3.625 21.263 7.36792 19.5731 12.5258C14.0786 13.0316 9.78371 17.0674 9.78371 21.956C9.78371 22.4425 9.82695 22.9298 9.91219 23.4105C6.11232 25.0863 3.68701 28.7493 3.68701 32.8868C3.68701 38.6172 8.42504 43.2793 14.2488 43.2793C14.9138 43.2794 15.5774 43.2183 16.2309 43.0968C17.6132 47.0182 21.3451 49.708 25.5068 49.708C27.1954 49.7092 28.8545 49.2723 30.3169 48.4415C32.3758 52.0682 36.4944 54.375 41.014 54.375C46.5167 54.375 51.1665 50.9904 52.603 46.3838C53.3257 46.5239 54.0689 46.5977 54.825 46.5977C61.1626 46.5977 66.3188 41.5248 66.3188 35.29C66.3188 32.6926 65.417 30.191 63.7682 28.1854V28.1856Z" stroke="#103849" stroke-width="2.57879" stroke-miterlimit="10" stroke-linejoin="round"/>
<path d="M31.9793 0C28.5741 0 25.2986 0.99775 22.5071 2.88518C20.0967 4.51489 18.186 6.71306 16.9239 9.29417C10.7804 10.7591 6.38798 15.6238 6.1103 21.3762C2.30781 23.974 -0.000488281 28.2634 -0.000488281 32.8867C-0.000488281 40.5348 6.25729 46.7721 13.9989 46.902C16.4434 50.8541 20.8011 53.3329 25.5032 53.3329C26.7044 53.3329 27.8849 53.1763 29.0298 52.8658C31.9932 56.1085 36.3471 57.9999 41.0105 57.9999C44.1695 57.9999 47.2295 57.1185 49.8596 55.4515C51.9969 54.0971 53.7189 52.3093 54.9107 50.2223C63.2392 50.1753 69.9992 43.4947 69.9992 35.29C69.9992 32.755 69.3548 30.2953 68.1238 28.096C68.8273 26.5992 69.1914 24.9697 69.1908 23.3206C69.1908 20.3337 68.0208 17.5093 65.8963 15.3679C64.2208 13.6791 62.1001 12.5635 59.7923 12.1318C59.0121 9.63998 57.5184 7.39491 55.477 5.68378C52.9404 3.55918 49.7184 2.39174 46.3873 2.39025C44.8347 2.39025 43.2764 2.64948 41.8082 3.14618C38.956 1.10854 35.5185 0 31.9793 0ZM31.9793 2.35613C35.4318 2.35613 38.8177 3.61773 41.4111 5.84513C42.9668 5.1214 44.6662 4.74623 46.387 4.74665C52.1186 4.74665 56.9312 8.84803 57.8557 14.2904C62.8068 14.4153 66.796 18.4183 66.796 23.3207C66.7943 25.0385 66.2963 26.7203 65.36 28.1701C66.8133 30.2538 67.6045 32.7469 67.6045 35.2902C67.6045 42.2249 61.8698 47.8667 54.8213 47.8667C54.3654 47.8667 53.9079 47.8423 53.4526 47.7939C51.4853 52.4662 46.5281 55.6439 41.0104 55.6439C36.4599 55.6439 32.29 53.5438 29.8434 50.0914C28.4732 50.6748 26.9962 50.9762 25.5032 50.9769C21.1533 50.9769 17.2188 48.4105 15.4072 44.4925C15.0212 44.5296 14.6329 44.548 14.2452 44.548C7.7106 44.548 2.39415 39.3169 2.39415 32.8867C2.39415 28.6178 4.76862 24.7068 8.51834 22.6758C8.50015 22.4363 8.49103 22.1962 8.49099 21.9559C8.49099 16.6819 12.7901 12.2508 18.6207 11.3635C20.7508 5.94287 26.0184 2.35613 31.9796 2.35613" fill="#F0F0F0"/>
</g>
<path d="M80.4895 19H85.3495V40H80.4895V19ZM113.043 42.25C112.363 43.09 111.533 43.73 110.553 44.17C109.593 44.61 108.533 44.83 107.373 44.83C105.813 44.83 104.403 44.49 103.143 43.81C101.883 43.15 100.443 41.97 98.8233 40.27C96.9233 40.03 95.2233 39.42 93.7233 38.44C92.2433 37.46 91.0833 36.2 90.2433 34.66C89.4233 33.1 89.0133 31.38 89.0133 29.5C89.0133 27.44 89.5033 25.59 90.4833 23.95C91.4833 22.29 92.8533 20.99 94.5933 20.05C96.3533 19.11 98.3233 18.64 100.503 18.64C102.683 18.64 104.643 19.11 106.383 20.05C108.123 20.99 109.493 22.29 110.493 23.95C111.493 25.59 111.993 27.44 111.993 29.5C111.993 31.94 111.303 34.08 109.923 35.92C108.563 37.76 106.753 39.04 104.493 39.76C104.993 40.28 105.473 40.65 105.933 40.87C106.413 41.11 106.923 41.23 107.463 41.23C108.763 41.23 109.903 40.71 110.883 39.67L113.043 42.25ZM93.9333 29.5C93.9333 30.8 94.2133 31.96 94.7733 32.98C95.3533 34 96.1433 34.8 97.1433 35.38C98.1433 35.94 99.2633 36.22 100.503 36.22C101.743 36.22 102.863 35.94 103.863 35.38C104.863 34.8 105.643 34 106.203 32.98C106.783 31.96 107.073 30.8 107.073 29.5C107.073 28.2 106.783 27.04 106.203 26.02C105.643 25 104.863 24.21 103.863 23.65C102.863 23.07 101.743 22.78 100.503 22.78C99.2633 22.78 98.1433 23.07 97.1433 23.65C96.1433 24.21 95.3533 25 94.7733 26.02C94.2133 27.04 93.9333 28.2 93.9333 29.5Z" fill="#0F172A"/>
<defs>
<clipPath id="clip0_1289_5391">
<rect width="70" height="58" fill="white" transform="translate(-0.000488281)"/>
</clipPath>
</defs>
</svg>
