<svg width="76" height="34" viewBox="0 0 115 58" fill="none" xmlns="http://www.w3.org/2000/svg">
<g clip-path="url(#clip0_1289_5344)">
<path d="M66.3362 35.2916C66.3362 36.6274 66.0876 37.9052 65.6327 39.0832C64.0762 43.1068 60.1216 45.9649 55.4872 45.9649C50.7442 45.9649 46.7139 42.9709 45.2384 38.7985C36.4764 39.4183 31.4662 35.5651 29.383 28.221C24.1206 26.8129 20.2524 22.0789 20.2524 16.4546C20.2524 12.8172 21.8714 9.55099 24.439 7.31829C26.6238 5.41522 29.4972 4.26074 32.645 4.26074C36.2514 4.26074 39.4988 5.77572 41.7607 8.19737C43.2821 7.21851 45.1001 6.65113 47.0528 6.65113C48.4156 6.65113 49.7145 6.92857 50.8915 7.4288C54.2972 8.87513 56.6919 12.1881 56.7452 16.0578C56.747 16.1031 56.747 16.1466 56.747 16.192L56.7452 16.3534V16.3551C57.2404 16.2482 57.7543 16.192 58.2832 16.192C60.6445 16.192 62.7426 17.3049 64.0649 19.0266H64.067C64.9841 20.2211 65.5276 21.709 65.5276 23.3221C65.5309 24.9951 64.9318 26.6151 63.8367 27.8948C63.7544 27.9935 63.6689 28.0896 63.5804 28.183C65.2955 30.0697 66.336 32.5618 66.336 35.2916" fill="#FF5CAA"/>
<path d="M46.9386 15.5927C44.9758 17.6916 43.7771 20.4934 43.7771 23.5708C43.7771 30.0792 49.1394 35.3556 55.754 35.3556C56.6074 35.356 57.4585 35.2671 58.2927 35.0903M32.1274 11.7886C32.4271 16.0449 36.0311 19.4063 40.4328 19.4063M53.673 17.8257C54.5632 17.0979 55.6192 16.593 56.7509 16.3542M41.7664 8.19629C40.3722 9.08964 39.2263 10.3277 38.4547 11.7886" stroke="#103849" stroke-width="1.47361" stroke-miterlimit="10" stroke-linecap="round" stroke-linejoin="round"/>
<path d="M66.3401 35.2895C66.3401 41.1852 61.4828 45.963 55.4911 45.963C50.7481 45.963 46.7178 42.9689 45.2423 38.7966C36.4803 39.4163 31.4701 35.5631 29.3869 28.2191C24.1245 26.8109 20.2563 22.0769 20.2563 16.4527C20.2563 9.71787 25.8042 4.25879 32.649 4.25879C36.2553 4.25879 39.5027 5.77377 41.7646 8.19542C43.286 7.21656 45.104 6.64918 47.0567 6.64918C52.4111 6.64918 56.7509 10.9213 56.7509 16.1901L56.7491 16.3514V16.3532C57.2443 16.2462 57.7583 16.1901 58.2871 16.1901C62.2877 16.1901 65.5315 19.3816 65.5315 23.3202C65.5315 25.1997 64.7928 26.907 63.5843 28.181C65.2994 30.0678 66.3399 32.5598 66.3399 35.2896L66.3401 35.2895Z" stroke="#103849" stroke-width="1.28933" stroke-miterlimit="10" stroke-linejoin="round"/>
<path d="M63.5873 28.1802C63.5873 28.1802 62.7463 27.3215 61.5959 26.4277M31.237 47.5372C30.7622 46.5612 30.4584 45.5133 30.3384 44.4377" stroke="#103849" stroke-width="1.47361" stroke-miterlimit="10" stroke-linecap="round" stroke-linejoin="round"/>
<path d="M52.5043 40.1145C52.8878 41.1614 53.0834 42.2659 53.0825 43.3788C53.0825 49.1025 47.9767 53.7404 41.6771 53.7404C37.006 53.7404 32.9922 51.1902 31.2314 47.5383C29.7801 48.5079 28.0392 49.0734 26.1696 49.0734C21.9776 49.0734 18.4409 46.2351 17.3321 42.3529C16.5405 42.5471 15.7276 42.6451 14.9118 42.6447C9.43564 42.6447 4.99463 38.2765 4.99463 32.8863C4.99463 28.7468 7.61569 25.209 11.3143 23.7934C11.1688 23.2008 11.0915 22.5864 11.0915 21.9557C11.0915 17.0675 15.7075 13.1055 21.4028 13.1055C24.6723 13.1055 27.5897 14.4138 29.4777 16.4511C30.9919 15.6518 32.7381 15.1934 34.5985 15.1934C40.3694 15.1934 45.0477 19.5959 45.0477 25.0259C45.0483 25.1539 45.0452 25.282 45.0384 25.4099C49.8001 26.269 53.4194 30.5719 53.4194 35.7518C53.4194 37.3087 53.0935 38.7858 52.5042 40.1143" fill="#FF5CAA"/>
<path d="M48.8043 35.2909C50.5042 36.5268 51.8048 38.1981 52.5048 40.1155M17.3326 42.3538C17.0968 41.531 16.9715 40.6628 16.9715 39.7639C16.9715 36.0953 19.0695 32.922 22.1162 31.4049M13.8975 23.1818C12.9949 23.2725 12.1292 23.481 11.3149 23.7944M29.4804 16.4539L29.4784 16.4521M29.4784 16.4521C28.1836 17.1409 27.0601 18.0799 26.1815 19.2" stroke="#103849" stroke-width="1.47361" stroke-miterlimit="10" stroke-linecap="round" stroke-linejoin="round"/>
<path d="M52.5082 40.1145C52.8917 41.1614 53.0873 42.2659 53.0864 43.3788C53.0864 49.1025 47.9806 53.7404 41.681 53.7404C37.0099 53.7404 32.9961 51.1902 31.2353 47.5383C29.784 48.5079 28.0431 49.0734 26.1736 49.0734C21.9815 49.0734 18.4448 46.2351 17.336 42.3529C16.5444 42.5471 15.7316 42.6451 14.9157 42.6447C9.43954 42.6447 4.99854 38.2765 4.99854 32.8863C4.99854 28.7468 7.6196 25.209 11.3182 23.7934C11.1727 23.2008 11.0954 22.5864 11.0954 21.9557C11.0954 17.0675 15.7114 13.1055 21.4067 13.1055C24.6762 13.1055 27.5936 14.4138 29.4816 16.4511C30.9958 15.6518 32.742 15.1934 34.6025 15.1934C40.3733 15.1934 45.0516 19.5959 45.0516 25.0259C45.0522 25.1539 45.0491 25.282 45.0424 25.4099C49.804 26.269 53.4233 30.5719 53.4233 35.7518C53.4233 37.3087 53.0974 38.7858 52.5081 40.1143L52.5082 40.1145Z" stroke="#103849" stroke-width="1.28933" stroke-miterlimit="10" stroke-linejoin="round"/>
<path d="M36.1281 28.3316C37.9627 26.4322 40.4953 25.2559 43.2913 25.2559C43.8882 25.2559 44.4722 25.3085 45.0412 25.4115M44.3851 37.7575C42.9397 39.5359 40.7159 40.6752 38.2217 40.6752C33.8657 40.6752 30.3345 37.2003 30.3345 32.9143C30.3317 31.1247 30.9602 29.3895 32.1127 28.005" stroke="#103849" stroke-width="1.47361" stroke-miterlimit="10" stroke-linecap="round" stroke-linejoin="round"/>
<path d="M41.7116 44.5171C41.7116 42.9929 41.3209 41.5595 40.632 40.307M25.2278 39.5603C26.5282 37.6645 28.5527 36.2924 30.9123 35.8267M11.1665 32.8939C12.1656 32.5044 13.2306 32.3046 14.3052 32.3049C16.0283 32.3026 17.7111 32.8173 19.1292 33.7805M27.3822 25.7511C26.8455 25.9067 26.2774 25.99 25.6895 25.99C24.129 25.992 22.6298 25.3926 21.5129 24.3203M53.268 25.3727C54.0936 24.7666 55.0965 24.4398 56.1266 24.4414C56.4128 24.4413 56.6985 24.4662 56.9803 24.5161" stroke="#103849" stroke-width="1.47361" stroke-miterlimit="10" stroke-linecap="round" stroke-linejoin="round"/>
<path d="M64.4352 28.1856C65.5625 26.8092 66.1774 25.1026 66.1774 23.3208C66.1774 19.0394 62.6382 15.5561 58.2882 15.5561C57.9842 15.5561 57.6808 15.5735 57.3799 15.6078C57.0721 10.2672 52.5598 6.01552 47.0576 6.01552C45.223 6.01552 43.4409 6.48816 41.8708 7.38695C39.4244 4.98142 36.1084 3.62857 32.6498 3.625C26.853 3.625 21.93 7.36792 20.2401 12.5258C14.7456 13.0316 10.4507 17.0674 10.4507 21.956C10.4507 22.4425 10.4939 22.9298 10.5792 23.4105C6.77931 25.0863 4.354 28.7493 4.354 32.8868C4.354 38.6172 9.09203 43.2793 14.9158 43.2793C15.5808 43.2794 16.2444 43.2183 16.8979 43.0968C18.2802 47.0182 22.0121 49.708 26.1738 49.708C27.8624 49.7092 29.5215 49.2723 30.9839 48.4415C33.0428 52.0682 37.1614 54.375 41.681 54.375C47.1837 54.375 51.8334 50.9904 53.27 46.3838C53.9927 46.5239 54.7359 46.5977 55.492 46.5977C61.8296 46.5977 66.9858 41.5248 66.9858 35.29C66.9858 32.6926 66.084 30.191 64.4352 28.1854V28.1856Z" stroke="#103849" stroke-width="2.57879" stroke-miterlimit="10" stroke-linejoin="round"/>
<path d="M32.6463 0C29.2411 0 25.9656 0.99775 23.1741 2.88518C20.7637 4.51489 18.853 6.71306 17.5909 9.29417C11.4474 10.7591 7.05497 15.6238 6.77729 21.3762C2.9748 23.974 0.666504 28.2634 0.666504 32.8867C0.666504 40.5348 6.92428 46.7721 14.6659 46.902C17.1104 50.8541 21.4681 53.3329 26.1702 53.3329C27.3714 53.3329 28.5519 53.1763 29.6968 52.8658C32.6602 56.1085 37.0141 57.9999 41.6775 57.9999C44.8365 57.9999 47.8964 57.1185 50.5266 55.4515C52.6639 54.0971 54.3859 52.3093 55.5777 50.2223C63.9062 50.1753 70.6662 43.4947 70.6662 35.29C70.6662 32.755 70.0218 30.2953 68.7907 28.096C69.4942 26.5992 69.8583 24.9697 69.8578 23.3206C69.8578 20.3337 68.6878 17.5093 66.5633 15.3679C64.8878 13.6791 62.7671 12.5635 60.4592 12.1318C59.6791 9.63998 58.1854 7.39491 56.144 5.68378C53.6074 3.55918 50.3854 2.39174 47.0543 2.39025C45.5017 2.39025 43.9434 2.64948 42.4751 3.14618C39.623 1.10854 36.1855 0 32.6463 0ZM32.6463 2.35613C36.0988 2.35613 39.4847 3.61773 42.0781 5.84513C43.6338 5.1214 45.3332 4.74623 47.054 4.74665C52.7856 4.74665 57.5982 8.84803 58.5227 14.2904C63.4738 14.4153 67.463 18.4183 67.463 23.3207C67.4613 25.0385 66.9633 26.7203 66.027 28.1701C67.4803 30.2538 68.2715 32.7469 68.2715 35.2902C68.2715 42.2249 62.5368 47.8667 55.4883 47.8667C55.0324 47.8667 54.5749 47.8423 54.1195 47.7939C52.1523 52.4662 47.1951 55.6439 41.6773 55.6439C37.1269 55.6439 32.957 53.5438 30.5104 50.0914C29.1402 50.6748 27.6632 50.9762 26.1702 50.9769C21.8202 50.9769 17.8858 48.4105 16.0742 44.4925C15.6882 44.5296 15.2999 44.548 14.9122 44.548C8.37759 44.548 3.06114 39.3169 3.06114 32.8867C3.06114 28.6178 5.43561 24.7068 9.18533 22.6758C9.16715 22.4363 9.15802 22.1962 9.15798 21.9559C9.15798 16.6819 13.4571 12.2508 19.2877 11.3635C21.4178 5.94287 26.6854 2.35613 32.6465 2.35613" fill="#F0F0F0"/>
</g>
<path d="M81.1565 19H86.0165V40H81.1565V19ZM113.71 42.25C113.03 43.09 112.2 43.73 111.22 44.17C110.26 44.61 109.2 44.83 108.04 44.83C106.48 44.83 105.07 44.49 103.81 43.81C102.55 43.15 101.11 41.97 99.4903 40.27C97.5903 40.03 95.8903 39.42 94.3903 38.44C92.9103 37.46 91.7503 36.2 90.9103 34.66C90.0903 33.1 89.6803 31.38 89.6803 29.5C89.6803 27.44 90.1703 25.59 91.1503 23.95C92.1503 22.29 93.5203 20.99 95.2603 20.05C97.0203 19.11 98.9903 18.64 101.17 18.64C103.35 18.64 105.31 19.11 107.05 20.05C108.79 20.99 110.16 22.29 111.16 23.95C112.16 25.59 112.66 27.44 112.66 29.5C112.66 31.94 111.97 34.08 110.59 35.92C109.23 37.76 107.42 39.04 105.16 39.76C105.66 40.28 106.14 40.65 106.6 40.87C107.08 41.11 107.59 41.23 108.13 41.23C109.43 41.23 110.57 40.71 111.55 39.67L113.71 42.25ZM94.6003 29.5C94.6003 30.8 94.8803 31.96 95.4403 32.98C96.0203 34 96.8103 34.8 97.8103 35.38C98.8103 35.94 99.9303 36.22 101.17 36.22C102.41 36.22 103.53 35.94 104.53 35.38C105.53 34.8 106.31 34 106.87 32.98C107.45 31.96 107.74 30.8 107.74 29.5C107.74 28.2 107.45 27.04 106.87 26.02C106.31 25 105.53 24.21 104.53 23.65C103.53 23.07 102.41 22.78 101.17 22.78C99.9303 22.78 98.8103 23.07 97.8103 23.65C96.8103 24.21 96.0203 25 95.4403 26.02C94.8803 27.04 94.6003 28.2 94.6003 29.5Z" fill="#FAFCF8"/>
<defs>
<clipPath id="clip0_1289_5344">
<rect width="70" height="58" fill="white" transform="translate(0.666504)"/>
</clipPath>
</defs>
</svg>
