<svg width="72" height="38" viewBox="0 0 72 38" fill="none" xmlns="http://www.w3.org/2000/svg">
<g clip-path="url(#clip0_1281_412)">
<path d="M41.277 23.0129C41.277 23.8651 41.1208 24.6802 40.8348 25.4317C39.8564 27.9985 37.3707 29.8218 34.4576 29.8218C31.4763 29.8218 28.943 27.9118 28.0155 25.2501C22.508 25.6455 19.3587 23.1874 18.0493 18.5024C14.7414 17.6041 12.3101 14.5841 12.3101 10.9963C12.3101 8.67584 13.3277 6.59222 14.9416 5.16791C16.3149 3.95389 18.1211 3.21741 20.0997 3.21741C22.3665 3.21741 24.4078 4.18386 25.8295 5.7287C26.7858 5.10426 27.9286 4.74231 29.156 4.74231C30.0126 4.74231 30.8291 4.9193 31.5689 5.23841C33.7096 6.16107 35.2148 8.27451 35.2484 10.7431C35.2495 10.772 35.2495 10.7998 35.2495 10.8287L35.2484 10.9317V10.9328C35.5597 10.8645 35.8827 10.8287 36.2151 10.8287C37.6994 10.8287 39.0181 11.5387 39.8493 12.637H39.8506C40.4271 13.399 40.7687 14.3482 40.7687 15.3773C40.7708 16.4445 40.3942 17.4779 39.7059 18.2943C39.6541 18.3573 39.6004 18.4186 39.5448 18.4781C40.6229 19.6818 41.2769 21.2715 41.2769 23.0129" fill="#FF5CAA"/>
<path d="M29.0936 10.443C27.8598 11.782 27.1063 13.5693 27.1063 15.5325C27.1063 19.6844 30.4769 23.0504 34.6347 23.0504C35.1711 23.0506 35.706 22.9939 36.2304 22.8811M19.7837 8.01625C19.972 10.7315 22.2374 12.8758 25.0042 12.8758M33.3266 11.8675C33.8861 11.4032 34.55 11.0811 35.2613 10.9288M25.8424 5.72461C24.9661 6.29451 24.2458 7.08432 23.7608 8.01625" stroke="#103849" stroke-width="1.68359" stroke-miterlimit="10" stroke-linecap="round" stroke-linejoin="round"/>
<path d="M41.2853 23.0097C41.2853 26.7707 38.2322 29.8186 34.4659 29.8186C31.4846 29.8186 28.9513 27.9086 28.0238 25.247C22.5163 25.6423 19.367 23.1842 18.0576 18.4992C14.7497 17.6009 12.3184 14.581 12.3184 10.9931C12.3184 6.69675 15.8056 3.21423 20.108 3.21423C22.3748 3.21423 24.4161 4.18068 25.8378 5.72553C26.7941 5.10109 27.9369 4.73914 29.1643 4.73914C32.5299 4.73914 35.2578 7.46445 35.2578 10.8256L35.2567 10.9285V10.9296C35.568 10.8614 35.891 10.8256 36.2234 10.8256C38.7381 10.8256 40.777 12.8616 40.777 15.3741C40.777 16.5731 40.3127 17.6623 39.5531 18.475C40.6312 19.6786 41.2852 21.2683 41.2852 23.0098L41.2853 23.0097Z" stroke="#103849" stroke-width="1.47304" stroke-miterlimit="10" stroke-linejoin="round"/>
<path d="M39.5536 18.4752C39.5536 18.4752 39.025 17.9275 38.3019 17.3573M19.2192 30.8237C18.9207 30.2011 18.7297 29.5326 18.6543 28.8464" stroke="#103849" stroke-width="1.68359" stroke-miterlimit="10" stroke-linecap="round" stroke-linejoin="round"/>
<path d="M32.5849 26.09C32.826 26.7578 32.9489 27.4625 32.9483 28.1724C32.9483 31.8237 29.739 34.7824 25.7792 34.7824C22.8431 34.7824 20.3201 33.1555 19.2133 30.8259C18.3011 31.4444 17.2068 31.8052 16.0317 31.8052C13.3967 31.8052 11.1736 29.9945 10.4767 27.5179C9.97907 27.6418 9.46815 27.7044 8.95532 27.7041C5.51317 27.7041 2.72168 24.9175 2.72168 21.4789C2.72168 18.8382 4.3692 16.5813 6.69404 15.6782C6.60261 15.3002 6.55398 14.9083 6.55398 14.5059C6.55398 11.3876 9.45549 8.86011 13.0354 8.86011C15.0905 8.86011 16.9243 9.69475 18.111 10.9944C19.0628 10.4845 20.1604 10.1921 21.3299 10.1921C24.9572 10.1921 27.8979 13.0005 27.8979 16.4645C27.8983 16.5462 27.8963 16.6279 27.8921 16.7095C30.8851 17.2575 33.1601 20.0025 33.1601 23.3069C33.1601 24.3001 32.9553 25.2424 32.5848 26.0899" fill="#FF5CAA"/>
<path d="M30.2718 23.0128C31.3403 23.8012 32.1578 24.8674 32.5978 26.0906M10.4896 27.5185C10.3413 26.9936 10.2626 26.4397 10.2626 25.8663C10.2626 23.526 11.5814 21.5016 13.4964 20.5338M8.33033 15.288C7.76303 15.3459 7.21884 15.4789 6.70703 15.6789M18.1253 10.9961L18.124 10.995M18.124 10.995C17.3102 11.4344 16.604 12.0334 16.0517 12.748" stroke="#103849" stroke-width="1.68359" stroke-miterlimit="10" stroke-linecap="round" stroke-linejoin="round"/>
<path d="M32.5932 26.0894C32.8343 26.7572 32.9572 27.4619 32.9566 28.1718C32.9566 31.8231 29.7473 34.7818 25.7875 34.7818C22.8514 34.7818 20.3284 33.1549 19.2216 30.8253C18.3094 31.4438 17.2151 31.8046 16.04 31.8046C13.405 31.8046 11.1819 29.9939 10.485 27.5173C9.98737 27.6412 9.47645 27.7037 8.96362 27.7035C5.52147 27.7035 2.72998 24.9169 2.72998 21.4783C2.72998 18.8376 4.3775 16.5807 6.70234 15.6776C6.61091 15.2996 6.56228 14.9077 6.56228 14.5053C6.56228 11.387 9.46379 8.8595 13.0437 8.8595C15.0988 8.8595 16.9326 9.69414 18.1193 10.9938C19.0711 10.4839 20.1687 10.1915 21.3382 10.1915C24.9655 10.1915 27.9062 12.9999 27.9062 16.4639C27.9066 16.5456 27.9046 16.6273 27.9004 16.7089C30.8934 17.2569 33.1684 20.0019 33.1684 23.3063C33.1684 24.2995 32.9636 25.2418 32.5931 26.0893L32.5932 26.0894Z" stroke="#103849" stroke-width="1.47304" stroke-miterlimit="10" stroke-linejoin="round"/>
<path d="M22.2965 18.5714C23.4497 17.3597 25.0416 16.6093 26.7991 16.6093C27.1743 16.6093 27.5413 16.6428 27.899 16.7085M27.4866 24.5844C26.5781 25.7189 25.1803 26.4457 23.6125 26.4457C20.8744 26.4457 18.6548 24.229 18.6548 21.4948C18.6531 20.3531 19.0481 19.2462 19.7725 18.363" stroke="#103849" stroke-width="1.68359" stroke-miterlimit="10" stroke-linecap="round" stroke-linejoin="round"/>
<path d="M25.8057 28.8963C25.8057 27.9239 25.5602 27.0095 25.1271 26.2105M15.4445 25.7342C16.2619 24.5247 17.5344 23.6494 19.0176 23.3523M6.60596 21.4814C7.23396 21.233 7.90337 21.1055 8.57885 21.1057C9.66193 21.1042 10.7197 21.4326 11.6111 22.047M16.7987 16.9249C16.4613 17.0241 16.1043 17.0772 15.7347 17.0772C14.7538 17.0785 13.8114 16.6962 13.1094 16.0121M33.0698 16.6834C33.5887 16.2968 34.2191 16.0883 34.8666 16.0893C35.0465 16.0892 35.2261 16.1052 35.4032 16.137" stroke="#103849" stroke-width="1.68359" stroke-miterlimit="10" stroke-linecap="round" stroke-linejoin="round"/>
<path d="M40.091 18.4803C40.7996 17.6023 41.1861 16.5136 41.1861 15.3769C41.1861 12.6457 38.9615 10.4236 36.2272 10.4236C36.0361 10.4236 35.8454 10.4347 35.6562 10.4566C35.4628 7.04967 32.6265 4.33737 29.1679 4.33737C28.0148 4.33737 26.8946 4.63888 25.9077 5.21224C24.3699 3.67768 22.2856 2.81466 20.1116 2.81238C16.4679 2.81238 13.3735 5.2001 12.3112 8.49046C8.85751 8.81313 6.1579 11.3877 6.1579 14.5063C6.1579 14.8167 6.18507 15.1275 6.23865 15.4342C3.85016 16.5032 2.32568 18.8399 2.32568 21.4794C2.32568 25.135 5.30387 28.1091 8.9645 28.1091C9.38253 28.1091 9.79965 28.0702 10.2104 27.9926C11.0793 30.4942 13.425 32.2102 16.041 32.2102C17.1024 32.2109 18.1453 31.9322 19.0645 31.4022C20.3587 33.7158 22.9475 35.1874 25.7884 35.1874C29.2472 35.1874 32.1699 33.0282 33.0729 30.0895C33.5271 30.1789 33.9943 30.226 34.4696 30.226C38.4532 30.226 41.6942 26.9899 41.6942 23.0124C41.6942 21.3555 41.1274 19.7596 40.091 18.4802V18.4803Z" stroke="#103849" stroke-width="2.94624" stroke-miterlimit="10" stroke-linejoin="round"/>
<path d="M20.1016 0.499878C17.9612 0.499878 15.9023 1.13637 14.1476 2.34043C12.6325 3.38006 11.4315 4.78235 10.6382 6.42891C6.77653 7.36345 4.01561 10.4668 3.84107 14.1364C1.45093 15.7936 0 18.53 0 21.4794C0 26.3583 3.93346 30.3372 8.79962 30.4201C10.3362 32.9413 13.0753 34.5226 16.0309 34.5226C16.7859 34.5226 17.5279 34.4227 18.2476 34.2246C20.1103 36.2932 22.847 37.4998 25.7783 37.4998C27.764 37.4998 29.6874 36.9375 31.3406 35.8741C32.6841 35.0101 33.7665 33.8696 34.5156 32.5382C39.7506 32.5082 43.9998 28.2465 43.9998 23.0125C43.9998 21.3953 43.5947 19.8262 42.821 18.4232C43.2631 17.4683 43.492 16.4288 43.4917 15.3768C43.4917 13.4714 42.7563 11.6696 41.4208 10.3036C40.3677 9.2262 39.0347 8.51452 37.584 8.23911C37.0937 6.64952 36.1547 5.21732 34.8715 4.12574C33.2771 2.77039 31.2519 2.02564 29.158 2.02469C28.1821 2.02469 27.2026 2.19006 26.2797 2.50692C24.4869 1.20705 22.3262 0.499878 20.1016 0.499878ZM20.1016 2.00293C22.2718 2.00293 24.4 2.80774 26.0302 4.22867C27.008 3.76698 28.0762 3.52765 29.1579 3.52792C32.7606 3.52792 35.7857 6.14431 36.3668 9.61616C39.4788 9.69585 41.9864 12.2495 41.9864 15.3769C41.9853 16.4727 41.6722 17.5456 41.0837 18.4705C41.9972 19.7997 42.4945 21.3901 42.4945 23.0126C42.4945 27.4365 38.8899 31.0355 34.4594 31.0355C34.1729 31.0355 33.8853 31.0199 33.5991 30.9891C32.3625 33.9697 29.2465 35.9968 25.7782 35.9968C22.918 35.9968 20.2969 34.6572 18.759 32.4547C17.8978 32.8269 16.9693 33.0192 16.0309 33.0196C13.2966 33.0196 10.8236 31.3824 9.68482 28.883C9.4422 28.9067 9.19811 28.9185 8.95445 28.9185C4.84697 28.9185 1.5052 25.5814 1.5052 21.4794C1.5052 18.756 2.99772 16.2611 5.35469 14.9655C5.34326 14.8127 5.33752 14.6595 5.3375 14.5063C5.3375 11.1418 8.03981 8.31507 11.7048 7.74899C13.0437 4.29102 16.3547 2.00293 20.1017 2.00293" fill="#F0F0F0"/>
</g>
<path d="M56.194 12.364V25H53.116V12.364H56.194ZM67.4246 27.16L65.8046 24.982C65.3246 25.078 64.8566 25.126 64.4006 25.126C63.2126 25.126 62.1206 24.85 61.1246 24.298C60.1406 23.746 59.3546 22.978 58.7666 21.994C58.1906 20.998 57.9026 19.882 57.9026 18.646C57.9026 17.41 58.1906 16.3 58.7666 15.316C59.3546 14.332 60.1406 13.564 61.1246 13.012C62.1206 12.46 63.2126 12.184 64.4006 12.184C65.5886 12.184 66.6746 12.46 67.6586 13.012C68.6546 13.564 69.4346 14.332 69.9986 15.316C70.5746 16.3 70.8626 17.41 70.8626 18.646C70.8626 19.726 70.6406 20.716 70.1966 21.616C69.7646 22.504 69.1586 23.242 68.3786 23.83L71.1506 27.16H67.4246ZM61.0526 18.646C61.0526 19.762 61.3526 20.656 61.9526 21.328C62.5646 21.988 63.3806 22.318 64.4006 22.318C65.4086 22.318 66.2126 21.982 66.8126 21.31C67.4246 20.638 67.7306 19.75 67.7306 18.646C67.7306 17.53 67.4246 16.642 66.8126 15.982C66.2126 15.31 65.4086 14.974 64.4006 14.974C63.3806 14.974 62.5646 15.304 61.9526 15.964C61.3526 16.624 61.0526 17.518 61.0526 18.646Z" fill="#FAFCF8"/>
<defs>
<clipPath id="clip0_1281_412">
<rect width="44" height="37" fill="white" transform="translate(0 0.5)"/>
</clipPath>
</defs>
</svg>
