<svg width="24" height="24" viewBox="0 0 24 24" fill="none" xmlns="http://www.w3.org/2000/svg">
<g clip-path="url(#clip0_178_16814)">
<path d="M12 24C10.3803 24 8.80886 23.6825 7.32886 23.0568C5.89967 22.4523 4.61695 21.587 3.51457 20.4854C2.41304 19.3839 1.54773 18.1003 0.943202 16.6711C0.317505 15.1911 0 13.6197 0 12C0 10.3803 0.317505 8.80886 0.943202 7.32886C1.54773 5.89967 2.41304 4.61695 3.51457 3.51457C4.6161 2.41304 5.89967 1.54773 7.32886 0.943202C8.80886 0.317505 10.3803 0 12 0C13.6197 0 15.1911 0.317505 16.6711 0.943202C18.1003 1.54773 19.3831 2.41304 20.4854 3.51457C21.587 4.6161 22.4523 5.89967 23.0568 7.32886C23.6825 8.80886 24 10.3803 24 12C24 13.6197 23.6825 15.1911 23.0568 16.6711C22.4523 18.1003 21.587 19.3831 20.4854 20.4854C19.3839 21.587 18.1003 22.4523 16.6711 23.0568C15.1911 23.6825 13.6197 24 12 24Z" fill="white"/>
<path d="M11.9999 23.3642C18.2761 23.3642 23.364 18.2763 23.364 12C23.364 5.72376 18.2761 0.635864 11.9999 0.635864C5.72364 0.635864 0.635742 5.72376 0.635742 12C0.635742 18.2763 5.72364 23.3642 11.9999 23.3642Z" fill="black"/>
<path d="M17.9865 12C17.9865 10.7825 17.6208 9.6496 16.9942 8.70301L18.8527 6.84454L17.1813 5.1732L15.3279 7.02658C14.3763 6.38734 13.2316 6.01395 12.0013 6.01395C10.7711 6.01395 9.65095 6.37972 8.70437 7.00626L6.84505 5.1478L5.17371 6.81914L7.02709 8.67253C6.38785 9.6242 6.01446 10.7689 6.01446 11.9991C6.01446 13.2294 6.38023 14.3495 7.00677 15.2961L5.14746 17.1546L6.81881 18.8259L8.67219 16.9725C9.62386 17.6118 10.7686 17.9852 11.9988 17.9852C13.229 17.9852 14.3492 17.6194 15.2958 16.9929L17.1551 18.8522L18.8264 17.1808L16.973 15.3274C17.6123 14.3758 17.9857 13.2311 17.9857 12.0008L17.9865 12ZM8.37924 12C8.37924 10.0027 10.004 8.37788 12.0013 8.37788C13.9987 8.37788 15.6234 10.0027 15.6234 12C15.6234 13.9973 13.9987 15.6221 12.0013 15.6221C10.004 15.6221 8.37924 13.9973 8.37924 12Z" fill="white"/>
<path d="M12.1295 11.5792C11.2253 11.3015 11.2253 11.1474 11.2253 11.0238C11.2253 10.8519 11.4852 10.6132 11.9746 10.6132C12.2642 10.6132 12.7501 10.6851 12.7501 11.1686H13.6307C13.6307 10.3092 12.9652 9.7326 11.9746 9.7326C10.9162 9.7326 10.3447 10.3972 10.3447 11.0229C10.3447 11.8772 11.0949 12.1812 11.8662 12.4183C12.7705 12.696 12.7764 12.8518 12.7764 12.9754C12.7764 13.1473 12.5165 13.386 12.0271 13.386C11.7375 13.386 11.2515 13.3141 11.2515 12.8306H10.371C10.371 13.69 11.0365 14.2666 12.0271 14.2666C13.0854 14.2666 13.6569 13.6019 13.6569 12.9754C13.6569 12.1202 12.9017 11.8154 12.1304 11.5784L12.1295 11.5792Z" fill="white"/>
</g>
<defs>
<clipPath id="clip0_178_16814">
<rect width="24" height="24" fill="white"/>
</clipPath>
</defs>
</svg>