<svg width="27" height="29" viewBox="0 0 27 29" fill="none" xmlns="http://www.w3.org/2000/svg">
<path d="M13 25C19.6274 25 25 19.6274 25 13C25 6.37258 19.6274 1 13 1C6.37258 1 1 6.37258 1 13C1 19.6274 6.37258 25 13 25Z" fill="black" stroke="black" stroke-width="1.64978"/>
<path d="M6.59862 5.39223L5.65625 6.3346L6.84853 7.52688L8.04341 8.71915L7.94448 9.01071C7.81693 9.39339 7.76486 9.71358 7.76486 10.1379C7.76486 11.5202 8.48856 12.6969 9.76934 13.3971C10.2848 13.6783 11.1699 13.9959 12.1513 14.2484C14.0673 14.7404 14.3614 14.8263 14.7389 15.0033C15.2543 15.248 15.5094 15.5136 15.6162 15.9145C15.663 16.0889 15.6604 16.4794 15.6136 16.6668C15.4938 17.1224 15.1059 17.5805 14.6243 17.8304C13.9735 18.1714 12.8411 18.2652 11.9873 18.0465C11.6697 17.9684 11.2193 17.7471 10.9929 17.5623C10.5321 17.1822 10.1728 16.5262 10.014 15.7687C9.98801 15.6489 9.96719 15.5474 9.96458 15.5422C9.95677 15.5318 7.29107 15.7921 7.27806 15.8077C7.26764 15.8155 7.27545 15.9249 7.29368 16.0498C7.37698 16.6512 7.58784 17.3671 7.82994 17.8643L7.97052 18.1532L6.81208 19.3117L5.65625 20.4701L6.60122 21.4151L7.54359 22.3574L8.73847 21.1625L9.93074 19.9703L10.1364 20.0562C11.2245 20.5143 12.8568 20.6575 14.4395 20.4284C14.8196 20.3738 15.3689 20.2436 15.6578 20.1369L15.8296 20.0744L16.9725 21.2172L18.1127 22.3574L19.055 21.4151L20 20.4701L18.9405 19.4106L17.8836 18.3537L18.0163 18.0829C18.2923 17.5285 18.4068 17.0573 18.4303 16.4091C18.4719 15.1725 18.1517 14.2406 17.4228 13.4726C16.6627 12.6734 15.8062 12.2934 13.3878 11.6842C11.6827 11.2573 10.9486 10.9631 10.657 10.5935C10.3681 10.229 10.342 9.71879 10.5946 9.34653C10.7403 9.13046 11.0996 8.89877 11.4901 8.76861C11.93 8.62023 12.6693 8.55255 13.2186 8.60982C14.377 8.73217 14.9602 9.22678 15.2153 10.3097C15.2465 10.4425 15.2752 10.5544 15.2778 10.5596C15.283 10.5674 17.1677 10.4998 17.7326 10.4711L18.0554 10.4555L18.0372 10.229C18.0007 9.76825 17.9096 9.35694 17.743 8.92741L17.6519 8.68531L18.8259 7.50865L20 6.3346L19.0576 5.38963L18.1127 4.44727L16.9256 5.63434L15.7359 6.82401L15.447 6.71467C14.7363 6.44914 14.049 6.332 13.0364 6.30336C11.93 6.27473 10.959 6.41791 10.2145 6.71988L9.93855 6.83182L8.74107 5.63954L7.54359 4.44727L6.59862 5.39223Z" fill="white"/>
<rect x="12" y="14" width="15" height="15" rx="7.5" fill="white"/>
<g clip-path="url(#clip0_650_3462)">
<path d="M21.0912 18.7428H20.4688V19.6827H21.0912V18.7428Z" fill="#1682FE"/>
<path d="M19.305 17H18.6826V17.9399H19.305V17Z" fill="#1682FE"/>
<path d="M17.5179 17.8963H16.8955V18.8362H17.5179V17.8963Z" fill="#60D8A4"/>
<path d="M16.6286 21.469H16V24.1516H16.6286V21.469Z" fill="#F4BB3B"/>
<path d="M16.6286 18.7864H16V21.469H16.6286V18.7864Z" fill="#60D8A4"/>
<path d="M21.9818 19.6391H21.3594V20.579H21.9818V19.6391Z" fill="#1682FE"/>
<path d="M21.9818 22.3591H21.3594V23.2989H21.9818V22.3591Z" fill="#FF5A5A"/>
<path d="M21.0912 23.2553H20.4688V24.1952H21.0912V23.2553Z" fill="#FF5A5A"/>
<path d="M19.305 24.9981H18.6826V25.938H19.305V24.9981Z" fill="#FF5A5A"/>
<path d="M17.5179 24.1019H16.8955V25.0417H17.5179V24.1019Z" fill="#F4BB3B"/>
<path d="M23.7307 20.5727V18.7864H22.8344V17.8963H21.0481V17H19.2617V17.8963H17.4754V18.7926H16.5791V24.1516H17.4754V25.0479H19.2617V25.9442H21.0481V25.0479H22.8344V24.1516H23.7307V22.3591H21.9444V23.2553H21.0481V24.1516H19.2617V23.2553H18.3717V19.6826H19.268V18.7864H21.0543V19.6826H21.9506V20.5789H23.7307V20.5727Z" fill="#3A3A3A"/>
</g>
<defs>
<clipPath id="clip0_650_3462">
<rect width="7.73049" height="8.93799" fill="white" transform="translate(16 17)"/>
</clipPath>
</defs>
</svg>
