<?xml version="1.0" standalone="no"?>
<!DOCTYPE svg PUBLIC "-//W3C//DTD SVG 20010904//EN"
 "http://www.w3.org/TR/2001/REC-SVG-20010904/DTD/svg10.dtd">
<svg version="1.0" xmlns="http://www.w3.org/2000/svg"
 width="128.000000pt" height="128.000000pt" viewBox="0 0 128.000000 128.000000"
 preserveAspectRatio="xMidYMid meet">

<g transform="translate(0.000000,128.000000) scale(0.100000,-0.100000)"
fill="#000000" stroke="none">
<path d="M505 1182 c-102 -39 -122 -51 -184 -108 -93 -86 -147 -173 -176 -282
-18 -70 -20 -209 -4 -284 33 -155 152 -310 284 -372 33 -16 71 -33 84 -40 27
-12 265 -16 277 -3 4 4 -2 14 -15 23 -57 40 -98 107 -107 178 l-6 43 -62 6
c-61 6 -61 6 -102 -35 -46 -44 -65 -43 -98 7 -19 29 -13 45 34 89 17 16 29 35
26 42 -3 7 -8 28 -11 47 -6 30 -4 35 17 40 51 14 76 8 86 -20 16 -45 49 -73
86 -73 31 0 37 5 66 57 38 67 35 72 -56 92 -77 18 -134 49 -162 91 -19 29 -23
45 -20 92 3 54 2 57 -40 99 -23 24 -42 45 -42 48 0 10 60 71 70 71 4 0 26 -20
48 -45 37 -42 41 -44 73 -35 45 13 121 13 156 -1 26 -10 31 -8 76 43 l48 53
34 -40 c19 -22 34 -43 35 -46 0 -3 -19 -26 -43 -50 -38 -40 -43 -50 -39 -82
l4 -37 -50 0 c-42 0 -52 4 -57 20 -9 29 -54 60 -87 60 -45 0 -88 -26 -88 -55
0 -33 40 -58 124 -79 38 -9 88 -30 111 -46 36 -25 50 -28 107 -28 87 2 159
-34 210 -104 l36 -48 11 50 c26 122 2 295 -56 403 -16 28 -59 83 -98 122 -54
56 -88 81 -150 110 -75 36 -87 39 -190 42 -90 3 -119 0 -160 -15z"/>
<path d="M883 523 c-7 -2 -13 -11 -13 -19 0 -9 -11 -14 -34 -14 -30 0 -34 -4
-40 -31 -3 -17 -6 -74 -6 -125 0 -77 3 -94 15 -94 8 0 15 -9 15 -20 0 -15 7
-20 25 -20 14 0 28 -7 31 -15 8 -21 84 -21 84 0 0 10 10 15 30 15 21 0 30 5
30 16 0 9 9 18 21 21 27 7 24 66 -4 71 -30 6 -67 -7 -67 -23 0 -8 -6 -15 -14
-15 -7 0 -16 -9 -19 -20 -7 -27 -47 -27 -47 0 0 11 -7 20 -15 20 -12 0 -15 15
-15 75 0 60 3 75 15 75 8 0 15 7 15 15 0 9 9 15 25 15 16 0 25 -6 25 -15 0 -8
7 -15 15 -15 8 0 15 -7 15 -15 0 -16 37 -29 67 -23 12 2 19 14 21 36 3 27 0
32 -17 32 -14 0 -21 6 -21 20 0 16 -7 20 -30 20 -23 0 -30 4 -30 20 0 16 -6
20 -32 19 -18 0 -39 -3 -45 -6z"/>
</g>
</svg>
