<svg width="24" height="24" viewBox="0 0 24 24" fill="none" xmlns="http://www.w3.org/2000/svg">
<path d="M22.7557 11.9848C22.7557 18.0743 17.9442 23.0108 12.0089 23.0108C6.07359 23.0108 1.26208 18.0743 1.26208 11.9848C1.26208 5.89526 6.07359 0.95874 12.0089 0.95874C17.9442 0.95874 22.7557 5.89526 22.7557 11.9848ZM2.37838 11.9848C2.37838 17.4417 6.6901 21.8655 12.0089 21.8655C17.3276 21.8655 21.6394 17.4417 21.6394 11.9848C21.6394 6.52779 17.3276 2.10404 12.0089 2.10404C6.6901 2.10404 2.37838 6.52779 2.37838 11.9848Z" fill="black"/>
<path d="M5.91609 18.1058C7.31427 19.4927 9.16713 20.3351 11.1523 20.4863C13.1375 20.6375 15.1294 20.088 16.7815 18.9334L16.1894 18.0749C14.7419 19.0865 12.9967 19.568 11.2573 19.4355C9.5179 19.303 7.89446 18.565 6.6694 17.3498L5.91609 18.1058Z" fill="black"/>
<path d="M4.87216 16.8396C3.78154 15.2093 3.30441 13.2368 3.52307 11.2623C3.74174 9.28783 4.64248 7.43523 6.06992 6.02405L6.80418 6.76399C5.55348 8.00043 4.76427 9.62365 4.57268 11.3536C4.38109 13.0836 4.79914 14.8119 5.75472 16.2403L4.87216 16.8396Z" fill="black"/>
<path d="M19.1 7.11898C20.2222 8.77472 20.7078 10.7889 20.4697 12.8011C20.2317 14.8133 19.2856 16.6921 17.8008 18.1013L17.0825 17.3458C18.3835 16.1111 19.2125 14.465 19.421 12.7019C19.6296 10.9389 19.2042 9.17407 18.2209 7.72334L19.1 7.11898Z" fill="black"/>
<path d="M6.98124 5.23846C8.6361 3.99805 10.6689 3.38254 12.7086 3.50428C14.7483 3.62602 16.6588 4.47689 18.0914 5.90157L17.3371 6.65667C16.0819 5.40839 14.408 4.66287 12.6208 4.55621C10.8337 4.44954 9.05262 4.98884 7.60266 6.07566L6.98124 5.23846Z" fill="black"/>
<path d="M14.6389 11.9118C15.2866 11.5799 15.6988 10.9898 15.6031 10.0087C15.4779 8.66629 14.3778 8.21634 12.9204 8.09097V6.23218H11.7869V8.03933C11.4924 8.03933 11.1906 8.04671 10.8889 8.05408V6.23218H9.75535V8.09097C9.33859 8.10359 8.85321 8.09743 7.48096 8.09097V9.30064C8.3759 9.28477 8.84548 9.22714 8.95306 9.8022V14.8917C8.88474 15.348 8.52038 15.2823 7.70912 15.2679L7.48098 16.6178C9.54774 16.6178 9.75537 16.6251 9.75537 16.6251V18.217H10.8889V16.6473C11.198 16.6546 11.4998 16.6546 11.7869 16.6546V18.217H12.9204V16.6251C14.8194 16.5219 16.0889 16.0424 16.2582 14.25C16.3907 12.8117 15.7135 12.1699 14.6389 11.9118ZM10.911 9.38177C11.5513 9.38177 13.5534 9.18264 13.5534 10.5177C13.5534 11.7938 11.5514 11.6462 10.911 11.6462V9.38177ZM10.911 15.2753V12.7822C11.6765 12.7822 14.0206 12.5683 14.0206 14.0288C14.0206 15.4376 11.6765 15.2753 10.911 15.2753Z" fill="#D1A333"/>
</svg>
